<?xml version="1.0" encoding="UTF-8"?>
<svg id="Layer_1" xmlns="http://www.w3.org/2000/svg" version="1.1" viewBox="0 0 1222 672.96">
  <!-- Generator: Adobe Illustrator 29.3.1, SVG Export Plug-In . SVG Version: 2.1.0 Build 151)  -->
  <defs>
    <style>
      .st0 {
        fill: #51bcad;
      }

      .st1 {
        fill: #4a84c4;
      }

      .st2 {
        fill: #efefef;
      }

      .st3 {
        font-size: 26.9px;
      }

      .st3, .st4, .st5 {
        fill: #fff;
      }

      .st3, .st4, .st5, .st6 {
        font-family: LINESeedSansTH-Bold, 'LINE Seed Sans TH';
        font-weight: 700;
      }

      .st7 {
        fill: #008e7e;
      }

      .st4 {
        font-size: 24.98px;
      }

      .st5 {
        font-size: 30.74px;
      }

      .st6 {
        fill: #606060;
        font-size: 28.82px;
      }
    </style>
  </defs>
  <rect class="st1" x="1" y="51.85" width="1220" height="110.45" rx="55.22" ry="55.22"/>
  <text class="st5" transform="translate(271.78 96.78)"><tspan x="0" y="0">โยเกิร์ต บัตเตอร์มิลค์ นมและครีมชนิดเคอร์เดิล เคเฟอร์</tspan><tspan x="30.24" y="42.27">รวมทั้งนมและครีมที่หมักหรือทำให้เปรี้ยวอย่างอื่น</tspan></text>
  <text class="st6" transform="translate(379.24 212.53)"><tspan x="0" y="0">รหัสสินค้า (HS Code) : 03.03.XX.XX</tspan></text>
  <g>
    <path class="st7" d="M695.35,241.22H51.98c-25.69,0-46.51,20.19-46.51,45.11v60.58h750.77v-46.64c0-32.61-27.26-59.05-60.89-59.05Z"/>
    <rect class="st2" x="5.47" y="416.43" width="1211.06" height="66.55"/>
    <rect class="st2" x="5.47" y="485.49" width="1211.06" height="66.55"/>
    <rect class="st2" x="5.47" y="554.56" width="1211.06" height="66.55"/>
    <path class="st0" d="M5.47,346.64h1198.06c7.17,0,13,5.83,13,13v53.9H5.47v-66.9h0Z"/>
    <text class="st4" transform="translate(43.65 387.98)"><tspan x="0" y="0">กิจกรรม</tspan></text>
    <text class="st4" transform="translate(531.69 387.98)"><tspan x="0" y="0">ผู้ดำเนินการ</tspan></text>
    <text class="st4" transform="translate(998.6 387.98)"><tspan x="0" y="0">อ่านเพิ่มเติม</tspan></text>
    <text class="st3" transform="translate(43.66 285.58)"><tspan x="0" y="0">กฎระเบียบของประเทศผู้ส่งออก (ภายในประเทศไทย) และ</tspan><tspan x="0" y="40.35">การขอใบอนุญาต / ใบรับรองจากหน่วยงานที่ควบคุม</tspan></text>
  </g>
</svg>