<?xml version="1.0" encoding="UTF-8"?>
<svg id="Layer_1" xmlns="http://www.w3.org/2000/svg" version="1.1" viewBox="0 0 1222 672.96">
  <!-- Generator: Adobe Illustrator 29.3.1, SVG Export Plug-In . SVG Version: 2.1.0 Build 151)  -->
  <defs>
    <style>
      .st0 {
        fill: #4a84c4;
      }

      .st1 {
        fill: #efefef;
      }

      .st2 {
        font-size: 26.9px;
      }

      .st2, .st3, .st4 {
        fill: #fff;
      }

      .st2, .st3, .st4, .st5 {
        font-family: LINESeedSansTH-Bold, 'LINE Seed Sans TH';
        font-weight: 700;
      }

      .st6 {
        fill: #629dd3;
      }

      .st3 {
        font-size: 24.98px;
      }

      .st4 {
        font-size: 30.74px;
      }

      .st5 {
        fill: #606060;
        font-size: 28.82px;
      }
    </style>
  </defs>
  <rect class="st0" x="1" y="33.23" width="1220" height="110.45" rx="55.22" ry="55.22"/>
  <text class="st4" transform="translate(271.78 78.15)"><tspan x="0" y="0">โยเกิร์ต บัตเตอร์มิลค์ นมและครีมชนิดเคอร์เดิล เคเฟอร์</tspan><tspan x="30.24" y="42.27">รวมทั้งนมและครีมที่หมักหรือทำให้เปรี้ยวอย่างอื่น</tspan></text>
  <text class="st5" transform="translate(379.24 193.9)"><tspan x="0" y="0">รหัสสินค้า (HS Code) : 03.03.XX.XX</tspan></text>
  <g>
    <path class="st0" d="M496.7,222.59H51.98c-25.69,0-46.51,20.19-46.51,45.11v30.41h552.11v-16.47c0-32.61-27.26-59.05-60.89-59.05Z"/>
    <rect class="st1" x="5.47" y="365.99" width="1211.06" height="66.55"/>
    <rect class="st1" x="5.47" y="435.06" width="1211.06" height="66.55"/>
    <rect class="st1" x="5.47" y="504.12" width="1211.06" height="66.55"/>
    <rect class="st1" x="5.47" y="573.19" width="1211.06" height="66.55"/>
    <path class="st6" d="M5.47,296.21h1198.06c7.17,0,13,5.83,13,13v53.9H5.47v-66.9h0Z"/>
    <text class="st3" transform="translate(43.65 337.55)"><tspan x="0" y="0">กิจกรรม</tspan></text>
    <text class="st3" transform="translate(531.83 337.55)"><tspan x="0" y="0">ผู้ดำเนินการ</tspan></text>
    <text class="st3" transform="translate(998.6 337.55)"><tspan x="0" y="0">อ่านเพิ่มเติม</tspan></text>
    <text class="st2" transform="translate(43.65 270.79)"><tspan x="0" y="0">ขั้นตอนดำเนินการเตรียมส่งออกสินค้า</tspan></text>
  </g>
</svg>