<?xml version="1.0" encoding="UTF-8"?>
<svg id="Layer_1" xmlns="http://www.w3.org/2000/svg" version="1.1" viewBox="0 0 300 200">
  <!-- Generator: Adobe Illustrator 29.3.1, SVG Export Plug-In . SVG Version: 2.1.0 Build 151)  -->
  <defs>
    <style>
      .st0 {
        fill: #fff;
      }

      .st1 {
        fill: #fef5a2;
      }
    </style>
  </defs>
  <path class="st0" d="M187.41,66.58c-7.6-3.58-16.1-3.89-24.04-6.26-3.35-.97-6.77-2.15-9.92-3.65-1.94-.99-3.9-2.04-5.45-3.57-.02-.02-.04-.04-.06-.06-.02-.02-.04-.05-.07-.08-.02-.02-.04-.05-.06-.07v.02c-.46-.54-1.83-2.23-3.53-5.29-.05-.17-.12-.27-.12-.27l-.12.27c-1.7,3.06-3.07,4.75-3.54,5.29v-.02s-.03.05-.05.07c-.03.03-.05.06-.07.08-.02.02-.04.04-.06.06-1.55,1.53-3.51,2.58-5.45,3.57-3.15,1.49-6.57,2.68-9.92,3.65-7.93,2.37-16.44,2.69-24.04,6.26-8.39,3.71-15.81,11.23-17.01,20.61,4.23-11.16,15.26-17.61,26.75-18.86,9.14-.82,18.41-1.71,27.08-5.11,2-.83,4.57-1.76,6.39-2.96l6.46,2.96c8.68,3.4,17.94,4.28,27.08,5.11,11.49,1.24,22.52,7.7,26.75,18.86-1.2-9.38-8.62-16.9-17.01-20.61Z"/>
  <g>
    <g>
      <path class="st1" d="M122.66,86.48h-3.28v-11.65h3.28v11.65ZM126.24,81.88h-3.88v-2.4h3.88v2.4ZM125.94,74.84h3.28v11.65h-3.28v-11.65Z"/>
      <path class="st1" d="M135.03,86.75c-1.11,0-1.91-.25-2.41-.74-.5-.49-.75-1.27-.75-2.34,0-.58.08-1.07.25-1.46.17-.39.44-.7.82-.94.38-.24.89-.4,1.55-.5.65-.1,1.46-.15,2.43-.15h1.06v1.71h-1.75c-.51,0-.86.06-1.05.18-.19.12-.29.34-.29.66v1.32h1.19c.51,0,.86-.06,1.05-.17.19-.11.29-.32.29-.63v-4.25c-.26-.07-.65-.11-1.17-.11s-1.1.04-1.69.11-1.21.2-1.87.37l-.39-2.29c.43-.14.89-.25,1.36-.34.47-.09.96-.16,1.46-.21.5-.04,1-.07,1.5-.07.96,0,1.73.11,2.33.33.6.22,1.04.55,1.32,1.01.29.45.43,1.05.43,1.78v6.47h-1.62l-.84-.93c-.46.39-.96.68-1.5.89-.54.21-1.11.31-1.71.31Z"/>
      <path class="st1" d="M147,84.14c.17.02.34.05.48.07s.29.03.43.05l-.17,2.22c-.34.09-.66.15-.97.21-.31.05-.61.07-.89.07-.73,0-1.28-.15-1.63-.46-.35-.3-.53-.78-.53-1.43v-10.49l3.28-.28v10.05Z"/>
      <path class="st1" d="M152.93,86.75c-1.11,0-1.91-.25-2.41-.74-.5-.49-.75-1.27-.75-2.34,0-.58.08-1.07.25-1.46.17-.39.44-.7.82-.94.38-.24.89-.4,1.55-.5.65-.1,1.46-.15,2.43-.15h1.06v1.71h-1.75c-.51,0-.86.06-1.05.18-.19.12-.29.34-.29.66v1.32h1.19c.51,0,.86-.06,1.05-.17.19-.11.29-.32.29-.63v-4.25c-.26-.07-.65-.11-1.17-.11s-1.1.04-1.69.11-1.21.2-1.87.37l-.39-2.29c.43-.14.89-.25,1.36-.34.47-.09.96-.16,1.46-.21.5-.04,1-.07,1.5-.07.96,0,1.73.11,2.33.33.6.22,1.04.55,1.32,1.01.29.45.43,1.05.43,1.78v6.47h-1.62l-.84-.93c-.46.39-.96.68-1.5.89-.54.21-1.11.31-1.71.31Z"/>
      <path class="st1" d="M164.89,84.14c.17.02.34.05.48.07s.29.03.43.05l-.17,2.22c-.34.09-.66.15-.97.21-.31.05-.61.07-.89.07-.73,0-1.28-.15-1.63-.46-.35-.3-.53-.78-.53-1.43v-10.49l3.28-.28v10.05Z"/>
    </g>
    <g>
      <path class="st0" d="M122.66,86.48h-3.28v-11.65h3.28v11.65ZM126.24,81.88h-3.88v-2.4h3.88v2.4ZM125.94,74.84h3.28v11.65h-3.28v-11.65Z"/>
      <path class="st0" d="M135.03,86.75c-1.11,0-1.91-.25-2.41-.74-.5-.49-.75-1.27-.75-2.34,0-.58.08-1.07.25-1.46.17-.39.44-.7.82-.94.38-.24.89-.4,1.55-.5.65-.1,1.46-.15,2.43-.15h1.06v1.71h-1.75c-.51,0-.86.06-1.05.18-.19.12-.29.34-.29.66v1.32h1.19c.51,0,.86-.06,1.05-.17.19-.11.29-.32.29-.63v-4.25c-.26-.07-.65-.11-1.17-.11s-1.1.04-1.69.11-1.21.2-1.87.37l-.39-2.29c.43-.14.89-.25,1.36-.34.47-.09.96-.16,1.46-.21.5-.04,1-.07,1.5-.07.96,0,1.73.11,2.33.33.6.22,1.04.55,1.32,1.01.29.45.43,1.05.43,1.78v6.47h-1.62l-.84-.93c-.46.39-.96.68-1.5.89-.54.21-1.11.31-1.71.31Z"/>
      <path class="st0" d="M147,84.14c.17.02.34.05.48.07s.29.03.43.05l-.17,2.22c-.34.09-.66.15-.97.21-.31.05-.61.07-.89.07-.73,0-1.28-.15-1.63-.46-.35-.3-.53-.78-.53-1.43v-10.49l3.28-.28v10.05Z"/>
      <path class="st0" d="M152.93,86.75c-1.11,0-1.91-.25-2.41-.74-.5-.49-.75-1.27-.75-2.34,0-.58.08-1.07.25-1.46.17-.39.44-.7.82-.94.38-.24.89-.4,1.55-.5.65-.1,1.46-.15,2.43-.15h1.06v1.71h-1.75c-.51,0-.86.06-1.05.18-.19.12-.29.34-.29.66v1.32h1.19c.51,0,.86-.06,1.05-.17.19-.11.29-.32.29-.63v-4.25c-.26-.07-.65-.11-1.17-.11s-1.1.04-1.69.11-1.21.2-1.87.37l-.39-2.29c.43-.14.89-.25,1.36-.34.47-.09.96-.16,1.46-.21.5-.04,1-.07,1.5-.07.96,0,1.73.11,2.33.33.6.22,1.04.55,1.32,1.01.29.45.43,1.05.43,1.78v6.47h-1.62l-.84-.93c-.46.39-.96.68-1.5.89-.54.21-1.11.31-1.71.31Z"/>
      <path class="st0" d="M164.89,84.14c.17.02.34.05.48.07s.29.03.43.05l-.17,2.22c-.34.09-.66.15-.97.21-.31.05-.61.07-.89.07-.73,0-1.28-.15-1.63-.46-.35-.3-.53-.78-.53-1.43v-10.49l3.28-.28v10.05Z"/>
    </g>
  </g>
  <path class="st0" d="M101.25,131.97c.08-.04.17-.08.25-.12.2-.1.45-.21.65-.1.36.19.17.74-.07,1.07-4.9,6.67-12.86,10.8-21.08,11.81-8.22,1.02-16.64-.89-24.07-4.57-3.66-1.81-7.11-4.04-10.85-5.67-3.75-1.62-7.92-2.62-11.92-1.79,1.31-1.85,3.52-2.9,5.75-3.33,2.23-.43,4.52-.31,6.79-.27.27,0,.57,0,.76-.2.18-.18.19-.47.19-.73,0-14.34,0-28.67.01-43.01,0-1.94-.1-4.11-1.51-5.43-.75-.7-1.75-1.03-2.71-1.34-.35-.11-.68-.19-.75-.6-.05-.28.07-.62.31-.79.36-.26,1-.13,1.42-.13.62,0,1.25,0,1.87,0,1.25,0,2.5,0,3.75-.01,5-.01,10-.02,14.99-.02,3.9,0,7.8,0,11.7.02.29,0,.62.01.83.22.2.2.22.52.23.81.05,2.6.02,5.19-.09,7.79-.85-.24-1.33-1.11-1.81-1.86-2.66-4.13-8.32-6.04-12.93-4.34-1,.37-1.99.91-2.61,1.78-.88,1.22-.91,2.83-.9,4.33.01,4.89.03,9.77.04,14.66.02.16-.3.04-.23-.11s.28-.15.45-.13c1.97.26,3.99.57,5.93.1,1.93-.46,3.79-1.9,4.07-3.87.06-.41.06-.86.28-1.21s.81-.5,1.05-.16c.1.15.11.35.11.53,0,3.93,0,7.86,0,11.79,0,.19,0,.39-.11.54-.25.37-.87.2-1.1-.18s-.21-.85-.27-1.29c-.2-1.42-1.29-2.59-2.58-3.21-1.29-.62-2.75-.76-4.18-.78-1.15-.01-2.3.05-3.43.19,0,8.85,0,17.71,0,26.56,0,.55.01,1.14.32,1.59.38.55,1.08.75,1.72.91,6.61,1.66,13.27,3.32,20.07,3.78,6.71.46,13.64-.31,19.68-3.25Z"/>
  <path class="st0" d="M82.42,123.06c.14-.14.34-.37.59-.68s.54-.67.86-1.07c.32-.41.67-.84,1.04-1.31.37-.47.73-.94,1.09-1.41.83-1.1,1.75-2.29,2.76-3.58-1.15-1.96-2.21-3.77-3.18-5.44-.43-.72-.86-1.43-1.29-2.15-.43-.72-.84-1.39-1.23-2.02-.39-.63-.75-1.2-1.06-1.7-.31-.5-.56-.89-.75-1.18-.45-.64-.88-1.22-1.27-1.72s-.81-.95-1.23-1.34c-.43-.39-.89-.73-1.38-1-.49-.27-1.04-.49-1.66-.66-.19-.05-.33-.13-.41-.25-.08-.12-.12-.24-.11-.38.01-.13.07-.24.18-.34.11-.1.26-.14.45-.14h18.39c.17,0,.31.05.43.14.12.1.19.21.21.34.02.13,0,.26-.07.39-.07.13-.21.22-.43.27-.36.1-.72.23-1.09.39-.37.17-.67.41-.89.73-.23.32-.35.75-.38,1.29-.02.54.13,1.22.47,2.06.21.53.48,1.1.81,1.74.32.63.64,1.22.95,1.77.36.64.73,1.29,1.11,1.93.62-.81,1.19-1.57,1.72-2.29.45-.62.88-1.23,1.29-1.82.41-.6.67-1.04.79-1.32.31-.83.46-1.52.45-2.06-.01-.54-.14-.97-.38-1.29-.24-.32-.54-.57-.89-.73s-.72-.3-1.07-.39c-.21-.05-.36-.14-.43-.27-.07-.13-.1-.26-.07-.39.02-.13.09-.24.2-.34s.26-.14.45-.14h10.16c.36,0,.56.14.61.43.05.29-.12.51-.5.68-1.05.5-1.95,1.08-2.7,1.74s-1.57,1.5-2.45,2.52c-.14.17-.34.41-.59.72-.25.31-.53.66-.84,1.06-.31.39-.64.82-.98,1.27-.35.45-.69.89-1.02,1.32-.79,1.05-1.65,2.17-2.58,3.36,1.26,2.15,2.43,4.14,3.51,5.98.45.79.91,1.57,1.38,2.34.47.78.89,1.49,1.29,2.15.39.66.75,1.24,1.06,1.74.31.5.54.86.68,1.07.86,1.29,1.72,2.31,2.58,3.06.86.75,1.88,1.31,3.08,1.66.19.07.33.17.41.29.08.12.11.24.09.36-.02.12-.09.23-.2.32s-.25.14-.41.14h-18.79c-.19,0-.34-.05-.45-.14s-.17-.21-.2-.34c-.02-.13,0-.26.07-.39.07-.13.21-.22.43-.27.36-.1.74-.22,1.14-.38.41-.15.74-.4,1-.73.26-.33.42-.77.48-1.31.06-.54-.07-1.22-.38-2.06-.12-.33-.36-.85-.73-1.54-.37-.69-.75-1.38-1.13-2.08-.45-.81-.94-1.68-1.47-2.61-.72.93-1.37,1.8-1.97,2.61-.26.36-.52.72-.77,1.07-.25.36-.48.7-.7,1.02-.21.32-.41.61-.57.88-.17.26-.29.48-.36.64-.38.84-.54,1.52-.48,2.04.06.52.23.95.52,1.29.29.33.64.58,1.06.75.42.17.81.3,1.16.39.21.05.36.14.43.27.07.13.1.26.07.39-.02.13-.1.25-.21.34s-.26.14-.43.14h-11.99c-.36,0-.56-.15-.61-.45-.05-.3.12-.52.5-.66,1.29-.43,2.49-1.04,3.6-1.82s2.2-1.75,3.27-2.9Z"/>
  <polygon class="st0" points="193.95 86.13 198.37 83.78 194.51 86.96 199.49 86.47 194.7 87.93 199.49 89.39 194.51 88.91 198.37 92.09 193.95 89.73 196.31 94.15 193.13 90.28 193.61 95.27 192.15 90.48 190.69 95.27 191.18 90.28 188 94.15 190.35 89.73 185.93 92.09 189.8 88.91 184.82 89.39 189.61 87.93 184.82 86.47 189.8 86.96 185.93 83.78 190.35 86.13 188 81.71 191.18 85.58 190.69 80.6 192.15 85.39 193.61 80.6 193.13 85.58 196.31 81.71 193.95 86.13"/>
  <path class="st0" d="M136.02,95.8c1.91,0,3.58.25,5.01.75,1.43.5,2.67,1.18,3.7,2.04,1.04.86,1.9,1.84,2.58,2.93.68,1.1,1.22,2.25,1.61,3.47s.67,2.43.82,3.65c.15,1.22.23,2.36.23,3.44,0,2.7-.33,5.13-.98,7.3-.66,2.17-1.65,4.03-2.97,5.58-1.32,1.55-2.99,2.74-4.99,3.58-2,.83-4.34,1.25-7.01,1.25-1.5,0-2.8-.09-3.9-.27-1.1-.18-2-.38-2.72-.61-.72-.23-1.26-.43-1.63-.63-.37-.19-.57-.31-.59-.36-.12-.09-.23-.12-.34-.07-.11.05-.16.13-.16.25v11.09c0,.98.21,1.77.63,2.36.42.6.89,1.07,1.43,1.41s1.06.59,1.57.73c.51.14.86.23,1.06.25.19.05.33.13.41.23.08.11.11.22.09.34-.02.12-.09.23-.2.32-.11.1-.26.14-.45.14h-18.75c-.19,0-.34-.05-.45-.14-.11-.1-.17-.2-.2-.32-.02-.12,0-.23.09-.34.08-.11.22-.18.41-.23.19-.02.54-.11,1.06-.25.51-.14,1.04-.39,1.57-.73.54-.35,1.01-.82,1.43-1.41.42-.6.63-1.38.63-2.36v-36c0-.31-.14-.5-.43-.57-.05,0-.22-.04-.52-.11-.3-.07-.64-.15-1.02-.25-.38-.1-.73-.18-1.06-.25-.32-.07-.52-.12-.59-.14-.31-.07-.47-.23-.48-.48-.01-.25.16-.42.52-.52.93-.21,1.94-.51,3.02-.88,1.09-.37,2.18-.79,3.27-1.25,1.1-.47,2.16-.97,3.18-1.5,1.03-.54,1.94-1.08,2.76-1.63.21-.14.43-.2.66-.18.23.02.34.2.34.54v4.62c0,.17.06.27.18.32.12.05.23.01.32-.11.21-.26.57-.67,1.07-1.23.5-.56,1.19-1.12,2.06-1.68.87-.56,1.94-1.05,3.22-1.47,1.28-.42,2.77-.63,4.49-.63ZM139.6,113.76c0-.55,0-1.26-.02-2.15-.01-.88-.08-1.84-.21-2.86-.13-1.03-.34-2.06-.63-3.11-.29-1.05-.7-1.99-1.25-2.83-.55-.83-1.25-1.52-2.11-2.06-.86-.54-1.92-.81-3.18-.81-1.62,0-2.92.3-3.9.89-.98.6-1.73,1.32-2.25,2.18-.52.86-.87,1.77-1.04,2.74-.17.97-.25,1.82-.25,2.56v9.66c0,.91.1,1.92.3,3.04.2,1.12.57,2.18,1.09,3.19.52,1,1.24,1.84,2.15,2.52.91.68,2.06,1.02,3.47,1.02s2.61-.36,3.6-1.07c.99-.72,1.8-1.7,2.43-2.95.63-1.25,1.09-2.73,1.38-4.44.29-1.71.43-3.55.43-5.53Z"/>
  <g>
    <polygon class="st0" points="171.75 102.73 179.11 106.95 179.81 108.6 179.82 108.6 179.82 106.07 171.75 101.42 163.68 106.07 163.68 108.6 171.75 103.71 171.75 102.73"/>
    <rect class="st0" x="170.72" y="97.36" width="2.07" height="1.73"/>
    <polygon class="st0" points="171.75 100.19 176.89 102.99 177.39 104.1 177.39 104.1 177.39 102.42 171.75 99.33 166.11 102.42 166.11 104.1 171.75 100.85 171.75 100.19"/>
    <path class="st0" d="M155.35,122.54c.23,0,.44-.03.64-.07.96-.22,1.55-.88,1.64-.99.13-.16,1.02-1.23,2.55-1.29.05,0,.1,0,.14,0,1.4,0,2.29.86,2.44,1.01.26.24,1.06.93,2.29,1.03.1,0,.2.01.29.01,1.63,0,2.71-1.11,2.85-1.27.03-.03.06-.06.1-.09.36-.33.94-.77,1.76-1.07,0,0,.01,0,.02,0,.54-.2,1.11-.29,1.68-.29s1.14.1,1.68.29c0,0,.01,0,.02,0,.9.33,1.52.84,1.86,1.16.15.16,1.22,1.27,2.85,1.27.1,0,.19,0,.29-.01,1.23-.1,2.03-.79,2.29-1.03.15-.15,1.04-1.01,2.44-1.01.05,0,.09,0,.14,0,1.53.06,2.42,1.13,2.55,1.29.1.11.68.77,1.64.99.2.04.41.07.64.07h.02c.32,0,.6-.06.85-.15,1.41-2.69,2.22-5.74,2.22-8.99,0-10.73-8.7-19.43-19.43-19.43s-19.43,8.7-19.43,19.43c0,3.26.81,6.33,2.23,9.03.22.06.45.1.72.11h.02ZM171.75,96.87c9.01,0,16.32,7.3,16.32,16.32,0,2.28-.47,4.45-1.31,6.42-.16.02-.32.03-.48.03-.04,0-.09,0-.13,0-1.55-.05-2.56-.94-2.81-1.18-.24-.22-.76-.65-1.55-.8-.18-.03-.36-.05-.54-.05-1.19,0-2.06.73-2.19.85-.22.18-.95.75-2.03.77-.02,0-.03,0-.05,0-1.21,0-2.03-.7-2.33-1-.17-.17-.35-.32-.54-.45-.47-.31-1.26-.72-2.28-.72-.02,0-.04,0-.07,0v-9.95c.8.78,1.86,1.67,3.23,2.5,2.39,1.45,4.71,2.13,6.22,2.46-.01.79-.1,1.15-.32,2.16-.29,1.29-.72,2.4-1.18,3.3,1.89-2.02,3.17-4.46,3.6-7.13-4.73-.78-8.82-3.05-11.56-6.19-2.74,3.14-6.83,5.41-11.56,6.19.56,3.48,2.57,6.57,5.5,8.85-.33-.06-.62-.17-.86-.27-.32-.14-.61-.34-.87-.58-.32-.29-.99-.78-1.96-.8-.02,0-.05,0-.07,0-1.16,0-1.93.69-2.2.98-.16.17-.33.32-.52.45-.4.27-1.05.6-1.87.6-.14,0-.29,0-.44-.03-.07,0-.13-.02-.19-.03-.83-1.95-1.28-4.1-1.28-6.35,0-9.01,7.3-16.32,16.32-16.32Z"/>
    <path class="st0" d="M185.71,124.69c-.18-.06-.36-.12-.53-.2-.56-.24-.91-.52-1.61-.6-.14-.02-.27-.02-.39-.02-.44,0-.78.09-.98.14-.9.23-1.1.59-2.03.99-.12.05-.87.37-1.73.46-.13.01-.31.03-.51.03-.6,0-1.47-.11-2.49-.61,1.28.95,2.38,1.12,2.96,1.15.1,0,.2,0,.29,0,.52,0,.99-.08,1.35-.14,1.33-.22,1.72-.58,2.5-.58.04,0,.09,0,.13,0,.4.02,1,.14,1.73.63-3.38,2.95-7.8,4.74-12.64,4.74s-9.26-1.79-12.64-4.74c.73-.49,1.33-.61,1.73-.63.05,0,.09,0,.13,0,.78,0,1.17.35,2.5.58.35.06.82.14,1.35.14.1,0,.19,0,.29,0,.58-.03,1.68-.21,2.96-1.15-1.02.5-1.9.61-2.49.61-.2,0-.37-.01-.51-.03-.86-.09-1.61-.41-1.74-.46-.93-.4-1.13-.76-2.03-.99-.2-.05-.54-.14-.98-.14-.12,0-.26,0-.39.02-.7.08-1.04.36-1.61.6-.18.08-.35.14-.53.2-.55.18-1.1.26-1.53.26-.02,0-.03,0-.06,0,3.54,4.78,9.2,7.89,15.61,7.89s12.07-3.12,15.61-7.9c-.06,0-.11.02-.18.02-.43,0-.98-.09-1.53-.26Z"/>
  </g>
  <path class="st0" d="M246.38,122.81c.43-.21.74-.19.93.07.19.26.2.54.04.82-.43.76-.97,1.46-1.63,2.09-.66.63-1.4,1.18-2.24,1.65-.83.46-1.75.82-2.74,1.07-.99.25-2.03.38-3.13.38-1.19,0-2.37-.16-3.54-.47-1.17-.31-2.22-.86-3.15-1.66-.93-.8-1.69-1.88-2.27-3.26-.58-1.37-.88-3.12-.88-5.24v-16.77c0-.19-.1-.29-.29-.29h-.93c-.57,0-.93-.04-1.06-.11-.13-.07-.2-.23-.2-.47,0-.31.14-.64.41-.98s.61-.52,1.02-.52h.79c.17,0,.25-.09.25-.29v-8.55c0-.52.21-.82.64-.89.6-.12,1.23-.28,1.91-.48.68-.2,1.37-.44,2.08-.72.7-.27,1.4-.57,2.08-.89.68-.32,1.31-.66,1.88-1.02.26-.14.51-.17.73-.07.23.1.34.33.34.72v11.95c0,.17.1.25.29.25h6.73c.57,0,.92.04,1.06.11.13.07.2.23.2.46,0,.31-.17.64-.5.98-.33.35-.7.52-1.11.52h-6.41c-.17,0-.25.08-.25.25v18.67c0,.64.11,1.21.34,1.7.23.49.52.91.89,1.25.37.35.8.6,1.29.77.49.17.98.25,1.49.25,1.03,0,1.98-.15,2.86-.45.88-.3,1.57-.58,2.08-.84Z"/>
  <path class="st0" d="M224.06,101.89c-.32-1.38-1.04-2.68-2.07-3.66-2.15-2.03-5.42-2.67-8.27-1.89-2.85.78-5.25,2.87-6.71,5.44-.02-1.61-.03-4.08-.05-5.68,0-.12,0-.24-.06-.35-.19-.32-.68-.16-1,.04-3.69,2.32-7.75,4.07-11.97,5.15-.34.09-.77.29-.72.64.04.28.38.41.66.47.92.21,1.83.43,2.75.64.2.05.41.1.54.26.14.17.14.4.14.62,0,6.28,0,12.57.01,18.85,0,1.77-.18,3.87-1.7,4.76-.61.36-1.37.36-1.97.7-.74.42-.62,1.01.31,1.01,5.45,0,10.89,0,16.34,0,.4,0,.94-.13.94-.53,0-.38-.5-.52-.88-.58-1.24-.21-2.4-.98-2.93-2.12-.41-.88-.42-1.89-.42-2.86,0-5.32,0-9.77-.01-15.08,0-.73,0-1.48.26-2.16.49-1.28,1.77-2.07,3.04-2.58,2.31-.92,4.88-1.22,7.31-.66,2.42.55,4.66,1.98,6.05,4.04.68-1.38.79-2.97.44-4.46Z"/>
</svg>