<?xml version="1.0" encoding="UTF-8"?>
<svg id="Layer_1" xmlns="http://www.w3.org/2000/svg" version="1.1" viewBox="0 0 390 150">
  <!-- Generator: Adobe Illustrator 29.4.0, SVG Export Plug-In . SVG Version: 2.1.0 Build 152)  -->
  <defs>
    <style>
      .st0 {
        fill: #4a84c4;
      }

      .st1 {
        fill: #c5e3bf;
      }

      .st2 {
        fill: #fff;
      }
    </style>
  </defs>
  <path class="st0" d="M102.69.26c-15.83,0-28.86,12.01-30.48,27.41C70.18,12.2,56.96.26,40.94.26H0v149.74h390V.26H102.69Z"/>
  <g>
    <path class="st1" d="M24.19,72.37h341.63c5.62,0,10.17,4.55,10.17,10.17h0c0,5.61-4.55,10.17-10.17,10.17H24.19c-5.62,0-10.17-4.55-10.17-10.17h0c0-5.61,4.55-10.17,10.17-10.17Z"/>
    <g>
      <path class="st0" d="M24.18,80.12c1.38,0,2.14.71,2.14,2.02v3.15c0,.07-.05.12-.12.12h-1c-.07,0-.12-.05-.12-.12v-3.15c0-.61-.37-.96-1.03-.96h-1.09v4.11c0,.07-.05.12-.12.12h-1c-.07,0-.12-.05-.12-.12v-5.05c0-.07.05-.12.12-.12,0,0,2.34,0,2.34,0Z"/>
      <path class="st0" d="M29.71,85.41c-.07,0-.12-.05-.12-.12v-3.37c0-.5-.24-.79-.66-.79-.32,0-.55.17-.67.48-.03.07-.09.1-.16.08l-.85-.24c-.07-.02-.11-.08-.08-.16.28-.82.94-1.28,1.83-1.28,1.13,0,1.82.75,1.82,1.95v3.32c0,.07-.05.12-.12.12h-1,.01Z"/>
      <path class="st0" d="M31.79,84.17c-.03-.08,0-.14.08-.16l.87-.18c.07-.02.11,0,.15.07.19.35.49.57.94.57s.71-.2.71-.53c0-.27-.17-.5-.72-.62l-.3-.07c-1.07-.23-1.58-.81-1.58-1.68,0-.97.73-1.57,1.88-1.57.99,0,1.6.41,1.9,1.27.03.07,0,.13-.09.15l-.8.16c-.07.02-.13,0-.16-.08-.13-.31-.44-.47-.85-.47s-.65.18-.65.48.2.48.77.61l.29.07c1.05.24,1.56.8,1.56,1.69,0,1.01-.75,1.64-1.96,1.64-1.01,0-1.73-.44-2.04-1.35Z"/>
      <path class="st0" d="M38.58,79.78v5.5c0,.07-.05.12-.12.12h-1c-.07,0-.12-.05-.12-.12v-6.06c0-.07.05-.12.12-.12h.23c.44,0,.69-.28.69-.71s-.25-.68-.63-.68c-.28,0-.5.14-.6.4-.03.07-.09.09-.16.07l-.81-.19c-.07-.02-.12-.08-.09-.15.27-.77.91-1.2,1.76-1.2,1.06,0,1.73.7,1.73,1.7,0,.74-.37,1.23-1,1.42v.02Z"/>
      <path class="st0" d="M44.69,85.27c.04.08,0,.14-.09.14h-1.07c-.06,0-.13-.04-.15-.09l-.97-2.38h-1.2v2.36c0,.07-.05.12-.12.12h-1c-.07,0-.12-.05-.12-.12v-5.05c0-.07.05-.12.12-.12h.97c.07,0,.12.05.12.12v1.63h1.29c.57,0,.87-.29.87-.82v-.81c0-.07.05-.12.12-.12h.98c.08,0,.12.05.12.12v.93c0,.74-.35,1.29-.94,1.55,0,0,1.07,2.54,1.07,2.54Z"/>
      <path class="st0" d="M44.92,78.48c.07,0,.12.05.12.12v.73c0,.07-.05.12-.12.12h-2.49c-.07,0-.12-.05-.12-.12v-.85h-.53c-.07,0-.12-.05-.12-.12v-.69c0-.07.05-.12.12-.12h1.01c.38,0,.6.21.6.6v.33h1.54,0Z"/>
      <path class="st0" d="M45.72,83.32v-3.08c0-.08.05-.12.12-.12h1c.07,0,.12.04.12.12v2.9c0,.81.38,1.27,1.08,1.27s1.08-.46,1.08-1.27v-2.9c0-.08.04-.12.12-.12h1c.08,0,.12.04.12.12v3.08c0,1.34-.9,2.2-2.32,2.2s-2.32-.86-2.32-2.2Z"/>
      <path class="st0" d="M51.3,84.17c-.03-.08,0-.14.08-.16l.87-.18c.07-.02.11,0,.15.07.19.35.49.57.94.57s.71-.2.71-.53c0-.27-.17-.5-.72-.62l-.3-.07c-1.07-.23-1.58-.81-1.58-1.68,0-.97.73-1.57,1.88-1.57.99,0,1.6.41,1.9,1.27.03.07,0,.13-.09.15l-.8.16c-.07.02-.13,0-.16-.08-.13-.31-.44-.47-.85-.47s-.65.18-.65.48.2.48.77.61l.29.07c1.05.24,1.56.8,1.56,1.69,0,1.01-.75,1.64-1.96,1.64-1.01,0-1.73-.44-2.04-1.35Z"/>
      <path class="st0" d="M51.28,79.45c-.07,0-.12-.05-.12-.12v-.73c0-.08.05-.12.12-.12h4c.06,0,.12.05.12.12v.35c0,.3-.19.49-.49.49h-3.63Z"/>
      <path class="st0" d="M58.81,80.12c1.38,0,2.14.71,2.14,2.02v3.15c0,.07-.05.12-.12.12h-1c-.07,0-.12-.05-.12-.12v-3.15c0-.61-.37-.96-1.03-.96h-1.09v4.11c0,.07-.05.12-.12.12h-1c-.07,0-.12-.05-.12-.12v-5.05c0-.07.05-.12.12-.12,0,0,2.34,0,2.34,0Z"/>
      <path class="st0" d="M64.33,85.41c-.07,0-.12-.05-.12-.12v-3.37c0-.5-.24-.79-.66-.79-.32,0-.55.17-.67.48-.03.07-.09.1-.16.08l-.85-.24c-.07-.02-.11-.08-.08-.16.28-.82.94-1.28,1.83-1.28,1.13,0,1.82.75,1.82,1.95v3.32c0,.07-.05.12-.12.12h-1,.01Z"/>
      <path class="st0" d="M66.42,84.17c-.03-.08,0-.14.08-.16l.87-.18c.07-.02.11,0,.15.07.19.35.49.57.94.57s.71-.2.71-.53c0-.27-.17-.5-.72-.62l-.3-.07c-1.07-.23-1.58-.81-1.58-1.68,0-.97.73-1.57,1.88-1.57.99,0,1.6.41,1.9,1.27.03.07,0,.13-.09.15l-.8.16c-.07.02-.13,0-.16-.08-.13-.31-.44-.47-.85-.47s-.65.18-.65.48.2.48.77.61l.29.07c1.05.24,1.57.8,1.57,1.69,0,1.01-.76,1.64-1.97,1.64-1.01,0-1.73-.44-2.04-1.35Z"/>
      <path class="st0" d="M71.33,83.47v-1.33c0-1.11.6-1.85,1.67-2.1l.85.51.86-.51c.98.24,1.55.93,1.55,1.89v3.35c0,.07-.05.12-.12.12h-1c-.07,0-.12-.05-.12-.12v-3.43c0-.39-.16-.64-.44-.72l-.69.39h-.07l-.68-.39c-.36.12-.56.53-.56,1.15v1.07c0,.67.35,1.04.9,1.04.12,0,.22-.02.35-.07.07-.04.13-.03.16.05l.33.73c.03.07.02.13-.04.17-.22.15-.56.23-.95.23-1.19,0-1.98-.79-1.98-2.03h-.02Z"/>
      <path class="st0" d="M72.03,79.45c-.07,0-.12-.05-.12-.12v-.73c0-.08.05-.12.12-.12h3.01v-.72c0-.07.05-.12.12-.12h.87c.07,0,.12.05.12.12v1.19c0,.31-.19.49-.49.49h-3.63Z"/>
      <path class="st0" d="M77.67,85.41c-.07,0-.12-.05-.12-.12v-3.03c0-1.38.89-2.25,2.29-2.25s2.39.88,2.39,2.25v3.03c0,.07-.05.12-.12.12h-1c-.07,0-.12-.05-.12-.12v-2.84c0-.86-.4-1.32-1.15-1.32s-1.08.44-1.08,1.32v.24h1.28c.07,0,.12.05.12.12v.82c0,.07-.05.12-.12.12h-1.25v1.54c0,.07-.05.12-.12.12h-1,0Z"/>
      <path class="st0" d="M83.3,84.01c-.03-.08,0-.14.08-.16l.91-.25c.08-.02.13,0,.16.08.2.49.55.75,1,.75.72,0,1.16-.65,1.16-1.69s-.46-1.66-1.19-1.66c-.48,0-.87.27-1.06.77-.04.08-.07.11-.16.09l-.9-.23c-.08-.02-.11-.08-.08-.16.33-.99,1.14-1.55,2.23-1.55,1.51,0,2.44,1.05,2.44,2.74s-.93,2.77-2.43,2.77c-1.07,0-1.86-.55-2.17-1.51h0Z"/>
      <path class="st0" d="M91.01,85.41c-.07,0-.12-.05-.12-.12v-3.37c0-.5-.24-.79-.66-.79-.32,0-.55.17-.67.48-.03.07-.09.1-.16.08l-.85-.24c-.07-.02-.11-.08-.08-.16.28-.82.94-1.28,1.83-1.28,1.13,0,1.82.75,1.82,1.95v3.32c0,.07-.05.12-.12.12h-1,.01Z"/>
      <path class="st0" d="M94.67,84.68l-.03.6c0,.08-.06.12-.13.12h-.9c-.07,0-.12-.05-.12-.12v-5.05c0-.07.05-.12.12-.12h1c.07,0,.12.05.12.12v2.61c0,.98.54,1.55,1.19,1.55.6,0,.93-.5.93-1.31v-2.85c0-.07.05-.12.12-.12h1c.07,0,.12.05.12.12v3.3c0,1.21-.69,1.98-1.79,1.98-.68,0-1.27-.3-1.63-.84h0Z"/>
      <path class="st0" d="M105.09,80.12c.08,0,.12.05.1.13l-1.15,5.05c-.02.07-.07.11-.14.11h-.77c-.06,0-.12-.04-.14-.1l-.92-3.18-.94,3.18c-.02.07-.07.1-.14.1h-.77c-.06,0-.12-.04-.14-.11l-1.15-5.05c-.02-.08.02-.13.1-.13h1c.06,0,.12.04.14.1l.6,2.79.88-2.79c.02-.07.05-.1.13-.1h.58c.07,0,.12.04.14.1l.88,2.79.6-2.79c.02-.07.06-.1.14-.1h.97Z"/>
      <path class="st0" d="M100.34,79.45c-.07,0-.12-.05-.12-.12v-.73c0-.08.05-.12.12-.12h3.99c.07,0,.12.05.12.12v.35c0,.3-.19.49-.49.49h-3.62Z"/>
      <path class="st0" d="M108.53,80.12c1.38,0,2.14.71,2.14,2.02v3.15c0,.07-.05.12-.12.12h-1c-.07,0-.12-.05-.12-.12v-3.15c0-.61-.37-.96-1.03-.96h-1.09v4.11c0,.07-.05.12-.12.12h-1c-.07,0-.12-.05-.12-.12v-5.05c0-.07.05-.12.12-.12,0,0,2.34,0,2.34,0Z"/>
      <path class="st0" d="M109.08,79.45c-.81,0-1.26-.41-1.26-1.15v-.4c0-.07.05-.12.12-.12h.87c.07,0,.12.05.12.12v.19c0,.25.14.39.39.39h1.99c.07,0,.12.05.12.12v.73c0,.07-.05.12-.12.12,0,0-2.23,0-2.23,0Z"/>
      <path class="st0" d="M111.87,83.47v-1.24c0-1.36.93-2.22,2.41-2.22s2.41.87,2.41,2.22v3.05c0,.07-.05.12-.12.12h-1c-.07,0-.12-.05-.12-.12v-2.9c0-.81-.42-1.26-1.17-1.26s-1.17.45-1.17,1.26v.98c0,.67.31,1.04.86,1.04.12,0,.22-.02.35-.07.07-.04.13-.03.16.05l.33.73c.03.07.02.13-.04.17-.22.15-.56.23-.95.23-1.19,0-1.94-.79-1.94-2.03h-.01Z"/>
      <path class="st0" d="M123.07,80.06c.07,0,.12.05.12.12v.78c0,.07-.05.12-.12.12h-.92c.33.23.5.6.5,1.1v3.1c0,.07-.05.12-.12.12h-1c-.07,0-.12-.05-.12-.12v-2.84c0-.83-.39-1.3-1.16-1.3s-1.08.48-1.08,1.3v.24h1.27c.07,0,.12.05.12.12v.82c0,.07-.05.12-.12.12h-1.25v1.54c0,.07-.05.12-.12.12h-1c-.07,0-.12-.05-.12-.12v-3.03c0-1.38.89-2.2,2.29-2.2h2.83Z"/>
      <path class="st0" d="M122.66,86.2v1.64c0,.07-.05.12-.12.12h-.89c-.07,0-.12-.05-.12-.12v-.79h-.54c-.07,0-.12-.05-.12-.12v-.73c0-.07.05-.12.12-.12h1.55c.07,0,.12.05.12.12Z"/>
      <path class="st0" d="M128.35,82.13v3.16c0,.07-.05.12-.12.12h-1c-.07,0-.12-.05-.12-.12v-2.06h-.76c-.81,0-1.27.18-1.27.64,0,.34.25.53.66.53.13,0,.23-.02.35-.07.07-.04.13-.03.16.05l.33.73c.03.07.02.13-.04.17-.22.15-.56.23-.98.23-1.05,0-1.72-.55-1.72-1.51,0-1.12.9-1.77,2.52-1.77h.75v-.17c0-.6-.41-.97-1.05-.97-.49,0-.85.22-1.06.61-.04.07-.08.08-.16.07l-.87-.27c-.08-.03-.11-.08-.08-.16.36-.83,1.2-1.32,2.25-1.32,1.36,0,2.22.82,2.22,2.12h0Z"/>
      <path class="st0" d="M132.15,80.12c1.38,0,2.14.71,2.14,2.02v3.15c0,.07-.05.12-.12.12h-1c-.07,0-.12-.05-.12-.12v-3.15c0-.61-.37-.96-1.03-.96h-1.09v4.11c0,.07-.05.12-.12.12h-1c-.07,0-.12-.05-.12-.12v-5.05c0-.07.05-.12.12-.12h2.34,0Z"/>
      <path class="st0" d="M137.67,85.41c-.07,0-.12-.05-.12-.12v-3.37c0-.5-.24-.79-.66-.79-.32,0-.55.17-.67.48-.03.07-.09.1-.16.08l-.85-.24c-.07-.02-.11-.08-.08-.16.28-.82.94-1.28,1.83-1.28,1.13,0,1.82.75,1.82,1.95v3.32c0,.07-.05.12-.12.12h-1,0Z"/>
      <path class="st0" d="M142.61,80.12c1.38,0,2.14.71,2.14,2.02v3.15c0,.07-.05.12-.12.12h-1c-.07,0-.12-.05-.12-.12v-3.15c0-.61-.37-.96-1.03-.96h-1.09v4.11c0,.07-.05.12-.12.12h-1c-.07,0-.12-.05-.12-.12v-5.05c0-.07.05-.12.12-.12h2.34,0Z"/>
      <path class="st0" d="M145.7,84.17c-.03-.08,0-.14.08-.16l.87-.18c.07-.02.11,0,.15.07.19.35.49.57.94.57s.71-.2.71-.53c0-.27-.17-.5-.72-.62l-.3-.07c-1.07-.23-1.58-.81-1.58-1.68,0-.97.73-1.57,1.88-1.57.99,0,1.6.41,1.9,1.27.03.07,0,.13-.09.15l-.8.16c-.07.02-.13,0-.16-.08-.13-.31-.44-.47-.85-.47s-.65.18-.65.48.2.48.77.61l.29.07c1.05.24,1.57.8,1.57,1.69,0,1.01-.76,1.64-1.97,1.64-1.01,0-1.73-.44-2.04-1.35Z"/>
      <path class="st0" d="M155.06,82.13v3.16c0,.07-.05.12-.12.12h-1c-.07,0-.12-.05-.12-.12v-2.06h-.76c-.81,0-1.27.18-1.27.64,0,.34.25.53.66.53.13,0,.23-.02.35-.07.07-.04.13-.03.16.05l.33.73c.03.07.02.13-.04.17-.22.15-.56.23-.98.23-1.05,0-1.72-.55-1.72-1.51,0-1.12.9-1.77,2.52-1.77h.75v-.17c0-.6-.41-.97-1.05-.97-.49,0-.85.22-1.06.61-.04.07-.08.08-.16.07l-.87-.27c-.08-.03-.11-.08-.08-.16.36-.83,1.2-1.32,2.25-1.32,1.36,0,2.22.82,2.22,2.12h-.01Z"/>
      <path class="st0" d="M153.9,79.45c-.07,0-.12-.05-.12-.12v-1.62c0-.07.05-.12.12-.12h.9c.07,0,.12.05.12.12v1.62c0,.07-.05.12-.12.12h-.9Z"/>
      <path class="st0" d="M156.13,84.01c-.03-.08,0-.14.08-.16l.91-.25c.08-.02.13,0,.16.08.2.49.55.75,1.01.75.72,0,1.16-.65,1.16-1.69s-.46-1.66-1.19-1.66c-.48,0-.87.27-1.06.77-.04.08-.07.11-.16.09l-.9-.23c-.08-.02-.11-.08-.08-.16.33-.99,1.14-1.55,2.23-1.55,1.51,0,2.44,1.05,2.44,2.74s-.93,2.77-2.43,2.77c-1.07,0-1.86-.55-2.17-1.51h0Z"/>
      <path class="st0" d="M166.06,82.42c0,1.39-.68,2.44-1.93,2.95-.05.03-.1.04-.16.04h-1.13c-.07,0-.12-.04-.14-.11l-1.5-5.05c-.03-.08.02-.13.11-.13h1.01c.06,0,.11.04.13.1l1.17,4.09c.75-.34,1.15-1,1.15-1.89,0-.81-.31-1.29-.81-1.29-.11,0-.23.03-.34.07-.07.04-.13.03-.16-.05l-.33-.73c-.03-.07-.02-.13.04-.17.22-.15.55-.23.91-.23,1.19,0,1.96.93,1.96,2.39h.02Z"/>
      <path class="st0" d="M171.86,85.27c.04.08,0,.14-.09.14h-1.07c-.06,0-.13-.04-.15-.09l-.97-2.38h-1.2v2.36c0,.07-.05.12-.12.12h-1c-.07,0-.12-.05-.12-.12v-5.05c0-.07.05-.12.12-.12h.97c.07,0,.12.05.12.12v1.63h1.29c.57,0,.87-.29.87-.82v-.81c0-.07.05-.12.12-.12h.98c.08,0,.12.05.12.12v.93c0,.74-.35,1.29-.94,1.55l1.07,2.54h0Z"/>
      <path class="st0" d="M172.91,83.61v-3.37c0-.07.05-.12.12-.12h1c.07,0,.12.05.12.12v2.92c0,.77.34,1.24.92,1.24.66,0,1.2-.58,1.2-1.55v-2.61c0-.07.05-.12.12-.12h1c.07,0,.12.05.12.12v5.05c0,.07-.05.12-.12.12h-.91c-.07,0-.12-.05-.12-.12l-.03-.6c-.36.54-.95.84-1.63.84-1.1,0-1.79-.74-1.79-1.91h0Z"/>
      <path class="st0" d="M177.86,78.48c.07,0,.12.05.12.12v.73c0,.07-.05.12-.12.12h-2.49c-.07,0-.12-.05-.12-.12v-.85h-.53c-.07,0-.12-.05-.12-.12v-.69c0-.07.05-.12.12-.12h1.01c.38,0,.6.21.6.6v.33h1.54,0Z"/>
      <path class="st0" d="M180.94,85.41c-.07,0-.12-.05-.12-.12v-3.37c0-.5-.24-.79-.66-.79-.32,0-.55.17-.67.48-.03.07-.09.1-.16.08l-.85-.24c-.07-.02-.11-.08-.08-.16.28-.82.94-1.28,1.83-1.28,1.13,0,1.82.75,1.82,1.95v3.32c0,.07-.05.12-.12.12h-1,0Z"/>
      <path class="st0" d="M183.54,85.41c-.07,0-.12-.05-.12-.12v-5.05c0-.07.05-.12.12-.12h.9c.07,0,.13.04.13.12l.03.61c.36-.53.95-.84,1.64-.84,1.11,0,1.81.74,1.81,1.91v3.37c0,.08-.04.12-.12.12h-1c-.08,0-.12-.04-.12-.12v-2.92c0-.77-.35-1.24-.95-1.24-.71,0-1.2.64-1.2,1.55v2.61c0,.07-.04.12-.12.12h-1Z"/>
      <path class="st0" d="M191.44,85.41c-.07,0-.12-.05-.12-.12v-3.37c0-.5-.24-.79-.66-.79-.32,0-.55.17-.67.48-.03.07-.09.1-.16.08l-.85-.24c-.07-.02-.11-.08-.08-.16.28-.82.94-1.28,1.83-1.28,1.13,0,1.82.75,1.82,1.95v3.32c0,.07-.05.12-.12.12h-1,0Z"/>
      <path class="st0" d="M198.26,82.42c0,1.39-.68,2.44-1.93,2.95-.05.03-.1.04-.16.04h-1.13c-.07,0-.12-.04-.14-.11l-1.5-5.05c-.03-.08.02-.13.11-.13h1.01c.06,0,.11.04.13.1l1.17,4.09c.75-.34,1.15-1,1.15-1.89,0-.81-.31-1.29-.81-1.29-.11,0-.23.03-.34.07-.07.04-.13.03-.16-.05l-.33-.73c-.03-.07-.02-.13.04-.17.22-.15.55-.23.91-.23,1.19,0,1.96.93,1.96,2.39h.02Z"/>
      <path class="st0" d="M203.95,82.78c0,1.68-.99,2.74-2.55,2.74-1.46,0-2.39-.93-2.39-2.38v-.66c0-.07.05-.12.12-.12h2.29c.07,0,.12.05.12.12v.78c0,.08-.05.12-.12.12h-1.18c.07.63.48,1.04,1.12,1.04.81,0,1.32-.65,1.32-1.66s-.54-1.66-1.4-1.66c-.51,0-.9.23-1.1.62-.04.07-.08.08-.16.07l-.87-.25c-.08-.03-.1-.08-.07-.16.36-.87,1.22-1.38,2.3-1.38,1.58,0,2.59,1.08,2.59,2.77h-.02Z"/>
      <path class="st0" d="M199.65,79.45c-.07,0-.12-.05-.12-.12v-.73c0-.08.05-.12.12-.12h3.99c.07,0,.12.05.12.12v.35c0,.3-.19.49-.49.49h-3.62Z"/>
      <path class="st0" d="M205.23,85.41c-.07,0-.12-.05-.12-.12v-5.05c0-.07.05-.12.12-.12h1c.07,0,.12.05.12.12v5.05c0,.07-.05.12-.12.12h-1Z"/>
      <path class="st0" d="M212.05,82.13v3.16c0,.07-.05.12-.12.12h-1c-.07,0-.12-.05-.12-.12v-2.06h-.76c-.81,0-1.27.18-1.27.64,0,.34.25.53.66.53.13,0,.23-.02.35-.07.07-.04.13-.03.16.05l.33.73c.03.07.02.13-.04.17-.22.15-.56.23-.98.23-1.05,0-1.72-.55-1.72-1.51,0-1.12.9-1.77,2.52-1.77h.75v-.17c0-.6-.41-.97-1.05-.97-.49,0-.85.22-1.06.61-.04.07-.08.08-.16.07l-.87-.27c-.08-.03-.11-.08-.08-.16.36-.83,1.2-1.32,2.25-1.32,1.36,0,2.22.82,2.22,2.12h-.01Z"/>
      <path class="st0" d="M209.49,78.01c-.29,0-.45.12-.45.33,0,.18.12.31.35.31.18,0,.3-.07.44-.32.04-.07.08-.09.15-.09h.31c.06,0,.1.03.13.07l.1.17c.05.09.17.13.38.13h.6c.07,0,.12.05.12.12v.6c0,.07-.05.12-.12.12h-.54c-.37,0-.68-.13-.84-.41l-.02-.04c-.2.33-.56.52-1.02.52-.69,0-1.14-.45-1.14-1.15,0-.77.55-1.26,1.42-1.26h2.14c.07,0,.12.05.12.12v.65c0,.08-.05.12-.12.12h-2.01Z"/>
      <path class="st0" d="M215.85,80.12c1.38,0,2.14.71,2.14,2.02v3.15c0,.07-.05.12-.12.12h-1c-.07,0-.12-.05-.12-.12v-3.15c0-.61-.37-.96-1.03-.96h-1.09v4.11c0,.07-.05.12-.12.12h-1c-.07,0-.12-.05-.12-.12v-5.05c0-.07.05-.12.12-.12h2.34,0Z"/>
      <path class="st0" d="M219.45,85.41c-.07,0-.12-.05-.12-.12v-5.05c0-.07.05-.12.12-.12h.9c.07,0,.13.04.13.12l.03.61c.36-.53.95-.84,1.64-.84,1.11,0,1.81.74,1.81,1.91v3.37c0,.08-.04.12-.12.12h-1c-.08,0-.12-.04-.12-.12v-2.92c0-.77-.35-1.24-.95-1.24-.71,0-1.2.64-1.2,1.55v2.61c0,.07-.04.12-.12.12h-1Z"/>
      <path class="st0" d="M224.92,84.17c-.03-.08,0-.14.08-.16l.87-.18c.07-.02.11,0,.15.07.19.35.49.57.94.57s.71-.2.71-.53c0-.27-.17-.5-.72-.62l-.3-.07c-1.07-.23-1.58-.81-1.58-1.68,0-.97.73-1.57,1.88-1.57.99,0,1.6.41,1.9,1.27.03.07,0,.13-.09.15l-.8.16c-.07.02-.13,0-.16-.08-.13-.31-.44-.47-.85-.47s-.65.18-.65.48.2.48.77.61l.29.07c1.05.24,1.57.8,1.57,1.69,0,1.01-.76,1.64-1.97,1.64-1.01,0-1.73-.44-2.04-1.35Z"/>
      <path class="st0" d="M234.59,82.78c0,1.68-.99,2.74-2.55,2.74-1.46,0-2.39-.93-2.39-2.38v-.66c0-.07.05-.12.12-.12h2.29c.07,0,.12.05.12.12v.78c0,.08-.05.12-.12.12h-1.18c.07.63.48,1.04,1.12,1.04.81,0,1.32-.65,1.32-1.66s-.54-1.66-1.4-1.66c-.51,0-.9.23-1.1.62-.04.07-.08.08-.16.07l-.87-.25c-.08-.03-.1-.08-.07-.16.36-.87,1.22-1.38,2.3-1.38,1.58,0,2.59,1.08,2.59,2.77h-.02Z"/>
      <path class="st0" d="M235.63,83.61v-3.37c0-.07.05-.12.12-.12h1c.07,0,.12.05.12.12v2.92c0,.77.34,1.24.92,1.24.66,0,1.2-.58,1.2-1.55v-2.61c0-.07.05-.12.12-.12h1c.07,0,.12.05.12.12v5.05c0,.07-.05.12-.12.12h-.91c-.08,0-.12-.05-.12-.12l-.03-.6c-.36.54-.95.84-1.63.84-1.1,0-1.79-.74-1.79-1.91h0Z"/>
      <path class="st0" d="M236.11,79.45c-.07,0-.12-.05-.12-.12v-.73c0-.08.05-.12.12-.12h4c.06,0,.12.05.12.12v.35c0,.3-.19.49-.49.49h-3.63Z"/>
      <path class="st0" d="M244.08,80.12c1.38,0,2.14.71,2.14,2.02v3.15c0,.07-.05.12-.12.12h-1c-.07,0-.12-.05-.12-.12v-3.15c0-.61-.37-.96-1.03-.96h-1.09v4.11c0,.07-.05.12-.12.12h-1c-.07,0-.12-.05-.12-.12v-5.05c0-.07.05-.12.12-.12h2.34,0Z"/>
      <path class="st0" d="M252.29,80.06c.07,0,.12.05.12.12v.78c0,.07-.05.12-.12.12h-.92c.33.23.5.6.5,1.1v3.1c0,.07-.05.12-.12.12h-1c-.07,0-.12-.05-.12-.12v-2.06h-.76c-.81,0-1.27.18-1.27.64,0,.34.25.53.66.53.13,0,.23-.02.35-.07.07-.04.13-.03.16.05l.33.73c.03.07.02.13-.04.17-.22.15-.56.23-.98.23-1.05,0-1.72-.55-1.72-1.51,0-1.12.9-1.77,2.52-1.77h.75v-.14c0-.6-.41-.94-1.05-.94-.49,0-.85.2-1.06.58-.04.06-.08.08-.16.06l-.87-.27c-.08-.03-.11-.08-.08-.16.36-.83,1.17-1.29,2.22-1.29h2.66,0Z"/>
      <path class="st0" d="M249.95,79.45c-.07,0-.12-.05-.12-.12v-.35c0-.74.46-1.22,1.26-1.22h1.02c.07,0,.12.05.12.12v.69c0,.07-.05.12-.12.12h-.74c-.28,0-.44.15-.44.43v.21c0,.07-.05.12-.12.12h-.87,0Z"/>
      <path class="st0" d="M255.07,82.43c0-2.71.91-4.25,2.9-4.37.07,0,.12.04.12.11v.9c0,.07-.04.12-.11.13-1.14.12-1.62,1.11-1.62,3.22s.48,3.1,1.62,3.22c.07,0,.11.06.11.13v.9c0,.07-.05.12-.12.11-1.98-.12-2.9-1.66-2.9-4.37v.02Z"/>
      <path class="st0" d="M258.63,82.99c0-1.46.92-2.5,2.44-2.5s2.33,1.1,2.28,2.76c0,.08-.06.12-.13.12h-3.31c.11.66.52,1.06,1.16,1.06.49,0,.84-.19,1.06-.55.04-.07.09-.07.16-.06l.83.29c.08.03.1.08.07.16-.43.85-1.23,1.23-2.12,1.23-1.52,0-2.44-1.04-2.44-2.5h0ZM259.93,82.46h2.12c-.11-.57-.48-.9-1-.9-.57,0-.98.33-1.13.9h.01Z"/>
      <path class="st0" d="M264.39,82.95c-.07,0-.12-.05-.12-.12v-.9c0-.07.05-.12.12-.12h2.78c.07,0,.12.05.12.12v.9c0,.07-.05.12-.12.12h-2.78Z"/>
      <path class="st0" d="M268.05,85.41c-.08,0-.13-.06-.09-.14l2.73-6.6c.03-.06.07-.09.14-.09h.87c.06,0,.11.03.14.09l2.73,6.6c.04.08,0,.14-.09.14h-1.17c-.07,0-.11-.03-.14-.09l-.48-1.28h-2.84l-.48,1.28c-.03.07-.07.09-.14.09h-1.18ZM272.22,82.87l-.98-2.59-.98,2.59h1.96Z"/>
      <path class="st0" d="M274.88,82.99c0-1.48.88-2.5,2.25-2.5.63,0,1.17.25,1.52.68v-2.63c0-.07.05-.12.12-.12h.97c.07,0,.12.05.12.12v6.74c0,.07-.05.12-.12.12h-.88c-.07,0-.13-.04-.13-.12l-.03-.54c-.34.47-.9.75-1.57.75-1.38,0-2.25-1.02-2.25-2.5h0ZM278.74,82.99c0-.83-.53-1.41-1.3-1.41s-1.3.58-1.3,1.41.53,1.41,1.3,1.41,1.3-.58,1.3-1.41Z"/>
      <path class="st0" d="M282.9,85.41c-.07,0-.11-.04-.14-.09l-2.06-4.59c-.04-.08,0-.14.09-.14h1.16c.06,0,.11.03.14.09l1.16,2.93,1.15-2.93c.03-.07.07-.09.14-.09h1.08c.09,0,.13.06.09.14l-2.06,4.59c-.03.06-.07.09-.14.09h-.61Z"/>
      <path class="st0" d="M286.04,82.99c0-1.48.87-2.5,2.25-2.5.67,0,1.23.28,1.57.75l.03-.54c0-.08.06-.12.13-.12h.87c.07,0,.12.05.12.12v4.58c0,.07-.05.12-.12.12h-.87c-.07,0-.13-.04-.13-.12l-.03-.54c-.35.47-.9.75-1.57.75-1.38,0-2.25-1.02-2.25-2.5ZM289.89,82.99c0-.83-.53-1.41-1.3-1.41s-1.3.58-1.3,1.41.53,1.41,1.3,1.41,1.3-.58,1.3-1.41Z"/>
      <path class="st0" d="M292.41,85.41c-.07,0-.12-.05-.12-.12v-4.58c0-.08.05-.12.12-.12h.87c.08,0,.13.04.13.12l.03.55c.35-.51.96-.76,1.57-.76,1.12,0,1.76.67,1.76,1.78v3.02c0,.07-.05.12-.12.12h-.97c-.07,0-.12-.05-.12-.12v-2.52c0-.8-.29-1.17-.92-1.17-.59,0-1.15.44-1.15,1.36v2.34c0,.07-.05.12-.12.12h-.97v-.02Z"/>
      <path class="st0" d="M297.72,82.99c0-1.48.96-2.5,2.47-2.5,1.08,0,1.83.45,2.19,1.4.03.07,0,.14-.08.16l-.8.23c-.06.02-.12,0-.16-.07-.21-.41-.57-.61-1.07-.61-.88,0-1.29.64-1.29,1.41s.42,1.41,1.29,1.41c.5,0,.87-.21,1.08-.64.04-.07.09-.09.16-.07l.88.21c.07.02.1.07.07.15-.38,1-1.2,1.45-2.26,1.45-1.53,0-2.48-1.02-2.48-2.5v-.03Z"/>
      <path class="st0" d="M303.1,82.99c0-1.46.92-2.5,2.44-2.5s2.33,1.1,2.28,2.76c0,.08-.06.12-.13.12h-3.31c.11.66.52,1.06,1.16,1.06.49,0,.84-.19,1.06-.55.04-.07.09-.07.16-.06l.83.29c.08.03.1.08.07.16-.43.85-1.23,1.23-2.12,1.23-1.52,0-2.44-1.04-2.44-2.5h0ZM304.4,82.46h2.12c-.11-.57-.48-.9-1-.9-.57,0-.98.33-1.13.9h.01Z"/>
      <path class="st0" d="M312.76,85.41c-.07,0-.12-.05-.12-.12v-5.53h-2.11c-.07,0-.11-.05-.11-.12v-.94c0-.07.04-.12.11-.12h5.47c.07,0,.12.05.12.12v.94c0,.07-.05.12-.12.12h-2.1v5.53c0,.07-.05.12-.12.12h-1.02Z"/>
      <path class="st0" d="M315.82,82.99c0-1.48.88-2.5,2.25-2.5.67,0,1.23.28,1.57.75l.03-.54c0-.08.06-.12.13-.12h.88c.07,0,.12.05.12.12v4.58c0,.07-.05.12-.12.12h-.88c-.07,0-.13-.04-.13-.12l-.03-.54c-.34.47-.9.75-1.57.75-1.38,0-2.25-1.02-2.25-2.5ZM319.67,82.99c0-.83-.53-1.41-1.3-1.41s-1.3.58-1.3,1.41.53,1.41,1.3,1.41,1.3-.58,1.3-1.41Z"/>
      <path class="st0" d="M322.19,85.41c-.08,0-.12-.05-.12-.12v-4.58c0-.08.05-.12.12-.12h.87c.07,0,.13.04.13.12l.03.6c.33-.52.89-.79,1.47-.79.14,0,.23,0,.33.03.07.02.1.07.1.13v.96c0,.08-.05.11-.13.1-.12,0-.26-.04-.45-.04-.65,0-1.27.45-1.27,1.21v2.37c0,.07-.05.12-.12.12h-.97.01Z"/>
      <path class="st0" d="M325.83,79.06c0-.4.31-.67.71-.67s.71.27.71.67-.31.67-.71.67-.71-.27-.71-.67ZM326.06,85.41c-.08,0-.12-.05-.12-.12v-4.58c0-.08.05-.12.12-.12h.97c.07,0,.12.05.12.12v4.58c0,.07-.05.12-.12.12h-.97Z"/>
      <path class="st0" d="M328.88,85.41c-.07,0-.12-.05-.12-.12v-3.62h-.73c-.07,0-.12-.05-.12-.12v-.84c0-.08.05-.12.12-.12h.73v-.31c0-1.17.74-1.92,1.79-1.92.5,0,.92.16,1.29.42.05.05.06.1.04.17l-.31.69c-.03.07-.09.09-.17.06-.3-.18-.5-.23-.75-.23-.46,0-.67.26-.67.8v.33h1.99v-.31c0-1.17.66-1.92,1.7-1.92.75,0,1.3.34,1.63,1.02.03.07,0,.13-.06.16l-.75.32c-.07.03-.12,0-.16-.06-.14-.25-.31-.34-.56-.34-.38,0-.58.28-.58.8v.33h1.21c.07,0,.12.05.12.12v.84c0,.07-.05.12-.12.12h-1.21v3.62c0,.07-.05.12-.12.12h-.97c-.07,0-.12-.05-.12-.12v-3.62h-1.99v3.62c0,.07-.05.12-.12.12h-.99Z"/>
      <path class="st0" d="M337.69,85.41c-.07,0-.12-.05-.12-.12v-6.59c0-.07.05-.12.12-.12h2.07c1.89,0,2.71.84,2.71,2.38,0,.84-.32,1.55-1,1.97l1.27,2.33c.05.08,0,.15-.08.15h-1.15c-.07,0-.11-.03-.14-.08l-1.1-2.01c-.17.02-.34.03-.52.03h-.93v1.95c0,.07-.05.12-.12.12h-1.01ZM338.83,79.74v2.44h.88c.99,0,1.45-.36,1.45-1.22s-.47-1.22-1.45-1.22h-.88Z"/>
      <path class="st0" d="M343.55,83.72v-3.02c0-.08.05-.12.12-.12h.97c.07,0,.12.05.12.12v2.52c0,.8.29,1.17.92,1.17.59,0,1.15-.44,1.15-1.36v-2.34c0-.08.05-.12.12-.12h.97c.07,0,.12.05.12.12v4.58c0,.07-.05.12-.12.12h-.87c-.08,0-.13-.04-.13-.12l-.03-.55c-.35.51-.96.76-1.57.76-1.12,0-1.76-.67-1.76-1.78v.02Z"/>
      <path class="st0" d="M349.42,85.41c-.07,0-.12-.05-.12-.12v-6.74c0-.07.05-.12.12-.12h.97c.07,0,.12.05.12.12v6.74c0,.07-.05.12-.12.12h-.97Z"/>
      <path class="st0" d="M351.68,79.06c0-.4.31-.67.71-.67s.71.27.71.67-.31.67-.71.67-.71-.27-.71-.67ZM351.9,85.41c-.07,0-.12-.05-.12-.12v-4.58c0-.08.05-.12.12-.12h.97c.07,0,.12.05.12.12v4.58c0,.07-.05.12-.12.12h-.97Z"/>
      <path class="st0" d="M354.37,85.41c-.07,0-.12-.05-.12-.12v-4.58c0-.08.05-.12.12-.12h.87c.08,0,.13.04.13.12l.03.55c.35-.51.96-.76,1.57-.76,1.12,0,1.76.67,1.76,1.78v3.02c0,.07-.05.12-.12.12h-.97c-.07,0-.12-.05-.12-.12v-2.52c0-.8-.29-1.17-.92-1.17-.59,0-1.15.44-1.15,1.36v2.34c0,.07-.05.12-.12.12h-.97v-.02Z"/>
      <path class="st0" d="M359.82,86.14c-.04-.07,0-.12.06-.15l.78-.29c.07-.03.12,0,.16.07.23.4.6.66,1.26.66.75,0,1.38-.32,1.38-1.17v-.44c-.35.43-.88.68-1.52.68-1.38,0-2.25-1.02-2.25-2.5s.87-2.5,2.25-2.5c.67,0,1.23.28,1.57.75l.03-.54c0-.08.06-.12.13-.12h.87c.07,0,.12.05.12.12v4.43c0,1.54-1.03,2.39-2.55,2.39-1.03,0-1.93-.47-2.3-1.39h0ZM363.54,82.99c0-.83-.53-1.41-1.3-1.41s-1.3.58-1.3,1.41.53,1.41,1.3,1.41,1.3-.58,1.3-1.41Z"/>
      <path class="st0" d="M365.49,86.68v-.9c0-.07.04-.12.11-.13,1.14-.12,1.62-1.11,1.62-3.22s-.48-3.1-1.62-3.22c-.07,0-.11-.06-.11-.13v-.9c0-.07.05-.12.12-.11,1.98.12,2.9,1.66,2.9,4.37s-.91,4.25-2.9,4.37c-.07,0-.12-.04-.12-.11v-.02Z"/>
    </g>
    <g>
      <path class="st2" d="M85.74,50.87c-.06,0-.09-.04-.09-.1v-4.97c0-.06.04-.09.09-.09h.57c.07,0,.1.04.1.09v4.97c0,.07-.04.1-.1.1h-.57Z"/>
      <path class="st2" d="M93.09,45.7c.07,0,.09.04.08.1l-1.12,4.97c0,.06-.06.09-.11.09h-.46s-.09-.04-.11-.08l-1.08-3.77-1.08,3.77s-.06.08-.11.08h-.46c-.06,0-.1-.04-.11-.09l-1.12-4.97c0-.07.02-.1.08-.1h.57c.06,0,.1.03.11.08l.78,3.59,1.06-3.59c0-.06.05-.08.1-.08h.35c.05,0,.09.03.11.08l1.06,3.58.77-3.58c.02-.06.06-.08.11-.08h.58Z"/>
      <path class="st2" d="M92.38,43.35c.06,0,.1.04.1.09v1.15c0,.21-.13.34-.35.34h-3.46c-.07,0-.1-.04-.1-.1v-.42c0-.07.04-.1.1-.1h2.02v-.88c0-.06.04-.09.09-.09h.39c.06,0,.1.04.1.09v.9h.6v-.9c0-.06.04-.09.09-.09h.42Z"/>
      <path class="st2" d="M91.89,42.74c-.06,0-.09-.04-.09-.09v-1.27c0-.07.04-.1.09-.1h.47c.07,0,.1.04.1.1v1.27c0,.06-.04.09-.1.09h-.47Z"/>
      <path class="st2" d="M98.38,48.28c0,1.65-.91,2.69-2.37,2.69-1.35,0-2.21-.9-2.21-2.33v-.55c0-.06.04-.09.09-.09h2.21c.06,0,.09.04.09.09v.46c0,.06-.04.1-.09.1h-1.55v.03c0,.97.55,1.6,1.42,1.6.99,0,1.61-.79,1.61-2.01s-.64-1.98-1.67-1.98c-.63,0-1.17.33-1.41.85-.03.06-.06.07-.13.06l-.49-.15c-.07-.02-.08-.07-.07-.13.33-.82,1.16-1.31,2.14-1.31,1.47,0,2.4,1.04,2.4,2.68h.03Z"/>
      <path class="st2" d="M100.78,45.19v5.57c0,.07-.04.1-.09.1h-.57c-.06,0-.1-.04-.1-.1v-5.97c0-.07.04-.1.1-.1h.27c.49,0,.79-.34.79-.88s-.32-.89-.82-.89c-.4,0-.71.21-.85.61-.02.06-.07.08-.13.07l-.47-.1c-.06-.02-.09-.06-.07-.12.24-.72.8-1.12,1.57-1.12.93,0,1.52.61,1.52,1.54,0,.79-.44,1.3-1.15,1.4h0Z"/>
      <path class="st2" d="M106.63,50.75c.03.06,0,.11-.07.11h-.61s-.1-.03-.12-.07l-1.14-2.6h-1.56v2.57c0,.07-.04.1-.1.1h-.57c-.06,0-.09-.04-.09-.1v-4.97c0-.06.04-.09.09-.09h.56c.06,0,.09.04.09.09v1.73h1.69c.63,0,.97-.33.97-.95v-.78c0-.06.04-.09.1-.09h.56c.06,0,.09.04.09.09v.84c0,.78-.39,1.3-1.07,1.49l1.17,2.64h.01Z"/>
      <path class="st2" d="M107.01,44.32c.05,0,.09.04.09.1v.42c0,.07-.04.1-.09.1h-2.26c-.06,0-.09-.04-.09-.1v-.89h-.59c-.07,0-.1-.04-.1-.09v-.41c0-.06.04-.09.1-.09h.85c.26,0,.41.15.41.42v.55h1.69-.01Z"/>
      <path class="st2" d="M107.94,50.87c-.06,0-.09-.04-.09-.1v-3.53c0-1.04.48-1.6,1.4-1.6.33,0,.6.08.8.21.05.04.06.08.03.14l-.2.42c-.03.06-.07.06-.13.03-.12-.08-.25-.11-.42-.11-.49,0-.75.34-.75,1v2.62l1.33-1.68s.07-.07.12-.07h.09c.06,0,.09.03.12.07l1.34,1.68v-4.15c0-.06.04-.09.09-.09h.54c.07,0,.1.04.1.09v4.97c0,.07-.04.1-.1.1h-.63s-.09-.03-.12-.07l-1.39-1.77-1.39,1.77s-.07.07-.12.07c0,0-.62,0-.62,0Z"/>
      <path class="st2" d="M112.21,51.62c.06,0,.1.04.1.1v.67c0,.71-.45,1.13-1.24,1.13s-1.23-.42-1.23-1.11v-.25h-.44c-.06,0-.09-.04-.09-.09v-.34c0-.07.04-.1.09-.1h.97c.06,0,.1.04.1.1v.6c0,.4.21.63.6.63s.59-.23.59-.65v-.58c0-.07.04-.1.09-.1h.46Z"/>
      <path class="st2" d="M112.8,44.32c.05,0,.09.04.09.1v.42c0,.07-.04.1-.09.1h-2.26c-.06,0-.09-.04-.09-.1v-.89h-.59c-.07,0-.1-.04-.1-.09v-.41c0-.06.04-.09.1-.09h.85c.26,0,.41.15.41.42v.55h1.69-.01Z"/>
      <path class="st2" d="M113.84,48.77v-2.98c0-.07.04-.09.09-.09h.57c.07,0,.1.03.1.09v2.89c0,1.01.48,1.59,1.35,1.59s1.36-.57,1.36-1.59v-4.92c0-.07.03-.09.09-.09h.57c.07,0,.1.03.1.09v5.02c0,1.37-.8,2.2-2.12,2.2s-2.11-.82-2.11-2.2h0Z"/>
      <path class="st2" d="M119.19,49.64c-.03-.07,0-.12.06-.13l.5-.11c.06-.02.09,0,.12.07.22.56.63.84,1.25.84s1-.31,1-.8c0-.42-.27-.74-.95-.89l-.32-.07c-1-.23-1.49-.76-1.49-1.53,0-.87.65-1.41,1.68-1.41.87,0,1.5.39,1.79,1.22.02.06,0,.1-.07.12l-.47.1c-.05,0-.1,0-.12-.07-.2-.48-.6-.72-1.13-.72-.58,0-.91.27-.91.71s.31.69,1,.87l.3.07c.99.25,1.46.76,1.46,1.56,0,.92-.69,1.5-1.78,1.5-.95,0-1.63-.43-1.94-1.33h.02Z"/>
      <path class="st2" d="M124.98,47.77c-.73,0-1.13-.36-1.13-1.05v-.41c0-.07.04-.1.1-.1h.55c.07,0,.1.04.1.1v.31c0,.32.17.48.51.48h.97c.06,0,.09.04.09.1v.48c0,.06-.03.09-.09.09h-1.11,0ZM124.98,50.34c-.73,0-1.13-.37-1.13-1.06v-.41c0-.07.04-.09.1-.09h.56c.06,0,.09.04.09.09v.31c0,.33.18.49.51.49h.97c.06,0,.09.03.09.09v.48c0,.07-.03.1-.09.1h-1.11.01Z"/>
      <path class="st2" d="M129.74,45.7c1.25,0,1.94.64,1.94,1.82v3.24c0,.07-.04.1-.1.1h-.56c-.06,0-.1-.04-.1-.1v-3.24c0-.74-.45-1.15-1.24-1.15h-1.42v4.39c0,.07-.04.1-.1.1h-.56c-.06,0-.1-.04-.1-.1v-4.97c0-.06.04-.09.09-.09h2.16,0Z"/>
      <path class="st2" d="M137.39,48.28c0,1.65-.91,2.69-2.37,2.69-1.35,0-2.21-.9-2.21-2.33v-.55c0-.06.04-.09.09-.09h2.21c.06,0,.09.04.09.09v.46c0,.06-.04.1-.09.1h-1.55v.03c0,.97.55,1.6,1.42,1.6.99,0,1.61-.79,1.61-2.01s-.64-1.98-1.67-1.98c-.63,0-1.17.33-1.4.85-.03.06-.06.07-.13.06l-.49-.15c-.07-.02-.08-.07-.06-.13.33-.82,1.15-1.31,2.14-1.31,1.47,0,2.4,1.04,2.4,2.68h.01Z"/>
      <path class="st2" d="M138.57,48.77v-2.98c0-.07.04-.09.09-.09h.57c.07,0,.1.03.1.09v2.89c0,1.01.48,1.59,1.35,1.59s1.36-.57,1.36-1.59v-2.89c0-.07.03-.09.09-.09h.57c.07,0,.1.03.1.09v2.98c0,1.37-.8,2.2-2.12,2.2s-2.11-.82-2.11-2.2h0Z"/>
      <path class="st2" d="M146.59,45.7c1.25,0,1.94.64,1.94,1.82v3.24c0,.07-.04.1-.1.1h-.56c-.06,0-.1-.04-.1-.1v-3.24c0-.74-.45-1.15-1.24-1.15h-1.42v4.39c0,.07-.04.1-.1.1h-.56c-.06,0-.1-.04-.1-.1v-4.97c0-.06.04-.09.09-.09h2.16,0Z"/>
      <path class="st2" d="M152.04,50.87c-.07,0-.1-.04-.1-.1v-3.45c0-.63-.34-1.01-.89-1.01-.42,0-.73.22-.87.64-.03.06-.08.08-.13.07l-.48-.14c-.06-.02-.08-.08-.07-.13.25-.73.83-1.14,1.6-1.14,1,0,1.61.67,1.61,1.74v3.43c0,.07-.04.1-.09.1h-.58Z"/>
      <path class="st2" d="M153.82,49.64c-.03-.07,0-.12.06-.13l.5-.11c.06-.02.09,0,.12.07.22.56.63.84,1.25.84s1-.31,1-.8c0-.42-.27-.74-.95-.89l-.32-.07c-1-.23-1.49-.76-1.49-1.53,0-.87.65-1.41,1.68-1.41.87,0,1.5.39,1.79,1.22.02.06,0,.1-.07.12l-.47.1c-.05,0-.1,0-.12-.07-.2-.48-.6-.72-1.13-.72-.58,0-.91.27-.91.71s.31.69,1,.87l.3.07c.99.25,1.46.76,1.46,1.56,0,.92-.69,1.5-1.78,1.5-.95,0-1.63-.43-1.94-1.33h.02Z"/>
      <path class="st2" d="M163.14,45.65c.06,0,.09.04.09.09v.46c0,.06-.04.09-.09.09h-1.15c.44.23.68.69.68,1.28v3.19c0,.07-.04.1-.09.1h-.57c-.06,0-.1-.04-.1-.1v-2.3h-.87c-1.14,0-1.72.34-1.72,1,0,.5.35.8.92.8.21,0,.38-.04.53-.13.07-.03.1-.03.13.03l.2.42c.03.06.02.11-.02.14-.21.15-.52.23-.92.23-1,0-1.6-.53-1.6-1.42,0-1.1.89-1.7,2.49-1.7h.87v-.31c0-.74-.5-1.19-1.28-1.19-.63,0-1.07.3-1.31.76-.03.06-.06.07-.13.06l-.5-.15c-.06-.02-.08-.07-.06-.13.33-.75,1.06-1.21,2.05-1.21h2.49-.04Z"/>
      <path class="st2" d="M161.25,44.14c0-.51.38-.88.91-.88s.91.37.91.88-.38.89-.91.89-.91-.37-.91-.89ZM162.59,44.14c0-.24-.19-.43-.43-.43s-.43.19-.43.43.19.43.43.43.43-.18.43-.43Z"/>
      <path class="st2" d="M166.22,50.87c-.06,0-.1-.04-.1-.1v-3.45c0-.63-.34-1.01-.89-1.01-.42,0-.73.22-.87.64-.03.06-.07.08-.13.07l-.48-.14c-.06-.02-.08-.08-.06-.13.25-.73.83-1.14,1.6-1.14,1,0,1.61.67,1.61,1.74v3.43c0,.07-.04.1-.09.1h-.59Z"/>
      <path class="st2" d="M168.61,50.87c-.06,0-.09-.04-.09-.1v-4.97c0-.06.04-.09.09-.09h.57c.07,0,.1.04.1.09v4.97c0,.07-.04.1-.1.1h-.57ZM170.77,50.87c-.06,0-.09-.04-.09-.1v-4.97c0-.06.04-.09.09-.09h.57c.06,0,.1.04.1.09v4.97c0,.07-.04.1-.1.1h-.57Z"/>
      <path class="st2" d="M172.88,49.03v-1.3c0-1.29.86-2.13,2.2-2.13s2.22.84,2.22,2.13v3.04c0,.07-.04.1-.1.1h-.57c-.06,0-.09-.04-.09-.1v-2.94c0-.95-.55-1.53-1.45-1.53s-1.43.58-1.43,1.53v1.15c0,.82.36,1.28,1.03,1.28.2,0,.35-.04.52-.13.07-.04.1-.03.13.03l.2.42c.03.06.02.11-.02.14-.22.16-.53.23-.91.23-1.07,0-1.71-.72-1.71-1.92h-.02Z"/>
      <path class="st2" d="M182.52,47.88c0,1.38-.73,2.43-2.07,2.96-.04.02-.08.03-.12.03h-.62c-.06,0-.09-.04-.11-.09l-1.53-4.97c-.02-.07.02-.1.08-.1h.58c.06,0,.09.03.11.08l1.32,4.4c1.05-.42,1.57-1.24,1.57-2.31,0-.98-.44-1.57-1.15-1.57-.19,0-.35.04-.49.12-.05.03-.1.02-.13-.04l-.2-.41c-.03-.06-.02-.11.03-.14.21-.15.51-.22.86-.22,1.14,0,1.86.88,1.86,2.26h0Z"/>
      <path class="st2" d="M183.92,50.87c-.06,0-.09-.04-.09-.1v-4.97c0-.06.04-.09.09-.09h.57c.06,0,.1.04.1.09v4.97c0,.07-.04.1-.1.1h-.57Z"/>
      <path class="st2" d="M190.04,47.53v3.23c0,.07-.04.1-.09.1h-.57c-.06,0-.1-.04-.1-.1v-2.3h-.88c-1.14,0-1.72.34-1.72,1,0,.5.34.8.92.8.21,0,.38-.04.53-.13.06-.03.1-.03.13.03l.2.42c.03.06.02.11-.02.14-.21.15-.52.23-.92.23-1,0-1.6-.53-1.6-1.42,0-1.1.89-1.7,2.5-1.7h.87v-.33c0-.75-.5-1.23-1.29-1.23-.63,0-1.07.31-1.31.78-.03.06-.06.07-.13.06l-.5-.16c-.06-.02-.08-.07-.06-.13.33-.75,1.07-1.22,2.05-1.22,1.23,0,2.01.75,2.01,1.94h-.02Z"/>
      <path class="st2" d="M195.2,45.7c.06,0,.1.04.1.09v3.25c0,1.21-.71,1.93-1.91,1.93s-1.9-.73-1.9-1.93v-.57c0-.67.31-1.09.57-1.42.19-.24.35-.46.35-.7h-1c-.06,0-.09-.04-.09-.1v-.46c0-.06.04-.09.09-.09h1.64c.06,0,.1.04.1.09v.45c0,.36-.2.66-.41.97-.24.34-.48.72-.48,1.24v.52c0,.84.41,1.3,1.14,1.3s1.15-.47,1.15-1.3v-3.18c0-.06.04-.09.09-.09h.57-.01Z"/>
      <path class="st2" d="M201.95,45.7c.06,0,.09.04.08.1l-1.12,4.97c0,.06-.06.09-.11.09h-.46s-.09-.04-.11-.08l-1.08-3.77-1.08,3.77s-.07.08-.11.08h-.46c-.06,0-.1-.04-.11-.09l-1.12-4.97c0-.07.02-.1.08-.1h.57c.06,0,.1.03.11.08l.78,3.59,1.06-3.59c0-.06.05-.08.1-.08h.34c.06,0,.09.03.11.08l1.06,3.58.77-3.58c.02-.06.06-.08.11-.08h.59Z"/>
      <path class="st2" d="M197.54,44.94c-.06,0-.1-.04-.1-.1v-.42c0-.07.04-.1.1-.1h3.72c.06,0,.09.04.09.09v.19c0,.21-.13.34-.34.34h-3.47Z"/>
      <path class="st2" d="M205.31,45.7c1.25,0,1.94.64,1.94,1.82v3.24c0,.07-.04.1-.1.1h-.56c-.05,0-.1-.04-.1-.1v-3.24c0-.74-.45-1.15-1.24-1.15h-1.42v4.39c0,.07-.04.1-.1.1h-.56c-.06,0-.1-.04-.1-.1v-4.97c0-.06.04-.09.09-.09h2.16,0Z"/>
      <path class="st2" d="M205.85,44.94c-.68,0-1.06-.35-1.06-1v-.33c0-.07.04-.1.09-.1h.5c.06,0,.09.04.09.1v.23c0,.31.18.48.49.48h2.02c.06,0,.1.04.1.1v.42c0,.07-.04.1-.1.1h-2.14,0Z"/>
      <path class="st2" d="M208.64,49.03v-1.3c0-1.29.86-2.13,2.2-2.13s2.22.84,2.22,2.13v3.04c0,.07-.04.1-.1.1h-.57c-.05,0-.09-.04-.09-.1v-2.94c0-.95-.55-1.53-1.45-1.53s-1.43.58-1.43,1.53v1.15c0,.82.36,1.28,1.03,1.28.2,0,.35-.04.52-.13.06-.04.1-.03.13.03l.2.42c.03.06.02.11-.02.14-.22.16-.53.23-.91.23-1.07,0-1.71-.72-1.71-1.92h-.02Z"/>
      <path class="st2" d="M219.31,45.65c.06,0,.09.04.09.09v.46c0,.06-.04.09-.09.09h-1.22c.48.25.75.75.75,1.42v3.04c0,.07-.04.1-.09.1h-.57c-.06,0-.1-.04-.1-.1v-2.91c0-.94-.52-1.52-1.41-1.52s-1.37.58-1.37,1.52v.4h1.58c.05,0,.09.04.09.09v.47c0,.07-.04.1-.09.1h-1.57v1.84c0,.07-.04.1-.09.1h-.58c-.06,0-.09-.04-.09-.1v-3.02c0-1.3.83-2.1,2.13-2.1h2.63v.03Z"/>
      <path class="st2" d="M218.84,51.72v1.54c0,.06-.04.09-.1.09h-.51c-.05,0-.09-.04-.09-.09v-1.01h-.62c-.07,0-.1-.04-.1-.1v-.42c0-.07.04-.1.1-.1h1.23c.07,0,.1.04.1.1h-.01Z"/>
      <path class="st2" d="M224.3,47.53v3.23c0,.07-.04.1-.09.1h-.57c-.06,0-.1-.04-.1-.1v-2.3h-.88c-1.14,0-1.72.34-1.72,1,0,.5.34.8.92.8.21,0,.38-.04.53-.13.06-.03.1-.03.13.03l.2.42c.03.06.02.11-.02.14-.21.15-.52.23-.92.23-1,0-1.6-.53-1.6-1.42,0-1.1.89-1.7,2.5-1.7h.87v-.33c0-.75-.5-1.23-1.29-1.23-.63,0-1.07.31-1.31.78-.03.06-.06.07-.13.06l-.5-.16c-.06-.02-.08-.07-.06-.13.33-.75,1.07-1.22,2.05-1.22,1.23,0,2.01.75,2.01,1.94h-.02Z"/>
      <path class="st2" d="M228.09,45.7c1.25,0,1.94.64,1.94,1.82v3.24c0,.07-.04.1-.1.1h-.56c-.06,0-.1-.04-.1-.1v-3.24c0-.74-.45-1.15-1.24-1.15h-1.42v4.39c0,.07-.04.1-.1.1h-.56c-.06,0-.1-.04-.1-.1v-4.97c0-.06.04-.09.09-.09h2.16,0Z"/>
      <path class="st2" d="M233.54,50.87c-.06,0-.1-.04-.1-.1v-3.45c0-.63-.34-1.01-.89-1.01-.42,0-.73.22-.87.64-.03.06-.07.08-.13.07l-.48-.14c-.06-.02-.08-.08-.06-.13.25-.73.83-1.14,1.6-1.14,1,0,1.61.67,1.61,1.74v3.43c0,.07-.04.1-.09.1h-.59Z"/>
      <path class="st2" d="M238,45.7c1.25,0,1.94.64,1.94,1.82v3.24c0,.07-.04.1-.1.1h-.56c-.05,0-.1-.04-.1-.1v-3.24c0-.74-.45-1.15-1.24-1.15h-1.42v4.39c0,.07-.04.1-.1.1h-.56c-.06,0-.1-.04-.1-.1v-4.97c0-.06.04-.09.09-.09h2.16,0Z"/>
      <path class="st2" d="M241.05,49.64c-.03-.07,0-.12.06-.13l.5-.11c.07-.02.09,0,.12.07.22.56.63.84,1.25.84s1.01-.31,1.01-.8c0-.42-.27-.74-.95-.89l-.32-.07c-1-.23-1.49-.76-1.49-1.53,0-.87.65-1.41,1.68-1.41.88,0,1.5.39,1.79,1.22.02.06,0,.1-.07.12l-.47.1c-.06,0-.1,0-.12-.07-.2-.48-.6-.72-1.13-.72-.58,0-.91.27-.91.71s.31.69,1,.87l.3.07c.99.25,1.46.76,1.46,1.56,0,.92-.69,1.5-1.78,1.5-.95,0-1.63-.43-1.94-1.33h.01Z"/>
      <path class="st2" d="M247.94,42.36c.05,0,.09.04.09.09v.46s-.02.08-.06.12c-.6.39-.84.89-.84,1.73v6c0,.07-.04.1-.1.1h-.57c-.06,0-.09-.04-.09-.1v-5.99c0-.82.19-1.3.7-1.76h-1.7c-.07,0-.1-.04-.1-.1v-.46c0-.06.04-.09.1-.09h2.57Z"/>
      <path class="st2" d="M248.57,49.03v-1.3c0-1.29.86-2.13,2.2-2.13s2.22.84,2.22,2.13v3.04c0,.07-.04.1-.1.1h-.57c-.06,0-.09-.04-.09-.1v-2.94c0-.95-.55-1.53-1.45-1.53s-1.43.58-1.43,1.53v1.15c0,.82.36,1.28,1.03,1.28.2,0,.35-.04.52-.13.07-.04.1-.03.13.03l.2.42c.03.06.02.11-.02.14-.22.16-.53.23-.91.23-1.07,0-1.71-.72-1.71-1.92h-.02Z"/>
      <path class="st2" d="M253.37,44.32c.05,0,.09.04.09.1v.42c0,.07-.04.1-.09.1h-2.26c-.06,0-.09-.04-.09-.1v-.89h-.59c-.07,0-.1-.04-.1-.09v-.41c0-.06.04-.09.1-.09h.85c.26,0,.41.15.41.42v.55h1.69-.01Z"/>
      <path class="st2" d="M258.7,48.28c0,1.65-.91,2.69-2.37,2.69-1.35,0-2.21-.9-2.21-2.33v-.55c0-.06.04-.09.09-.09h2.21c.06,0,.09.04.09.09v.46c0,.06-.04.1-.09.1h-1.55v.03c0,.97.55,1.6,1.42,1.6.99,0,1.61-.79,1.61-2.01s-.64-1.98-1.67-1.98c-.63,0-1.17.33-1.4.85-.03.06-.06.07-.13.06l-.49-.15c-.07-.02-.08-.07-.06-.13.33-.82,1.15-1.31,2.14-1.31,1.47,0,2.4,1.04,2.4,2.68h.01Z"/>
      <path class="st2" d="M261.57,50.87c-1.17,0-1.86-.57-1.86-1.53,0-.6.35-1.08.91-1.26-.59-.15-.95-.6-.95-1.19,0-.78.58-1.28,1.48-1.28.38,0,.72.08.98.25.05.03.06.08.03.14l-.2.42c-.04.06-.07.06-.13.03-.2-.11-.38-.16-.6-.16-.48,0-.8.28-.8.7,0,.48.36.76,1,.76h.73c.06,0,.09.04.09.09v.45c0,.07-.04.1-.09.1h-.6c-.68,0-1.08.32-1.08.86,0,.6.42.94,1.18.94h1.31s.09-.04.09-.1v-4.3c0-.06.04-.09.1-.09h.57c.06,0,.09.04.09.09v4.97c0,.07-.04.1-.09.1h-2.17,0Z"/>
      <path class="st2" d="M263.18,44.94s-.09-.04-.09-.1v-1.43c0-.07.04-.1.09-.1h.52c.06,0,.09.04.09.1v1.43c0,.07-.04.1-.09.1h-.52Z"/>
      <path class="st2" d="M267.37,50.87c-.06,0-.1-.04-.1-.1v-3.45c0-.63-.34-1.01-.89-1.01-.42,0-.73.22-.87.64-.03.06-.07.08-.13.07l-.48-.14c-.06-.02-.08-.08-.06-.13.25-.73.83-1.14,1.6-1.14,1,0,1.61.67,1.61,1.74v3.43c0,.07-.04.1-.09.1h-.59Z"/>
      <path class="st2" d="M273.46,47.88c0,1.38-.73,2.43-2.07,2.96-.04.02-.08.03-.12.03h-.62c-.06,0-.09-.04-.11-.09l-1.53-4.97c-.02-.07.02-.1.08-.1h.58c.06,0,.09.03.11.08l1.32,4.4c1.05-.42,1.57-1.24,1.57-2.31,0-.98-.44-1.57-1.15-1.57-.19,0-.35.04-.49.12-.05.03-.1.02-.13-.04l-.2-.41c-.03-.06-.02-.11.03-.14.21-.15.51-.22.86-.22,1.14,0,1.86.88,1.86,2.26h.01Z"/>
      <path class="st2" d="M276.96,45.7c1.25,0,1.93.65,1.93,1.82v3.24c0,.07-.04.1-.1.1h-.56c-.06,0-.1-.04-.1-.1v-3.24c0-.74-.44-1.15-1.23-1.15h-1.49v2.87c0,.65.25,1.01.76,1.01.16,0,.29-.04.42-.11.06-.04.1-.04.13.03l.2.42c.03.06.02.1-.02.13-.2.15-.47.22-.81.22-.92,0-1.43-.58-1.43-1.61v-3.53c0-.06.04-.09.09-.09h2.22-.01Z"/>
      <path class="st2" d="M278.79,51.62c.06,0,.1.04.1.1v.67c0,.71-.45,1.13-1.24,1.13s-1.23-.42-1.23-1.11v-.25h-.44c-.06,0-.09-.04-.09-.09v-.34c0-.07.04-.1.09-.1h.97c.06,0,.1.04.1.1v.6c0,.4.21.63.6.63s.59-.23.59-.65v-.58c0-.07.04-.1.09-.1h.46Z"/>
      <path class="st2" d="M282.68,45.7c1.25,0,1.94.64,1.94,1.82v3.24c0,.07-.04.1-.1.1h-.56c-.06,0-.1-.04-.1-.1v-3.24c0-.74-.45-1.15-1.24-1.15h-1.42v4.39c0,.07-.04.1-.1.1h-.56c-.06,0-.1-.04-.1-.1v-4.97c0-.06.04-.09.09-.09h2.16,0Z"/>
      <path class="st2" d="M286.01,49.03v-1.33c0-1.11.52-1.84,1.47-2.08l.83.48.84-.48c.87.22,1.37.87,1.37,1.75v3.39c0,.07-.04.1-.1.1h-.57c-.06,0-.09-.04-.09-.1v-3.43c0-.52-.23-.88-.67-1.01l-.74.43h-.06l-.74-.43c-.5.16-.77.67-.77,1.45v1.2c0,.82.41,1.28,1.08,1.28.2,0,.35-.04.52-.13.07-.03.1-.03.13.03l.2.42c.03.06.02.11-.02.14-.22.15-.52.23-.91.23-1.07,0-1.76-.72-1.76-1.92h0Z"/>
      <path class="st2" d="M290.91,44.32s.09.04.09.1v.42c0,.07-.04.1-.09.1h-2.26c-.06,0-.09-.04-.09-.1v-.89h-.59c-.07,0-.1-.04-.1-.09v-.41c0-.06.04-.09.1-.09h.85c.26,0,.41.15.41.42v.55h1.69-.01Z"/>
      <path class="st2" d="M296.24,48.28c0,1.65-.91,2.69-2.37,2.69-1.35,0-2.21-.9-2.21-2.33v-.55c0-.06.04-.09.09-.09h2.21c.06,0,.09.04.09.09v.46c0,.06-.04.1-.09.1h-1.55v.03c0,.97.55,1.6,1.42,1.6.99,0,1.61-.79,1.61-2.01s-.64-1.98-1.67-1.98c-.63,0-1.17.33-1.41.85-.03.06-.06.07-.13.06l-.49-.15c-.07-.02-.08-.07-.07-.13.33-.82,1.16-1.31,2.14-1.31,1.47,0,2.4,1.04,2.4,2.68h.03Z"/>
      <path class="st2" d="M301.25,47.88c0,1.38-.73,2.43-2.07,2.96-.04.02-.08.03-.12.03h-.62s-.09-.04-.11-.09l-1.53-4.97c-.02-.07.02-.1.08-.1h.58c.06,0,.09.03.11.08l1.32,4.4c1.05-.42,1.57-1.24,1.57-2.31,0-.98-.44-1.57-1.15-1.57-.19,0-.35.04-.49.12-.06.03-.1.02-.13-.04l-.2-.41c-.03-.06-.02-.11.03-.14.21-.15.51-.22.86-.22,1.14,0,1.86.88,1.86,2.26h.01Z"/>
      <path class="st2" d="M148.44,63.56c-.07,0-.12-.05-.12-.12v-3.03c0-1.38.89-2.25,2.29-2.25s2.39.88,2.39,2.25v3.03c0,.07-.05.12-.12.12h-1c-.07,0-.12-.05-.12-.12v-2.84c0-.86-.4-1.32-1.16-1.32s-1.08.44-1.08,1.32v.24h1.27c.07,0,.12.05.12.12v.82c0,.07-.05.12-.12.12h-1.25v1.54c0,.07-.05.12-.12.12h-1,.02Z"/>
      <path class="st2" d="M154.07,62.16c-.03-.08,0-.14.08-.16l.91-.25c.08-.02.13,0,.16.08.2.49.55.75,1.01.75.72,0,1.16-.65,1.16-1.69s-.46-1.66-1.19-1.66c-.48,0-.87.27-1.06.77-.04.08-.07.11-.16.09l-.9-.23c-.08-.02-.11-.08-.08-.16.33-.99,1.14-1.55,2.23-1.55,1.51,0,2.44,1.05,2.44,2.74s-.93,2.77-2.43,2.77c-1.07,0-1.86-.55-2.17-1.51h0Z"/>
      <path class="st2" d="M159.36,62.32c-.03-.08,0-.14.08-.16l.87-.18c.07-.02.11,0,.15.07.19.35.49.57.94.57s.71-.2.71-.53c0-.27-.17-.5-.72-.62l-.3-.07c-1.07-.23-1.58-.81-1.58-1.68,0-.97.73-1.57,1.88-1.57.99,0,1.6.41,1.9,1.27.03.07,0,.13-.09.15l-.8.16c-.07.02-.13,0-.16-.08-.13-.31-.44-.47-.85-.47s-.65.18-.65.48.2.48.77.61l.29.07c1.05.24,1.56.8,1.56,1.69,0,1.01-.75,1.64-1.96,1.64-1.01,0-1.73-.44-2.04-1.35h0Z"/>
      <path class="st2" d="M169.14,58.21c.07,0,.12.05.12.12v.78c0,.07-.05.12-.12.12h-.92c.34.23.5.6.5,1.1v3.1c0,.07-.05.12-.12.12h-1c-.07,0-.12-.05-.12-.12v-2.06h-.76c-.81,0-1.27.18-1.27.64,0,.34.25.53.66.53.13,0,.23-.02.35-.07.07-.04.13-.03.16.05l.33.73c.03.07.02.13-.04.17-.22.15-.56.23-.98.23-1.05,0-1.72-.55-1.72-1.51,0-1.12.9-1.77,2.52-1.77h.75v-.14c0-.6-.41-.94-1.05-.94-.49,0-.85.2-1.06.58-.04.06-.08.08-.16.06l-.88-.27c-.08-.03-.11-.08-.08-.16.36-.83,1.17-1.29,2.23-1.29h2.66,0Z"/>
      <path class="st2" d="M174.72,60.93c0,1.68-.99,2.74-2.55,2.74-1.46,0-2.39-.93-2.39-2.38v-.66c0-.07.05-.12.12-.12h2.29c.07,0,.12.05.12.12v.78c0,.08-.05.12-.12.12h-1.18c.07.63.48,1.04,1.12,1.04.81,0,1.32-.65,1.32-1.66s-.54-1.66-1.4-1.66c-.51,0-.9.23-1.1.62-.04.07-.08.08-.16.07l-.87-.25c-.08-.03-.1-.08-.07-.16.36-.87,1.22-1.38,2.3-1.38,1.58,0,2.59,1.08,2.59,2.77h-.02Z"/>
      <path class="st2" d="M175.74,61.47v-3.08c0-.08.05-.12.12-.12h1c.07,0,.12.04.12.12v2.9c0,.81.38,1.27,1.08,1.27s1.08-.46,1.08-1.27v-2.9c0-.08.04-.12.12-.12h1c.08,0,.12.04.12.12v3.08c0,1.34-.9,2.2-2.32,2.2s-2.32-.86-2.32-2.2h0Z"/>
      <path class="st2" d="M184.2,58.27c1.38,0,2.14.71,2.14,2.02v3.15c0,.07-.05.12-.13.12h-.99c-.07,0-.12-.05-.12-.12v-3.15c0-.61-.37-.96-1.03-.96h-1.15v2.41c0,.53.17.79.58.79.11,0,.22-.02.34-.08.08-.04.13-.03.16.05l.33.73c.03.07.02.13-.04.17-.22.15-.56.23-.95.23-1.07,0-1.66-.61-1.66-1.72v-3.52c0-.07.05-.12.12-.12,0,0,2.4,0,2.4,0Z"/>
      <path class="st2" d="M189.72,63.56c-.07,0-.12-.05-.12-.12v-3.37c0-.5-.24-.79-.66-.79-.32,0-.55.17-.67.48-.03.07-.09.1-.16.08l-.85-.24c-.07-.02-.11-.08-.08-.16.28-.82.94-1.28,1.83-1.28,1.13,0,1.82.75,1.82,1.95v3.32c0,.07-.05.12-.12.12h-1,0Z"/>
      <path class="st2" d="M193.38,62.83l-.03.6c0,.08-.06.12-.13.12h-.9c-.07,0-.12-.05-.12-.12v-5.05c0-.07.05-.12.12-.12h1c.07,0,.12.05.12.12v2.61c0,.98.54,1.55,1.19,1.55.6,0,.93-.5.93-1.31v-2.85c0-.07.05-.12.12-.12h1c.07,0,.12.05.12.12v3.3c0,1.21-.69,1.98-1.79,1.98-.68,0-1.27-.3-1.63-.84h0Z"/>
      <path class="st2" d="M202.88,63.42c.04.08,0,.14-.09.14h-1.07c-.06,0-.13-.04-.15-.09l-.97-2.38h-1.2v2.36c0,.07-.05.12-.12.12h-1c-.07,0-.12-.05-.12-.12v-5.05c0-.07.05-.12.12-.12h.97c.07,0,.12.05.12.12v1.63h1.29c.57,0,.87-.29.87-.82v-.81c0-.07.05-.12.12-.12h.98c.07,0,.12.05.12.12v.93c0,.74-.34,1.29-.94,1.55l1.07,2.54h0Z"/>
      <path class="st2" d="M203.92,61.76v-3.37c0-.07.05-.12.12-.12h1c.07,0,.12.05.12.12v2.92c0,.77.34,1.24.92,1.24.66,0,1.2-.58,1.2-1.55v-2.61c0-.07.05-.12.12-.12h1c.07,0,.12.05.12.12v5.05c0,.07-.05.12-.12.12h-.91c-.08,0-.12-.05-.12-.12l-.03-.6c-.36.54-.95.84-1.63.84-1.1,0-1.79-.74-1.79-1.91h0Z"/>
      <path class="st2" d="M207.45,57.6c-.07,0-.12-.05-.12-.12v-1.62c0-.07.05-.12.12-.12h.9c.07,0,.12.05.12.12v1.62c0,.07-.05.12-.12.12h-.9Z"/>
      <path class="st2" d="M209.64,62.16c-.03-.08,0-.14.08-.16l.91-.25c.08-.02.13,0,.16.08.2.49.55.75,1.01.75.72,0,1.16-.65,1.16-1.69s-.46-1.66-1.19-1.66c-.48,0-.87.27-1.06.77-.04.08-.07.11-.16.09l-.9-.23c-.08-.02-.11-.08-.08-.16.33-.99,1.14-1.55,2.23-1.55,1.51,0,2.44,1.05,2.44,2.74s-.93,2.77-2.43,2.77c-1.07,0-1.86-.55-2.17-1.51h0Z"/>
      <path class="st2" d="M217.18,63.56c-1.38,0-2.04-.61-2.04-1.56,0-.6.34-1.1.88-1.28-.56-.13-.92-.61-.92-1.2,0-.82.64-1.34,1.65-1.34.4,0,.75.08,1,.23.06.04.07.1.04.17l-.32.72c-.04.07-.08.07-.16.05-.13-.05-.26-.07-.4-.07-.31,0-.58.15-.58.47s.23.47.65.47h.7c.07,0,.12.05.12.12v.75c0,.08-.05.13-.12.13h-.43c-.53,0-.86.22-.86.62,0,.44.31.66.93.66h1c.07,0,.12-.05.12-.12v-3.99c0-.07.05-.12.12-.12h1c.07,0,.12.05.12.12v5.05c0,.07-.05.12-.12.12h-2.39.01Z"/>
      <path class="st2" d="M225.43,60.57c0,1.39-.68,2.44-1.93,2.95-.05.03-.1.04-.16.04h-1.13c-.07,0-.12-.04-.14-.11l-1.5-5.05c-.03-.08.02-.13.11-.13h1.01c.07,0,.11.04.13.1l1.17,4.09c.74-.34,1.15-1,1.15-1.89,0-.81-.31-1.29-.81-1.29-.11,0-.23.03-.33.07-.07.04-.13.03-.16-.05l-.33-.73c-.03-.07-.02-.13.04-.17.22-.15.55-.23.91-.23,1.19,0,1.96.93,1.96,2.39h.01Z"/>
      <path class="st2" d="M228.55,63.56c-.07,0-.12-.05-.12-.12v-3.37c0-.5-.24-.79-.66-.79-.32,0-.55.17-.67.48-.03.07-.09.1-.16.08l-.85-.24c-.07-.02-.11-.08-.08-.16.28-.82.94-1.28,1.83-1.28,1.13,0,1.82.75,1.82,1.95v3.32c0,.07-.05.12-.12.12h-1,0Z"/>
      <path class="st2" d="M230.99,61.76v-3.37c0-.07.05-.12.12-.12h1c.07,0,.12.05.12.12v2.92c0,.77.34,1.24.92,1.24.66,0,1.2-.58,1.2-1.55v-2.61c0-.07.05-.12.12-.12h1c.07,0,.12.05.12.12v5.05c0,.07-.05.12-.12.12h-.91c-.08,0-.12-.05-.12-.12l-.03-.6c-.36.54-.95.84-1.63.84-1.1,0-1.79-.74-1.79-1.91h0Z"/>
      <path class="st2" d="M238.84,59.45c0-.43.33-.74.75-.74s.75.31.75.74-.33.74-.75.74-.75-.31-.75-.74ZM238.84,62.92c0-.43.33-.74.75-.74s.75.31.75.74-.33.74-.75.74-.75-.31-.75-.74Z"/>
    </g>
    <g>
      <g>
        <path class="st2" d="M47.16,102.46c1.02,0,1.58.53,1.58,1.49v2.65c0,.05-.03.08-.08.08h-.46s-.08-.03-.08-.08v-2.65c0-.61-.37-.95-1.01-.95h-1.17v3.6c0,.05-.03.08-.08.08h-.46s-.08-.03-.08-.08v-4.07s.03-.08.08-.08h1.77-.01Z"/>
        <path class="st2" d="M49.66,105.69c-.02-.06,0-.1.05-.11l.41-.09s.08,0,.1.05c.18.46.52.69,1.02.69s.82-.25.82-.65c0-.34-.22-.6-.78-.73l-.26-.06c-.82-.19-1.22-.62-1.22-1.25,0-.71.53-1.15,1.37-1.15.72,0,1.23.32,1.46,1,0,.05,0,.08-.06.1l-.38.08s-.08,0-.1-.05c-.16-.4-.49-.59-.92-.59-.47,0-.75.22-.75.58s.25.56.82.71l.24.06c.81.2,1.2.62,1.2,1.28,0,.75-.56,1.23-1.46,1.23-.78,0-1.33-.35-1.58-1.09h.02Z"/>
        <path class="st2" d="M54.31,105.94l-.03.66c0,.06-.03.08-.08.08h-.41s-.08-.03-.08-.08v-4.07s.03-.08.08-.08h.46s.08.03.08.08v2.22c0,.9.54,1.45,1.23,1.45.6,0,.95-.45.95-1.23v-2.43s.03-.08.08-.08h.47s.08.03.08.08v2.61c0,1.01-.53,1.62-1.41,1.62-.62,0-1.15-.31-1.42-.83Z"/>
        <path class="st2" d="M62.27,102.42s.08.03.08.08v.37s-.03.08-.08.08h-1c.4.21.61.62.61,1.17v2.49c0,.05-.03.08-.08.08h-.46s-.08-.03-.08-.08v-2.39c0-.77-.43-1.24-1.16-1.24s-1.12.47-1.12,1.24v.33h1.3s.08.03.08.08v.39c0,.05-.03.08-.08.08h-1.28v1.51c0,.05-.03.08-.08.08h-.47s-.08-.03-.08-.08v-2.47c0-1.07.68-1.71,1.75-1.71h2.16,0Z"/>
        <path class="st2" d="M61.88,107.39v1.26s-.03.08-.08.08h-.42s-.08-.03-.08-.08v-.83h-.51s-.08-.03-.08-.08v-.34c0-.05.03-.08.08-.08h1.01s.08.03.08.08h0Z"/>
        <path class="st2" d="M66.35,103.96v2.64c0,.05-.03.08-.08.08h-.47c-.05,0-.08-.03-.08-.08v-1.88h-.72c-.93,0-1.41.27-1.41.82,0,.41.28.66.75.66.18,0,.31-.03.43-.11.05-.02.08-.02.11.02l.16.34s.01.09-.02.11c-.18.12-.43.19-.75.19-.82,0-1.31-.43-1.31-1.17,0-.9.73-1.4,2.04-1.4h.71v-.27c0-.62-.41-1.01-1.05-1.01-.52,0-.88.25-1.07.64-.02.04-.05.06-.11.04l-.41-.13s-.07-.05-.05-.11c.27-.62.88-1,1.68-1,1,0,1.65.61,1.65,1.58v.04Z"/>
        <path class="st2" d="M69.45,102.46c1.02,0,1.58.53,1.58,1.49v2.65c0,.05-.03.08-.08.08h-.46s-.08-.03-.08-.08v-2.65c0-.61-.37-.95-1.01-.95h-1.17v3.6c0,.05-.03.08-.08.08h-.46s-.08-.03-.08-.08v-4.07s.03-.08.08-.08h1.77,0Z"/>
        <path class="st2" d="M73.91,106.69c-.05,0-.08-.03-.08-.08v-2.83c0-.52-.27-.83-.73-.83-.34,0-.6.18-.72.53-.02.05-.06.07-.11.05l-.4-.11s-.07-.06-.05-.11c.21-.59.68-.93,1.31-.93.81,0,1.32.55,1.32,1.42v2.8c0,.05-.03.08-.08.08h-.46,0Z"/>
        <path class="st2" d="M77.56,102.46c1.02,0,1.58.53,1.58,1.49v2.65c0,.05-.03.08-.08.08h-.46s-.08-.03-.08-.08v-2.65c0-.61-.37-.95-1.01-.95h-1.17v3.6c0,.05-.03.08-.08.08h-.46s-.08-.03-.08-.08v-4.07s.03-.08.08-.08h1.77,0Z"/>
        <path class="st2" d="M80.05,105.69c-.02-.06,0-.1.05-.11l.41-.09c.05-.01.08,0,.1.05.18.46.52.69,1.02.69s.82-.25.82-.65c0-.34-.22-.6-.78-.73l-.26-.06c-.82-.19-1.22-.62-1.22-1.25,0-.71.53-1.15,1.37-1.15.72,0,1.23.32,1.46,1,.02.05,0,.08-.06.1l-.38.08s-.08,0-.1-.05c-.16-.4-.49-.59-.92-.59-.47,0-.75.22-.75.58s.25.56.82.71l.24.06c.81.2,1.2.62,1.2,1.28,0,.75-.56,1.23-1.46,1.23-.78,0-1.33-.35-1.58-1.09h.02Z"/>
        <path class="st2" d="M83.91,103.24c0-.25.19-.43.44-.43s.44.18.44.43-.19.43-.44.43-.44-.18-.44-.43ZM83.91,106.33c0-.25.19-.43.44-.43s.44.18.44.43-.19.43-.44.43-.44-.18-.44-.43Z"/>
        <path class="st2" d="M87.72,106.69s-.08-.03-.08-.08v-4.07s.03-.08.08-.08h.46c.05,0,.08.03.08.08v4.07c0,.05-.03.08-.08.08h-.46Z"/>
        <path class="st2" d="M92.74,103.96v2.64c0,.05-.03.08-.08.08h-.47c-.05,0-.08-.03-.08-.08v-1.88h-.72c-.93,0-1.41.27-1.41.82,0,.41.28.66.75.66.18,0,.31-.03.43-.11.05-.02.08-.02.11.02l.16.34s.01.09-.02.11c-.18.12-.43.19-.75.19-.82,0-1.31-.43-1.31-1.17,0-.9.73-1.4,2.04-1.4h.71v-.27c0-.62-.41-1.01-1.05-1.01-.52,0-.88.25-1.07.64-.02.04-.05.06-.11.04l-.41-.13c-.05-.01-.07-.05-.05-.11.27-.62.88-1,1.68-1,1,0,1.65.61,1.65,1.58v.04Z"/>
        <path class="st2" d="M96.96,102.46c.05,0,.08.03.08.08v2.66c0,.99-.58,1.58-1.56,1.58s-1.55-.59-1.55-1.58v-.46c0-.55.25-.89.46-1.17.15-.2.28-.37.28-.57h-.81s-.08-.03-.08-.08v-.37s.03-.08.08-.08h1.34c.05,0,.08.03.08.08v.37c0,.3-.16.54-.34.79-.2.28-.4.59-.4,1.01v.43c0,.69.33,1.07.93,1.07s.94-.38.94-1.07v-2.6s.03-.08.08-.08h.47,0Z"/>
        <path class="st2" d="M98.36,106.69s-.08-.03-.08-.08v-4.07s.03-.08.08-.08h.41c.05,0,.08.02.08.08l.03.67c.27-.53.81-.83,1.44-.83.88,0,1.42.59,1.42,1.56v2.67c0,.05-.02.08-.08.08h-.46c-.05,0-.08-.03-.08-.08v-2.48c0-.75-.34-1.17-.96-1.17-.72,0-1.25.57-1.25,1.44v2.22c0,.05-.03.08-.08.08h-.47Z"/>
        <path class="st2" d="M98.55,101.85c-.05,0-.08-.03-.08-.08v-.34c0-.05.03-.08.08-.08h2.54v-.72s.03-.08.08-.08h.4c.05,0,.08.03.08.08v.94c0,.18-.11.28-.28.28h-2.83,0Z"/>
        <path class="st2" d="M101.18,100.04s-.08-.03-.08-.08v-1.04c0-.05.03-.08.08-.08h.39c.05,0,.08.03.08.08v1.04s-.03.08-.08.08h-.39Z"/>
        <path class="st2" d="M105.76,106.69s-.08-.03-.08-.08v-4.59l-1.08.6s-.08.02-.11-.04l-.1-.17s-.02-.08.02-.11l1.39-1.17s.06-.04.1-.04h.34s.08.03.08.08v5.43c0,.05-.03.08-.08.08h-.48,0Z"/>
        <path class="st2" d="M111.34,102.46c1.02,0,1.58.53,1.58,1.49v2.65c0,.05-.03.08-.08.08h-.46c-.05,0-.08-.03-.08-.08v-2.65c0-.61-.36-.95-1.01-.95h-1.22v2.35c0,.53.21.82.62.82.13,0,.24-.03.34-.09.05-.03.08-.03.11.02l.16.34s.01.08-.02.11c-.16.12-.39.18-.66.18-.75,0-1.17-.47-1.17-1.32v-2.89s.03-.08.08-.08h1.82v.02Z"/>
        <path class="st2" d="M113.96,106.33c0-.25.19-.43.44-.43s.44.18.44.43-.19.43-.44.43-.44-.18-.44-.43Z"/>
        <path class="st2" d="M119.5,102.42s.08.03.08.08v.37s-.03.08-.08.08h-.94c.36.19.56.56.56,1.04v2.61c0,.05-.03.08-.08.08h-.47c-.05,0-.08-.03-.08-.08v-1.88h-.72c-.93,0-1.41.27-1.41.82,0,.41.28.66.75.66.18,0,.31-.03.43-.11.05-.02.08-.02.11.02l.16.34s.01.09-.02.11c-.18.12-.43.19-.75.19-.82,0-1.31-.43-1.31-1.17,0-.9.73-1.4,2.04-1.4h.71v-.25c0-.6-.41-.98-1.05-.98-.52,0-.88.24-1.07.62-.02.05-.05.06-.11.05l-.41-.12c-.05-.01-.07-.06-.05-.11.27-.62.87-.99,1.68-.99h2.03v.02Z"/>
        <path class="st2" d="M119.11,107.39v1.26s-.03.08-.08.08h-.42s-.08-.03-.08-.08v-.83h-.51c-.05,0-.08-.03-.08-.08v-.34c0-.05.03-.08.08-.08h1.01c.05,0,.08.03.08.08h0Z"/>
        <path class="st2" d="M120.38,105.21v-2.67s.03-.08.08-.08h.46c.05,0,.08.03.08.08v2.49c0,.75.34,1.17.94,1.17.69,0,1.24-.55,1.24-1.45v-2.22s.03-.08.08-.08h.46c.05,0,.08.03.08.08v4.07c0,.05-.03.08-.08.08h-.41c-.05,0-.08-.03-.08-.08l-.02-.66c-.27.52-.8.83-1.43.83-.88,0-1.4-.58-1.4-1.56Z"/>
        <path class="st2" d="M125.17,106.69s-.08-.03-.08-.08v-4.07s.03-.08.08-.08h.41c.05,0,.08.02.08.08l.03.67c.27-.53.81-.83,1.44-.83.88,0,1.42.59,1.42,1.56v2.67c0,.05-.02.08-.08.08h-.46c-.05,0-.08-.03-.08-.08v-2.48c0-.75-.34-1.17-.96-1.17-.72,0-1.25.57-1.25,1.44v2.22c0,.05-.03.08-.08.08h-.47Z"/>
        <path class="st2" d="M129.47,105.69c-.02-.06,0-.1.05-.11l.41-.09c.05-.01.08,0,.1.05.18.46.52.69,1.02.69s.82-.25.82-.65c0-.34-.22-.6-.78-.73l-.26-.06c-.82-.19-1.22-.62-1.22-1.25,0-.71.53-1.15,1.37-1.15.72,0,1.23.32,1.46,1,0,.05,0,.08-.06.1l-.38.08s-.08,0-.1-.05c-.16-.4-.49-.59-.92-.59-.47,0-.75.22-.75.58s.25.56.82.71l.24.06c.81.2,1.2.62,1.2,1.28,0,.75-.56,1.23-1.46,1.23-.78,0-1.33-.35-1.58-1.09h.02Z"/>
        <path class="st2" d="M135.27,99.73s.08.03.08.08v.37c0,.05-.03.08-.08.08h-1.38c.4.35.56.74.56,1.39v4.95c0,.05-.03.08-.08.08h-.47s-.08-.03-.08-.08v-4.91c0-.69-.2-1.1-.69-1.42-.04-.03-.05-.05-.05-.1v-.13c0-.19.12-.32.31-.32h1.88Z"/>
        <path class="st2" d="M137.58,102.46c1.02,0,1.58.53,1.58,1.49v2.65c0,.05-.03.08-.08.08h-.46s-.08-.03-.08-.08v-2.65c0-.61-.37-.95-1.01-.95h-1.17v3.6c0,.05-.03.08-.08.08h-.46s-.08-.03-.08-.08v-4.07s.03-.08.08-.08h1.77,0Z"/>
        <path class="st2" d="M144.43,103.93c.05,0,.08.03.08.08v.39c0,.05-.03.08-.08.08h-.49v.49c0,1.1-.69,1.8-1.78,1.8s-1.78-.7-1.78-1.8v-2.43s.03-.08.08-.08h.46c.05,0,.08.03.08.08v2.34c0,.83.43,1.33,1.15,1.33s1.16-.5,1.16-1.33v-.4h-1.17c-.05,0-.08-.03-.08-.08v-.39s.03-.08.08-.08h1.17v-1.39s.03-.08.08-.08h.46s.08.03.08.08v1.39h.5Z"/>
        <path class="st2" d="M146.97,106.69c-.05,0-.08-.03-.08-.08v-2.83c0-.52-.27-.83-.73-.83-.34,0-.6.18-.72.53-.02.05-.06.07-.11.05l-.4-.11s-.07-.06-.05-.11c.21-.59.68-.93,1.31-.93.81,0,1.32.55,1.32,1.42v2.8c0,.05-.03.08-.08.08h-.46Z"/>
        <path class="st2" d="M150.51,106.69s-.08-.03-.08-.08v-2.47c0-1.08.67-1.76,1.73-1.76s1.78.68,1.78,1.76v2.47c0,.05-.03.08-.08.08h-.46c-.05,0-.08-.03-.08-.08v-2.39c0-.8-.43-1.27-1.16-1.27s-1.12.47-1.12,1.27v.33h1.3s.08.03.08.08v.39c0,.05-.03.08-.08.08h-1.28v1.51c0,.05-.03.08-.08.08h-.47,0Z"/>
        <path class="st2" d="M158.38,103.96v2.64c0,.05-.03.08-.08.08h-.47c-.05,0-.08-.03-.08-.08v-1.88h-.72c-.93,0-1.41.27-1.41.82,0,.41.28.66.75.66.18,0,.31-.03.43-.11.05-.02.08-.02.11.02l.16.34s0,.09-.02.11c-.18.12-.43.19-.75.19-.82,0-1.31-.43-1.31-1.17,0-.9.73-1.4,2.04-1.4h.71v-.27c0-.62-.41-1.01-1.05-1.01-.52,0-.88.25-1.07.64-.02.04-.05.06-.11.04l-.41-.13c-.05-.01-.07-.05-.05-.11.27-.62.88-1,1.68-1,1,0,1.65.61,1.65,1.58v.04Z"/>
        <path class="st2" d="M163.05,104.57c0,1.35-.75,2.2-1.94,2.2-1.1,0-1.81-.74-1.81-1.9v-.45s.03-.08.08-.08h1.8s.08.03.08.08v.37c0,.05-.03.08-.08.08h-1.26v.02c0,.79.45,1.31,1.17,1.31.81,0,1.32-.65,1.32-1.65s-.53-1.62-1.36-1.62c-.52,0-.96.27-1.15.69-.02.05-.05.06-.11.05l-.4-.12c-.06-.01-.07-.05-.05-.11.27-.67.94-1.07,1.75-1.07,1.2,0,1.97.85,1.97,2.19h-.01Z"/>
        <path class="st2" d="M167.15,104.25c0,1.13-.59,1.99-1.69,2.42-.03.01-.07.02-.1.02h-.51s-.08-.03-.09-.08l-1.25-4.07c0-.05.02-.08.07-.08h.47s.08.02.09.07l1.08,3.6c.86-.34,1.29-1.01,1.29-1.89,0-.8-.36-1.29-.94-1.29-.15,0-.29.03-.4.1-.05.02-.08.01-.11-.03l-.16-.34s0-.09.02-.11c.18-.12.42-.18.7-.18.93,0,1.52.72,1.52,1.85h0Z"/>
        <path class="st2" d="M168.29,106.69s-.08-.03-.08-.08v-4.07s.03-.08.08-.08h.46c.05,0,.08.03.08.08v4.07c0,.05-.03.08-.08.08h-.46Z"/>
        <path class="st2" d="M170.01,105.19v-1.09c0-.91.43-1.51,1.2-1.7l.68.4.69-.4c.72.18,1.12.71,1.12,1.43v2.77c0,.05-.03.08-.08.08h-.47s-.08-.03-.08-.08v-2.8c0-.43-.19-.72-.55-.83l-.6.35h-.05l-.6-.35c-.41.13-.63.55-.63,1.19v.98c0,.67.34,1.05.88,1.05.17,0,.29-.03.43-.11.05-.02.08-.02.11.02l.16.34s0,.09-.02.11c-.18.12-.43.19-.75.19-.88,0-1.44-.59-1.44-1.57v.02Z"/>
        <path class="st2" d="M176.31,106.69c-.96,0-1.52-.47-1.52-1.25,0-.49.28-.88.75-1.03-.48-.12-.78-.49-.78-.98,0-.64.47-1.04,1.21-1.04.31,0,.59.07.8.2.04.02.05.07.02.11l-.16.34s-.05.05-.11.02c-.16-.09-.31-.13-.49-.13-.4,0-.65.23-.65.57,0,.4.3.62.81.62h.59s.08.03.08.08v.37c0,.05-.03.08-.08.08h-.49c-.56,0-.88.26-.88.7,0,.5.34.77.97.77h1.07s.08-.03.08-.08v-3.52s.03-.08.08-.08h.46s.08.03.08.08v4.07c0,.05-.03.08-.08.08h-1.78l.02.02Z"/>
        <path class="st2" d="M182.99,102.46c1.02,0,1.58.53,1.58,1.49v2.65c0,.05-.03.08-.08.08h-.46s-.08-.03-.08-.08v-2.65c0-.61-.37-.95-1.01-.95h-1.17v3.6c0,.05-.03.08-.08.08h-.46s-.08-.03-.08-.08v-4.07s.03-.08.08-.08h1.77,0Z"/>
        <path class="st2" d="M185.9,106.69s-.08-.03-.08-.08v-4.07s.03-.08.08-.08h.41c.05,0,.08.02.08.08l.03.67c.27-.53.81-.83,1.44-.83.88,0,1.42.59,1.42,1.56v2.67c0,.05-.02.08-.08.08h-.46c-.05,0-.08-.03-.08-.08v-2.48c0-.75-.34-1.17-.96-1.17-.72,0-1.25.57-1.25,1.44v2.22c0,.05-.03.08-.08.08h-.47Z"/>
        <path class="st2" d="M191.14,105.94l-.03.66c0,.06-.03.08-.08.08h-.41s-.08-.03-.08-.08v-4.07s.03-.08.08-.08h.46c.05,0,.08.03.08.08v2.22c0,.9.54,1.45,1.23,1.45.6,0,.95-.45.95-1.23v-2.43s.03-.08.08-.08h.47c.05,0,.08.03.08.08v2.61c0,1.01-.53,1.62-1.41,1.62-.62,0-1.15-.31-1.42-.83Z"/>
        <path class="st2" d="M195.03,106.33c0-.25.19-.43.44-.43s.44.18.44.43-.19.43-.44.43-.44-.18-.44-.43Z"/>
        <path class="st2" d="M199.75,106.69s-.08-.03-.08-.08v-4.59l-1.08.6s-.08.02-.11-.04l-.1-.17s-.02-.08.02-.11l1.39-1.17s.06-.04.1-.04h.34s.08.03.08.08v5.43c0,.05-.03.08-.08.08h-.48Z"/>
        <path class="st2" d="M201.54,103.9c0-1.82.77-2.9,2.07-2.9s2.07,1.08,2.07,2.9-.77,2.9-2.07,2.9-2.07-1.08-2.07-2.9ZM205.02,103.9c0-1.5-.52-2.28-1.41-2.28s-1.41.78-1.41,2.28.52,2.28,1.41,2.28,1.41-.78,1.41-2.28Z"/>
        <path class="st2" d="M207.8,106.69s-.08-.03-.08-.08v-4.59l-1.08.6s-.08.02-.11-.04l-.1-.17s-.02-.08.02-.11l1.39-1.17s.06-.04.1-.04h.34s.08.03.08.08v5.43c0,.05-.03.08-.08.08h-.48Z"/>
        <path class="st2" d="M210.86,106.69s-.08-.03-.08-.08v-4.59l-1.08.6s-.08.02-.11-.04l-.1-.17s-.02-.08.02-.11l1.39-1.17s.06-.04.1-.04h.34s.08.03.08.08v5.43c0,.05-.03.08-.08.08h-.48Z"/>
        <path class="st2" d="M212.64,103.9c0-1.82.77-2.9,2.07-2.9s2.07,1.08,2.07,2.9-.77,2.9-2.07,2.9-2.07-1.08-2.07-2.9ZM216.12,103.9c0-1.5-.52-2.28-1.41-2.28s-1.41.78-1.41,2.28.52,2.28,1.41,2.28,1.41-.78,1.41-2.28Z"/>
      </g>
      <g>
        <g>
          <polygon class="st2" points="265.43 100.74 257.33 100.74 261.4 103.75 265.43 100.74"/>
          <polygon class="st2" points="256.8 101.09 256.8 106.07 259.99 103.43 256.8 101.09"/>
          <polygon class="st2" points="265.95 101.09 262.77 103.43 265.95 106.07 265.95 101.09"/>
          <path class="st2" d="M265.43,106.41l-3.12-2.58c-.12-.06-.74.61-.96.61l-.87-.62-3.15,2.59h8.1,0Z"/>
        </g>
        <g>
          <path class="st2" d="M270.7,106.12c-.06,0-.1-.04-.1-.1v-3.98l-.99.39s-.1,0-.13-.05l-.14-.27c-.02-.05-.01-.1.03-.13l1.43-1.22s.07-.04.12-.04h.57c.06,0,.1.04.1.1v5.21c0,.06-.04.1-.1.1h-.8.01Z"/>
          <path class="st2" d="M273.86,106.12c-.06,0-.1-.04-.1-.1v-3.98l-.99.39s-.1,0-.13-.05l-.14-.27c-.02-.05-.01-.1.03-.13l1.43-1.22s.07-.04.12-.04h.57c.06,0,.1.04.1.1v5.21c0,.06-.04.1-.1.1h-.8.01Z"/>
          <path class="st2" d="M275.73,104.33c0-.66.25-1.22.96-2.27l.88-1.29s.07-.06.12-.06h.93c.07,0,.1.06.06.12l-1.32,1.88c.19-.08.39-.12.62-.12.99,0,1.69.73,1.69,1.79s-.8,1.84-1.97,1.84-1.97-.8-1.97-1.89h0ZM278.61,104.35c0-.54-.38-.9-.93-.9s-.93.36-.93.9.38.9.93.9.93-.36.93-.9Z"/>
          <path class="st2" d="M282.86,106.12c-.06,0-.1-.04-.1-.1v-.95h-2.56c-.06,0-.1-.04-.1-.1v-.24s0-.08.04-.12l2.85-3.84s.07-.06.12-.06h.55c.06,0,.1.04.1.1v3.33h.7c.06,0,.1.04.1.1v.74c0,.06-.04.1-.1.1h-.7v.95c0,.06-.04.1-.1.1h-.8ZM282.77,104.14v-1.7l-1.23,1.7h1.23Z"/>
          <path class="st2" d="M285.19,104.45c0-2.05,1.43-3.4,3.47-3.4s3.35,1.28,3.35,3.15c0,1.2-.6,1.99-1.47,1.99-.49,0-.87-.26-.96-.72-.23.44-.68.72-1.21.72-.98,0-1.63-.72-1.63-1.77s.66-1.77,1.63-1.77c.47,0,.88.22,1.13.58v-.41c.01-.07.05-.1.11-.1h.54c.06,0,.1.04.1.1v2.09c0,.36.13.53.42.53.31,0,.53-.5.53-1.24,0-1.56-.99-2.41-2.54-2.41s-2.66.86-2.66,2.66,1.13,2.58,2.71,2.58c.32,0,.59-.02.84-.07.07-.01.1.02.1.09v.52c0,.05-.02.1-.07.1-.29.07-.61.1-1.02.1-2.08,0-3.38-1.38-3.38-3.32h0ZM289.45,104.42c0-.59-.38-1-.93-1s-.93.41-.93,1,.38,1,.93,1,.93-.41.93-1Z"/>
          <path class="st2" d="M292.7,104.21c0-1.17.76-1.98,1.95-1.98.85,0,1.45.35,1.73,1.1.02.06,0,.11-.07.12l-.63.18s-.1,0-.12-.06c-.17-.32-.45-.49-.85-.49-.69,0-1.02.51-1.02,1.11s.33,1.11,1.02,1.11c.4,0,.69-.17.85-.51.03-.05.07-.07.12-.06l.7.17c.06.01.08.06.06.12-.3.79-.95,1.15-1.79,1.15-1.21,0-1.96-.81-1.96-1.98v.02Z"/>
          <path class="st2" d="M297.14,104.78v-2.38c0-.06.04-.1.1-.1h.77c.06,0,.1.04.1.1v1.99c0,.63.23.93.73.93.46,0,.9-.35.9-1.07v-1.85c0-.06.04-.1.1-.1h.77c.06,0,.1.04.1.1v3.62c0,.06-.04.1-.1.1h-.69c-.06,0-.1-.03-.1-.1l-.02-.43c-.28.4-.76.6-1.24.6-.88,0-1.39-.53-1.39-1.41h-.03Z"/>
          <path class="st2" d="M301.4,105.17c-.02-.06,0-.1.07-.12l.67-.18s.1,0,.12.06c.18.31.44.41.77.41s.56-.07.56-.28c0-.16-.16-.25-.57-.37l-.18-.05c-.91-.26-1.27-.71-1.27-1.3,0-.65.59-1.12,1.45-1.12.74,0,1.26.31,1.49.96.02.06,0,.1-.06.12l-.67.21c-.06.02-.1,0-.12-.05-.13-.24-.33-.39-.66-.39-.25,0-.45.07-.45.27,0,.18.17.28.59.38l.18.04c.93.24,1.25.63,1.25,1.27,0,.7-.63,1.15-1.51,1.15s-1.41-.35-1.66-1.02h0Z"/>
          <path class="st2" d="M305.63,104.64v-1.49h-.56c-.06,0-.1-.04-.1-.1v-.66c0-.06.04-.1.1-.1h.56v-1.02c0-.06.04-.1.1-.1h.77c.06,0,.1.04.1.1v1.02h.9c.06,0,.1.04.1.1v.66c0,.06-.04.1-.1.1h-.9v1.55c0,.41.13.62.43.62.13,0,.21-.05.29-.18.03-.05.07-.07.13-.04l.57.26c.06.03.07.08.03.15-.27.5-.69.68-1.13.68-.82,0-1.28-.51-1.28-1.55h-.01Z"/>
          <path class="st2" d="M308.28,104.21c0-1.16.8-1.98,2.02-1.98s2.02.82,2.02,1.98-.8,1.98-2.02,1.98-2.02-.82-2.02-1.98ZM311.33,104.21c0-.66-.42-1.11-1.03-1.11s-1.03.46-1.03,1.11.42,1.11,1.03,1.11,1.03-.46,1.03-1.11Z"/>
          <path class="st2" d="M313.19,106.12c-.06,0-.1-.04-.1-.1v-3.62c0-.06.04-.1.1-.1h.69c.06,0,.1.03.1.1l.02.46c.27-.41.74-.63,1.21-.63.57,0,.99.25,1.2.7.28-.46.78-.7,1.3-.7.83,0,1.34.53,1.34,1.41v2.38c0,.06-.04.1-.1.1h-.77c-.06,0-.1-.04-.1-.1v-1.99c0-.63-.24-.93-.68-.93s-.87.35-.87,1.07v1.85c0,.06-.04.1-.1.1h-.77c-.06,0-.1-.04-.1-.1v-1.99c0-.63-.24-.93-.68-.93s-.87.35-.87,1.07v1.85c0,.06-.04.1-.1.1h-.77.05Z"/>
          <path class="st2" d="M319.73,105.17c-.02-.06,0-.1.07-.12l.67-.18s.1,0,.12.06c.18.31.44.41.77.41s.56-.07.56-.28c0-.16-.16-.25-.57-.37l-.18-.05c-.91-.26-1.27-.71-1.27-1.3,0-.65.59-1.12,1.45-1.12.74,0,1.26.31,1.49.96.02.06,0,.1-.06.12l-.67.21c-.06.02-.1,0-.12-.05-.13-.24-.33-.39-.66-.39-.25,0-.45.07-.45.27,0,.18.17.28.59.38l.18.04c.93.24,1.25.63,1.25,1.27,0,.7-.63,1.15-1.51,1.15s-1.41-.35-1.66-1.02h0Z"/>
          <path class="st2" d="M323.51,105.61c0-.34.26-.58.6-.58s.6.24.6.58-.26.58-.6.58-.6-.24-.6-.58Z"/>
          <path class="st2" d="M325.41,106.7c-.03-.06,0-.1.05-.12l.62-.23s.1,0,.12.05c.18.32.48.52.99.52.59,0,1.09-.25,1.09-.93v-.35c-.28.34-.7.54-1.2.54-1.09,0-1.78-.81-1.78-1.98s.69-1.98,1.78-1.98c.53,0,.97.22,1.24.6l.02-.43c0-.07.04-.1.1-.1h.69c.06,0,.1.04.1.1v3.5c0,1.21-.82,1.89-2.02,1.89-.82,0-1.52-.37-1.82-1.1l.02.02ZM328.36,104.21c0-.66-.42-1.11-1.03-1.11s-1.03.46-1.03,1.11.42,1.11,1.03,1.11,1.03-.46,1.03-1.11Z"/>
          <path class="st2" d="M330.02,104.21c0-1.16.8-1.98,2.02-1.98s2.02.82,2.02,1.98-.8,1.98-2.02,1.98-2.02-.82-2.02-1.98ZM333.07,104.21c0-.66-.42-1.11-1.03-1.11s-1.03.46-1.03,1.11.42,1.11,1.03,1.11,1.03-.46,1.03-1.11Z"/>
          <path class="st2" d="M334.66,105.61c0-.34.26-.58.6-.58s.6.24.6.58-.26.58-.6.58-.6-.24-.6-.58Z"/>
          <path class="st2" d="M336.66,104.64v-1.49h-.56c-.06,0-.1-.04-.1-.1v-.66c0-.06.04-.1.1-.1h.56v-1.02c0-.06.04-.1.1-.1h.77c.06,0,.1.04.1.1v1.02h.9c.06,0,.1.04.1.1v.66c0,.06-.04.1-.1.1h-.9v1.55c0,.41.13.62.43.62.13,0,.21-.05.29-.18.03-.05.07-.07.13-.04l.57.26c.06.03.07.08.03.15-.27.5-.69.68-1.13.68-.82,0-1.28-.51-1.28-1.55h-.01Z"/>
          <path class="st2" d="M339.7,106.12c-.06,0-.1-.04-.1-.1v-5.33c0-.06.04-.1.1-.1h.77c.06,0,.1.04.1.1v2.08c.29-.37.74-.54,1.2-.54.88,0,1.39.53,1.39,1.41v2.38c0,.06-.04.1-.1.1h-.77c-.06,0-.1-.04-.1-.1v-1.99c0-.63-.23-.93-.73-.93-.46,0-.91.35-.91,1.07v1.85c0,.06-.04.1-.1.1h-.77.02Z"/>
        </g>
        <g>
          <path class="st2" d="M228.43,105.93c-.52-.14-.99-.55-1.39-.9-.25-.22-1.82-1.84-1.6-2.11.32-.12.61-.08.67-.49s-.02-1.65-.57-1.64-1.03.37-1.2.89c-.75,2.32,2.94,6.01,5.25,5.34.38-.11.75-.41.87-.8.06-.21.15-.57-.03-.73-.25-.23-1.36-.34-1.67-.23-.26.09-.25.45-.32.67h0Z"/>
          <g>
            <path class="st2" d="M234.91,106.35c-.06,0-.1-.04-.1-.1v-3.98l-.99.39c-.05.02-.1,0-.13-.05l-.14-.26c-.02-.05,0-.1.03-.13l1.43-1.22s.07-.04.12-.04h.57c.06,0,.1.04.1.1v5.21c0,.06-.04.1-.1.1h-.8v-.02Z"/>
            <path class="st2" d="M238.07,106.35c-.06,0-.1-.04-.1-.1v-3.98l-.99.39c-.05.02-.1,0-.13-.05l-.14-.26c-.02-.05,0-.1.03-.13l1.43-1.22s.07-.04.12-.04h.57c.06,0,.1.04.1.1v5.21c0,.06-.04.1-.1.1h-.8v-.02Z"/>
            <path class="st2" d="M239.94,104.56c0-.66.25-1.22.96-2.27l.88-1.29s.07-.06.12-.06h.93c.07,0,.1.06.06.12l-1.32,1.88c.19-.08.39-.12.62-.12.99,0,1.69.73,1.69,1.79s-.8,1.84-1.97,1.84-1.97-.79-1.97-1.89h0ZM242.82,104.58c0-.54-.38-.9-.93-.9s-.93.36-.93.9.38.9.93.9.93-.36.93-.9Z"/>
            <path class="st2" d="M247.08,106.35c-.06,0-.1-.04-.1-.1v-.95h-2.56c-.06,0-.1-.04-.1-.1v-.24s0-.08.04-.12l2.85-3.84s.07-.06.12-.06h.55c.06,0,.1.04.1.1v3.33h.7c.06,0,.1.04.1.1v.74c0,.06-.04.1-.1.1h-.7v.95c0,.06-.04.1-.1.1h-.8,0ZM246.98,104.37v-1.7l-1.23,1.7h1.23Z"/>
          </g>
        </g>
      </g>
    </g>
  </g>
</svg>