<?xml version="1.0" encoding="UTF-8"?>
<svg id="Layer_1" xmlns="http://www.w3.org/2000/svg" version="1.1" viewBox="0 0 390 48">
  <!-- Generator: Adobe Illustrator 29.4.0, SVG Export Plug-In . SVG Version: 2.1.0 Build 152)  -->
  <defs>
    <style>
      .st0 {
        fill: #0c685b;
      }

      .st1 {
        fill: #fff;
      }

      .st2 {
        fill: #fef5a2;
      }
    </style>
  </defs>
  <rect class="st0" y="0" width="390" height="48"/>
  <g>
    <path class="st1" d="M72.46,12.74c-2.47-1.16-5.24-1.27-7.82-2.04-1.09-.32-2.2-.7-3.23-1.19-.63-.32-1.27-.66-1.77-1.16,0,0,0-.01-.02-.02,0,0,0-.02-.02-.03,0,0,0-.02-.02-.02h0c-.15-.17-.6-.72-1.15-1.72-.02-.06-.04-.09-.04-.09l-.04.09c-.55,1-1,1.55-1.15,1.72h0s0,.01-.02.02c0,.01-.02.02-.02.03,0,0,0,.01-.02.02-.5.5-1.14.84-1.77,1.16-1.02.49-2.14.87-3.23,1.19-2.58.77-5.35.87-7.82,2.04-2.73,1.21-5.15,3.66-5.54,6.71,1.38-3.63,4.97-5.73,8.71-6.14,2.98-.27,5.99-.56,8.81-1.66.65-.27,1.49-.57,2.08-.96l2.1.96c2.82,1.11,5.84,1.39,8.81,1.66,3.74.4,7.33,2.51,8.71,6.14-.39-3.05-2.81-5.5-5.54-6.71h0Z"/>
    <g>
      <g>
        <path class="st2" d="M51.38,19.22h-1.07v-3.79h1.07v3.79ZM52.55,17.72h-1.26v-.78h1.26v.78ZM52.45,15.43h1.07v3.79h-1.07v-3.79Z"/>
        <path class="st2" d="M55.41,19.31c-.36,0-.62-.08-.79-.24-.16-.16-.25-.41-.25-.76,0-.19.03-.35.08-.48.05-.13.14-.23.27-.31.12-.08.29-.13.5-.16s.48-.05.79-.05h.35v.56h-.57c-.17,0-.28.02-.34.06-.06.04-.09.11-.09.22v.43h.39c.17,0,.28-.02.34-.05.06-.04.09-.11.09-.21v-1.38c-.08-.02-.21-.04-.38-.04s-.36.01-.55.04-.4.06-.61.12l-.13-.75c.14-.04.29-.08.44-.11.15-.03.31-.05.48-.07.16-.01.33-.02.49-.02.31,0,.56.04.76.11.19.07.34.18.43.33s.14.34.14.58v2.1h-.53l-.27-.3c-.15.13-.31.22-.49.29-.18.07-.36.1-.56.1h.01Z"/>
        <path class="st2" d="M59.3,18.46c.06,0,.11.02.16.02s.1.01.14.02l-.05.72c-.11.03-.21.05-.32.07-.1.02-.2.02-.29.02-.24,0-.42-.05-.53-.15-.12-.1-.17-.25-.17-.46v-3.42l1.07-.09v3.27h-.01Z"/>
        <path class="st2" d="M61.23,19.31c-.36,0-.62-.08-.79-.24-.16-.16-.25-.41-.25-.76,0-.19.03-.35.08-.48.05-.13.14-.23.27-.31.12-.08.29-.13.5-.16s.48-.05.79-.05h.35v.56h-.57c-.17,0-.28.02-.34.06-.06.04-.09.11-.09.22v.43h.39c.17,0,.28-.02.34-.05.06-.04.09-.11.09-.21v-1.38c-.08-.02-.21-.04-.38-.04s-.36.01-.55.04-.4.06-.61.12l-.13-.75c.14-.04.29-.08.44-.11.15-.03.31-.05.48-.07.16-.01.33-.02.49-.02.31,0,.56.04.76.11.19.07.34.18.43.33s.14.34.14.58v2.1h-.53l-.27-.3c-.15.13-.31.22-.49.29-.18.07-.36.1-.56.1h.01Z"/>
        <path class="st2" d="M65.13,18.46c.06,0,.11.02.16.02s.1.01.14.02l-.05.72c-.11.03-.21.05-.32.07-.1.02-.2.02-.29.02-.24,0-.42-.05-.53-.15-.12-.1-.17-.25-.17-.46v-3.42l1.07-.09v3.27h-.01Z"/>
      </g>
      <g>
        <path class="st1" d="M51.38,19.22h-1.07v-3.79h1.07v3.79ZM52.55,17.72h-1.26v-.78h1.26v.78ZM52.45,15.43h1.07v3.79h-1.07v-3.79Z"/>
        <path class="st1" d="M55.41,19.31c-.36,0-.62-.08-.79-.24-.16-.16-.25-.41-.25-.76,0-.19.03-.35.08-.48.05-.13.14-.23.27-.31.12-.08.29-.13.5-.16s.48-.05.79-.05h.35v.56h-.57c-.17,0-.28.02-.34.06-.06.04-.09.11-.09.22v.43h.39c.17,0,.28-.02.34-.05.06-.04.09-.11.09-.21v-1.38c-.08-.02-.21-.04-.38-.04s-.36.01-.55.04-.4.06-.61.12l-.13-.75c.14-.04.29-.08.44-.11.15-.03.31-.05.48-.07.16-.01.33-.02.49-.02.31,0,.56.04.76.11.19.07.34.18.43.33s.14.34.14.58v2.1h-.53l-.27-.3c-.15.13-.31.22-.49.29-.18.07-.36.1-.56.1h.01Z"/>
        <path class="st1" d="M59.3,18.46c.06,0,.11.02.16.02s.1.01.14.02l-.05.72c-.11.03-.21.05-.32.07-.1.02-.2.02-.29.02-.24,0-.42-.05-.53-.15-.12-.1-.17-.25-.17-.46v-3.42l1.07-.09v3.27h-.01Z"/>
        <path class="st1" d="M61.23,19.31c-.36,0-.62-.08-.79-.24-.16-.16-.25-.41-.25-.76,0-.19.03-.35.08-.48.05-.13.14-.23.27-.31.12-.08.29-.13.5-.16s.48-.05.79-.05h.35v.56h-.57c-.17,0-.28.02-.34.06-.06.04-.09.11-.09.22v.43h.39c.17,0,.28-.02.34-.05.06-.04.09-.11.09-.21v-1.38c-.08-.02-.21-.04-.38-.04s-.36.01-.55.04-.4.06-.61.12l-.13-.75c.14-.04.29-.08.44-.11.15-.03.31-.05.48-.07.16-.01.33-.02.49-.02.31,0,.56.04.76.11.19.07.34.18.43.33s.14.34.14.58v2.1h-.53l-.27-.3c-.15.13-.31.22-.49.29-.18.07-.36.1-.56.1h.01Z"/>
        <path class="st1" d="M65.13,18.46c.06,0,.11.02.16.02s.1.01.14.02l-.05.72c-.11.03-.21.05-.32.07-.1.02-.2.02-.29.02-.24,0-.42-.05-.53-.15-.12-.1-.17-.25-.17-.46v-3.42l1.07-.09v3.27h-.01Z"/>
      </g>
    </g>
    <path class="st1" d="M44.41,34.03s.05-.03.08-.04c.07-.03.15-.07.21-.03.12.06.06.24-.02.35-1.6,2.17-4.19,3.51-6.86,3.85s-5.42-.29-7.83-1.49c-1.19-.59-2.31-1.32-3.53-1.84s-2.58-.85-3.88-.58c.43-.6,1.15-.94,1.87-1.08s1.47-.1,2.21-.09c.09,0,.19,0,.25-.06s.06-.15.06-.24v-14c0-.63-.03-1.34-.49-1.77-.25-.23-.57-.34-.88-.44-.11-.04-.22-.06-.24-.2-.02-.09.02-.2.1-.26.12-.09.33-.04.46-.04h10.52c.1,0,.2,0,.27.07s.07.17.07.26c.02.84,0,1.69-.03,2.53-.28-.08-.43-.36-.59-.6-.86-1.35-2.71-1.96-4.21-1.41-.33.12-.65.3-.85.58-.29.4-.3.92-.29,1.41,0,1.59,0,3.18.01,4.77,0,.05-.1.01-.08-.04s.09-.05.15-.04c.64.08,1.3.18,1.93.03s1.23-.62,1.33-1.26c.02-.13.02-.28.09-.39s.26-.16.34-.05c.03.05.04.11.04.17v3.84c0,.06,0,.13-.03.18-.08.12-.28.06-.36-.06s-.07-.28-.09-.42c-.06-.46-.42-.84-.84-1.04s-.9-.25-1.36-.25c-.37,0-.75.02-1.12.06v8.64c0,.18,0,.37.11.52.12.18.35.24.56.3,2.15.54,4.32,1.08,6.53,1.23,2.18.15,4.44-.1,6.4-1.06h-.01Z"/>
    <path class="st1" d="M38.28,31.13s.11-.12.19-.22.17-.22.28-.35c.1-.13.22-.27.34-.43.12-.15.24-.3.36-.46.27-.36.57-.75.9-1.16-.37-.64-.72-1.23-1.04-1.77-.14-.23-.28-.47-.42-.7-.14-.23-.27-.45-.4-.66s-.24-.39-.34-.55-.18-.29-.24-.38c-.15-.21-.29-.4-.41-.56s-.26-.31-.4-.44c-.14-.13-.29-.24-.45-.33s-.34-.16-.54-.22c-.06-.02-.11-.04-.13-.08-.03-.04-.04-.08-.03-.12,0-.04.02-.08.06-.11.03-.03.08-.05.15-.05h5.99s.1.02.14.05c.04.03.06.07.07.11,0,.04,0,.09-.02.13-.02.04-.07.07-.14.09-.12.03-.23.07-.36.13-.12.05-.22.13-.29.24-.07.1-.11.24-.12.42,0,.17.04.4.15.67.07.17.16.36.26.56.1.21.21.4.31.58.12.21.24.42.36.63.2-.26.39-.51.56-.75.15-.2.29-.4.42-.59.13-.19.22-.34.26-.43.1-.27.15-.49.15-.67,0-.17-.04-.31-.12-.42-.08-.1-.17-.18-.29-.24s-.23-.1-.35-.13c-.07-.02-.12-.04-.14-.09-.02-.04-.03-.09-.02-.13,0-.04.03-.08.06-.11s.08-.05.15-.05h3.31c.12,0,.18.05.2.14s-.04.17-.16.22c-.34.16-.63.35-.88.57s-.51.49-.8.82c-.05.05-.11.13-.19.23-.08.1-.17.22-.27.34-.1.13-.21.27-.32.41-.11.15-.22.29-.33.43-.26.34-.54.71-.84,1.09.41.7.79,1.35,1.14,1.94.15.26.3.51.45.76s.29.49.42.7c.13.21.24.4.34.57.1.16.17.28.22.35.28.42.56.75.84,1,.28.24.61.42,1,.54.06.02.11.05.13.09.03.04.04.08.03.12,0,.04-.03.07-.06.1s-.08.05-.13.05h-6.11c-.06,0-.11-.02-.15-.05s-.06-.07-.06-.11,0-.09.02-.13.07-.07.14-.09c.12-.03.24-.07.37-.12.13-.05.24-.13.33-.24s.14-.25.16-.43c.02-.17-.02-.4-.12-.67-.04-.11-.12-.28-.24-.5-.12-.23-.24-.45-.37-.68-.15-.26-.31-.55-.48-.85-.23.3-.45.59-.64.85-.09.12-.17.23-.25.35s-.16.23-.23.33-.13.2-.19.29c-.05.09-.09.16-.12.21-.12.27-.18.49-.16.66s.08.31.17.42c.09.11.21.19.34.24.14.05.26.1.38.13.07.02.12.04.14.09.02.04.03.09.02.13,0,.04-.03.08-.07.11s-.09.05-.14.05h-3.9c-.12,0-.18-.05-.2-.15-.02-.1.04-.17.16-.22.42-.14.81-.34,1.17-.59s.72-.57,1.07-.94l-.05.03Z"/>
    <polygon class="st1" points="74.59 19.11 76.02 18.34 74.77 19.38 76.39 19.22 74.83 19.69 76.39 20.17 74.77 20.01 76.02 21.04 74.59 20.28 75.35 21.72 74.32 20.46 74.47 22.08 74 20.52 73.53 22.08 73.68 20.46 72.65 21.72 73.41 20.28 71.98 21.04 73.23 20.01 71.61 20.17 73.17 19.69 71.61 19.22 73.23 19.38 71.98 18.34 73.41 19.11 72.65 17.67 73.68 18.93 73.53 17.3 74 18.86 74.47 17.3 74.32 18.93 75.35 17.67 74.59 19.11"/>
    <path class="st1" d="M55.73,22.25c.62,0,1.16.08,1.63.24s.87.38,1.21.66.62.6.84.96c.22.36.4.73.52,1.13s.22.79.27,1.19.08.77.08,1.12c0,.88-.11,1.67-.32,2.38-.21.71-.54,1.31-.97,1.82-.43.5-.97.89-1.62,1.16-.65.27-1.41.41-2.28.41-.49,0-.91-.03-1.27-.09s-.65-.12-.89-.2c-.23-.07-.41-.14-.53-.2s-.18-.1-.19-.12c-.04-.03-.08-.04-.11-.02-.04.02-.05.04-.05.08v3.61c0,.32.07.57.2.77.14.19.29.35.47.46s.35.19.51.24c.17.05.28.07.34.08.06.02.11.04.13.08.03.03.04.07.03.11,0,.04-.03.07-.06.1-.03.03-.08.05-.15.05h-6.1c-.06,0-.11-.02-.15-.05-.03-.03-.06-.07-.06-.1,0-.04,0-.08.03-.11s.07-.06.13-.08c.06,0,.18-.03.34-.08.17-.05.34-.13.51-.24s.33-.27.47-.46.2-.45.2-.77v-11.72c0-.1-.05-.16-.14-.19-.02,0-.07-.01-.17-.03s-.21-.05-.33-.08c-.12-.03-.24-.06-.34-.08s-.17-.04-.19-.05c-.1-.02-.15-.08-.16-.16,0-.08.05-.14.17-.17.3-.07.63-.16.98-.29.35-.12.71-.26,1.07-.41s.7-.31,1.04-.49c.33-.17.63-.35.9-.53.07-.05.14-.07.22-.06.07,0,.11.07.11.17v1.5s.02.09.06.1c.04.02.07,0,.1-.03.07-.09.19-.22.35-.4s.39-.36.67-.55c.28-.18.63-.34,1.05-.48s.9-.2,1.46-.2v.02ZM56.89,28.1v-.7c0-.29-.03-.6-.07-.93s-.11-.67-.2-1.01-.23-.65-.41-.92-.41-.49-.69-.67c-.28-.17-.63-.26-1.04-.26-.53,0-.95.1-1.27.29s-.56.43-.73.71c-.17.28-.28.58-.34.89-.05.31-.08.59-.08.83v3.14c0,.3.03.63.1.99s.18.71.36,1.04c.17.33.4.6.7.82s.67.33,1.13.33.85-.12,1.17-.35.59-.55.79-.96c.21-.41.36-.89.45-1.44.09-.56.14-1.15.14-1.8h0Z"/>
    <g>
      <polygon class="st1" points="67.36 24.51 69.75 25.88 69.98 26.42 69.98 26.42 69.98 25.6 67.36 24.08 64.73 25.6 64.73 26.42 67.36 24.83 67.36 24.51"/>
      <rect class="st1" x="67.02" y="22.76" width=".67" height=".56"/>
      <polygon class="st1" points="67.36 23.68 69.03 24.59 69.19 24.95 69.19 24.95 69.19 24.41 67.36 23.4 65.52 24.41 65.52 24.95 67.36 23.9 67.36 23.68"/>
      <path class="st1" d="M62.02,30.96c.07,0,.14,0,.21-.02.31-.07.5-.28.53-.32.04-.05.33-.4.83-.42h.05c.45,0,.75.28.79.33.08.08.35.3.74.33h.1c.53,0,.88-.36.93-.41,0,0,.02-.02.03-.03.12-.11.31-.25.57-.35h0c.18-.06.36-.1.55-.1s.37.03.55.1h0c.29.11.49.27.6.38.05.05.4.41.93.41h.1c.4-.03.66-.26.74-.33.05-.05.34-.33.79-.33h.05c.5.02.79.37.83.42.03.04.22.25.53.32.06.01.13.02.21.02h0c.1,0,.19-.02.28-.05.46-.88.72-1.87.72-2.93,0-3.49-2.83-6.32-6.32-6.32s-6.32,2.83-6.32,6.32c0,1.06.26,2.06.73,2.94.07.02.15.03.23.03h.02ZM67.36,22.6c2.93,0,5.31,2.38,5.31,5.31,0,.74-.15,1.45-.43,2.09h-.2c-.51-.02-.83-.31-.92-.38-.08-.07-.25-.21-.5-.26-.06-.01-.12-.02-.17-.02-.39,0-.67.24-.71.28-.07.06-.31.24-.66.25h-.02c-.39,0-.66-.23-.76-.33-.05-.05-.11-.1-.18-.15-.15-.1-.41-.23-.74-.23h-.02v-3.24c.26.25.6.54,1.05.81.78.47,1.53.69,2.03.8,0,.26-.03.37-.1.7-.09.42-.24.78-.38,1.07.62-.66,1.03-1.45,1.17-2.32-1.54-.25-2.87-.99-3.76-2.01-.89,1.02-2.22,1.76-3.76,2.01.18,1.13.84,2.14,1.79,2.88-.11-.02-.2-.05-.28-.09-.1-.05-.2-.11-.28-.19-.1-.09-.32-.25-.64-.26h-.02c-.38,0-.63.23-.72.32-.05.05-.11.1-.17.15-.13.09-.34.2-.61.2-.05,0-.09,0-.14-.01-.02,0-.04,0-.06-.01-.27-.64-.42-1.33-.42-2.07,0-2.93,2.38-5.31,5.31-5.31h-.01Z"/>
      <path class="st1" d="M71.9,31.65c-.06-.02-.12-.04-.17-.06-.18-.08-.3-.17-.52-.2h-.13c-.14,0-.25.03-.32.04-.29.07-.36.19-.66.32-.04.02-.28.12-.56.15h-.17c-.19,0-.48-.04-.81-.2.42.31.77.36.96.38h.09c.17,0,.32-.03.44-.05.43-.07.56-.19.81-.19h.04c.13,0,.33.04.56.2-1.1.96-2.54,1.54-4.11,1.54s-3.01-.58-4.11-1.54c.24-.16.43-.2.56-.2h.04c.25,0,.38.12.81.19.11.02.27.05.44.05h.09c.19,0,.55-.07.96-.38-.33.16-.62.2-.81.2h-.17c-.28-.03-.52-.13-.56-.15-.3-.13-.37-.25-.66-.32-.06-.02-.18-.04-.32-.04h-.13c-.23.03-.34.12-.52.2-.06.02-.11.05-.17.06-.18.06-.36.09-.5.09h-.02c1.15,1.56,3,2.57,5.08,2.57s3.93-1.01,5.08-2.57h-.06c-.14,0-.32-.03-.5-.09h.02Z"/>
    </g>
    <path class="st1" d="M91.65,31.04c.14-.07.24-.06.3.02.06.09.07.17.01.27-.14.25-.32.48-.53.68-.21.21-.46.38-.73.54-.27.15-.57.27-.89.35-.32.08-.66.12-1.02.12-.39,0-.77-.05-1.15-.15-.38-.1-.72-.28-1.02-.54s-.55-.61-.74-1.06-.29-1.02-.29-1.71v-5.46c0-.06-.03-.09-.09-.09h-.3c-.19,0-.3-.01-.34-.03-.04-.02-.06-.07-.06-.15,0-.1.04-.21.13-.32s.2-.17.33-.17h.26c.05,0,.08-.03.08-.09v-2.78c0-.17.07-.27.21-.29.19-.04.4-.09.62-.16s.45-.14.68-.23.45-.19.68-.29c.22-.1.43-.22.61-.33.09-.05.16-.05.24-.02.07.03.11.11.11.23v3.89s.03.08.09.08h2.19c.19,0,.3.01.34.04.04.02.06.07.06.15,0,.1-.05.21-.16.32s-.23.17-.36.17h-2.08c-.05,0-.08.03-.08.08v6.08c0,.21.04.39.11.55s.17.3.29.41.26.2.42.25c.16.05.32.08.48.08.33,0,.64-.05.93-.15s.51-.19.68-.27v-.02Z"/>
    <path class="st1" d="M84.38,24.24c-.11-.45-.34-.87-.68-1.19-.7-.66-1.76-.87-2.69-.61s-1.71.94-2.18,1.77c0-.52-.01-1.33-.02-1.85,0-.04,0-.08-.02-.11-.06-.11-.22-.05-.33.01-1.2.76-2.52,1.32-3.9,1.68-.11.03-.25.09-.23.21.01.09.12.13.21.15.3.07.6.14.9.21.06.01.13.03.18.08.04.05.05.13.05.2v6.14c0,.58-.06,1.26-.55,1.55-.2.12-.45.12-.64.23-.24.14-.2.33.1.33h5.32c.13,0,.31-.04.3-.17,0-.13-.16-.17-.29-.19-.4-.07-.78-.32-.95-.69-.13-.29-.14-.61-.14-.93v-4.91c0-.24,0-.48.08-.7.16-.42.58-.68.99-.84.75-.3,1.59-.4,2.38-.22s1.52.64,1.97,1.31c.22-.45.26-.97.14-1.45h0Z"/>
  </g>
</svg>