<?xml version="1.0" encoding="UTF-8"?>
<svg id="Layer_1" xmlns="http://www.w3.org/2000/svg" xmlns:xlink="http://www.w3.org/1999/xlink" version="1.1" viewBox="0 0 1320 82">
  <!-- Generator: Adobe Illustrator 29.3.1, SVG Export Plug-In . SVG Version: 2.1.0 Build 151)  -->
  <defs>
    <style>
      .st0 {
        fill: #0c685b;
      }

      .st1 {
        fill: #c5e3bf;
      }
    </style>
  </defs>
  <g>
    <path class="st1" d="M0,0h183.17v48.71c0,18.01-14.62,32.63-32.63,32.63H0V0h0Z"/>
    <path class="st1" d="M1320,81.34H215.18c-18.01,0-32.63-14.62-32.63-32.63V0h1137.45v81.34h0Z"/>
  </g>
  <g>
    <g>
      <g>
        <path class="st0" d="M494.91,44.04v-2.69c0-2.24,1.05-3.72,2.97-4.19l1.67.98,1.69-.98c1.77.45,2.77,1.75,2.77,3.54v6.85c0,.13-.08.21-.21.21h-1.15c-.11,0-.19-.08-.19-.21v-6.92c0-1.05-.47-1.79-1.36-2.05l-1.49.86h-.13l-1.49-.86c-1.02.32-1.56,1.35-1.56,2.93v2.43c0,1.65.83,2.59,2.18,2.59.41,0,.72-.08,1.05-.26.13-.06.21-.06.26.06l.4.85c.06.11.04.23-.04.28-.45.3-1.05.47-1.84.47-2.16,0-3.55-1.45-3.55-3.87l.02-.02Z"/>
        <path class="st0" d="M501.2,35.79c-1.37,0-2.14-.71-2.14-2.01v-.68c0-.13.08-.21.19-.21h1.02c.11,0,.19.08.19.21v.47c0,.62.36.96,1,.96h4.08c.13,0,.21.08.21.21v.85c0,.13-.08.21-.21.21h-4.34Z"/>
        <path class="st0" d="M506.22,45.15c-.06-.13,0-.23.13-.26l1.03-.28c.15-.04.23,0,.26.13.47,1.17,1.37,1.82,2.54,1.82,1.79,0,2.92-1.56,2.92-4.08s-1.13-3.99-2.97-3.99c-1.22,0-2.12.66-2.59,1.84-.06.13-.11.17-.26.13l-1.04-.26c-.15-.04-.17-.15-.13-.26.6-1.79,2.05-2.84,4.04-2.84,2.78,0,4.53,2.07,4.53,5.38s-1.73,5.47-4.48,5.47c-1.94,0-3.39-1.05-3.99-2.8h0Z"/>
        <path class="st0" d="M517.3,47.75c-.11,0-.19-.08-.19-.21v-10.04c0-.11.08-.19.19-.19h1.15c.13,0,.21.08.21.19v10.04c0,.13-.08.21-.21.21h-1.15ZM521.68,47.75c-.11,0-.19-.08-.19-.21v-10.04c0-.11.08-.19.19-.19h1.15c.13,0,.21.08.21.19v10.04c0,.13-.08.21-.21.21h-1.15Z"/>
        <path class="st0" d="M526.2,47.75c-.11,0-.19-.08-.19-.21v-10.04c0-.11.08-.19.19-.19h1.02c.13,0,.21.06.21.19l.08,1.66c.68-1.3,1.99-2.05,3.55-2.05,2.18,0,3.5,1.45,3.5,3.85v6.58c0,.13-.06.21-.19.21h-1.15c-.13,0-.21-.08-.21-.21v-6.13c0-1.86-.85-2.9-2.37-2.9-1.79,0-3.08,1.41-3.08,3.55v5.47c0,.13-.08.21-.21.21h-1.15,0Z"/>
        <path class="st0" d="M537.41,44.1v-6.6c0-.11.08-.19.19-.19h1.15c.13,0,.21.08.21.19v6.15c0,1.84.85,2.9,2.33,2.9,1.71,0,3.07-1.35,3.07-3.57v-5.47c0-.11.08-.19.19-.19h1.15c.13,0,.21.08.21.19v10.04c0,.13-.08.21-.21.21h-1.02c-.13,0-.21-.08-.21-.21l-.06-1.64c-.68,1.28-1.97,2.05-3.53,2.05-2.18,0-3.46-1.43-3.46-3.85h-.01Z"/>
        <path class="st0" d="M557.33,42.52c0,3.33-1.84,5.43-4.78,5.43-2.73,0-4.46-1.82-4.46-4.7v-1.11c0-.11.08-.19.19-.19h4.46c.11,0,.19.08.19.19v.92c0,.13-.08.21-.19.21h-3.12v.06c0,1.96,1.11,3.23,2.88,3.23,1.99,0,3.25-1.6,3.25-4.06s-1.3-4.01-3.37-4.01c-1.28,0-2.37.66-2.84,1.71-.06.11-.11.15-.26.11l-1-.3c-.15-.04-.17-.13-.13-.26.66-1.66,2.33-2.65,4.33-2.65,2.97,0,4.85,2.11,4.85,5.42h0Z"/>
        <path class="st0" d="M568.06,42.52c0,3.33-1.84,5.43-4.78,5.43-2.73,0-4.46-1.82-4.46-4.7v-1.11c0-.11.08-.19.19-.19h4.46c.11,0,.19.08.19.19v.92c0,.13-.08.21-.19.21h-3.12v.06c0,1.96,1.11,3.23,2.88,3.23,1.99,0,3.25-1.6,3.25-4.06s-1.3-4.01-3.37-4.01c-1.28,0-2.37.66-2.84,1.71-.06.11-.11.15-.26.11l-1-.3c-.15-.04-.17-.13-.13-.26.66-1.66,2.33-2.65,4.33-2.65,2.97,0,4.85,2.11,4.85,5.42h0Z"/>
        <path class="st0" d="M574.89,37.31c2.52,0,3.91,1.3,3.91,3.69v6.54c0,.13-.08.21-.21.21h-1.13c-.11,0-.21-.08-.21-.21v-6.54c0-1.5-.9-2.33-2.5-2.33h-2.88v8.88c0,.13-.08.21-.21.21h-1.13c-.11,0-.21-.08-.21-.21v-10.04c0-.11.08-.19.19-.19h4.38Z"/>
        <path class="st0" d="M589.04,37.31c.13,0,.21.08.21.19v6.56c0,2.44-1.43,3.89-3.85,3.89s-3.84-1.47-3.84-3.89v-1.15c0-1.35.62-2.2,1.15-2.88.38-.49.7-.92.7-1.41h-2.01c-.11,0-.19-.08-.19-.21v-.92c0-.11.08-.19.19-.19h3.31c.13,0,.21.08.21.19v.9c0,.73-.39,1.34-.83,1.96-.49.7-.98,1.45-.98,2.5v1.05c0,1.69.83,2.63,2.3,2.63s2.31-.94,2.31-2.63v-6.41c0-.11.08-.19.19-.19h1.15-.02Z"/>
        <path class="st0" d="M600.61,42.52c0,3.33-1.84,5.43-4.78,5.43-2.73,0-4.46-1.82-4.46-4.7v-1.11c0-.11.08-.19.19-.19h4.46c.11,0,.19.08.19.19v.92c0,.13-.08.21-.19.21h-3.12v.06c0,1.96,1.11,3.23,2.88,3.23,1.99,0,3.25-1.6,3.25-4.06s-1.3-4.01-3.37-4.01c-1.28,0-2.37.66-2.84,1.71-.06.11-.11.15-.26.11l-1-.3c-.15-.04-.17-.13-.13-.26.66-1.66,2.33-2.65,4.33-2.65,2.97,0,4.85,2.11,4.85,5.42h0Z"/>
        <path class="st0" d="M610.54,41.71c0,2.78-1.47,4.91-4.17,5.98-.08.04-.17.06-.24.06h-1.26c-.11,0-.19-.08-.23-.19l-3.08-10.04c-.04-.13.04-.21.17-.21h1.17c.11,0,.19.06.23.17l2.67,8.89c2.13-.85,3.18-2.5,3.18-4.66,0-1.97-.89-3.18-2.31-3.18-.38,0-.72.08-1,.24-.11.06-.21.04-.26-.08l-.4-.83c-.06-.11-.04-.23.06-.28.43-.3,1.04-.45,1.73-.45,2.29,0,3.76,1.77,3.76,4.57h-.02Z"/>
        <path class="st0" d="M615.21,36.29v11.25c0,.13-.08.21-.19.21h-1.15c-.13,0-.21-.08-.21-.21v-12.05c0-.13.08-.21.21-.21h.55c1,0,1.6-.7,1.6-1.77s-.64-1.79-1.66-1.79c-.81,0-1.43.43-1.71,1.22-.04.11-.15.17-.26.13l-.94-.21c-.13-.04-.19-.11-.15-.24.49-1.45,1.62-2.26,3.16-2.26,1.88,0,3.07,1.24,3.07,3.1,0,1.6-.88,2.63-2.31,2.82h0Z"/>
        <path class="st0" d="M618.15,44.1v-6.6c0-.11.08-.19.19-.19h1.15c.13,0,.21.08.21.19v6.15c0,1.84.85,2.9,2.33,2.9,1.71,0,3.07-1.35,3.07-3.57v-5.47c0-.11.08-.19.19-.19h1.15c.13,0,.21.08.21.19v10.04c0,.13-.08.21-.21.21h-1.02c-.13,0-.21-.08-.21-.21l-.06-1.64c-.68,1.28-1.97,2.05-3.53,2.05-2.18,0-3.46-1.43-3.46-3.85h-.01Z"/>
        <path class="st0" d="M629.53,43.51v-6.02c0-.13.08-.19.19-.19h1.15c.13,0,.21.06.21.19v5.83c0,2.05.98,3.22,2.73,3.22s2.75-1.15,2.75-3.22v-9.95c0-.13.06-.19.19-.19h1.15c.13,0,.21.06.21.19v10.14c0,2.76-1.62,4.44-4.29,4.44s-4.27-1.65-4.27-4.44h-.02Z"/>
        <path class="st0" d="M640.16,45.26c-.06-.15.02-.24.13-.26l1.02-.23c.13-.04.19,0,.24.13.45,1.13,1.28,1.69,2.52,1.69s2.03-.62,2.03-1.62c0-.85-.55-1.49-1.92-1.81l-.64-.15c-2.03-.47-3.01-1.54-3.01-3.08,0-1.75,1.32-2.84,3.39-2.84,1.77,0,3.03.79,3.61,2.46.04.11-.02.21-.15.24l-.94.21c-.11.02-.21-.02-.24-.13-.4-.98-1.2-1.45-2.28-1.45-1.17,0-1.84.55-1.84,1.43s.62,1.39,2.03,1.75l.6.15c1.99.51,2.95,1.54,2.95,3.16,0,1.86-1.39,3.03-3.59,3.03-1.92,0-3.29-.87-3.91-2.69h0Z"/>
        <path class="st0" d="M651.67,41.5c-1.47,0-2.28-.73-2.28-2.12v-.83c0-.13.08-.21.21-.21h1.11c.13,0,.21.08.21.21v.62c0,.64.34.98,1.03.98h1.96c.13,0,.19.08.19.21v.96c0,.11-.06.19-.19.19h-2.24ZM651.67,46.69c-1.47,0-2.28-.75-2.28-2.14v-.83c0-.13.08-.19.21-.19h1.13c.11,0,.19.08.19.19v.62c0,.66.36,1,1.03,1h1.96c.13,0,.19.06.19.19v.96c0,.13-.06.21-.19.21h-2.24Z"/>
        <path class="st0" d="M656.91,47.75c-.11,0-.19-.08-.19-.21v-10.04c0-.11.08-.19.19-.19h1.15c.13,0,.21.08.21.19v10.04c0,.13-.08.21-.21.21h-1.15Z"/>
        <path class="st0" d="M661.42,47.75c-.11,0-.19-.08-.19-.21v-10.04c0-.11.08-.19.19-.19h1.02c.13,0,.21.06.21.19l.08,1.66c.68-1.3,1.99-2.05,3.55-2.05,2.18,0,3.5,1.45,3.5,3.85v6.58c0,.13-.06.21-.19.21h-1.15c-.13,0-.21-.08-.21-.21v-6.13c0-1.86-.85-2.9-2.37-2.9-1.79,0-3.08,1.41-3.08,3.55v5.47c0,.13-.08.21-.21.21h-1.15,0Z"/>
        <path class="st0" d="M682.24,37.22c.11,0,.19.08.19.19v.92c0,.11-.08.19-.19.19h-2.46c.98.51,1.5,1.52,1.5,2.88v6.15c0,.13-.08.21-.19.21h-1.15c-.13,0-.21-.08-.21-.21v-5.89c0-1.9-1.05-3.07-2.86-3.07s-2.76,1.17-2.76,3.07v.81h3.2c.11,0,.19.08.19.19v.96c0,.13-.08.21-.19.21h-3.16v3.72c0,.13-.08.21-.19.21h-1.17c-.11,0-.19-.08-.19-.21v-6.09c0-2.63,1.67-4.23,4.31-4.23h5.33Z"/>
        <path class="st0" d="M688.19,30.58c.11,0,.19.08.19.19v.92c0,.09-.04.17-.11.24-1.22.79-1.69,1.81-1.69,3.5v12.11c0,.13-.08.21-.21.21h-1.15c-.11,0-.19-.08-.19-.21v-12.09c0-1.65.38-2.63,1.41-3.55h-3.44c-.13,0-.21-.08-.21-.21v-.92c0-.11.08-.19.21-.19h5.19Z"/>
        <path class="st0" d="M689.74,47.75c-.11,0-.19-.08-.19-.21v-10.04c0-.11.08-.19.19-.19h1.02c.13,0,.21.06.21.19l.08,1.66c.68-1.3,1.99-2.05,3.55-2.05,2.18,0,3.5,1.45,3.5,3.85v6.58c0,.13-.06.21-.19.21h-1.15c-.13,0-.21-.08-.21-.21v-6.13c0-1.86-.85-2.9-2.37-2.9-1.79,0-3.08,1.41-3.08,3.55v5.47c0,.13-.08.21-.21.21h-1.15,0Z"/>
        <path class="st0" d="M704.36,47.75c-2.37,0-3.76-1.15-3.76-3.08,0-1.2.7-2.18,1.84-2.54-1.19-.3-1.92-1.2-1.92-2.41,0-1.58,1.17-2.58,2.99-2.58.77,0,1.45.17,1.98.51.09.06.11.17.06.28l-.4.85c-.08.11-.13.11-.26.06-.4-.23-.77-.32-1.2-.32-.98,0-1.62.56-1.62,1.41,0,.98.73,1.54,2.01,1.54h1.47c.11,0,.19.08.19.19v.9c0,.13-.08.21-.19.21h-1.2c-1.37,0-2.18.64-2.18,1.73,0,1.22.85,1.9,2.39,1.9h2.65c.11,0,.19-.08.19-.21v-8.69c0-.11.08-.19.21-.19h1.15c.11,0,.19.08.19.19v10.04c0,.13-.08.21-.19.21h-4.4Z"/>
      </g>
      <g>
        <path class="st0" d="M769.76,47.75c-.11,0-.19-.08-.19-.21v-7.13c0-2.11.98-3.23,2.82-3.23.66,0,1.22.15,1.62.43.09.08.11.17.06.28l-.41.85c-.06.11-.15.13-.26.06-.24-.17-.51-.23-.85-.23-1,0-1.51.7-1.51,2.01v5.3l2.69-3.38c.06-.08.13-.13.24-.13h.19c.11,0,.19.06.24.13l2.71,3.38v-8.39c0-.11.08-.19.19-.19h1.09c.13,0,.21.08.21.19v10.04c0,.13-.08.21-.21.21h-1.28c-.09,0-.19-.06-.24-.13l-2.8-3.57-2.8,3.57c-.06.08-.15.13-.24.13h-1.27Z"/>
        <path class="st0" d="M778.4,49.27c.13,0,.21.08.21.21v1.35c0,1.43-.9,2.28-2.5,2.28s-2.48-.85-2.48-2.24v-.51h-.88c-.11,0-.19-.08-.19-.19v-.7c0-.13.08-.21.19-.21h1.96c.13,0,.21.08.21.21v1.2c0,.81.43,1.28,1.2,1.28s1.19-.47,1.19-1.32v-1.17c0-.13.08-.21.19-.21h.92l-.02.02Z"/>
        <path class="st0" d="M779.59,34.53c.11,0,.19.08.19.21v.85c0,.13-.08.21-.19.21h-4.57c-.11,0-.19-.08-.19-.21v-1.81h-1.19c-.13,0-.21-.08-.21-.19v-.83c0-.11.08-.19.21-.19h1.71c.53,0,.83.3.83.85v1.11h3.41Z"/>
        <path class="st0" d="M781.52,44.1v-6.6c0-.11.08-.19.19-.19h1.15c.13,0,.21.08.21.19v6.15c0,1.84.85,2.9,2.33,2.9,1.71,0,3.07-1.35,3.07-3.57v-5.47c0-.11.08-.19.19-.19h1.15c.13,0,.21.08.21.19v10.04c0,.13-.08.21-.21.21h-1.02c-.13,0-.21-.08-.21-.21l-.06-1.64c-.68,1.28-1.97,2.05-3.53,2.05-2.18,0-3.46-1.43-3.46-3.85h-.01Z"/>
        <path class="st0" d="M787.34,34.17c0-1.03.77-1.79,1.84-1.79s1.84.75,1.84,1.79-.77,1.81-1.84,1.81-1.84-.75-1.84-1.81ZM790.05,34.17c0-.49-.38-.87-.87-.87s-.87.38-.87.87.38.87.87.87.87-.36.87-.87Z"/>
        <path class="st0" d="M796.99,47.75c-.13,0-.21-.08-.21-.21v-6.98c0-1.28-.68-2.05-1.81-2.05-.85,0-1.47.45-1.77,1.3-.06.11-.15.17-.26.13l-.98-.28c-.11-.04-.17-.15-.13-.26.51-1.47,1.68-2.29,3.24-2.29,2.01,0,3.25,1.35,3.25,3.52v6.92c0,.13-.08.21-.19.21h-1.15.01Z"/>
        <path class="st0" d="M801.62,47.75c-.11,0-.19-.08-.19-.21v-10.04c0-.11.08-.19.19-.19h1.15c.13,0,.21.08.21.19v10.04c0,.13-.08.21-.21.21h-1.15Z"/>
        <path class="st0" d="M813.28,37.31c.13,0,.21.08.21.19v6.56c0,2.44-1.43,3.89-3.85,3.89s-3.84-1.47-3.84-3.89v-1.15c0-1.35.62-2.2,1.15-2.88.38-.49.7-.92.7-1.41h-2.01c-.11,0-.19-.08-.19-.21v-.92c0-.11.08-.19.19-.19h3.31c.13,0,.21.08.21.19v.9c0,.73-.39,1.34-.83,1.96-.49.7-.98,1.45-.98,2.5v1.05c0,1.69.83,2.63,2.3,2.63s2.31-.94,2.31-2.63v-6.41c0-.11.08-.19.19-.19h1.15-.02Z"/>
        <path class="st0" d="M814.47,34.53c.11,0,.19.08.19.21v.85c0,.13-.08.21-.19.21h-4.57c-.11,0-.19-.08-.19-.21v-1.81h-1.19c-.13,0-.21-.08-.21-.19v-.83c0-.11.08-.19.21-.19h1.71c.53,0,.83.3.83.85v1.11h3.41Z"/>
        <path class="st0" d="M820.39,47.75c-.13,0-.21-.08-.21-.21v-6.98c0-1.28-.68-2.05-1.81-2.05-.85,0-1.47.45-1.77,1.3-.06.11-.15.17-.26.13l-.98-.28c-.11-.04-.17-.15-.13-.26.51-1.47,1.68-2.29,3.24-2.29,2.01,0,3.25,1.35,3.25,3.52v6.92c0,.13-.08.21-.19.21h-1.15.01Z"/>
        <path class="st0" d="M833.47,37.22c.11,0,.19.08.19.19v.92c0,.11-.08.19-.19.19h-2.33c.88.47,1.37,1.39,1.37,2.58v6.45c0,.13-.08.21-.19.21h-1.15c-.13,0-.21-.08-.21-.21v-4.64h-1.77c-2.3,0-3.48.68-3.48,2.01,0,1.02.7,1.62,1.86,1.62.43,0,.77-.08,1.07-.26.13-.06.21-.06.26.06l.4.85c.06.11.04.23-.04.28-.43.3-1.05.47-1.86.47-2.03,0-3.23-1.07-3.23-2.88,0-2.22,1.81-3.44,5.04-3.44h1.75v-.62c0-1.49-1.02-2.41-2.6-2.41-1.28,0-2.16.6-2.65,1.54-.06.11-.13.15-.26.11l-1.02-.3c-.13-.04-.17-.15-.13-.26.66-1.52,2.14-2.44,4.14-2.44h5.02v-.02Z"/>
        <path class="st0" d="M824.63,35.79c-.13,0-.21-.08-.21-.21v-.85c0-.13.08-.21.21-.21h7.5c.11,0,.19.08.19.19v.38c0,.43-.26.7-.7.7h-7,.01Z"/>
        <path class="st0" d="M835.45,44.1v-6.6c0-.11.08-.19.19-.19h1.15c.13,0,.21.08.21.19v6.15c0,1.84.85,2.9,2.33,2.9,1.71,0,3.07-1.35,3.07-3.57v-5.47c0-.11.08-.19.19-.19h1.15c.13,0,.21.08.21.19v10.04c0,.13-.08.21-.21.21h-1.02c-.13,0-.21-.08-.21-.21l-.06-1.64c-.68,1.28-1.97,2.05-3.53,2.05-2.18,0-3.46-1.43-3.46-3.85h-.01Z"/>
        <path class="st0" d="M847.02,47.75c-.11,0-.19-.08-.19-.21v-6.09c0-2.67,1.65-4.34,4.27-4.34s4.4,1.67,4.4,4.34v6.09c0,.13-.08.21-.19.21h-1.15c-.13,0-.21-.08-.21-.21v-5.89c0-1.97-1.05-3.14-2.86-3.14s-2.76,1.15-2.76,3.14v.81h3.2c.11,0,.19.08.19.19v.96c0,.13-.08.21-.19.21h-3.16v3.72c0,.13-.08.21-.19.21h-1.17,0Z"/>
        <path class="st0" d="M856.29,34.53c.11,0,.19.08.19.21v.85c0,.13-.08.21-.19.21h-4.57c-.11,0-.19-.08-.19-.21v-1.81h-1.19c-.13,0-.21-.08-.21-.19v-.83c0-.11.08-.19.21-.19h1.71c.53,0,.83.3.83.85v1.11h3.41Z"/>
        <path class="st0" d="M862.41,47.75c-.13,0-.21-.08-.21-.21v-6.98c0-1.28-.68-2.05-1.81-2.05-.85,0-1.47.45-1.77,1.3-.06.11-.15.17-.26.13l-.98-.28c-.11-.04-.17-.15-.13-.26.51-1.47,1.67-2.29,3.24-2.29,2.01,0,3.25,1.35,3.25,3.52v6.92c0,.13-.08.21-.19.21h-1.15.01Z"/>
        <path class="st0" d="M874,37.31c.13,0,.21.08.21.19v6.56c0,2.44-1.43,3.89-3.85,3.89s-3.84-1.47-3.84-3.89v-1.15c0-1.35.62-2.2,1.15-2.88.38-.49.7-.92.7-1.41h-2.01c-.11,0-.19-.08-.19-.21v-.92c0-.11.08-.19.19-.19h3.31c.13,0,.21.08.21.19v.9c0,.73-.39,1.34-.83,1.96-.49.7-.98,1.45-.98,2.5v1.05c0,1.69.83,2.63,2.3,2.63s2.31-.94,2.31-2.63v-6.41c0-.11.08-.19.19-.19h1.15-.02Z"/>
        <path class="st0" d="M885.56,42.52c0,3.33-1.84,5.43-4.78,5.43-2.73,0-4.46-1.82-4.46-4.7v-1.11c0-.11.08-.19.19-.19h4.46c.11,0,.19.08.19.19v.92c0,.13-.08.21-.19.21h-3.12v.06c0,1.96,1.11,3.23,2.88,3.23,1.99,0,3.25-1.6,3.25-4.06s-1.3-4.01-3.37-4.01c-1.28,0-2.37.66-2.84,1.71-.06.11-.11.15-.26.11l-1-.3c-.15-.04-.17-.13-.13-.26.66-1.66,2.33-2.65,4.33-2.65,2.97,0,4.85,2.11,4.85,5.42h0Z"/>
        <path class="st0" d="M895.5,41.71c0,2.78-1.47,4.91-4.17,5.98-.08.04-.17.06-.24.06h-1.26c-.11,0-.19-.08-.23-.19l-3.08-10.04c-.04-.13.04-.21.17-.21h1.17c.11,0,.19.06.23.17l2.67,8.89c2.13-.85,3.18-2.5,3.18-4.66,0-1.97-.89-3.18-2.31-3.18-.38,0-.72.08-1,.24-.11.06-.21.04-.26-.08l-.4-.83c-.06-.11-.04-.23.06-.28.43-.3,1.04-.45,1.73-.45,2.29,0,3.76,1.77,3.76,4.57h-.02Z"/>
        <path class="st0" d="M899.25,45.9l-.08,1.64c0,.15-.08.21-.21.21h-1.02c-.11,0-.19-.08-.19-.21v-10.04c0-.11.08-.19.19-.19h1.15c.13,0,.21.08.21.19v5.47c0,2.22,1.34,3.57,3.05,3.57,1.49,0,2.35-1.11,2.35-3.05v-6c0-.11.08-.19.19-.19h1.15c.13,0,.21.08.21.19v6.45c0,2.48-1.32,4.01-3.48,4.01-1.54,0-2.84-.77-3.52-2.05Z"/>
        <path class="st0" d="M913.17,47.75c-.13,0-.21-.08-.21-.21v-6.98c0-1.28-.68-2.05-1.81-2.05-.85,0-1.47.45-1.77,1.3-.06.11-.15.17-.26.13l-.98-.28c-.11-.04-.17-.15-.13-.26.51-1.47,1.68-2.29,3.24-2.29,2.01,0,3.25,1.35,3.25,3.52v6.92c0,.13-.08.21-.19.21h-1.15.01Z"/>
        <path class="st0" d="M917.8,47.75c-.11,0-.19-.08-.19-.21v-10.04c0-.11.08-.19.19-.19h1.15c.13,0,.21.08.21.19v10.04c0,.13-.08.21-.21.21h-1.15Z"/>
        <path class="st0" d="M929.99,41.01v6.53c0,.13-.08.21-.19.21h-1.15c-.13,0-.21-.08-.21-.21v-4.64h-1.77c-2.3,0-3.48.68-3.48,2.01,0,1.02.7,1.62,1.86,1.62.43,0,.77-.08,1.07-.26.13-.06.21-.06.26.06l.4.85c.06.11.04.23-.04.28-.43.3-1.05.47-1.86.47-2.03,0-3.23-1.07-3.23-2.88,0-2.22,1.81-3.44,5.04-3.44h1.75v-.66c0-1.52-1.02-2.48-2.6-2.48-1.28,0-2.16.62-2.65,1.58-.06.11-.13.15-.26.11l-1.02-.32c-.13-.04-.17-.13-.13-.26.66-1.52,2.16-2.46,4.14-2.46,2.48,0,4.06,1.5,4.06,3.91v-.02Z"/>
        <path class="st0" d="M933.26,47.75c-.11,0-.19-.08-.19-.21v-10.04c0-.11.08-.19.19-.19h1.15c.13,0,.21.08.21.19v10.04c0,.13-.08.21-.21.21h-1.15Z"/>
        <path class="st0" d="M945.75,37.1c.17,0,.24.11.15.24l-1.82,2.67c.87.3,1.34,1.15,1.34,2.37v1.67c0,2.44-1.47,3.89-3.95,3.89s-3.93-1.45-3.93-3.89v-.75c0-1.37.79-2.26,1.45-2.99.47-.53.87-.98.87-1.49v-.39h-.32l-.81.96c-.06.08-.13.11-.24.11h-.94c-.11,0-.19-.06-.23-.13l-1.03-1.84c-.08-.13-.02-.23.13-.23h1.09c.09,0,.19.06.23.13l.47.9.71-.92c.08-.09.13-.11.24-.11h1.88c.13,0,.21.08.21.19v1.34c0,.98-.55,1.64-1.11,2.29-.53.62-1.05,1.26-1.05,2.16v.62c0,1.69.85,2.63,2.39,2.63s2.41-.94,2.41-2.63v-1.32c0-.92-.43-1.39-1.22-1.39h-.92c-.13,0-.21-.08-.21-.21v-.9c0-.13.08-.21.21-.21h.73l1.75-2.65c.06-.08.15-.13.26-.13h1.28-.02Z"/>
        <path class="st0" d="M937.69,35.79c-.13,0-.21-.08-.21-.21v-.85c0-.13.08-.21.21-.21h6.28v-1.77c0-.11.08-.19.21-.19h1c.13,0,.21.08.21.19v2.33c0,.43-.26.7-.7.7h-7Z"/>
        <path class="st0" d="M951.66,47.75c-2.37,0-3.76-1.15-3.76-3.08,0-1.2.7-2.18,1.84-2.54-1.19-.3-1.92-1.2-1.92-2.41,0-1.58,1.17-2.58,2.99-2.58.77,0,1.45.17,1.98.51.09.06.11.17.06.28l-.4.85c-.08.11-.13.11-.26.06-.4-.23-.77-.32-1.2-.32-.98,0-1.62.56-1.62,1.41,0,.98.73,1.54,2.01,1.54h1.47c.11,0,.19.08.19.19v.9c0,.13-.08.21-.19.21h-1.2c-1.37,0-2.18.64-2.18,1.73,0,1.22.85,1.9,2.39,1.9h2.65c.11,0,.19-.08.19-.21v-8.69c0-.11.08-.19.21-.19h1.15c.11,0,.19.08.19.19v10.04c0,.13-.08.21-.19.21h-4.4Z"/>
      </g>
      <g>
        <path class="st0" d="M1023.69,47.75c-.11,0-.19-.08-.19-.21v-7.13c0-2.11.98-3.23,2.82-3.23.66,0,1.22.15,1.62.43.09.08.11.17.06.28l-.41.85c-.06.11-.15.13-.26.06-.24-.17-.51-.23-.85-.23-1,0-1.51.7-1.51,2.01v5.3l2.69-3.38c.06-.08.13-.13.24-.13h.19c.11,0,.19.06.24.13l2.71,3.38v-8.39c0-.11.08-.19.19-.19h1.09c.13,0,.21.08.21.19v10.04c0,.13-.08.21-.21.21h-1.28c-.09,0-.19-.06-.24-.13l-2.8-3.57-2.8,3.57c-.06.08-.15.13-.24.13h-1.27Z"/>
        <path class="st0" d="M1032.33,49.27c.13,0,.21.08.21.21v1.35c0,1.43-.9,2.28-2.5,2.28s-2.48-.85-2.48-2.24v-.51h-.88c-.11,0-.19-.08-.19-.19v-.7c0-.13.08-.21.19-.21h1.96c.13,0,.21.08.21.21v1.2c0,.81.43,1.28,1.2,1.28s1.19-.47,1.19-1.32v-1.17c0-.13.08-.21.19-.21h.92l-.02.02Z"/>
        <path class="st0" d="M1033.52,34.53c.11,0,.19.08.19.21v.85c0,.13-.08.21-.19.21h-4.57c-.11,0-.19-.08-.19-.21v-1.81h-1.19c-.13,0-.21-.08-.21-.19v-.83c0-.11.08-.19.21-.19h1.71c.53,0,.83.3.83.85v1.11h3.41Z"/>
        <path class="st0" d="M1035.45,44.1v-6.6c0-.11.08-.19.19-.19h1.15c.13,0,.21.08.21.19v6.15c0,1.84.85,2.9,2.33,2.9,1.71,0,3.07-1.35,3.07-3.57v-5.47c0-.11.08-.19.19-.19h1.15c.13,0,.21.08.21.19v10.04c0,.13-.08.21-.21.21h-1.02c-.13,0-.21-.08-.21-.21l-.06-1.64c-.68,1.28-1.97,2.05-3.53,2.05-2.18,0-3.46-1.43-3.46-3.85h0Z"/>
        <path class="st0" d="M1041.27,34.17c0-1.03.77-1.79,1.84-1.79s1.84.75,1.84,1.79-.77,1.81-1.84,1.81-1.84-.75-1.84-1.81ZM1043.98,34.17c0-.49-.38-.87-.87-.87s-.87.38-.87.87.38.87.87.87.87-.36.87-.87Z"/>
        <path class="st0" d="M1050.92,47.75c-.13,0-.21-.08-.21-.21v-6.98c0-1.28-.68-2.05-1.81-2.05-.85,0-1.47.45-1.77,1.3-.06.11-.15.17-.26.13l-.98-.28c-.11-.04-.17-.15-.13-.26.51-1.47,1.68-2.29,3.24-2.29,2.01,0,3.25,1.35,3.25,3.52v6.92c0,.13-.08.21-.19.21h-1.15.01Z"/>
        <path class="st0" d="M1055.55,47.75c-.11,0-.19-.08-.19-.21v-10.04c0-.11.08-.19.19-.19h1.15c.13,0,.21.08.21.19v10.04c0,.13-.08.21-.21.21h-1.15Z"/>
        <path class="st0" d="M1067.21,37.31c.13,0,.21.08.21.19v6.56c0,2.44-1.43,3.89-3.85,3.89s-3.84-1.47-3.84-3.89v-1.15c0-1.35.62-2.2,1.15-2.88.38-.49.7-.92.7-1.41h-2.01c-.11,0-.19-.08-.19-.21v-.92c0-.11.08-.19.19-.19h3.31c.13,0,.21.08.21.19v.9c0,.73-.39,1.34-.83,1.96-.49.7-.98,1.45-.98,2.5v1.05c0,1.69.83,2.63,2.3,2.63s2.31-.94,2.31-2.63v-6.41c0-.11.08-.19.19-.19h1.15-.02Z"/>
        <path class="st0" d="M1068.4,34.53c.11,0,.19.08.19.21v.85c0,.13-.08.21-.19.21h-4.57c-.11,0-.19-.08-.19-.21v-1.81h-1.19c-.13,0-.21-.08-.21-.19v-.83c0-.11.08-.19.21-.19h1.71c.53,0,.83.3.83.85v1.11h3.41Z"/>
        <path class="st0" d="M1074.32,47.75c-.13,0-.21-.08-.21-.21v-6.98c0-1.28-.68-2.05-1.81-2.05-.85,0-1.47.45-1.77,1.3-.06.11-.15.17-.26.13l-.98-.28c-.11-.04-.17-.15-.13-.26.51-1.47,1.68-2.29,3.24-2.29,2.01,0,3.25,1.35,3.25,3.52v6.92c0,.13-.08.21-.19.21h-1.15.01Z"/>
        <path class="st0" d="M1087.4,37.22c.11,0,.19.08.19.19v.92c0,.11-.08.19-.19.19h-2.33c.88.47,1.37,1.39,1.37,2.58v6.45c0,.13-.08.21-.19.21h-1.15c-.13,0-.21-.08-.21-.21v-4.64h-1.77c-2.3,0-3.48.68-3.48,2.01,0,1.02.7,1.62,1.86,1.62.43,0,.77-.08,1.07-.26.13-.06.21-.06.26.06l.4.85c.06.11.04.23-.04.28-.43.3-1.05.47-1.86.47-2.03,0-3.23-1.07-3.23-2.88,0-2.22,1.81-3.44,5.04-3.44h1.75v-.62c0-1.49-1.02-2.41-2.6-2.41-1.28,0-2.16.6-2.65,1.54-.06.11-.13.15-.26.11l-1.02-.3c-.13-.04-.17-.15-.13-.26.66-1.52,2.14-2.44,4.14-2.44h5.02v-.02Z"/>
        <path class="st0" d="M1078.56,35.79c-.13,0-.21-.08-.21-.21v-.85c0-.13.08-.21.21-.21h7.5c.11,0,.19.08.19.19v.38c0,.43-.26.7-.7.7h-7,.01Z"/>
        <path class="st0" d="M1089.38,44.1v-6.6c0-.11.08-.19.19-.19h1.15c.13,0,.21.08.21.19v6.15c0,1.84.85,2.9,2.33,2.9,1.71,0,3.07-1.35,3.07-3.57v-5.47c0-.11.08-.19.19-.19h1.15c.13,0,.21.08.21.19v10.04c0,.13-.08.21-.21.21h-1.02c-.13,0-.21-.08-.21-.21l-.06-1.64c-.68,1.28-1.97,2.05-3.53,2.05-2.18,0-3.46-1.43-3.46-3.85h0Z"/>
        <path class="st0" d="M1100.95,47.75c-.11,0-.19-.08-.19-.21v-6.09c0-2.67,1.65-4.34,4.27-4.34s4.4,1.67,4.4,4.34v6.09c0,.13-.08.21-.19.21h-1.15c-.13,0-.21-.08-.21-.21v-5.89c0-1.97-1.05-3.14-2.86-3.14s-2.76,1.15-2.76,3.14v.81h3.2c.11,0,.19.08.19.19v.96c0,.13-.08.21-.19.21h-3.16v3.72c0,.13-.08.21-.19.21h-1.17,0Z"/>
        <path class="st0" d="M1110.22,34.53c.11,0,.19.08.19.21v.85c0,.13-.08.21-.19.21h-4.57c-.11,0-.19-.08-.19-.21v-1.81h-1.19c-.13,0-.21-.08-.21-.19v-.83c0-.11.08-.19.21-.19h1.71c.53,0,.83.3.83.85v1.11h3.41Z"/>
        <path class="st0" d="M1116.34,47.75c-.13,0-.21-.08-.21-.21v-6.98c0-1.28-.68-2.05-1.81-2.05-.85,0-1.47.45-1.77,1.3-.06.11-.15.17-.26.13l-.98-.28c-.11-.04-.17-.15-.13-.26.51-1.47,1.67-2.29,3.24-2.29,2.01,0,3.25,1.35,3.25,3.52v6.92c0,.13-.08.21-.19.21h-1.15.01Z"/>
        <path class="st0" d="M1127.92,37.31c.13,0,.21.08.21.19v6.56c0,2.44-1.43,3.89-3.85,3.89s-3.84-1.47-3.84-3.89v-1.15c0-1.35.62-2.2,1.15-2.88.38-.49.7-.92.7-1.41h-2.01c-.11,0-.19-.08-.19-.21v-.92c0-.11.08-.19.19-.19h3.31c.13,0,.21.08.21.19v.9c0,.73-.39,1.34-.83,1.96-.49.7-.98,1.45-.98,2.5v1.05c0,1.69.83,2.63,2.3,2.63s2.31-.94,2.31-2.63v-6.41c0-.11.08-.19.19-.19h1.15-.02Z"/>
        <path class="st0" d="M1139.49,42.52c0,3.33-1.84,5.43-4.78,5.43-2.73,0-4.46-1.82-4.46-4.7v-1.11c0-.11.08-.19.19-.19h4.46c.11,0,.19.08.19.19v.92c0,.13-.08.21-.19.21h-3.12v.06c0,1.96,1.11,3.23,2.88,3.23,1.99,0,3.25-1.6,3.25-4.06s-1.3-4.01-3.37-4.01c-1.28,0-2.37.66-2.84,1.71-.06.11-.11.15-.26.11l-1-.3c-.15-.04-.17-.13-.13-.26.66-1.66,2.33-2.65,4.33-2.65,2.97,0,4.85,2.11,4.85,5.42h0Z"/>
        <path class="st0" d="M1149.43,41.71c0,2.78-1.47,4.91-4.17,5.98-.08.04-.17.06-.24.06h-1.26c-.11,0-.19-.08-.23-.19l-3.08-10.04c-.04-.13.04-.21.17-.21h1.17c.11,0,.19.06.23.17l2.67,8.89c2.13-.85,3.18-2.5,3.18-4.66,0-1.97-.89-3.18-2.31-3.18-.38,0-.72.08-1,.24-.11.06-.21.04-.26-.08l-.4-.83c-.06-.11-.04-.23.06-.28.43-.3,1.04-.45,1.73-.45,2.29,0,3.76,1.77,3.76,4.57h-.02Z"/>
        <path class="st0" d="M1159.85,37.1c.17,0,.24.11.15.24l-1.82,2.67c.87.3,1.34,1.15,1.34,2.37v1.67c0,2.44-1.47,3.89-3.95,3.89s-3.93-1.45-3.93-3.89v-.75c0-1.37.79-2.26,1.45-2.99.47-.53.87-.98.87-1.49v-.39h-.32l-.81.96c-.06.08-.13.11-.24.11h-.94c-.11,0-.19-.06-.23-.13l-1.03-1.84c-.08-.13-.02-.23.13-.23h1.09c.09,0,.19.06.23.13l.47.9.71-.92c.08-.09.13-.11.24-.11h1.88c.13,0,.21.08.21.19v1.34c0,.98-.55,1.64-1.11,2.29-.53.62-1.05,1.26-1.05,2.16v.62c0,1.69.85,2.63,2.39,2.63s2.41-.94,2.41-2.63v-1.32c0-.92-.43-1.39-1.22-1.39h-.92c-.13,0-.21-.08-.21-.21v-.9c0-.13.08-.21.21-.21h.73l1.75-2.65c.06-.08.15-.13.26-.13h1.28-.02Z"/>
        <path class="st0" d="M1166.42,47.75c-.13,0-.21-.08-.21-.21v-6.98c0-1.28-.68-2.05-1.81-2.05-.85,0-1.47.45-1.77,1.3-.06.11-.15.17-.26.13l-.98-.28c-.11-.04-.17-.15-.13-.26.51-1.47,1.68-2.29,3.24-2.29,2.01,0,3.25,1.35,3.25,3.52v6.92c0,.13-.08.21-.19.21h-1.15.01Z"/>
        <path class="st0" d="M1179.14,42.52c0,3.33-1.84,5.43-4.78,5.43-2.73,0-4.46-1.82-4.46-4.7v-1.11c0-.11.08-.19.19-.19h4.46c.11,0,.19.08.19.19v.92c0,.13-.08.21-.19.21h-3.12v.06c0,1.96,1.11,3.23,2.88,3.23,1.99,0,3.25-1.6,3.25-4.06s-1.3-4.01-3.37-4.01c-1.28,0-2.37.66-2.84,1.71-.06.11-.11.15-.26.11l-1-.3c-.15-.04-.17-.13-.13-.26.66-1.66,2.33-2.65,4.33-2.65,2.97,0,4.85,2.11,4.85,5.42h0Z"/>
        <path class="st0" d="M1178.39,49.48v3.1c0,.11-.08.19-.21.19h-1.03c-.11,0-.19-.08-.19-.19v-2.05h-1.26c-.13,0-.21-.08-.21-.21v-.85c0-.13.08-.21.21-.21h2.48c.13,0,.21.08.21.21h0Z"/>
        <path class="st0" d="M1181.14,44.04v-2.63c0-2.61,1.73-4.31,4.44-4.31s4.48,1.69,4.48,4.31v6.13c0,.13-.08.21-.21.21h-1.15c-.11,0-.19-.08-.19-.21v-5.94c0-1.92-1.11-3.08-2.93-3.08s-2.9,1.17-2.9,3.08v2.33c0,1.65.73,2.59,2.09,2.59.41,0,.72-.08,1.05-.26.13-.08.21-.06.26.06l.4.85c.06.11.04.23-.04.28-.45.32-1.07.47-1.84.47-2.16,0-3.46-1.45-3.46-3.87h0Z"/>
        <path class="st0" d="M1182.18,35.79c-.13,0-.21-.08-.21-.21v-.85c0-.13.08-.21.21-.21h7.5c.11,0,.19.08.19.19v.38c0,.43-.26.7-.7.7h-7,.01Z"/>
        <path class="st0" d="M1201.41,42.52c0,3.33-1.84,5.43-4.78,5.43-2.73,0-4.46-1.82-4.46-4.7v-1.11c0-.11.08-.19.19-.19h4.46c.11,0,.19.08.19.19v.92c0,.13-.08.21-.19.21h-3.12v.06c0,1.96,1.11,3.23,2.88,3.23,1.99,0,3.25-1.6,3.25-4.06s-1.3-4.01-3.37-4.01c-1.28,0-2.37.66-2.84,1.71-.06.11-.11.15-.26.11l-1-.3c-.15-.04-.17-.13-.13-.26.66-1.66,2.33-2.65,4.33-2.65,2.97,0,4.85,2.11,4.85,5.42h0Z"/>
        <path class="st0" d="M1207.68,47.75c-.13,0-.21-.08-.21-.21v-6.98c0-1.28-.68-2.05-1.81-2.05-.85,0-1.47.45-1.77,1.3-.06.11-.15.17-.26.13l-.98-.28c-.11-.04-.17-.15-.13-.26.51-1.47,1.67-2.29,3.24-2.29,2.01,0,3.25,1.35,3.25,3.52v6.92c0,.13-.08.21-.19.21h-1.15.01Z"/>
        <path class="st0" d="M1211.11,45.26c-.06-.15.02-.24.13-.26l1.02-.23c.13-.04.19,0,.24.13.45,1.13,1.28,1.69,2.52,1.69s2.03-.62,2.03-1.62c0-.85-.55-1.49-1.92-1.81l-.64-.15c-2.03-.47-3.01-1.54-3.01-3.08,0-1.75,1.32-2.84,3.39-2.84,1.77,0,3.03.79,3.61,2.46.04.11-.02.21-.15.24l-.94.21c-.11.02-.21-.02-.24-.13-.4-.98-1.2-1.45-2.28-1.45-1.17,0-1.84.55-1.84,1.43s.62,1.39,2.03,1.75l.6.15c1.99.51,2.95,1.54,2.95,3.16,0,1.86-1.39,3.03-3.59,3.03-1.92,0-3.29-.87-3.91-2.69h0Z"/>
        <path class="st0" d="M1222.62,41.5c-1.47,0-2.28-.73-2.28-2.12v-.83c0-.13.08-.21.21-.21h1.11c.13,0,.21.08.21.21v.62c0,.64.34.98,1.03.98h1.96c.13,0,.19.08.19.21v.96c0,.11-.06.19-.19.19h-2.24,0ZM1222.62,46.69c-1.47,0-2.28-.75-2.28-2.14v-.83c0-.13.08-.19.21-.19h1.13c.11,0,.19.08.19.19v.62c0,.66.36,1,1.03,1h1.96c.13,0,.19.06.19.19v.96c0,.13-.06.21-.19.21h-2.24,0Z"/>
        <path class="st0" d="M1227.85,47.75c-.11,0-.19-.08-.19-.21v-10.04c0-.11.08-.19.19-.19h1.15c.13,0,.21.08.21.19v10.04c0,.13-.08.21-.21.21h-1.15Z"/>
        <path class="st0" d="M1232.11,43.51v-6.02c0-.13.08-.19.19-.19h1.15c.13,0,.21.06.21.19v5.83c0,2.05.98,3.22,2.73,3.22s2.75-1.15,2.75-3.22v-5.83c0-.13.06-.19.19-.19h1.15c.13,0,.21.06.21.19v6.02c0,2.76-1.62,4.44-4.29,4.44s-4.27-1.65-4.27-4.44h-.02Z"/>
        <path class="st0" d="M1232.98,35.79c-.13,0-.21-.08-.21-.21v-.85c0-.13.08-.21.21-.21h6.28v-1.77c0-.11.08-.19.21-.19h1c.13,0,.21.08.21.19v2.33c0,.43-.26.7-.7.7h-7Z"/>
        <path class="st0" d="M1246.91,47.75c-2.37,0-3.76-1.15-3.76-3.08,0-1.2.7-2.18,1.84-2.54-1.19-.3-1.92-1.2-1.92-2.41,0-1.58,1.17-2.58,2.99-2.58.77,0,1.45.17,1.98.51.09.06.11.17.06.28l-.39.85c-.08.11-.13.11-.26.06-.4-.23-.77-.32-1.2-.32-.98,0-1.62.56-1.62,1.41,0,.98.73,1.54,2.01,1.54h1.47c.11,0,.19.08.19.19v.9c0,.13-.08.21-.19.21h-1.2c-1.37,0-2.18.64-2.18,1.73,0,1.22.85,1.9,2.39,1.9h2.65c.11,0,.19-.08.19-.21v-8.69c0-.11.08-.19.21-.19h1.15c.11,0,.19.08.19.19v10.04c0,.13-.08.21-.19.21h-4.41Z"/>
      </g>
      <polygon class="st0" points="274.92 38.27 274.94 34.92 271.59 34.91 269.03 32.33 266.44 34.89 262.65 34.88 262.62 38.67 260.29 40.98 262.59 43.31 262.57 47.17 266.42 47.18 268.92 49.7 271.45 47.2 274.86 47.21 274.88 43.8 277.66 41.05 274.92 38.27"/>
      <polygon class="st0" points="479.53 38.27 479.55 34.92 476.2 34.91 473.65 32.33 471.05 34.89 467.26 34.88 467.24 38.67 464.9 40.98 467.21 43.31 467.18 47.17 471.03 47.18 473.53 49.7 476.06 47.2 479.47 47.21 479.49 43.8 482.28 41.05 479.53 38.27"/>
      <polygon class="st0" points="752.99 38.27 753.01 34.92 749.66 34.91 747.11 32.33 744.51 34.89 740.72 34.88 740.7 38.67 738.36 40.98 740.67 43.31 740.64 47.17 744.49 47.18 746.99 49.7 749.52 47.2 752.93 47.21 752.95 43.8 755.74 41.05 752.99 38.27"/>
      <polygon class="st0" points="1007.27 38.27 1007.29 34.92 1003.95 34.91 1001.39 32.33 998.8 34.89 995.01 34.88 994.98 38.67 992.64 40.98 994.95 43.31 994.92 47.17 998.78 47.18 1001.27 49.7 1003.81 47.2 1007.21 47.21 1007.24 43.8 1010.02 41.05 1007.27 38.27"/>
      <g>
        <path class="st0" d="M301.33,37.31c.13,0,.21.08.21.19v6.56c0,2.44-1.43,3.89-3.86,3.89s-3.84-1.47-3.84-3.89v-1.15c0-1.35.62-2.2,1.15-2.88.38-.49.7-.92.7-1.41h-2.01c-.11,0-.19-.08-.19-.21v-.92c0-.11.08-.19.19-.19h3.31c.13,0,.21.08.21.19v.9c0,.73-.4,1.34-.83,1.96-.49.7-.98,1.45-.98,2.5v1.05c0,1.69.83,2.63,2.29,2.63s2.31-.94,2.31-2.63v-6.41c0-.11.08-.19.19-.19h1.15Z"/>
        <path class="st0" d="M298.91,35.79c-1.37,0-2.14-.71-2.14-2.01v-.68c0-.13.08-.21.19-.21h1.02c.11,0,.19.08.19.21v.47c0,.62.36.96,1,.96h4.08c.13,0,.21.08.21.21v.85c0,.13-.08.21-.21.21h-4.34Z"/>
        <path class="st0" d="M302.9,30.88c.11,0,.19.08.19.21v.75c0,.11-.08.19-.19.19h-4.1c-.13,0-.21-.08-.21-.19v-1.58h-1.05c-.11,0-.19-.08-.19-.21v-.71c0-.11.08-.19.19-.19h1.52c.51,0,.79.28.79.79v.94s3.05,0,3.05,0Z"/>
        <path class="st0" d="M304.38,44.1v-6.6c0-.11.08-.19.19-.19h1.15c.13,0,.21.08.21.19v6.15c0,1.84.85,2.9,2.33,2.9,1.71,0,3.07-1.35,3.07-3.57v-5.47c0-.11.08-.19.19-.19h1.15c.13,0,.21.08.21.19v10.04c0,.13-.08.21-.21.21h-1.02c-.13,0-.21-.08-.21-.21l-.06-1.64c-.68,1.28-1.98,2.05-3.54,2.05-2.18,0-3.46-1.43-3.46-3.85h0Z"/>
        <path class="st0" d="M315.58,44.04v-2.69c0-2.24,1.05-3.72,2.97-4.19l1.67.98,1.69-.98c1.77.45,2.77,1.75,2.77,3.54v6.85c0,.13-.08.21-.21.21h-1.15c-.11,0-.19-.08-.19-.21v-6.92c0-1.05-.47-1.79-1.35-2.05l-1.49.86h-.13l-1.49-.86c-1.02.32-1.56,1.35-1.56,2.93v2.43c0,1.65.83,2.59,2.18,2.59.41,0,.72-.08,1.05-.26.13-.06.21-.06.26.06l.4.85c.06.11.04.23-.04.28-.45.3-1.05.47-1.84.47-2.16,0-3.56-1.45-3.56-3.87l.02-.02Z"/>
        <path class="st0" d="M336.06,42.52c0,3.33-1.84,5.43-4.78,5.43-2.73,0-4.46-1.82-4.46-4.7v-1.11c0-.11.08-.19.19-.19h4.46c.11,0,.19.08.19.19v.92c0,.13-.08.21-.19.21h-3.12v.06c0,1.96,1.11,3.23,2.88,3.23,1.99,0,3.25-1.6,3.25-4.06s-1.3-4.01-3.37-4.01c-1.28,0-2.37.66-2.84,1.71-.06.11-.11.15-.26.11l-1-.3c-.15-.04-.17-.13-.13-.26.66-1.66,2.33-2.65,4.32-2.65,2.97,0,4.85,2.11,4.85,5.42h0Z"/>
        <path class="st0" d="M338.27,44.1v-6.6c0-.11.08-.19.19-.19h1.15c.13,0,.21.08.21.19v6.15c0,1.84.85,2.9,2.33,2.9,1.71,0,3.07-1.35,3.07-3.57v-5.47c0-.11.08-.19.19-.19h1.15c.13,0,.21.08.21.19v10.04c0,.13-.08.21-.21.21h-1.02c-.13,0-.21-.08-.21-.21l-.06-1.64c-.68,1.28-1.97,2.05-3.54,2.05-2.18,0-3.46-1.43-3.46-3.85h0Z"/>
        <path class="st0" d="M354.3,37.31c2.52,0,3.91,1.3,3.91,3.69v6.54c0,.13-.08.21-.21.21h-1.13c-.11,0-.21-.08-.21-.21v-6.54c0-1.5-.9-2.33-2.5-2.33h-2.88v8.88c0,.13-.08.21-.21.21h-1.13c-.11,0-.21-.08-.21-.21v-10.04c0-.11.08-.19.19-.19h4.38Z"/>
        <path class="st0" d="M365.12,47.75c-.13,0-.21-.08-.21-.21v-6.98c0-1.28-.68-2.05-1.81-2.05-.85,0-1.47.45-1.77,1.3-.06.11-.15.17-.26.13l-.98-.28c-.11-.04-.17-.15-.13-.26.51-1.47,1.67-2.29,3.24-2.29,2.01,0,3.25,1.35,3.25,3.52v6.92c0,.13-.08.21-.19.21h-1.15.01Z"/>
        <path class="st0" d="M368.54,45.26c-.06-.15.02-.24.13-.26l1.02-.23c.13-.04.19,0,.24.13.45,1.13,1.28,1.69,2.52,1.69s2.03-.62,2.03-1.62c0-.85-.55-1.49-1.92-1.81l-.64-.15c-2.03-.47-3.01-1.54-3.01-3.08,0-1.75,1.32-2.84,3.38-2.84,1.77,0,3.03.79,3.61,2.46.04.11-.02.21-.15.24l-.94.21c-.11.02-.21-.02-.24-.13-.4-.98-1.2-1.45-2.28-1.45-1.17,0-1.84.55-1.84,1.43s.62,1.39,2.03,1.75l.6.15c1.99.51,2.95,1.54,2.95,3.16,0,1.86-1.39,3.03-3.59,3.03-1.92,0-3.29-.87-3.91-2.69h.01Z"/>
        <path class="st0" d="M387.18,37.22c.11,0,.19.08.19.19v.92c0,.11-.08.19-.19.19h-2.33c.89.47,1.37,1.39,1.37,2.58v6.45c0,.13-.08.21-.19.21h-1.15c-.13,0-.21-.08-.21-.21v-4.64h-1.77c-2.29,0-3.48.68-3.48,2.01,0,1.02.7,1.62,1.86,1.62.43,0,.77-.08,1.07-.26.13-.06.21-.06.26.06l.4.85c.06.11.04.23-.04.28-.43.3-1.05.47-1.86.47-2.03,0-3.24-1.07-3.24-2.88,0-2.22,1.81-3.44,5.04-3.44h1.75v-.62c0-1.49-1.02-2.41-2.6-2.41-1.28,0-2.16.6-2.65,1.54-.06.11-.13.15-.26.11l-1.02-.3c-.13-.04-.17-.15-.13-.26.66-1.52,2.14-2.44,4.14-2.44h5.02l.02-.02Z"/>
        <path class="st0" d="M384.75,35.79c-.11,0-.19-.08-.19-.21v-2.9c0-.13.08-.21.19-.21h1.05c.11,0,.19.08.19.21v2.9c0,.13-.08.21-.19.21h-1.05Z"/>
        <path class="st0" d="M397.36,41.71c0,2.78-1.47,4.91-4.17,5.98-.08.04-.17.06-.24.06h-1.26c-.11,0-.19-.08-.23-.19l-3.08-10.04c-.04-.13.04-.21.17-.21h1.17c.11,0,.19.06.23.17l2.67,8.89c2.13-.85,3.18-2.5,3.18-4.66,0-1.97-.88-3.18-2.31-3.18-.38,0-.71.08-1,.24-.11.06-.21.04-.26-.08l-.4-.83c-.06-.11-.04-.23.06-.28.43-.3,1.04-.45,1.73-.45,2.29,0,3.76,1.77,3.76,4.57h-.02Z"/>
        <path class="st0" d="M408.09,42.52c0,3.33-1.84,5.43-4.78,5.43-2.73,0-4.46-1.82-4.46-4.7v-1.11c0-.11.08-.19.19-.19h4.46c.11,0,.19.08.19.19v.92c0,.13-.08.21-.19.21h-3.12v.06c0,1.96,1.11,3.23,2.88,3.23,1.99,0,3.25-1.6,3.25-4.06s-1.3-4.01-3.37-4.01c-1.28,0-2.37.66-2.84,1.71-.06.11-.11.15-.26.11l-1-.3c-.15-.04-.17-.13-.13-.26.66-1.66,2.33-2.65,4.33-2.65,2.97,0,4.85,2.11,4.85,5.42Z"/>
        <path class="st0" d="M418.81,42.52c0,3.33-1.84,5.43-4.78,5.43-2.73,0-4.46-1.82-4.46-4.7v-1.11c0-.11.08-.19.19-.19h4.46c.11,0,.19.08.19.19v.92c0,.13-.08.21-.19.21h-3.12v.06c0,1.96,1.11,3.23,2.88,3.23,1.99,0,3.25-1.6,3.25-4.06s-1.3-4.01-3.37-4.01c-1.28,0-2.37.66-2.84,1.71-.06.11-.11.15-.26.11l-1-.3c-.15-.04-.17-.13-.13-.26.66-1.66,2.33-2.65,4.33-2.65,2.97,0,4.85,2.11,4.85,5.42Z"/>
        <path class="st0" d="M425.64,37.31c2.52,0,3.91,1.3,3.91,3.69v6.54c0,.13-.08.21-.21.21h-1.13c-.11,0-.21-.08-.21-.21v-6.54c0-1.5-.9-2.33-2.5-2.33h-2.88v8.88c0,.13-.08.21-.21.21h-1.13c-.11,0-.21-.08-.21-.21v-10.04c0-.11.08-.19.19-.19h4.38Z"/>
      </g>
    </g>
    <g>
      <path class="st0" d="M97.85,47.04c.06.13-.02.23-.15.23h-1.24c-.09,0-.21-.06-.24-.15l-2.29-5.25h-3.14v5.19c0,.13-.08.21-.21.21h-1.15c-.11,0-.19-.08-.19-.21v-10.04c0-.11.08-.19.19-.19h1.13c.11,0,.19.08.19.19v3.5h3.42c1.28,0,1.96-.68,1.96-1.92v-1.58c0-.11.08-.19.21-.19h1.13c.11,0,.19.08.19.19v1.69c0,1.58-.79,2.63-2.16,3.01l2.37,5.32h-.02Z"/>
      <path class="st0" d="M100.12,43.62v-6.6c0-.11.08-.19.19-.19h1.15c.13,0,.21.08.21.19v6.15c0,1.84.85,2.9,2.33,2.9,1.71,0,3.07-1.35,3.07-3.57v-5.47c0-.11.08-.19.19-.19h1.15c.13,0,.21.08.21.19v10.04c0,.13-.08.21-.21.21h-1.02c-.13,0-.21-.08-.21-.21l-.06-1.64c-.68,1.28-1.97,2.05-3.53,2.05-2.18,0-3.46-1.43-3.46-3.85h-.01Z"/>
      <path class="st0" d="M109.58,34.05c.11,0,.19.08.19.21v.85c0,.13-.08.21-.19.21h-4.57c-.11,0-.19-.08-.19-.21v-1.81h-1.19c-.13,0-.21-.08-.21-.19v-.83c0-.11.08-.19.21-.19h1.71c.53,0,.83.3.83.85v1.11h3.41Z"/>
      <path class="st0" d="M115.58,47.27c-.13,0-.21-.08-.21-.21v-6.98c0-1.28-.68-2.05-1.81-2.05-.85,0-1.47.45-1.77,1.3-.06.11-.15.17-.26.13l-.98-.28c-.11-.04-.17-.15-.13-.26.51-1.47,1.68-2.29,3.24-2.29,2.01,0,3.25,1.35,3.25,3.52v6.92c0,.13-.08.21-.19.21h-1.15.01Z"/>
      <path class="st0" d="M120.21,47.27c-.11,0-.19-.08-.19-.21v-10.04c0-.11.08-.19.19-.19h1.15c.13,0,.21.08.21.19v10.04c0,.13-.08.21-.21.21h-1.15ZM124.59,47.27c-.11,0-.19-.08-.19-.21v-10.04c0-.11.08-.19.19-.19h1.15c.13,0,.21.08.21.19v10.04c0,.13-.08.21-.21.21h-1.15Z"/>
      <path class="st0" d="M128.09,44.78c-.06-.15.02-.24.13-.26l1.02-.23c.13-.04.19,0,.24.13.45,1.13,1.28,1.69,2.52,1.69s2.03-.62,2.03-1.62c0-.85-.55-1.49-1.92-1.81l-.64-.15c-2.03-.47-3.01-1.54-3.01-3.08,0-1.75,1.32-2.84,3.39-2.84,1.77,0,3.03.79,3.61,2.46.04.11-.02.21-.15.24l-.94.21c-.11.02-.21-.02-.24-.13-.4-.98-1.2-1.45-2.28-1.45-1.17,0-1.84.55-1.84,1.43s.62,1.39,2.03,1.75l.6.15c1.99.51,2.95,1.54,2.95,3.16,0,1.86-1.39,3.03-3.59,3.03-1.92,0-3.29-.87-3.91-2.69h0Z"/>
      <path class="st0" d="M142.48,36.83c2.52,0,3.91,1.3,3.91,3.69v6.54c0,.13-.08.21-.21.21h-1.13c-.11,0-.21-.08-.21-.21v-6.54c0-1.5-.9-2.33-2.5-2.33h-2.88v8.88c0,.13-.08.21-.21.21h-1.13c-.11,0-.21-.08-.21-.21v-10.04c0-.11.08-.19.19-.19h4.38Z"/>
    </g>
    <polygon class="st0" points="74.9 39.23 74.92 35.88 71.57 35.87 69.01 33.28 66.42 35.85 62.63 35.83 62.61 39.63 60.27 41.94 62.57 44.27 62.55 48.12 66.4 48.14 68.9 50.66 71.43 48.15 74.84 48.17 74.86 44.76 77.65 42 74.9 39.23"/>
  </g>
</svg>