<?xml version="1.0" encoding="UTF-8"?>
<svg id="Layer_1" xmlns="http://www.w3.org/2000/svg" version="1.1" viewBox="0 0 1320 170">
  <!-- Generator: Adobe Illustrator 29.3.1, SVG Export Plug-In . SVG Version: 2.1.0 Build 151)  -->
  <defs>
    <style>
      .st0 {
        fill: #4a84c4;
      }

      .st1 {
        fill: #c5e3bf;
      }

      .st2 {
        fill: #fff;
      }
    </style>
  </defs>
  <g>
    <path class="st0" d="M0-.61h113.59c38.63,0,70,31.37,70,70v101.23H0V-.61h0Z"/>
    <path class="st0" d="M250.45-.61h1069.55v171.23H182.45v-103.23C182.45,29.86,212.91-.61,250.45-.61Z"/>
  </g>
  <g>
    <rect class="st1" x="320" y="80.05" width="680" height="38.2" rx="19.1" ry="19.1"/>
    <g>
      <path class="st0" d="M339.1,94.61c2.59,0,4.02,1.33,4.02,3.8v5.91c0,.14-.09.23-.23.23h-1.87c-.14,0-.23-.09-.23-.23v-5.91c0-1.16-.7-1.8-1.94-1.8h-2.05v7.71c0,.14-.09.23-.23.23h-1.87c-.14,0-.23-.09-.23-.23v-9.48c0-.14.09-.23.23-.23h4.39Z"/>
      <path class="st0" d="M349.47,104.55c-.14,0-.23-.09-.23-.23v-6.33c0-.94-.46-1.49-1.24-1.49-.6,0-1.03.31-1.26.91-.05.14-.17.19-.3.16l-1.59-.45c-.14-.04-.21-.16-.16-.3.52-1.54,1.77-2.41,3.45-2.41,2.11,0,3.43,1.42,3.43,3.67v6.24c0,.14-.09.23-.23.23h-1.87Z"/>
      <path class="st0" d="M353.39,102.22c-.05-.16.02-.26.16-.3l1.63-.33c.14-.04.21.02.28.14.35.66.93,1.07,1.77,1.07s1.33-.39,1.33-1c0-.51-.32-.94-1.35-1.17l-.56-.12c-2.01-.44-2.97-1.52-2.97-3.15,0-1.82,1.37-2.96,3.53-2.96,1.85,0,3.01.77,3.57,2.38.05.14-.02.25-.17.28l-1.51.3c-.14.03-.24-.02-.29-.14-.25-.58-.82-.89-1.59-.89s-1.22.33-1.22.91.39.91,1.45,1.15l.54.12c1.97.45,2.94,1.5,2.94,3.17,0,1.91-1.42,3.08-3.69,3.08-1.91,0-3.25-.82-3.83-2.54Z"/>
      <path class="st0" d="M366.14,93.98v10.34c0,.14-.09.23-.23.23h-1.87c-.14,0-.23-.09-.23-.23v-11.39c0-.14.09-.23.23-.23h.44c.82,0,1.29-.52,1.29-1.33s-.47-1.28-1.19-1.28c-.52,0-.94.26-1.14.75-.05.12-.17.17-.3.14l-1.52-.35c-.14-.04-.23-.14-.17-.28.51-1.45,1.71-2.26,3.3-2.26,2,0,3.25,1.31,3.25,3.2,0,1.38-.7,2.31-1.87,2.68Z"/>
      <path class="st0" d="M377.63,104.29c.07.16-.02.26-.18.26h-2.01c-.12,0-.24-.07-.28-.18l-1.82-4.48h-2.26v4.42c0,.14-.09.23-.23.23h-1.87c-.14,0-.23-.09-.23-.23v-9.48c0-.14.09-.23.23-.23h1.82c.14,0,.23.09.23.23v3.06h2.43c1.07,0,1.63-.54,1.63-1.54v-1.52c0-.14.09-.23.23-.23h1.84c.14,0,.23.09.23.23v1.75c0,1.38-.65,2.41-1.77,2.92l2.01,4.78Z"/>
      <path class="st0" d="M378.05,91.53c.14,0,.23.09.23.23v1.36c0,.14-.09.23-.23.23h-4.67c-.14,0-.23-.09-.23-.23v-1.59h-1c-.14,0-.23-.09-.23-.23v-1.29c0-.14.09-.23.23-.23h1.89c.72,0,1.12.4,1.12,1.14v.61h2.89Z"/>
      <path class="st0" d="M379.55,100.63v-5.79c0-.16.09-.23.23-.23h1.87c.14,0,.23.07.23.23v5.44c0,1.52.72,2.38,2.03,2.38s2.03-.86,2.03-2.38v-5.44c0-.16.07-.23.23-.23h1.87c.16,0,.23.07.23.23v5.79c0,2.52-1.7,4.13-4.36,4.13s-4.35-1.61-4.35-4.13Z"/>
      <path class="st0" d="M390.04,102.22c-.05-.16.02-.26.16-.3l1.63-.33c.14-.04.21.02.28.14.35.66.93,1.07,1.77,1.07s1.33-.39,1.33-1c0-.51-.32-.94-1.35-1.17l-.56-.12c-2.01-.44-2.97-1.52-2.97-3.15,0-1.82,1.37-2.96,3.53-2.96,1.85,0,3.01.77,3.57,2.38.05.14-.02.25-.17.28l-1.51.3c-.14.03-.24-.02-.29-.14-.25-.58-.82-.89-1.59-.89s-1.22.33-1.22.91.39.91,1.45,1.15l.54.12c1.97.45,2.94,1.5,2.94,3.17,0,1.91-1.42,3.08-3.69,3.08-1.91,0-3.25-.82-3.83-2.54Z"/>
      <path class="st0" d="M390.01,93.35c-.14,0-.23-.09-.23-.23v-1.36c0-.14.09-.23.23-.23h7.51c.12,0,.23.09.23.23v.66c0,.56-.35.93-.93.93h-6.81Z"/>
      <path class="st0" d="M404.16,94.61c2.59,0,4.02,1.33,4.02,3.8v5.91c0,.14-.09.23-.23.23h-1.87c-.14,0-.23-.09-.23-.23v-5.91c0-1.16-.7-1.8-1.94-1.8h-2.05v7.71c0,.14-.09.23-.23.23h-1.87c-.14,0-.23-.09-.23-.23v-9.48c0-.14.09-.23.23-.23h4.39Z"/>
      <path class="st0" d="M414.53,104.55c-.14,0-.23-.09-.23-.23v-6.33c0-.94-.45-1.49-1.24-1.49-.59,0-1.03.31-1.26.91-.05.14-.18.19-.3.16l-1.59-.45c-.14-.04-.21-.16-.16-.3.52-1.54,1.76-2.41,3.44-2.41,2.12,0,3.43,1.42,3.43,3.67v6.24c0,.14-.09.23-.23.23h-1.87Z"/>
      <path class="st0" d="M418.45,102.22c-.05-.16.02-.26.16-.3l1.63-.33c.14-.04.21.02.28.14.35.66.93,1.07,1.77,1.07s1.33-.39,1.33-1c0-.51-.31-.94-1.34-1.17l-.56-.12c-2.01-.44-2.97-1.52-2.97-3.15,0-1.82,1.36-2.96,3.53-2.96,1.85,0,3.01.77,3.57,2.38.05.14-.02.25-.18.28l-1.5.3c-.14.03-.25-.02-.3-.14-.25-.58-.82-.89-1.59-.89s-1.23.33-1.23.91.39.91,1.45,1.15l.54.12c1.98.45,2.94,1.5,2.94,3.17,0,1.91-1.42,3.08-3.69,3.08-1.91,0-3.25-.82-3.83-2.54Z"/>
      <path class="st0" d="M427.66,100.91v-2.5c0-2.08,1.12-3.48,3.13-3.94l1.59.96,1.61-.96c1.84.45,2.9,1.75,2.9,3.55v6.3c0,.14-.09.23-.23.23h-1.87c-.14,0-.23-.09-.23-.23v-6.44c0-.74-.3-1.21-.82-1.35l-1.29.73h-.14l-1.28-.73c-.68.23-1.05,1-1.05,2.15v2.01c0,1.26.66,1.96,1.7,1.96.23,0,.42-.03.65-.14.14-.07.24-.05.29.09l.61,1.36c.05.12.04.25-.07.32-.42.28-1.05.44-1.79.44-2.24,0-3.72-1.49-3.72-3.81Z"/>
      <path class="st0" d="M428.99,93.35c-.14,0-.23-.09-.23-.23v-1.36c0-.14.09-.23.23-.23h5.65v-1.35c0-.14.09-.23.23-.23h1.63c.14,0,.23.09.23.23v2.24c0,.58-.35.93-.93.93h-6.81Z"/>
      <path class="st0" d="M439.57,104.55c-.14,0-.23-.09-.23-.23v-5.68c0-2.59,1.68-4.23,4.3-4.23s4.49,1.64,4.49,4.23v5.68c0,.14-.09.23-.23.23h-1.87c-.14,0-.23-.09-.23-.23v-5.33c0-1.61-.75-2.48-2.17-2.48s-2.03.82-2.03,2.48v.45h2.4c.14,0,.23.09.23.23v1.54c0,.14-.09.23-.23.23h-2.34v2.89c0,.14-.09.23-.23.23h-1.87Z"/>
      <path class="st0" d="M450.15,101.92c-.05-.16.02-.26.16-.3l1.71-.47c.16-.03.25.02.3.16.37.93,1.03,1.42,1.89,1.42,1.35,0,2.19-1.22,2.19-3.18s-.86-3.11-2.24-3.11c-.91,0-1.63.51-1.99,1.45-.07.16-.14.21-.3.17l-1.7-.44c-.16-.04-.21-.16-.16-.3.61-1.85,2.13-2.92,4.2-2.92,2.83,0,4.58,1.98,4.58,5.14s-1.75,5.21-4.56,5.21c-2.01,0-3.5-1.03-4.08-2.83Z"/>
      <path class="st0" d="M464.65,104.55c-.14,0-.23-.09-.23-.23v-6.33c0-.94-.45-1.49-1.24-1.49-.59,0-1.03.31-1.26.91-.05.14-.18.19-.3.16l-1.59-.45c-.14-.04-.21-.16-.16-.3.52-1.54,1.76-2.41,3.44-2.41,2.12,0,3.43,1.42,3.43,3.67v6.24c0,.14-.09.23-.23.23h-1.87Z"/>
      <path class="st0" d="M471.52,103.18l-.05,1.14c0,.16-.11.23-.25.23h-1.7c-.14,0-.23-.09-.23-.23v-9.48c0-.14.09-.23.23-.23h1.87c.14,0,.23.09.23.23v4.9c0,1.84,1.02,2.92,2.24,2.92,1.12,0,1.75-.94,1.75-2.47v-5.35c0-.14.09-.23.23-.23h1.87c.14,0,.23.09.23.23v6.19c0,2.27-1.29,3.73-3.36,3.73-1.28,0-2.38-.56-3.06-1.57Z"/>
      <path class="st0" d="M491.09,94.61c.16,0,.23.09.19.25l-2.15,9.48c-.03.14-.14.21-.26.21h-1.45c-.12,0-.23-.07-.26-.19l-1.73-5.96-1.77,5.96c-.03.12-.14.19-.26.19h-1.45c-.12,0-.23-.07-.26-.21l-2.15-9.48c-.03-.16.03-.25.19-.25h1.87c.12,0,.23.07.26.19l1.12,5.25,1.66-5.25c.03-.12.1-.19.25-.19h1.08c.14,0,.23.07.26.19l1.66,5.25,1.12-5.25c.03-.12.12-.19.26-.19h1.82Z"/>
      <path class="st0" d="M482.17,93.35c-.14,0-.23-.09-.23-.23v-1.36c0-.14.09-.23.23-.23h7.5c.12,0,.23.09.23.23v.66c0,.56-.35.93-.93.93h-6.8Z"/>
      <path class="st0" d="M497.56,94.61c2.59,0,4.02,1.33,4.02,3.8v5.91c0,.14-.09.23-.23.23h-1.87c-.14,0-.23-.09-.23-.23v-5.91c0-1.16-.7-1.8-1.94-1.8h-2.05v7.71c0,.14-.09.23-.23.23h-1.87c-.14,0-.23-.09-.23-.23v-9.48c0-.14.09-.23.23-.23h4.39Z"/>
      <path class="st0" d="M498.59,93.35c-1.52,0-2.36-.77-2.36-2.15v-.75c0-.14.09-.23.23-.23h1.63c.14,0,.23.09.23.23v.35c0,.47.26.73.73.73h3.74c.14,0,.23.09.23.23v1.36c0,.14-.09.23-.23.23h-4.2Z"/>
      <path class="st0" d="M503.82,100.91v-2.33c0-2.55,1.75-4.18,4.53-4.18s4.53,1.63,4.53,4.18v5.74c0,.14-.09.23-.23.23h-1.87c-.14,0-.23-.09-.23-.23v-5.46c0-1.52-.79-2.36-2.2-2.36s-2.2.84-2.2,2.36v1.84c0,1.26.58,1.96,1.61,1.96.23,0,.42-.03.65-.14.14-.07.25-.05.3.09l.61,1.36c.05.12.03.25-.07.32-.42.28-1.05.44-1.78.44-2.24,0-3.64-1.49-3.64-3.81Z"/>
      <path class="st0" d="M524.88,94.51c.14,0,.23.09.23.23v1.47c0,.14-.09.23-.23.23h-1.73c.63.44.94,1.12.94,2.06v5.82c0,.14-.09.23-.23.23h-1.87c-.14,0-.23-.09-.23-.23v-5.33c0-1.56-.74-2.45-2.17-2.45s-2.03.89-2.03,2.45v.45h2.39c.14,0,.23.09.23.23v1.54c0,.14-.09.23-.23.23h-2.34v2.89c0,.14-.09.23-.23.23h-1.87c-.14,0-.23-.09-.23-.23v-5.68c0-2.59,1.68-4.13,4.3-4.13h5.28Z"/>
      <path class="st0" d="M524.09,106.03v3.08c0,.14-.09.23-.23.23h-1.68c-.14,0-.23-.09-.23-.23v-1.49h-1.01c-.14,0-.23-.09-.23-.23v-1.36c0-.14.09-.23.23-.23h2.92c.14,0,.23.09.23.23Z"/>
      <path class="st0" d="M534.8,98.39v5.93c0,.14-.09.23-.23.23h-1.87c-.14,0-.23-.09-.23-.23v-3.86h-1.43c-1.52,0-2.38.33-2.38,1.21,0,.65.47,1,1.24,1,.24,0,.43-.03.66-.14.14-.07.24-.05.29.09l.61,1.36c.05.12.04.25-.07.32-.42.28-1.05.44-1.84.44-1.97,0-3.24-1.03-3.24-2.83,0-2.1,1.7-3.32,4.74-3.32h1.4v-.32c0-1.12-.77-1.82-1.98-1.82-.93,0-1.59.42-1.99,1.14-.07.12-.16.16-.3.12l-1.64-.51c-.16-.05-.21-.16-.16-.3.68-1.56,2.26-2.48,4.23-2.48,2.55,0,4.16,1.54,4.16,3.99Z"/>
      <path class="st0" d="M541.93,94.61c2.59,0,4.02,1.33,4.02,3.8v5.91c0,.14-.09.23-.23.23h-1.87c-.14,0-.23-.09-.23-.23v-5.91c0-1.16-.7-1.8-1.94-1.8h-2.05v7.71c0,.14-.09.23-.23.23h-1.87c-.14,0-.23-.09-.23-.23v-9.48c0-.14.09-.23.23-.23h4.39Z"/>
      <path class="st0" d="M552.3,104.55c-.14,0-.23-.09-.23-.23v-6.33c0-.94-.46-1.49-1.24-1.49-.6,0-1.03.31-1.26.91-.05.14-.17.19-.3.16l-1.59-.45c-.14-.04-.21-.16-.16-.3.52-1.54,1.77-2.41,3.45-2.41,2.11,0,3.43,1.42,3.43,3.67v6.24c0,.14-.09.23-.23.23h-1.87Z"/>
      <path class="st0" d="M561.57,94.61c2.59,0,4.02,1.33,4.02,3.8v5.91c0,.14-.09.23-.23.23h-1.87c-.14,0-.23-.09-.23-.23v-5.91c0-1.16-.7-1.8-1.94-1.8h-2.05v7.71c0,.14-.09.23-.23.23h-1.87c-.14,0-.23-.09-.23-.23v-9.48c0-.14.09-.23.23-.23h4.39Z"/>
      <path class="st0" d="M567.38,102.22c-.05-.16.02-.26.16-.3l1.63-.33c.14-.04.21.02.28.14.35.66.93,1.07,1.77,1.07s1.33-.39,1.33-1c0-.51-.31-.94-1.34-1.17l-.56-.12c-2.01-.44-2.97-1.52-2.97-3.15,0-1.82,1.36-2.96,3.53-2.96,1.85,0,3.01.77,3.57,2.38.05.14-.02.25-.18.28l-1.5.3c-.14.03-.25-.02-.3-.14-.25-.58-.82-.89-1.59-.89s-1.23.33-1.23.91.39.91,1.45,1.15l.54.12c1.98.45,2.94,1.5,2.94,3.17,0,1.91-1.42,3.08-3.69,3.08-1.91,0-3.25-.82-3.83-2.54Z"/>
      <path class="st0" d="M584.97,98.39v5.93c0,.14-.09.23-.23.23h-1.87c-.14,0-.23-.09-.23-.23v-3.86h-1.43c-1.52,0-2.38.33-2.38,1.21,0,.65.47,1,1.24,1,.24,0,.43-.03.66-.14.14-.07.24-.05.29.09l.61,1.36c.05.12.04.25-.07.32-.42.28-1.05.44-1.84.44-1.97,0-3.24-1.03-3.24-2.83,0-2.1,1.7-3.32,4.74-3.32h1.4v-.32c0-1.12-.77-1.82-1.98-1.82-.93,0-1.59.42-1.99,1.14-.07.12-.16.16-.3.12l-1.64-.51c-.16-.05-.21-.16-.16-.3.68-1.56,2.26-2.48,4.23-2.48,2.55,0,4.16,1.54,4.16,3.99Z"/>
      <path class="st0" d="M582.78,93.35c-.14,0-.23-.09-.23-.23v-3.04c0-.14.09-.23.23-.23h1.7c.14,0,.23.09.23.23v3.04c0,.14-.09.23-.23.23h-1.7Z"/>
      <path class="st0" d="M586.98,101.92c-.05-.16.02-.26.16-.3l1.71-.47c.16-.03.24.02.29.16.37.93,1.03,1.42,1.89,1.42,1.34,0,2.19-1.22,2.19-3.18s-.86-3.11-2.24-3.11c-.91,0-1.63.51-1.99,1.45-.07.16-.14.21-.3.17l-1.7-.44c-.16-.04-.21-.16-.16-.3.61-1.85,2.13-2.92,4.2-2.92,2.83,0,4.58,1.98,4.58,5.14s-1.75,5.21-4.56,5.21c-2.01,0-3.5-1.03-4.07-2.83Z"/>
      <path class="st0" d="M605.64,98.93c0,2.61-1.28,4.58-3.62,5.55-.09.05-.19.07-.3.07h-2.12c-.14,0-.23-.07-.26-.21l-2.82-9.48c-.05-.16.03-.25.21-.25h1.91c.12,0,.21.07.24.19l2.2,7.68c1.4-.65,2.15-1.89,2.15-3.55,0-1.52-.58-2.43-1.52-2.43-.21,0-.44.05-.63.14-.14.07-.25.05-.3-.09l-.61-1.36c-.05-.12-.03-.25.07-.32.42-.28,1.03-.44,1.71-.44,2.24,0,3.67,1.75,3.67,4.49Z"/>
      <path class="st0" d="M616.54,104.29c.07.16-.02.26-.18.26h-2.01c-.12,0-.24-.07-.28-.18l-1.82-4.48h-2.26v4.42c0,.14-.09.23-.23.23h-1.87c-.14,0-.23-.09-.23-.23v-9.48c0-.14.09-.23.23-.23h1.82c.14,0,.23.09.23.23v3.06h2.43c1.07,0,1.63-.54,1.63-1.54v-1.52c0-.14.09-.23.23-.23h1.84c.14,0,.23.09.23.23v1.75c0,1.38-.65,2.41-1.77,2.92l2.01,4.78Z"/>
      <path class="st0" d="M618.49,101.17v-6.33c0-.14.09-.23.23-.23h1.87c.14,0,.23.09.23.23v5.49c0,1.45.63,2.33,1.73,2.33,1.24,0,2.26-1.08,2.26-2.92v-4.9c0-.14.09-.23.23-.23h1.87c.14,0,.23.09.23.23v9.48c0,.14-.09.23-.23.23h-1.71c-.14,0-.23-.09-.23-.23l-.05-1.14c-.68,1.01-1.79,1.57-3.06,1.57-2.06,0-3.36-1.38-3.36-3.59Z"/>
      <path class="st0" d="M627.8,91.53c.14,0,.23.09.23.23v1.36c0,.14-.09.23-.23.23h-4.67c-.14,0-.23-.09-.23-.23v-1.59h-1c-.14,0-.23-.09-.23-.23v-1.29c0-.14.09-.23.23-.23h1.89c.72,0,1.12.4,1.12,1.14v.61h2.89Z"/>
      <path class="st0" d="M633.58,104.55c-.14,0-.23-.09-.23-.23v-6.33c0-.94-.45-1.49-1.24-1.49-.59,0-1.03.31-1.26.91-.05.14-.18.19-.3.16l-1.59-.45c-.14-.04-.21-.16-.16-.3.52-1.54,1.76-2.41,3.44-2.41,2.12,0,3.43,1.42,3.43,3.67v6.24c0,.14-.09.23-.23.23h-1.87Z"/>
      <path class="st0" d="M638.46,104.55c-.14,0-.23-.09-.23-.23v-9.48c0-.14.09-.23.23-.23h1.7c.14,0,.25.07.25.23l.05,1.14c.68-1,1.78-1.57,3.08-1.57,2.08,0,3.39,1.4,3.39,3.58v6.33c0,.16-.07.23-.23.23h-1.87c-.16,0-.23-.07-.23-.23v-5.49c0-1.45-.66-2.33-1.79-2.33-1.33,0-2.26,1.21-2.26,2.92v4.9c0,.14-.07.23-.23.23h-1.87Z"/>
      <path class="st0" d="M653.31,104.55c-.14,0-.23-.09-.23-.23v-6.33c0-.94-.45-1.49-1.24-1.49-.59,0-1.03.31-1.26.91-.05.14-.18.19-.3.16l-1.59-.45c-.14-.04-.21-.16-.16-.3.52-1.54,1.76-2.41,3.44-2.41,2.12,0,3.43,1.42,3.43,3.67v6.24c0,.14-.09.23-.23.23h-1.87Z"/>
      <path class="st0" d="M666.13,98.93c0,2.61-1.28,4.58-3.62,5.55-.09.05-.19.07-.3.07h-2.12c-.14,0-.23-.07-.26-.21l-2.82-9.48c-.05-.16.03-.25.21-.25h1.91c.12,0,.21.07.24.19l2.2,7.68c1.4-.65,2.15-1.89,2.15-3.55,0-1.52-.58-2.43-1.52-2.43-.21,0-.44.05-.63.14-.14.07-.25.05-.3-.09l-.61-1.36c-.05-.12-.03-.25.07-.32.42-.28,1.03-.44,1.71-.44,2.24,0,3.67,1.75,3.67,4.49Z"/>
      <path class="st0" d="M676.82,99.62c0,3.15-1.85,5.14-4.79,5.14-2.75,0-4.5-1.75-4.5-4.48v-1.24c0-.14.09-.23.23-.23h4.3c.14,0,.23.09.23.23v1.47c0,.14-.09.23-.23.23h-2.22c.12,1.19.91,1.96,2.1,1.96,1.52,0,2.48-1.22,2.48-3.11s-1.01-3.11-2.64-3.11c-.96,0-1.7.44-2.06,1.17-.07.12-.16.16-.3.12l-1.64-.47c-.16-.05-.19-.16-.14-.3.68-1.63,2.29-2.59,4.32-2.59,2.97,0,4.86,2.03,4.86,5.21Z"/>
      <path class="st0" d="M668.73,93.35c-.14,0-.23-.09-.23-.23v-1.36c0-.14.09-.23.23-.23h7.5c.12,0,.23.09.23.23v.66c0,.56-.35.93-.93.93h-6.8Z"/>
      <path class="st0" d="M679.21,104.55c-.14,0-.23-.09-.23-.23v-9.48c0-.14.09-.23.23-.23h1.87c.14,0,.23.09.23.23v9.48c0,.14-.09.23-.23.23h-1.87Z"/>
      <path class="st0" d="M692.03,98.39v5.93c0,.14-.09.23-.23.23h-1.87c-.14,0-.23-.09-.23-.23v-3.86h-1.43c-1.52,0-2.38.33-2.38,1.21,0,.65.47,1,1.24,1,.24,0,.43-.03.66-.14.14-.07.24-.05.29.09l.61,1.36c.05.12.04.25-.07.32-.42.28-1.05.44-1.84.44-1.97,0-3.24-1.03-3.24-2.83,0-2.1,1.7-3.32,4.74-3.32h1.4v-.32c0-1.12-.77-1.82-1.98-1.82-.93,0-1.59.42-1.99,1.14-.07.12-.16.16-.3.12l-1.64-.51c-.16-.05-.21-.16-.16-.3.68-1.56,2.26-2.48,4.23-2.48,2.55,0,4.16,1.54,4.16,3.99Z"/>
      <path class="st0" d="M687.22,90.66c-.54,0-.84.23-.84.61,0,.33.23.58.66.58.33,0,.56-.14.82-.59.07-.12.16-.18.28-.18h.58c.12,0,.19.05.25.14l.19.32c.1.18.31.25.72.25h1.12c.14,0,.23.09.23.23v1.12c0,.14-.09.23-.23.23h-1.02c-.7,0-1.28-.25-1.57-.77l-.03-.07c-.39.61-1.05.98-1.92.98-1.29,0-2.14-.84-2.14-2.15,0-1.45,1.03-2.36,2.66-2.36h4.02c.14,0,.23.09.23.23v1.22c0,.14-.09.23-.23.23h-3.78Z"/>
      <path class="st0" d="M699.17,94.61c2.59,0,4.02,1.33,4.02,3.8v5.91c0,.14-.09.23-.23.23h-1.87c-.14,0-.23-.09-.23-.23v-5.91c0-1.16-.7-1.8-1.94-1.8h-2.05v7.71c0,.14-.09.23-.23.23h-1.87c-.14,0-.23-.09-.23-.23v-9.48c0-.14.09-.23.23-.23h4.39Z"/>
      <path class="st0" d="M705.93,104.55c-.14,0-.23-.09-.23-.23v-9.48c0-.14.09-.23.23-.23h1.7c.14,0,.25.07.25.23l.05,1.14c.68-1,1.79-1.57,3.08-1.57,2.08,0,3.39,1.4,3.39,3.58v6.33c0,.16-.07.23-.23.23h-1.87c-.16,0-.23-.07-.23-.23v-5.49c0-1.45-.66-2.33-1.78-2.33-1.33,0-2.26,1.21-2.26,2.92v4.9c0,.14-.07.23-.23.23h-1.87Z"/>
      <path class="st0" d="M716.22,102.22c-.05-.16.02-.26.16-.3l1.63-.33c.14-.04.21.02.28.14.35.66.93,1.07,1.77,1.07s1.33-.39,1.33-1c0-.51-.31-.94-1.34-1.17l-.56-.12c-2.01-.44-2.97-1.52-2.97-3.15,0-1.82,1.36-2.96,3.53-2.96,1.85,0,3.01.77,3.57,2.38.05.14-.02.25-.18.28l-1.5.3c-.14.03-.25-.02-.3-.14-.25-.58-.82-.89-1.59-.89s-1.23.33-1.23.91.39.91,1.45,1.15l.54.12c1.98.45,2.94,1.5,2.94,3.17,0,1.91-1.42,3.08-3.69,3.08-1.91,0-3.25-.82-3.83-2.54Z"/>
      <path class="st0" d="M734.37,99.62c0,3.15-1.85,5.14-4.79,5.14-2.75,0-4.5-1.75-4.5-4.48v-1.24c0-.14.09-.23.23-.23h4.3c.14,0,.23.09.23.23v1.47c0,.14-.09.23-.23.23h-2.22c.12,1.19.91,1.96,2.1,1.96,1.52,0,2.48-1.22,2.48-3.11s-1.01-3.11-2.64-3.11c-.96,0-1.7.44-2.06,1.17-.07.12-.16.16-.3.12l-1.64-.47c-.16-.05-.19-.16-.14-.3.68-1.63,2.29-2.59,4.32-2.59,2.97,0,4.86,2.03,4.86,5.21Z"/>
      <path class="st0" d="M736.33,101.17v-6.33c0-.14.09-.23.23-.23h1.87c.14,0,.23.09.23.23v5.49c0,1.45.63,2.33,1.73,2.33,1.24,0,2.26-1.08,2.26-2.92v-4.9c0-.14.09-.23.23-.23h1.87c.14,0,.23.09.23.23v9.48c0,.14-.09.23-.23.23h-1.71c-.14,0-.23-.09-.23-.23l-.05-1.14c-.68,1.01-1.78,1.57-3.06,1.57-2.06,0-3.36-1.38-3.36-3.59Z"/>
      <path class="st0" d="M737.23,93.35c-.14,0-.23-.09-.23-.23v-1.36c0-.14.09-.23.23-.23h7.51c.12,0,.23.09.23.23v.66c0,.56-.35.93-.93.93h-6.81Z"/>
      <path class="st0" d="M752.21,94.61c2.59,0,4.02,1.33,4.02,3.8v5.91c0,.14-.09.23-.23.23h-1.87c-.14,0-.23-.09-.23-.23v-5.91c0-1.16-.7-1.8-1.94-1.8h-2.05v7.71c0,.14-.09.23-.23.23h-1.87c-.14,0-.23-.09-.23-.23v-9.48c0-.14.09-.23.23-.23h4.39Z"/>
      <path class="st0" d="M767.63,94.51c.14,0,.23.09.23.23v1.47c0,.14-.09.23-.23.23h-1.73c.63.44.94,1.12.94,2.06v5.82c0,.14-.09.23-.23.23h-1.87c-.14,0-.23-.09-.23-.23v-3.86h-1.43c-1.52,0-2.38.33-2.38,1.21,0,.65.47,1,1.24,1,.24,0,.43-.03.66-.14.14-.07.24-.05.29.09l.61,1.36c.05.12.04.25-.07.32-.42.28-1.05.44-1.84.44-1.97,0-3.24-1.03-3.24-2.83,0-2.1,1.7-3.32,4.74-3.32h1.4v-.26c0-1.12-.77-1.77-1.98-1.77-.93,0-1.59.37-1.99,1.09-.07.12-.16.16-.3.12l-1.64-.51c-.16-.05-.21-.16-.16-.3.68-1.56,2.2-2.43,4.18-2.43h5Z"/>
      <path class="st0" d="M763.22,93.35c-.14,0-.23-.09-.23-.23v-.66c0-1.38.86-2.29,2.36-2.29h1.93c.14,0,.23.09.23.23v1.29c0,.14-.09.23-.23.23h-1.38c-.52,0-.82.28-.82.8v.4c0,.14-.09.23-.23.23h-1.63Z"/>
      <path class="st0" d="M772.86,98.95c0-5.09,1.71-7.98,5.44-8.2.14-.02.23.07.23.21v1.7c0,.14-.07.23-.21.25-2.13.23-3.04,2.08-3.04,6.05s.91,5.82,3.04,6.05c.14.02.21.1.21.24v1.7c0,.14-.09.23-.23.21-3.73-.23-5.44-3.11-5.44-8.2Z"/>
      <path class="st0" d="M779.54,100.02c0-2.75,1.73-4.71,4.58-4.71s4.37,2.06,4.29,5.18c-.02.16-.11.23-.25.23h-6.21c.21,1.24.98,1.99,2.19,1.99.93,0,1.57-.35,1.99-1.03.07-.12.18-.14.3-.1l1.56.54c.14.05.19.16.12.3-.8,1.59-2.31,2.31-3.99,2.31-2.85,0-4.58-1.96-4.58-4.7ZM781.99,99.02h3.99c-.21-1.07-.89-1.7-1.87-1.7-1.07,0-1.84.61-2.12,1.7Z"/>
      <path class="st0" d="M790.35,99.93c-.14,0-.23-.09-.23-.23v-1.7c0-.14.09-.23.23-.23h5.23c.14,0,.23.09.23.23v1.7c0,.14-.09.23-.23.23h-5.23Z"/>
      <path class="st0" d="M797.24,104.55c-.16,0-.24-.11-.17-.26l5.13-12.4c.05-.12.14-.17.26-.17h1.63c.12,0,.21.05.26.17l5.13,12.4c.07.16-.02.26-.17.26h-2.2c-.12,0-.21-.05-.26-.18l-.91-2.4h-5.33l-.91,2.4c-.05.12-.14.18-.26.18h-2.17ZM805.07,99.79l-1.84-4.86-1.84,4.86h3.67Z"/>
      <path class="st0" d="M810.07,100.02c0-2.78,1.65-4.71,4.23-4.71,1.19,0,2.19.47,2.85,1.28v-4.93c0-.14.09-.23.23-.23h1.82c.14,0,.23.09.23.23v12.66c0,.14-.09.23-.23.23h-1.65c-.14,0-.25-.07-.25-.23l-.05-1.01c-.65.89-1.7,1.42-2.96,1.42-2.59,0-4.23-1.92-4.23-4.7ZM817.31,100.02c0-1.56-1-2.64-2.45-2.64s-2.45,1.08-2.45,2.64,1,2.64,2.45,2.64,2.45-1.08,2.45-2.64Z"/>
      <path class="st0" d="M825.13,104.55c-.12,0-.21-.07-.26-.18l-3.87-8.62c-.07-.16,0-.26.17-.26h2.17c.12,0,.21.05.26.18l2.17,5.51,2.17-5.51c.05-.12.14-.18.26-.18h2.03c.18,0,.25.11.18.26l-3.87,8.62c-.05.11-.14.18-.26.18h-1.15Z"/>
      <path class="st0" d="M831.03,100.02c0-2.78,1.64-4.71,4.23-4.71,1.26,0,2.31.52,2.96,1.42l.05-1.01c0-.16.11-.23.25-.23h1.64c.14,0,.23.09.23.23v8.6c0,.14-.09.23-.23.23h-1.64c-.14,0-.25-.07-.25-.23l-.05-1.01c-.65.89-1.7,1.42-2.96,1.42-2.59,0-4.23-1.92-4.23-4.7ZM838.27,100.02c0-1.56-1-2.64-2.45-2.64s-2.45,1.08-2.45,2.64,1,2.64,2.45,2.64,2.45-1.08,2.45-2.64Z"/>
      <path class="st0" d="M842.99,104.55c-.14,0-.23-.09-.23-.23v-8.6c0-.14.09-.23.23-.23h1.64c.14,0,.25.07.25.23l.05,1.03c.66-.96,1.8-1.43,2.96-1.43,2.1,0,3.31,1.26,3.31,3.34v5.67c0,.14-.09.23-.23.23h-1.82c-.14,0-.23-.09-.23-.23v-4.74c0-1.5-.54-2.2-1.73-2.2-1.1,0-2.15.82-2.15,2.55v4.39c0,.14-.09.23-.23.23h-1.82Z"/>
      <path class="st0" d="M852.97,100.02c0-2.78,1.8-4.71,4.63-4.71,2.03,0,3.45.84,4.11,2.62.05.14-.02.26-.16.3l-1.51.44c-.12.04-.23-.02-.3-.14-.4-.77-1.07-1.15-2.01-1.15-1.65,0-2.43,1.21-2.43,2.64s.79,2.64,2.43,2.64c.94,0,1.64-.4,2.03-1.21.07-.12.17-.18.3-.14l1.66.4c.14.03.19.14.14.28-.72,1.87-2.26,2.73-4.25,2.73-2.87,0-4.65-1.92-4.65-4.7Z"/>
      <path class="st0" d="M863.08,100.02c0-2.75,1.73-4.71,4.58-4.71s4.37,2.06,4.29,5.18c-.02.16-.11.23-.25.23h-6.21c.21,1.24.98,1.99,2.19,1.99.93,0,1.57-.35,1.99-1.03.07-.12.18-.14.3-.1l1.56.54c.14.05.19.16.12.3-.8,1.59-2.31,2.31-3.99,2.31-2.85,0-4.58-1.96-4.58-4.7ZM865.53,99.02h3.99c-.21-1.07-.89-1.7-1.87-1.7-1.07,0-1.84.61-2.12,1.7Z"/>
      <path class="st0" d="M881.22,104.55c-.14,0-.23-.09-.23-.23v-10.39h-3.97c-.14,0-.21-.09-.21-.23v-1.77c0-.14.07-.23.21-.23h10.28c.14,0,.23.09.23.23v1.77c0,.14-.09.23-.23.23h-3.95v10.39c0,.14-.09.23-.23.23h-1.91Z"/>
      <path class="st0" d="M886.97,100.02c0-2.78,1.65-4.71,4.23-4.71,1.26,0,2.31.52,2.96,1.42l.05-1.01c0-.16.11-.23.25-.23h1.65c.14,0,.23.09.23.23v8.6c0,.14-.09.23-.23.23h-1.65c-.14,0-.25-.07-.25-.23l-.05-1.01c-.65.89-1.7,1.42-2.96,1.42-2.59,0-4.23-1.92-4.23-4.7ZM894.21,100.02c0-1.56-1-2.64-2.45-2.64s-2.45,1.08-2.45,2.64,1,2.64,2.45,2.64,2.45-1.08,2.45-2.64Z"/>
      <path class="st0" d="M898.93,104.55c-.14,0-.23-.09-.23-.23v-8.6c0-.14.09-.23.23-.23h1.64c.14,0,.25.07.25.23l.05,1.14c.61-.98,1.68-1.49,2.76-1.49.26,0,.44.02.61.05.14.04.19.12.19.25v1.8c0,.16-.09.21-.25.19-.23-.02-.49-.07-.84-.07-1.23,0-2.38.84-2.38,2.27v4.46c0,.14-.09.23-.23.23h-1.82Z"/>
      <path class="st0" d="M905.79,92.62c0-.75.58-1.26,1.33-1.26s1.33.51,1.33,1.26-.58,1.26-1.33,1.26-1.33-.51-1.33-1.26ZM906.21,104.55c-.14,0-.23-.09-.23-.23v-8.6c0-.14.09-.23.23-.23h1.82c.14,0,.23.09.23.23v8.6c0,.14-.09.23-.23.23h-1.82Z"/>
      <path class="st0" d="M911.51,104.55c-.14,0-.23-.09-.23-.23v-6.8h-1.37c-.14,0-.23-.09-.23-.23v-1.57c0-.14.09-.23.23-.23h1.37v-.58c0-2.2,1.38-3.6,3.36-3.6.94,0,1.73.3,2.42.79.1.09.12.19.07.31l-.58,1.29c-.05.14-.17.18-.31.11-.56-.33-.94-.44-1.42-.44-.86,0-1.26.49-1.26,1.5v.61h3.74v-.58c0-2.2,1.24-3.6,3.19-3.6,1.42,0,2.45.65,3.06,1.92.05.14,0,.25-.12.3l-1.42.59c-.12.05-.23.02-.3-.1-.26-.47-.58-.65-1.05-.65-.72,0-1.08.52-1.08,1.5v.61h2.27c.14,0,.23.09.23.23v1.57c0,.14-.09.23-.23.23h-2.27v6.8c0,.14-.09.23-.23.23h-1.82c-.14,0-.23-.09-.23-.23v-6.8h-3.74v6.8c0,.14-.09.23-.23.23h-1.82Z"/>
      <path class="st0" d="M928.07,104.55c-.14,0-.23-.09-.23-.23v-12.38c0-.14.09-.23.23-.23h3.88c3.55,0,5.09,1.57,5.09,4.48,0,1.57-.59,2.9-1.87,3.71l2.39,4.37c.09.16.02.28-.16.28h-2.15c-.12,0-.21-.05-.26-.16l-2.06-3.78c-.32.04-.63.05-.98.05h-1.75v3.65c0,.14-.09.23-.23.23h-1.91ZM930.2,93.9v4.58h1.66c1.85,0,2.73-.68,2.73-2.29s-.88-2.29-2.73-2.29h-1.66Z"/>
      <path class="st0" d="M939.07,101.38v-5.67c0-.14.09-.23.23-.23h1.82c.14,0,.23.09.23.23v4.74c0,1.5.54,2.2,1.73,2.2,1.1,0,2.15-.82,2.15-2.55v-4.39c0-.14.09-.23.23-.23h1.82c.14,0,.23.09.23.23v8.6c0,.14-.09.23-.23.23h-1.64c-.14,0-.25-.07-.25-.23l-.05-1.03c-.66.96-1.8,1.43-2.96,1.43-2.1,0-3.31-1.26-3.31-3.34Z"/>
      <path class="st0" d="M950.1,104.55c-.14,0-.23-.09-.23-.23v-12.66c0-.14.09-.23.23-.23h1.82c.14,0,.23.09.23.23v12.66c0,.14-.09.23-.23.23h-1.82Z"/>
      <path class="st0" d="M954.34,92.62c0-.75.58-1.26,1.33-1.26s1.33.51,1.33,1.26-.58,1.26-1.33,1.26-1.33-.51-1.33-1.26ZM954.75,104.55c-.14,0-.23-.09-.23-.23v-8.6c0-.14.09-.23.23-.23h1.82c.14,0,.23.09.23.23v8.6c0,.14-.09.23-.23.23h-1.82Z"/>
      <path class="st0" d="M959.41,104.55c-.14,0-.23-.09-.23-.23v-8.6c0-.14.09-.23.23-.23h1.64c.14,0,.25.07.25.23l.05,1.03c.66-.96,1.8-1.43,2.96-1.43,2.1,0,3.31,1.26,3.31,3.34v5.67c0,.14-.09.23-.23.23h-1.82c-.14,0-.23-.09-.23-.23v-4.74c0-1.5-.54-2.2-1.73-2.2-1.1,0-2.15.82-2.15,2.55v4.39c0,.14-.09.23-.23.23h-1.82Z"/>
      <path class="st0" d="M969.64,105.93c-.07-.14-.02-.23.12-.28l1.47-.54c.12-.05.23,0,.3.12.44.75,1.14,1.24,2.36,1.24,1.4,0,2.59-.59,2.59-2.2v-.82c-.66.8-1.66,1.28-2.85,1.28-2.59,0-4.23-1.92-4.23-4.7s1.64-4.71,4.23-4.71c1.26,0,2.31.52,2.96,1.42l.05-1.01c0-.16.11-.23.25-.23h1.64c.14,0,.23.09.23.23v8.32c0,2.89-1.94,4.49-4.79,4.49-1.94,0-3.62-.87-4.32-2.61ZM976.63,100.02c0-1.56-1-2.64-2.45-2.64s-2.45,1.08-2.45,2.64,1,2.64,2.45,2.64,2.45-1.08,2.45-2.64Z"/>
      <path class="st0" d="M980.29,106.94v-1.7c0-.14.07-.23.21-.24,2.14-.23,3.05-2.08,3.05-6.05s-.91-5.83-3.05-6.05c-.14-.02-.21-.11-.21-.25v-1.7c0-.14.09-.23.23-.21,3.73.23,5.44,3.11,5.44,8.2s-1.71,7.98-5.44,8.2c-.14.02-.23-.07-.23-.21Z"/>
    </g>
    <g>
      <path class="st2" d="M454.74,39.66c-.11,0-.18-.07-.18-.19v-9.34c0-.11.07-.18.18-.18h1.07c.12,0,.19.07.19.18v9.34c0,.12-.07.19-.19.19h-1.07Z"/>
      <path class="st2" d="M468.55,29.95c.12,0,.18.07.16.19l-2.1,9.34c-.02.11-.11.18-.21.18h-.86c-.09,0-.18-.07-.21-.16l-2.03-7.08-2.03,7.08c-.03.09-.12.16-.21.16h-.86c-.11,0-.19-.07-.21-.18l-2.1-9.34c-.02-.12.03-.19.16-.19h1.07c.11,0,.19.05.21.16l1.47,6.75,1.99-6.75c.02-.11.09-.16.19-.16h.65c.1,0,.17.05.21.16l1.99,6.72,1.45-6.72c.03-.11.11-.16.21-.16h1.05Z"/>
      <path class="st2" d="M467.22,25.54c.12,0,.19.07.19.18v2.17c0,.4-.25.65-.65.65h-6.51c-.12,0-.19-.07-.19-.19v-.79c0-.12.07-.19.19-.19h3.79v-1.64c0-.11.07-.18.17-.18h.74c.12,0,.19.07.19.18v1.7h1.12v-1.7c0-.11.07-.18.18-.18h.77Z"/>
      <path class="st2" d="M466.29,24.39c-.11,0-.17-.07-.17-.18v-2.38c0-.12.07-.19.17-.19h.89c.12,0,.19.07.19.19v2.38c0,.11-.07.18-.19.18h-.89Z"/>
      <path class="st2" d="M478.48,34.8c0,3.1-1.71,5.06-4.44,5.06-2.53,0-4.15-1.7-4.15-4.37v-1.03c0-.11.07-.18.18-.18h4.15c.11,0,.17.07.17.18v.86c0,.12-.07.19-.17.19h-2.9v.05c0,1.82,1.03,3.01,2.68,3.01,1.85,0,3.02-1.49,3.02-3.78s-1.21-3.73-3.13-3.73c-1.19,0-2.2.61-2.64,1.59-.05.11-.11.14-.25.11l-.93-.28c-.14-.04-.16-.12-.12-.25.61-1.54,2.17-2.47,4.02-2.47,2.76,0,4.51,1.96,4.51,5.04Z"/>
      <path class="st2" d="M483,29.01v10.46c0,.12-.07.19-.17.19h-1.07c-.12,0-.19-.07-.19-.19v-11.21c0-.12.07-.19.19-.19h.51c.93,0,1.49-.65,1.49-1.64s-.59-1.66-1.54-1.66c-.75,0-1.33.4-1.59,1.14-.03.1-.14.16-.25.12l-.88-.19c-.12-.04-.17-.11-.14-.23.46-1.35,1.51-2.1,2.94-2.1,1.75,0,2.85,1.16,2.85,2.89,0,1.49-.82,2.45-2.15,2.62Z"/>
      <path class="st2" d="M493.98,39.45c.05.12-.02.21-.14.21h-1.15c-.09,0-.19-.05-.23-.14l-2.13-4.88h-2.92v4.83c0,.12-.07.19-.19.19h-1.07c-.11,0-.17-.07-.17-.19v-9.34c0-.11.07-.18.17-.18h1.05c.11,0,.17.07.17.18v3.25h3.18c1.19,0,1.82-.63,1.82-1.78v-1.47c0-.11.07-.18.19-.18h1.05c.11,0,.17.07.17.18v1.57c0,1.47-.73,2.45-2.01,2.8l2.2,4.95Z"/>
      <path class="st2" d="M494.7,27.36c.1,0,.17.07.17.19v.79c0,.12-.07.19-.17.19h-4.25c-.11,0-.18-.07-.18-.19v-1.68h-1.1c-.12,0-.19-.07-.19-.17v-.77c0-.11.07-.18.19-.18h1.59c.49,0,.77.28.77.79v1.03h3.17Z"/>
      <path class="st2" d="M496.45,39.66c-.11,0-.17-.07-.17-.19v-6.63c0-1.96.91-3.01,2.62-3.01.61,0,1.14.14,1.5.4.09.07.11.16.05.26l-.39.79c-.05.1-.14.12-.25.05-.23-.16-.47-.21-.79-.21-.93,0-1.4.65-1.4,1.87v4.93l2.5-3.15c.05-.07.12-.12.23-.12h.17c.11,0,.17.05.23.12l2.52,3.15v-7.8c0-.11.07-.18.18-.18h1.01c.12,0,.19.07.19.18v9.34c0,.12-.07.19-.19.19h-1.19c-.09,0-.17-.05-.23-.12l-2.61-3.32-2.61,3.32c-.05.07-.14.12-.23.12h-1.17Z"/>
      <path class="st2" d="M504.47,41.08c.12,0,.19.07.19.19v1.26c0,1.33-.84,2.12-2.33,2.12s-2.31-.79-2.31-2.08v-.47h-.82c-.11,0-.17-.07-.17-.18v-.65c0-.12.07-.19.17-.19h1.82c.12,0,.19.07.19.19v1.12c0,.75.4,1.19,1.12,1.19s1.1-.44,1.1-1.22v-1.09c0-.12.07-.19.18-.19h.86Z"/>
      <path class="st2" d="M505.57,27.36c.1,0,.17.07.17.19v.79c0,.12-.07.19-.17.19h-4.25c-.11,0-.18-.07-.18-.19v-1.68h-1.1c-.12,0-.19-.07-.19-.17v-.77c0-.11.07-.18.19-.18h1.59c.49,0,.77.28.77.79v1.03h3.17Z"/>
      <path class="st2" d="M507.53,35.72v-5.6c0-.12.07-.18.18-.18h1.07c.12,0,.19.05.19.18v5.42c0,1.91.91,2.99,2.54,2.99s2.55-1.07,2.55-2.99v-9.25c0-.12.05-.18.18-.18h1.07c.12,0,.19.05.19.18v9.43c0,2.57-1.5,4.13-3.99,4.13s-3.97-1.54-3.97-4.13Z"/>
      <path class="st2" d="M517.59,37.35c-.05-.14.02-.23.12-.25l.95-.21c.12-.04.17,0,.23.12.42,1.05,1.19,1.57,2.34,1.57s1.89-.58,1.89-1.5c0-.79-.51-1.38-1.79-1.68l-.59-.14c-1.89-.44-2.8-1.43-2.8-2.87,0-1.63,1.22-2.64,3.15-2.64,1.64,0,2.82.74,3.36,2.29.03.11-.02.19-.14.23l-.88.19c-.1.02-.19-.02-.23-.12-.37-.91-1.12-1.35-2.11-1.35-1.09,0-1.71.51-1.71,1.33s.57,1.29,1.89,1.63l.56.14c1.85.47,2.75,1.43,2.75,2.94,0,1.73-1.29,2.82-3.34,2.82-1.79,0-3.06-.81-3.64-2.5Z"/>
      <path class="st2" d="M528.47,33.85c-1.36,0-2.11-.68-2.11-1.98v-.77c0-.12.07-.19.19-.19h1.03c.12,0,.19.07.19.19v.58c0,.59.31.91.96.91h1.82c.12,0,.17.07.17.19v.89c0,.1-.05.18-.17.18h-2.08ZM528.47,38.68c-1.36,0-2.11-.7-2.11-1.99v-.77c0-.12.07-.18.19-.18h1.05c.11,0,.17.07.17.18v.58c0,.61.33.93.96.93h1.82c.12,0,.17.05.17.17v.89c0,.12-.05.19-.17.19h-2.08Z"/>
      <path class="st2" d="M537.4,29.95c2.34,0,3.64,1.21,3.64,3.43v6.09c0,.12-.07.19-.19.19h-1.05c-.11,0-.19-.07-.19-.19v-6.09c0-1.4-.84-2.17-2.33-2.17h-2.68v8.26c0,.12-.07.19-.19.19h-1.05c-.11,0-.19-.07-.19-.19v-9.34c0-.11.07-.18.17-.18h4.06Z"/>
      <path class="st2" d="M551.78,34.8c0,3.1-1.71,5.06-4.44,5.06-2.54,0-4.15-1.7-4.15-4.37v-1.03c0-.11.07-.18.17-.18h4.15c.11,0,.18.07.18.18v.86c0,.12-.07.19-.18.19h-2.9v.05c0,1.82,1.03,3.01,2.68,3.01,1.85,0,3.03-1.49,3.03-3.78s-1.21-3.73-3.13-3.73c-1.19,0-2.2.61-2.64,1.59-.05.11-.11.14-.25.11l-.93-.28c-.14-.04-.16-.12-.12-.25.61-1.54,2.17-2.47,4.02-2.47,2.76,0,4.51,1.96,4.51,5.04Z"/>
      <path class="st2" d="M553.98,35.72v-5.6c0-.12.07-.18.18-.18h1.07c.12,0,.19.05.19.18v5.42c0,1.91.91,2.99,2.54,2.99s2.55-1.07,2.55-2.99v-5.42c0-.12.05-.18.18-.18h1.07c.12,0,.19.05.19.18v5.6c0,2.57-1.5,4.13-3.99,4.13s-3.97-1.54-3.97-4.13Z"/>
      <path class="st2" d="M569.06,29.95c2.34,0,3.64,1.21,3.64,3.43v6.09c0,.12-.07.19-.19.19h-1.05c-.11,0-.19-.07-.19-.19v-6.09c0-1.4-.84-2.17-2.33-2.17h-2.68v8.26c0,.12-.07.19-.19.19h-1.05c-.11,0-.19-.07-.19-.19v-9.34c0-.11.07-.18.17-.18h4.06Z"/>
      <path class="st2" d="M579.29,39.66c-.12,0-.19-.07-.19-.19v-6.49c0-1.19-.63-1.91-1.68-1.91-.79,0-1.36.42-1.64,1.21-.05.1-.14.16-.25.12l-.91-.26c-.11-.04-.16-.14-.12-.25.47-1.36,1.56-2.13,3.01-2.13,1.87,0,3.03,1.26,3.03,3.27v6.44c0,.12-.07.19-.18.19h-1.07Z"/>
      <path class="st2" d="M582.64,37.35c-.05-.14.02-.23.12-.25l.95-.21c.12-.04.17,0,.23.12.42,1.05,1.19,1.57,2.34,1.57s1.89-.58,1.89-1.5c0-.79-.51-1.38-1.79-1.68l-.59-.14c-1.89-.44-2.8-1.43-2.8-2.87,0-1.63,1.22-2.64,3.15-2.64,1.64,0,2.82.74,3.36,2.29.03.11-.02.19-.14.23l-.88.19c-.1.02-.19-.02-.23-.12-.37-.91-1.12-1.35-2.11-1.35-1.09,0-1.71.51-1.71,1.33s.57,1.29,1.89,1.63l.56.14c1.85.47,2.75,1.43,2.75,2.94,0,1.73-1.29,2.82-3.34,2.82-1.79,0-3.06-.81-3.64-2.5Z"/>
      <path class="st2" d="M600.15,29.86c.11,0,.18.07.18.18v.86c0,.1-.07.17-.18.17h-2.17c.82.44,1.28,1.29,1.28,2.4v6c0,.12-.07.19-.17.19h-1.07c-.12,0-.19-.07-.19-.19v-4.32h-1.64c-2.14,0-3.24.63-3.24,1.87,0,.94.65,1.5,1.73,1.5.4,0,.72-.07,1-.24.12-.05.19-.05.25.05l.37.79c.05.1.04.21-.03.26-.4.28-.98.44-1.73.44-1.89,0-3.01-1-3.01-2.68,0-2.06,1.68-3.2,4.69-3.2h1.63v-.58c0-1.38-.94-2.24-2.41-2.24-1.19,0-2.01.56-2.47,1.43-.05.1-.12.14-.24.1l-.95-.28c-.12-.03-.16-.14-.12-.24.61-1.42,1.99-2.27,3.85-2.27h4.67Z"/>
      <path class="st2" d="M596.6,27.03c0-.96.72-1.66,1.71-1.66s1.71.7,1.71,1.66-.72,1.68-1.71,1.68-1.71-.7-1.71-1.68ZM599.12,27.03c0-.45-.35-.8-.8-.8s-.8.35-.8.8.35.8.8.8.8-.33.8-.8Z"/>
      <path class="st2" d="M605.94,39.66c-.12,0-.19-.07-.19-.19v-6.49c0-1.19-.63-1.91-1.68-1.91-.79,0-1.36.42-1.64,1.21-.05.1-.14.16-.25.12l-.91-.26c-.11-.04-.16-.14-.12-.25.47-1.36,1.56-2.13,3.01-2.13,1.87,0,3.02,1.26,3.02,3.27v6.44c0,.12-.07.19-.17.19h-1.07Z"/>
      <path class="st2" d="M610.42,39.66c-.11,0-.18-.07-.18-.19v-9.34c0-.11.07-.18.18-.18h1.07c.12,0,.19.07.19.18v9.34c0,.12-.07.19-.19.19h-1.07ZM614.49,39.66c-.11,0-.17-.07-.17-.19v-9.34c0-.11.07-.18.17-.18h1.07c.12,0,.19.07.19.18v9.34c0,.12-.07.19-.19.19h-1.07Z"/>
      <path class="st2" d="M618.44,36.21v-2.45c0-2.43,1.61-4.01,4.13-4.01s4.16,1.57,4.16,4.01v5.7c0,.12-.07.19-.19.19h-1.07c-.11,0-.17-.07-.17-.19v-5.53c0-1.78-1.03-2.87-2.73-2.87s-2.7,1.09-2.7,2.87v2.17c0,1.54.68,2.41,1.94,2.41.39,0,.66-.07.98-.24.12-.07.19-.05.25.05l.37.79c.05.1.04.21-.03.26-.42.3-1,.44-1.71.44-2.01,0-3.22-1.35-3.22-3.6Z"/>
      <path class="st2" d="M636.56,34.04c0,2.59-1.36,4.57-3.88,5.56-.07.03-.16.05-.23.05h-1.17c-.11,0-.18-.07-.21-.18l-2.87-9.34c-.03-.12.04-.19.16-.19h1.08c.11,0,.18.05.21.16l2.48,8.27c1.97-.79,2.96-2.33,2.96-4.34,0-1.84-.82-2.95-2.15-2.95-.35,0-.66.07-.93.23-.1.05-.19.04-.24-.07l-.37-.77c-.05-.1-.03-.21.05-.26.4-.28.96-.42,1.61-.42,2.14,0,3.5,1.64,3.5,4.25Z"/>
      <path class="st2" d="M639.18,39.66c-.11,0-.17-.07-.17-.19v-9.34c0-.11.07-.18.17-.18h1.07c.12,0,.19.07.19.18v9.34c0,.12-.07.19-.19.19h-1.07Z"/>
      <path class="st2" d="M650.69,33.4v6.07c0,.12-.07.19-.17.19h-1.07c-.12,0-.19-.07-.19-.19v-4.32h-1.65c-2.13,0-3.24.63-3.24,1.87,0,.94.65,1.5,1.73,1.5.4,0,.72-.07,1-.24.12-.05.19-.05.25.05l.37.79c.05.1.03.21-.03.26-.4.28-.98.44-1.73.44-1.89,0-3.01-1-3.01-2.68,0-2.06,1.68-3.2,4.69-3.2h1.63v-.61c0-1.42-.95-2.31-2.42-2.31-1.19,0-2.01.58-2.47,1.47-.05.1-.12.14-.25.1l-.94-.3c-.12-.04-.16-.12-.12-.25.61-1.42,2.01-2.29,3.85-2.29,2.31,0,3.78,1.4,3.78,3.64Z"/>
      <path class="st2" d="M660.38,29.95c.12,0,.19.07.19.18v6.1c0,2.27-1.33,3.62-3.59,3.62s-3.57-1.36-3.57-3.62v-1.07c0-1.26.58-2.05,1.07-2.68.35-.45.65-.86.65-1.31h-1.87c-.11,0-.17-.07-.17-.19v-.86c0-.11.07-.18.17-.18h3.08c.12,0,.19.07.19.18v.84c0,.68-.37,1.24-.77,1.82-.46.65-.91,1.35-.91,2.33v.98c0,1.57.77,2.45,2.13,2.45s2.15-.88,2.15-2.45v-5.96c0-.11.07-.18.17-.18h1.07Z"/>
      <path class="st2" d="M673.06,29.95c.12,0,.17.07.16.19l-2.1,9.34c-.02.11-.11.18-.21.18h-.86c-.09,0-.17-.07-.21-.16l-2.03-7.08-2.03,7.08c-.04.09-.12.16-.21.16h-.86c-.11,0-.19-.07-.21-.18l-2.1-9.34c-.02-.12.03-.19.16-.19h1.07c.11,0,.19.05.21.16l1.47,6.75,1.99-6.75c.02-.11.09-.16.19-.16h.65c.11,0,.17.05.21.16l1.99,6.72,1.45-6.72c.04-.11.11-.16.21-.16h1.05Z"/>
      <path class="st2" d="M664.77,28.54c-.12,0-.19-.07-.19-.19v-.79c0-.12.07-.19.19-.19h6.98c.11,0,.17.07.17.18v.35c0,.4-.25.65-.65.65h-6.51Z"/>
      <path class="st2" d="M679.37,29.95c2.34,0,3.64,1.21,3.64,3.43v6.09c0,.12-.07.19-.19.19h-1.05c-.1,0-.19-.07-.19-.19v-6.09c0-1.4-.84-2.17-2.33-2.17h-2.68v8.26c0,.12-.07.19-.19.19h-1.05c-.11,0-.19-.07-.19-.19v-9.34c0-.11.07-.18.17-.18h4.06Z"/>
      <path class="st2" d="M680.38,28.54c-1.28,0-1.99-.66-1.99-1.87v-.63c0-.12.07-.19.17-.19h.94c.11,0,.18.07.18.19v.44c0,.58.33.89.93.89h3.8c.12,0,.19.07.19.19v.79c0,.12-.07.19-.19.19h-4.02Z"/>
      <path class="st2" d="M685.63,36.21v-2.45c0-2.43,1.61-4.01,4.13-4.01s4.16,1.57,4.16,4.01v5.7c0,.12-.07.19-.19.19h-1.07c-.1,0-.17-.07-.17-.19v-5.53c0-1.78-1.03-2.87-2.73-2.87s-2.69,1.09-2.69,2.87v2.17c0,1.54.68,2.41,1.94,2.41.39,0,.66-.07.98-.24.12-.07.19-.05.24.05l.37.79c.05.1.03.21-.03.26-.42.3-1,.44-1.72.44-2.01,0-3.22-1.35-3.22-3.6Z"/>
      <path class="st2" d="M705.67,29.86c.11,0,.18.07.18.18v.86c0,.1-.07.17-.18.17h-2.29c.91.47,1.4,1.42,1.4,2.68v5.72c0,.12-.07.19-.17.19h-1.07c-.12,0-.19-.07-.19-.19v-5.47c0-1.77-.98-2.85-2.66-2.85s-2.57,1.09-2.57,2.85v.75h2.97c.1,0,.17.07.17.18v.89c0,.12-.07.19-.17.19h-2.94v3.46c0,.12-.07.19-.17.19h-1.08c-.11,0-.18-.07-.18-.19v-5.67c0-2.45,1.56-3.94,4.01-3.94h4.95Z"/>
      <path class="st2" d="M704.78,41.27v2.89c0,.11-.07.18-.19.18h-.96c-.1,0-.17-.07-.17-.18v-1.91h-1.17c-.12,0-.19-.07-.19-.19v-.79c0-.12.07-.19.19-.19h2.31c.12,0,.19.07.19.19Z"/>
      <path class="st2" d="M715.05,33.4v6.07c0,.12-.07.19-.17.19h-1.07c-.12,0-.19-.07-.19-.19v-4.32h-1.65c-2.13,0-3.24.63-3.24,1.87,0,.94.65,1.5,1.73,1.5.4,0,.72-.07,1-.24.12-.05.19-.05.25.05l.37.79c.05.1.03.21-.03.26-.4.28-.98.44-1.73.44-1.89,0-3.01-1-3.01-2.68,0-2.06,1.68-3.2,4.69-3.2h1.63v-.61c0-1.42-.95-2.31-2.42-2.31-1.19,0-2.01.58-2.47,1.47-.05.1-.12.14-.25.1l-.94-.3c-.12-.04-.16-.12-.12-.25.61-1.42,2.01-2.29,3.85-2.29,2.31,0,3.78,1.4,3.78,3.64Z"/>
      <path class="st2" d="M722.16,29.95c2.34,0,3.64,1.21,3.64,3.43v6.09c0,.12-.07.19-.19.19h-1.05c-.11,0-.19-.07-.19-.19v-6.09c0-1.4-.84-2.17-2.33-2.17h-2.68v8.26c0,.12-.07.19-.19.19h-1.05c-.11,0-.19-.07-.19-.19v-9.34c0-.11.07-.18.17-.18h4.06Z"/>
      <path class="st2" d="M732.4,39.66c-.12,0-.19-.07-.19-.19v-6.49c0-1.19-.63-1.91-1.68-1.91-.79,0-1.36.42-1.64,1.21-.05.1-.14.16-.25.12l-.91-.26c-.11-.04-.16-.14-.12-.25.47-1.36,1.56-2.13,3.01-2.13,1.87,0,3.02,1.26,3.02,3.27v6.44c0,.12-.07.19-.17.19h-1.07Z"/>
      <path class="st2" d="M740.77,29.95c2.34,0,3.64,1.21,3.64,3.43v6.09c0,.12-.07.19-.19.19h-1.05c-.1,0-.19-.07-.19-.19v-6.09c0-1.4-.84-2.17-2.33-2.17h-2.68v8.26c0,.12-.07.19-.19.19h-1.05c-.11,0-.19-.07-.19-.19v-9.34c0-.11.07-.18.17-.18h4.06Z"/>
      <path class="st2" d="M746.51,37.35c-.05-.14.02-.23.12-.25l.94-.21c.12-.04.17,0,.23.12.42,1.05,1.19,1.57,2.34,1.57s1.89-.58,1.89-1.5c0-.79-.51-1.38-1.79-1.68l-.6-.14c-1.89-.44-2.8-1.43-2.8-2.87,0-1.63,1.23-2.64,3.15-2.64,1.65,0,2.82.74,3.36,2.29.03.11-.02.19-.14.23l-.88.19c-.11.02-.19-.02-.23-.12-.37-.91-1.12-1.35-2.12-1.35-1.08,0-1.71.51-1.71,1.33s.58,1.29,1.89,1.63l.56.14c1.85.47,2.74,1.43,2.74,2.94,0,1.73-1.29,2.82-3.34,2.82-1.78,0-3.06-.81-3.64-2.5Z"/>
      <path class="st2" d="M759.45,23.69c.1,0,.17.07.17.18v.86c0,.09-.03.16-.11.23-1.14.74-1.57,1.68-1.57,3.25v11.26c0,.12-.07.19-.19.19h-1.07c-.11,0-.18-.07-.18-.19v-11.25c0-1.54.35-2.45,1.31-3.31h-3.2c-.12,0-.19-.07-.19-.19v-.86c0-.11.07-.18.19-.18h4.83Z"/>
      <path class="st2" d="M760.64,36.21v-2.45c0-2.43,1.61-4.01,4.13-4.01s4.16,1.57,4.16,4.01v5.7c0,.12-.07.19-.19.19h-1.07c-.11,0-.17-.07-.17-.19v-5.53c0-1.78-1.03-2.87-2.73-2.87s-2.7,1.09-2.7,2.87v2.17c0,1.54.68,2.41,1.94,2.41.39,0,.66-.07.98-.24.12-.07.19-.05.25.05l.37.79c.05.1.04.21-.03.26-.42.3-1,.44-1.71.44-2.01,0-3.22-1.35-3.22-3.6Z"/>
      <path class="st2" d="M769.66,27.36c.1,0,.17.07.17.19v.79c0,.12-.07.19-.17.19h-4.25c-.11,0-.18-.07-.18-.19v-1.68h-1.1c-.12,0-.19-.07-.19-.17v-.77c0-.11.07-.18.19-.18h1.59c.49,0,.77.28.77.79v1.03h3.17Z"/>
      <path class="st2" d="M779.67,34.8c0,3.1-1.71,5.06-4.44,5.06-2.54,0-4.15-1.7-4.15-4.37v-1.03c0-.11.07-.18.17-.18h4.15c.11,0,.18.07.18.18v.86c0,.12-.07.19-.18.19h-2.9v.05c0,1.82,1.03,3.01,2.68,3.01,1.85,0,3.03-1.49,3.03-3.78s-1.21-3.73-3.13-3.73c-1.19,0-2.2.61-2.64,1.59-.05.11-.11.14-.25.11l-.93-.28c-.14-.04-.16-.12-.12-.25.61-1.54,2.17-2.47,4.02-2.47,2.76,0,4.51,1.96,4.51,5.04Z"/>
      <path class="st2" d="M785.05,39.66c-2.2,0-3.5-1.07-3.5-2.87,0-1.12.65-2.03,1.72-2.36-1.1-.28-1.79-1.12-1.79-2.24,0-1.47,1.08-2.4,2.78-2.4.72,0,1.34.16,1.84.47.09.05.11.16.05.26l-.37.79c-.07.11-.12.11-.25.05-.37-.21-.72-.3-1.12-.3-.91,0-1.5.52-1.5,1.31,0,.91.68,1.43,1.87,1.43h1.36c.11,0,.17.07.17.18v.84c0,.12-.07.19-.17.19h-1.12c-1.28,0-2.03.59-2.03,1.61,0,1.14.79,1.77,2.22,1.77h2.47c.1,0,.17-.07.17-.19v-8.08c0-.11.07-.18.19-.18h1.07c.11,0,.18.07.18.18v9.34c0,.12-.07.19-.18.19h-4.07Z"/>
      <path class="st2" d="M788.09,28.54c-.1,0-.17-.07-.17-.19v-2.69c0-.12.07-.19.17-.19h.98c.11,0,.17.07.17.19v2.69c0,.12-.07.19-.17.19h-.98Z"/>
      <path class="st2" d="M795.96,39.66c-.12,0-.19-.07-.19-.19v-6.49c0-1.19-.63-1.91-1.68-1.91-.79,0-1.36.42-1.64,1.21-.05.1-.14.16-.25.12l-.91-.26c-.11-.04-.16-.14-.12-.25.47-1.36,1.56-2.13,3.01-2.13,1.87,0,3.02,1.26,3.02,3.27v6.44c0,.12-.07.19-.17.19h-1.07Z"/>
      <path class="st2" d="M807.4,34.04c0,2.59-1.36,4.57-3.88,5.56-.07.03-.16.05-.23.05h-1.17c-.11,0-.18-.07-.21-.18l-2.87-9.34c-.03-.12.04-.19.16-.19h1.08c.11,0,.18.05.21.16l2.48,8.27c1.97-.79,2.96-2.33,2.96-4.34,0-1.84-.82-2.95-2.15-2.95-.35,0-.66.07-.93.23-.1.05-.19.04-.24-.07l-.37-.77c-.05-.1-.03-.21.05-.26.4-.28.96-.42,1.61-.42,2.14,0,3.5,1.64,3.5,4.25Z"/>
      <path class="st2" d="M813.98,29.95c2.34,0,3.62,1.22,3.62,3.43v6.09c0,.12-.07.19-.19.19h-1.05c-.12,0-.19-.07-.19-.19v-6.09c0-1.4-.82-2.17-2.31-2.17h-2.8v5.39c0,1.22.47,1.89,1.42,1.89.29,0,.54-.07.79-.21.11-.07.19-.07.25.05l.37.79c.05.1.04.19-.03.24-.37.28-.89.42-1.52.42-1.73,0-2.69-1.09-2.69-3.03v-6.63c0-.11.07-.18.17-.18h4.18Z"/>
      <path class="st2" d="M817.41,41.08c.12,0,.19.07.19.19v1.26c0,1.33-.84,2.12-2.33,2.12s-2.31-.79-2.31-2.08v-.47h-.82c-.11,0-.17-.07-.17-.18v-.65c0-.12.07-.19.17-.19h1.82c.12,0,.19.07.19.19v1.12c0,.75.4,1.19,1.12,1.19s1.1-.44,1.1-1.22v-1.09c0-.12.07-.19.18-.19h.86Z"/>
      <path class="st2" d="M824.71,29.95c2.34,0,3.64,1.21,3.64,3.43v6.09c0,.12-.07.19-.19.19h-1.05c-.11,0-.19-.07-.19-.19v-6.09c0-1.4-.84-2.17-2.33-2.17h-2.68v8.26c0,.12-.07.19-.19.19h-1.05c-.11,0-.19-.07-.19-.19v-9.34c0-.11.07-.18.17-.18h4.06Z"/>
      <path class="st2" d="M830.98,36.21v-2.5c0-2.08.98-3.46,2.76-3.9l1.56.91,1.57-.91c1.64.42,2.57,1.63,2.57,3.29v6.37c0,.12-.07.19-.19.19h-1.07c-.11,0-.17-.07-.17-.19v-6.44c0-.98-.44-1.66-1.26-1.91l-1.38.8h-.12l-1.38-.8c-.94.3-1.45,1.26-1.45,2.73v2.26c0,1.54.77,2.41,2.03,2.41.39,0,.66-.07.98-.24.12-.05.19-.05.25.05l.37.79c.05.1.04.21-.03.26-.42.28-.98.44-1.71.44-2.01,0-3.3-1.35-3.3-3.6Z"/>
      <path class="st2" d="M840.18,27.36c.1,0,.17.07.17.19v.79c0,.12-.07.19-.17.19h-4.25c-.11,0-.18-.07-.18-.19v-1.68h-1.1c-.12,0-.19-.07-.19-.17v-.77c0-.11.07-.18.19-.18h1.59c.49,0,.77.28.77.79v1.03h3.17Z"/>
      <path class="st2" d="M850.2,34.8c0,3.1-1.71,5.06-4.44,5.06-2.53,0-4.15-1.7-4.15-4.37v-1.03c0-.11.07-.18.18-.18h4.15c.11,0,.17.07.17.18v.86c0,.12-.07.19-.17.19h-2.9v.05c0,1.82,1.03,3.01,2.68,3.01,1.85,0,3.02-1.49,3.02-3.78s-1.21-3.73-3.13-3.73c-1.19,0-2.2.61-2.64,1.59-.05.11-.11.14-.25.11l-.93-.28c-.14-.04-.16-.12-.12-.25.61-1.54,2.17-2.47,4.02-2.47,2.76,0,4.51,1.96,4.51,5.04Z"/>
      <path class="st2" d="M859.6,34.04c0,2.59-1.36,4.57-3.88,5.56-.07.03-.16.05-.23.05h-1.17c-.1,0-.17-.07-.21-.18l-2.87-9.34c-.03-.12.03-.19.16-.19h1.08c.11,0,.17.05.21.16l2.48,8.27c1.98-.79,2.96-2.33,2.96-4.34,0-1.84-.82-2.95-2.15-2.95-.35,0-.66.07-.93.23-.11.05-.19.04-.25-.07l-.37-.77c-.05-.1-.04-.21.05-.26.4-.28.96-.42,1.61-.42,2.13,0,3.5,1.64,3.5,4.25Z"/>
      <path class="st2" d="M572.53,63.51c-.14,0-.23-.09-.23-.23v-5.68c0-2.59,1.68-4.23,4.3-4.23s4.5,1.64,4.5,4.23v5.68c0,.14-.09.23-.23.23h-1.87c-.14,0-.23-.09-.23-.23v-5.33c0-1.61-.75-2.48-2.17-2.48s-2.03.82-2.03,2.48v.45h2.39c.14,0,.23.09.23.23v1.54c0,.14-.09.23-.23.23h-2.34v2.89c0,.14-.09.23-.23.23h-1.87Z"/>
      <path class="st2" d="M583.11,60.88c-.05-.16.02-.26.16-.3l1.71-.47c.16-.03.24.02.29.16.37.93,1.03,1.42,1.89,1.42,1.34,0,2.19-1.22,2.19-3.18s-.86-3.11-2.24-3.11c-.91,0-1.63.51-1.99,1.45-.07.16-.14.21-.3.17l-1.7-.44c-.16-.04-.21-.16-.16-.3.61-1.85,2.13-2.92,4.2-2.92,2.83,0,4.58,1.98,4.58,5.14s-1.75,5.21-4.56,5.21c-2.01,0-3.5-1.03-4.07-2.83Z"/>
      <path class="st2" d="M593.04,61.18c-.05-.16.02-.26.16-.3l1.63-.33c.14-.04.21.02.28.14.35.66.93,1.07,1.77,1.07s1.33-.39,1.33-1c0-.51-.32-.94-1.35-1.17l-.56-.12c-2.01-.44-2.97-1.52-2.97-3.15,0-1.82,1.37-2.96,3.53-2.96,1.85,0,3.01.77,3.57,2.38.05.14-.02.25-.17.28l-1.51.3c-.14.03-.24-.02-.29-.14-.25-.58-.82-.89-1.59-.89s-1.22.33-1.22.91.39.91,1.45,1.15l.54.12c1.97.45,2.94,1.5,2.94,3.17,0,1.91-1.42,3.08-3.69,3.08-1.91,0-3.25-.82-3.83-2.54Z"/>
      <path class="st2" d="M611.42,53.47c.14,0,.23.09.23.23v1.47c0,.14-.09.23-.23.23h-1.73c.63.44.94,1.12.94,2.06v5.82c0,.14-.09.23-.23.23h-1.87c-.14,0-.23-.09-.23-.23v-3.86h-1.43c-1.52,0-2.38.33-2.38,1.21,0,.65.47,1,1.24,1,.25,0,.44-.03.66-.14.14-.07.25-.05.3.09l.61,1.36c.05.12.03.25-.07.32-.42.28-1.05.44-1.84.44-1.98,0-3.24-1.03-3.24-2.83,0-2.1,1.7-3.32,4.74-3.32h1.4v-.26c0-1.12-.77-1.77-1.97-1.77-.93,0-1.59.37-2,1.09-.07.12-.16.16-.29.12l-1.65-.51c-.16-.05-.21-.16-.16-.3.68-1.56,2.2-2.43,4.18-2.43h5Z"/>
      <path class="st2" d="M621.9,58.57c0,3.15-1.85,5.14-4.79,5.14-2.75,0-4.5-1.75-4.5-4.48v-1.24c0-.14.09-.23.23-.23h4.3c.14,0,.23.09.23.23v1.47c0,.14-.09.23-.23.23h-2.22c.12,1.19.91,1.96,2.1,1.96,1.52,0,2.48-1.22,2.48-3.11s-1.01-3.11-2.64-3.11c-.96,0-1.7.44-2.06,1.17-.07.12-.16.16-.3.12l-1.64-.47c-.16-.05-.19-.16-.14-.3.68-1.63,2.29-2.59,4.32-2.59,2.97,0,4.86,2.03,4.86,5.21Z"/>
      <path class="st2" d="M623.82,59.59v-5.79c0-.16.09-.23.23-.23h1.87c.14,0,.23.07.23.23v5.44c0,1.52.72,2.38,2.03,2.38s2.03-.86,2.03-2.38v-5.44c0-.16.07-.23.23-.23h1.87c.16,0,.23.07.23.23v5.79c0,2.52-1.7,4.13-4.36,4.13s-4.36-1.61-4.36-4.13Z"/>
      <path class="st2" d="M639.72,53.57c2.59,0,4.02,1.33,4.02,3.8v5.91c0,.14-.09.23-.25.23h-1.85c-.14,0-.23-.09-.23-.23v-5.91c0-1.16-.7-1.8-1.94-1.8h-2.17v4.53c0,1,.31,1.49,1.08,1.49.21,0,.42-.04.65-.14.14-.07.25-.05.3.09l.61,1.36c.05.12.04.25-.07.32-.42.28-1.05.44-1.79.44-2.01,0-3.11-1.16-3.11-3.24v-6.61c0-.14.09-.23.23-.23h4.51Z"/>
      <path class="st2" d="M650.09,63.51c-.14,0-.23-.09-.23-.23v-6.33c0-.94-.46-1.49-1.24-1.49-.6,0-1.03.31-1.26.91-.05.14-.17.19-.3.16l-1.59-.45c-.14-.04-.21-.16-.16-.3.52-1.54,1.77-2.41,3.45-2.41,2.11,0,3.43,1.42,3.43,3.67v6.24c0,.14-.09.23-.23.23h-1.87Z"/>
      <path class="st2" d="M656.96,62.14l-.05,1.14c0,.16-.11.23-.25.23h-1.7c-.14,0-.23-.09-.23-.23v-9.48c0-.14.09-.23.23-.23h1.87c.14,0,.23.09.23.23v4.9c0,1.84,1.02,2.92,2.24,2.92,1.12,0,1.75-.94,1.75-2.47v-5.35c0-.14.09-.23.23-.23h1.87c.14,0,.23.09.23.23v6.19c0,2.27-1.29,3.73-3.36,3.73-1.28,0-2.38-.56-3.06-1.57Z"/>
      <path class="st2" d="M674.8,63.24c.07.16-.02.26-.17.26h-2.01c-.12,0-.25-.07-.28-.18l-1.82-4.48h-2.26v4.42c0,.14-.09.23-.23.23h-1.87c-.14,0-.23-.09-.23-.23v-9.48c0-.14.09-.23.23-.23h1.82c.14,0,.23.09.23.23v3.06h2.43c1.07,0,1.63-.54,1.63-1.54v-1.52c0-.14.09-.23.23-.23h1.84c.14,0,.23.09.23.23v1.75c0,1.38-.65,2.41-1.77,2.92l2.01,4.78Z"/>
      <path class="st2" d="M676.75,60.13v-6.33c0-.14.09-.23.23-.23h1.87c.14,0,.23.09.23.23v5.49c0,1.45.63,2.33,1.73,2.33,1.24,0,2.26-1.08,2.26-2.92v-4.9c0-.14.09-.23.23-.23h1.87c.14,0,.23.09.23.23v9.48c0,.14-.09.23-.23.23h-1.71c-.14,0-.23-.09-.23-.23l-.05-1.14c-.68,1.01-1.78,1.57-3.06,1.57-2.06,0-3.36-1.38-3.36-3.59Z"/>
      <path class="st2" d="M683.38,52.31c-.14,0-.23-.09-.23-.23v-3.04c0-.14.09-.23.23-.23h1.7c.14,0,.23.09.23.23v3.04c0,.14-.09.23-.23.23h-1.7Z"/>
      <path class="st2" d="M687.51,60.88c-.05-.16.02-.26.16-.3l1.71-.47c.16-.03.24.02.29.16.37.93,1.03,1.42,1.89,1.42,1.34,0,2.19-1.22,2.19-3.18s-.86-3.11-2.24-3.11c-.91,0-1.63.51-1.99,1.45-.07.16-.14.21-.3.17l-1.7-.44c-.16-.04-.21-.16-.16-.3.61-1.85,2.13-2.92,4.2-2.92,2.83,0,4.58,1.98,4.58,5.14s-1.75,5.21-4.56,5.21c-2.01,0-3.5-1.03-4.07-2.83Z"/>
      <path class="st2" d="M701.66,63.51c-2.59,0-3.83-1.14-3.83-2.94,0-1.12.65-2.06,1.65-2.4-1.05-.25-1.73-1.14-1.73-2.26,0-1.54,1.21-2.52,3.1-2.52.75,0,1.42.16,1.89.44.11.07.12.19.07.32l-.6,1.35c-.07.14-.16.14-.29.09-.25-.09-.49-.14-.75-.14-.58,0-1.08.28-1.08.88s.44.89,1.22.89h1.31c.14,0,.23.09.23.23v1.42c0,.16-.09.25-.23.25h-.8c-1,0-1.61.42-1.61,1.17,0,.82.58,1.24,1.75,1.24h1.89c.14,0,.23-.09.23-.23v-7.49c0-.14.09-.23.23-.23h1.87c.14,0,.23.09.23.23v9.48c0,.14-.09.23-.23.23h-4.49Z"/>
      <path class="st2" d="M717.17,57.89c0,2.61-1.28,4.58-3.62,5.55-.09.05-.19.07-.3.07h-2.11c-.14,0-.23-.07-.26-.21l-2.81-9.48c-.05-.16.03-.25.21-.25h1.91c.12,0,.21.07.25.19l2.2,7.68c1.4-.65,2.15-1.89,2.15-3.55,0-1.52-.58-2.43-1.52-2.43-.21,0-.43.05-.63.14-.14.07-.25.05-.3-.09l-.61-1.36c-.05-.12-.03-.25.07-.32.42-.28,1.03-.44,1.71-.44,2.24,0,3.67,1.75,3.67,4.49Z"/>
      <path class="st2" d="M723.03,63.51c-.14,0-.23-.09-.23-.23v-6.33c0-.94-.46-1.49-1.24-1.49-.6,0-1.03.31-1.26.91-.05.14-.17.19-.3.16l-1.59-.45c-.14-.04-.21-.16-.16-.3.52-1.54,1.77-2.41,3.45-2.41,2.11,0,3.43,1.42,3.43,3.67v6.24c0,.14-.09.23-.23.23h-1.87Z"/>
      <path class="st2" d="M727.61,60.13v-6.33c0-.14.09-.23.23-.23h1.87c.14,0,.23.09.23.23v5.49c0,1.45.63,2.33,1.73,2.33,1.24,0,2.26-1.08,2.26-2.92v-4.9c0-.14.09-.23.23-.23h1.87c.14,0,.23.09.23.23v9.48c0,.14-.09.23-.23.23h-1.71c-.14,0-.23-.09-.23-.23l-.05-1.14c-.68,1.01-1.78,1.57-3.06,1.57-2.06,0-3.36-1.38-3.36-3.59Z"/>
      <path class="st2" d="M742.35,55.79c0-.81.61-1.38,1.42-1.38s1.42.58,1.42,1.38-.61,1.38-1.42,1.38-1.42-.58-1.42-1.38ZM742.35,62.3c0-.8.61-1.38,1.42-1.38s1.42.58,1.42,1.38-.61,1.38-1.42,1.38-1.42-.58-1.42-1.38Z"/>
    </g>
    <g>
      <g>
        <path class="st2" d="M382.26,136.59c1.92,0,2.98.99,2.98,2.81v4.98c0,.1-.06.16-.16.16h-.86c-.09,0-.16-.06-.16-.16v-4.98c0-1.15-.69-1.78-1.9-1.78h-2.19v6.76c0,.1-.06.16-.16.16h-.86c-.09,0-.16-.06-.16-.16v-7.64c0-.09.06-.14.14-.14h3.32Z"/>
        <path class="st2" d="M386.95,142.65c-.04-.11.01-.19.1-.2l.77-.17c.1-.03.14,0,.19.1.34.86.97,1.29,1.92,1.29s1.55-.47,1.55-1.23c0-.64-.41-1.13-1.46-1.37l-.49-.11c-1.54-.36-2.29-1.17-2.29-2.35,0-1.33,1-2.16,2.58-2.16,1.34,0,2.3.6,2.75,1.88.03.09-.02.16-.11.18l-.72.16c-.09.02-.16-.01-.19-.1-.3-.75-.92-1.1-1.73-1.1-.89,0-1.4.41-1.4,1.09s.47,1.06,1.55,1.33l.46.11c1.52.39,2.25,1.17,2.25,2.4,0,1.42-1.06,2.3-2.73,2.3-1.46,0-2.5-.66-2.98-2.05Z"/>
        <path class="st2" d="M395.7,143.13l-.06,1.25c0,.11-.06.16-.16.16h-.77c-.09,0-.14-.06-.14-.16v-7.64c0-.09.06-.14.14-.14h.87c.1,0,.16.06.16.14v4.17c0,1.69,1.02,2.72,2.32,2.72,1.13,0,1.79-.84,1.79-2.32v-4.57c0-.09.06-.14.14-.14h.87c.1,0,.16.06.16.14v4.91c0,1.89-1,3.05-2.65,3.05-1.17,0-2.16-.59-2.68-1.56Z"/>
        <path class="st2" d="M410.65,136.52c.09,0,.14.06.14.14v.7c0,.09-.06.14-.14.14h-1.87c.74.39,1.14,1.16,1.14,2.19v4.68c0,.1-.06.16-.14.16h-.87c-.1,0-.16-.06-.16-.16v-4.48c0-1.45-.8-2.33-2.18-2.33s-2.1.89-2.1,2.33v.61h2.43c.09,0,.14.06.14.14v.73c0,.1-.06.16-.14.16h-2.4v2.83c0,.1-.06.16-.14.16h-.89c-.09,0-.14-.06-.14-.16v-4.64c0-2,1.27-3.22,3.28-3.22h4.05Z"/>
        <path class="st2" d="M409.92,145.85v2.36c0,.09-.06.14-.16.14h-.79c-.09,0-.14-.06-.14-.14v-1.56h-.96c-.1,0-.16-.06-.16-.16v-.64c0-.1.06-.16.16-.16h1.89c.1,0,.16.06.16.16Z"/>
        <path class="st2" d="M418.32,139.41v4.97c0,.1-.06.16-.14.16h-.87c-.1,0-.16-.06-.16-.16v-3.54h-1.35c-1.75,0-2.65.52-2.65,1.53,0,.77.53,1.23,1.42,1.23.33,0,.59-.06.82-.2.1-.04.16-.04.2.04l.3.64c.04.09.03.17-.03.22-.33.23-.8.36-1.42.36-1.55,0-2.46-.82-2.46-2.19,0-1.69,1.37-2.62,3.84-2.62h1.33v-.5c0-1.16-.77-1.89-1.97-1.89-.97,0-1.65.47-2.02,1.2-.04.08-.1.11-.2.08l-.77-.24c-.1-.03-.13-.1-.1-.2.5-1.16,1.65-1.88,3.15-1.88,1.89,0,3.09,1.14,3.09,2.98Z"/>
        <path class="st2" d="M424.14,136.59c1.92,0,2.98.99,2.98,2.81v4.98c0,.1-.06.16-.16.16h-.86c-.09,0-.16-.06-.16-.16v-4.98c0-1.15-.69-1.78-1.9-1.78h-2.19v6.76c0,.1-.06.16-.16.16h-.86c-.09,0-.16-.06-.16-.16v-7.64c0-.09.06-.14.14-.14h3.32Z"/>
        <path class="st2" d="M432.51,144.54c-.1,0-.16-.06-.16-.16v-5.31c0-.98-.52-1.56-1.37-1.56-.64,0-1.12.34-1.35.99-.04.09-.11.13-.2.1l-.74-.21c-.09-.03-.13-.11-.1-.2.39-1.12,1.27-1.75,2.46-1.75,1.53,0,2.47,1.03,2.47,2.68v5.27c0,.1-.06.16-.14.16h-.87Z"/>
        <path class="st2" d="M439.37,136.59c1.92,0,2.98.99,2.98,2.81v4.98c0,.1-.06.16-.16.16h-.86c-.09,0-.16-.06-.16-.16v-4.98c0-1.15-.69-1.78-1.9-1.78h-2.19v6.76c0,.1-.06.16-.16.16h-.86c-.09,0-.16-.06-.16-.16v-7.64c0-.09.06-.14.14-.14h3.32Z"/>
        <path class="st2" d="M444.06,142.65c-.04-.11.01-.19.1-.2l.77-.17c.1-.03.14,0,.19.1.34.86.97,1.29,1.92,1.29s1.55-.47,1.55-1.23c0-.64-.41-1.13-1.46-1.37l-.49-.11c-1.55-.36-2.29-1.17-2.29-2.35,0-1.33,1-2.16,2.58-2.16,1.35,0,2.31.6,2.75,1.88.03.09-.01.16-.11.18l-.72.16c-.09.02-.16-.01-.19-.1-.3-.75-.92-1.1-1.73-1.1-.89,0-1.4.41-1.4,1.09s.47,1.06,1.55,1.33l.46.11c1.52.39,2.25,1.17,2.25,2.4,0,1.42-1.06,2.3-2.73,2.3-1.46,0-2.5-.66-2.98-2.05Z"/>
        <path class="st2" d="M451.3,138.05c0-.47.36-.82.83-.82s.83.34.83.82-.36.82-.83.82-.83-.34-.83-.82ZM451.3,143.86c0-.47.36-.82.83-.82s.83.34.83.82-.36.82-.83.82-.83-.34-.83-.82Z"/>
        <path class="st2" d="M458.47,144.54c-.09,0-.14-.06-.14-.16v-7.64c0-.09.06-.14.14-.14h.87c.1,0,.16.06.16.14v7.64c0,.1-.06.16-.16.16h-.87Z"/>
        <path class="st2" d="M467.89,139.41v4.97c0,.1-.06.16-.14.16h-.87c-.1,0-.16-.06-.16-.16v-3.54h-1.35c-1.75,0-2.65.52-2.65,1.53,0,.77.53,1.23,1.42,1.23.33,0,.59-.06.82-.2.1-.04.16-.04.2.04l.3.64c.04.09.03.17-.03.22-.33.23-.8.36-1.42.36-1.55,0-2.46-.82-2.46-2.19,0-1.69,1.37-2.62,3.84-2.62h1.33v-.5c0-1.16-.77-1.89-1.97-1.89-.97,0-1.65.47-2.02,1.2-.04.08-.1.11-.2.08l-.77-.24c-.1-.03-.13-.1-.1-.2.5-1.16,1.65-1.88,3.15-1.88,1.89,0,3.09,1.14,3.09,2.98Z"/>
        <path class="st2" d="M475.81,136.59c.1,0,.16.06.16.14v4.99c0,1.86-1.09,2.96-2.93,2.96s-2.92-1.11-2.92-2.96v-.87c0-1.03.47-1.68.87-2.19.29-.37.53-.7.53-1.07h-1.53c-.09,0-.14-.06-.14-.16v-.7c0-.09.06-.14.14-.14h2.52c.1,0,.16.06.16.14v.69c0,.56-.3,1.02-.63,1.49-.37.53-.74,1.1-.74,1.9v.8c0,1.29.63,2,1.75,2s1.76-.72,1.76-2v-4.88c0-.09.06-.14.14-.14h.87Z"/>
        <path class="st2" d="M478.46,144.54c-.09,0-.14-.06-.14-.16v-7.64c0-.09.06-.14.14-.14h.77c.1,0,.16.04.16.14l.06,1.26c.52-.99,1.52-1.56,2.7-1.56,1.66,0,2.66,1.1,2.66,2.93v5.01c0,.1-.04.16-.14.16h-.87c-.1,0-.16-.06-.16-.16v-4.67c0-1.42-.64-2.2-1.8-2.2-1.36,0-2.35,1.07-2.35,2.71v4.17c0,.1-.06.16-.16.16h-.87Z"/>
        <path class="st2" d="M478.81,135.43c-.1,0-.16-.06-.16-.16v-.64c0-.1.06-.16.16-.16h4.78v-1.34c0-.09.06-.14.16-.14h.76c.1,0,.16.06.16.14v1.77c0,.33-.2.53-.53.53h-5.32Z"/>
        <path class="st2" d="M483.75,132.04c-.09,0-.14-.06-.14-.14v-1.95c0-.1.06-.16.14-.16h.73c.1,0,.16.06.16.16v1.95c0,.09-.06.14-.16.14h-.73Z"/>
        <path class="st2" d="M492.35,144.54c-.09,0-.14-.06-.14-.16v-8.63l-2.03,1.13c-.09.04-.14.03-.2-.07l-.18-.32c-.04-.07-.03-.14.04-.2l2.61-2.19c.06-.06.11-.07.19-.07h.63c.09,0,.14.06.14.14v10.21c0,.1-.06.16-.14.16h-.9Z"/>
        <path class="st2" d="M502.82,136.59c1.92,0,2.96,1,2.96,2.81v4.98c0,.1-.06.16-.16.16h-.86c-.1,0-.16-.06-.16-.16v-4.98c0-1.15-.67-1.78-1.89-1.78h-2.29v4.41c0,1,.39,1.55,1.16,1.55.24,0,.44-.06.64-.17.09-.06.16-.06.2.04l.3.64c.04.09.03.16-.03.2-.3.23-.73.34-1.25.34-1.42,0-2.2-.89-2.2-2.48v-5.42c0-.09.06-.14.14-.14h3.42Z"/>
        <path class="st2" d="M507.76,143.86c0-.47.36-.82.83-.82s.83.34.83.82-.36.82-.83.82-.83-.34-.83-.82Z"/>
        <path class="st2" d="M518.17,136.52c.09,0,.14.06.14.14v.7c0,.09-.06.14-.14.14h-1.77c.67.36,1.04,1.06,1.04,1.96v4.91c0,.1-.06.16-.14.16h-.87c-.1,0-.16-.06-.16-.16v-3.54h-1.35c-1.75,0-2.65.52-2.65,1.53,0,.77.53,1.23,1.42,1.23.33,0,.59-.06.82-.2.1-.04.16-.04.2.04l.3.64c.04.09.03.17-.03.22-.33.23-.8.36-1.42.36-1.55,0-2.46-.82-2.46-2.19,0-1.69,1.37-2.62,3.84-2.62h1.33v-.47c0-1.13-.77-1.83-1.97-1.83-.97,0-1.65.46-2.02,1.17-.04.09-.1.11-.2.09l-.77-.23c-.1-.03-.13-.11-.1-.2.5-1.16,1.63-1.86,3.15-1.86h3.82Z"/>
        <path class="st2" d="M517.43,145.85v2.36c0,.09-.06.14-.16.14h-.79c-.09,0-.14-.06-.14-.14v-1.56h-.96c-.1,0-.16-.06-.16-.16v-.64c0-.1.06-.16.16-.16h1.89c.1,0,.16.06.16.16Z"/>
        <path class="st2" d="M519.81,141.76v-5.02c0-.09.06-.14.14-.14h.87c.1,0,.16.06.16.14v4.68c0,1.4.64,2.2,1.77,2.2,1.3,0,2.33-1.03,2.33-2.72v-4.17c0-.09.06-.14.14-.14h.87c.1,0,.16.06.16.14v7.64c0,.1-.06.16-.16.16h-.77c-.1,0-.16-.06-.16-.16l-.04-1.25c-.52.97-1.5,1.56-2.69,1.56-1.66,0-2.63-1.09-2.63-2.93Z"/>
        <path class="st2" d="M528.81,144.54c-.09,0-.14-.06-.14-.16v-7.64c0-.09.06-.14.14-.14h.77c.1,0,.16.04.16.14l.06,1.26c.52-.99,1.52-1.56,2.7-1.56,1.66,0,2.66,1.1,2.66,2.93v5.01c0,.1-.04.16-.14.16h-.87c-.1,0-.16-.06-.16-.16v-4.67c0-1.42-.64-2.2-1.8-2.2-1.36,0-2.35,1.07-2.35,2.71v4.17c0,.1-.06.16-.16.16h-.87Z"/>
        <path class="st2" d="M536.89,142.65c-.04-.11.01-.19.1-.2l.77-.17c.1-.03.14,0,.19.1.34.86.97,1.29,1.92,1.29s1.55-.47,1.55-1.23c0-.64-.41-1.13-1.46-1.37l-.49-.11c-1.54-.36-2.29-1.17-2.29-2.35,0-1.33,1-2.16,2.58-2.16,1.34,0,2.3.6,2.75,1.88.03.09-.02.16-.11.18l-.72.16c-.09.02-.16-.01-.19-.1-.3-.75-.92-1.1-1.73-1.1-.89,0-1.4.41-1.4,1.09s.47,1.06,1.55,1.33l.46.11c1.52.39,2.25,1.17,2.25,2.4,0,1.42-1.06,2.3-2.73,2.3-1.46,0-2.5-.66-2.98-2.05Z"/>
        <path class="st2" d="M547.8,131.47c.09,0,.14.06.14.14v.7c0,.1-.06.16-.14.16h-2.59c.76.66,1.04,1.39,1.04,2.62v9.29c0,.1-.06.16-.16.16h-.87c-.09,0-.14-.06-.14-.16v-9.22c0-1.29-.37-2.06-1.29-2.66-.07-.06-.1-.1-.1-.19v-.24c0-.36.23-.6.59-.6h3.52Z"/>
        <path class="st2" d="M552.13,136.59c1.92,0,2.98.99,2.98,2.81v4.98c0,.1-.06.16-.16.16h-.86c-.09,0-.16-.06-.16-.16v-4.98c0-1.15-.69-1.78-1.9-1.78h-2.19v6.76c0,.1-.06.16-.16.16h-.86c-.09,0-.16-.06-.16-.16v-7.64c0-.09.06-.14.14-.14h3.32Z"/>
        <path class="st2" d="M565,139.35c.1,0,.16.06.16.14v.73c0,.1-.06.16-.16.16h-.92v.92c0,2.07-1.3,3.39-3.35,3.39s-3.33-1.32-3.33-3.39v-4.57c0-.09.06-.14.14-.14h.87c.1,0,.16.06.16.14v4.39c0,1.56.82,2.49,2.16,2.49s2.18-.93,2.18-2.49v-.74h-2.2c-.1,0-.16-.06-.16-.16v-.73c0-.09.06-.14.16-.14h2.2v-2.62c0-.09.06-.14.16-.14h.87c.09,0,.14.06.14.14v2.62h.92Z"/>
        <path class="st2" d="M569.76,144.54c-.1,0-.16-.06-.16-.16v-5.31c0-.98-.52-1.56-1.37-1.56-.64,0-1.12.34-1.35.99-.04.09-.11.13-.2.1l-.74-.21c-.09-.03-.13-.11-.1-.2.39-1.12,1.27-1.75,2.46-1.75,1.53,0,2.47,1.03,2.47,2.68v5.27c0,.1-.06.16-.14.16h-.87Z"/>
        <path class="st2" d="M576.41,144.54c-.09,0-.14-.06-.14-.16v-4.64c0-2.03,1.26-3.31,3.25-3.31s3.35,1.27,3.35,3.31v4.64c0,.1-.06.16-.14.16h-.87c-.1,0-.16-.06-.16-.16v-4.48c0-1.5-.8-2.39-2.18-2.39s-2.1.87-2.1,2.39v.61h2.43c.09,0,.14.06.14.14v.73c0,.1-.06.16-.14.16h-2.4v2.83c0,.1-.06.16-.14.16h-.89Z"/>
        <path class="st2" d="M591.2,139.41v4.97c0,.1-.06.16-.14.16h-.87c-.1,0-.16-.06-.16-.16v-3.54h-1.35c-1.75,0-2.65.52-2.65,1.53,0,.77.53,1.23,1.42,1.23.33,0,.59-.06.82-.2.1-.04.16-.04.2.04l.3.64c.04.09.03.17-.03.22-.33.23-.8.36-1.42.36-1.55,0-2.46-.82-2.46-2.19,0-1.69,1.37-2.62,3.84-2.62h1.33v-.5c0-1.16-.77-1.89-1.97-1.89-.97,0-1.65.47-2.02,1.2-.04.08-.1.11-.2.08l-.77-.24c-.1-.03-.13-.1-.1-.2.5-1.16,1.65-1.88,3.15-1.88,1.89,0,3.09,1.14,3.09,2.98Z"/>
        <path class="st2" d="M599.98,140.56c0,2.53-1.4,4.14-3.64,4.14-2.07,0-3.39-1.39-3.39-3.58v-.84c0-.09.06-.14.14-.14h3.39c.09,0,.14.06.14.14v.7c0,.1-.06.16-.14.16h-2.38v.04c0,1.49.84,2.46,2.19,2.46,1.52,0,2.47-1.22,2.47-3.09s-.99-3.05-2.56-3.05c-.97,0-1.8.5-2.16,1.3-.04.09-.09.11-.2.09l-.76-.23c-.11-.03-.13-.1-.1-.2.5-1.26,1.77-2.02,3.29-2.02,2.26,0,3.69,1.6,3.69,4.12Z"/>
        <path class="st2" d="M607.68,139.94c0,2.12-1.12,3.74-3.18,4.55-.06.03-.13.04-.19.04h-.96c-.09,0-.14-.06-.17-.14l-2.35-7.64c-.03-.1.03-.16.13-.16h.89c.09,0,.14.04.17.13l2.03,6.77c1.62-.64,2.42-1.9,2.42-3.55,0-1.5-.67-2.42-1.76-2.42-.29,0-.54.06-.76.19-.09.04-.16.03-.2-.06l-.3-.63c-.04-.09-.03-.17.04-.21.33-.23.79-.34,1.32-.34,1.75,0,2.86,1.34,2.86,3.48Z"/>
        <path class="st2" d="M609.82,144.54c-.09,0-.14-.06-.14-.16v-7.64c0-.09.06-.14.14-.14h.87c.1,0,.16.06.16.14v7.64c0,.1-.06.16-.16.16h-.87Z"/>
        <path class="st2" d="M613.06,141.72v-2.05c0-1.7.8-2.83,2.26-3.19l1.27.74,1.29-.74c1.35.34,2.1,1.33,2.1,2.69v5.21c0,.1-.06.16-.16.16h-.87c-.09,0-.14-.06-.14-.16v-5.27c0-.8-.36-1.36-1.03-1.56l-1.13.66h-.1l-1.13-.66c-.77.24-1.19,1.03-1.19,2.23v1.85c0,1.26.63,1.97,1.66,1.97.31,0,.54-.06.8-.2.1-.04.16-.04.2.04l.3.64c.04.09.03.17-.03.22-.34.23-.8.36-1.4.36-1.65,0-2.71-1.1-2.71-2.95Z"/>
        <path class="st2" d="M624.89,144.54c-1.8,0-2.86-.87-2.86-2.35,0-.92.53-1.66,1.4-1.93-.9-.23-1.46-.92-1.46-1.83,0-1.2.89-1.96,2.27-1.96.59,0,1.1.13,1.5.39.07.04.09.13.04.22l-.3.64c-.06.09-.1.09-.2.04-.3-.17-.59-.25-.92-.25-.74,0-1.23.43-1.23,1.07,0,.75.56,1.17,1.53,1.17h1.12c.09,0,.14.06.14.14v.69c0,.1-.06.16-.14.16h-.92c-1.04,0-1.66.49-1.66,1.32,0,.93.64,1.45,1.82,1.45h2.02c.09,0,.14-.06.14-.16v-6.61c0-.09.06-.14.16-.14h.87c.09,0,.14.06.14.14v7.64c0,.1-.06.16-.14.16h-3.33Z"/>
        <path class="st2" d="M637.44,136.59c1.92,0,2.98.99,2.98,2.81v4.98c0,.1-.06.16-.16.16h-.86c-.09,0-.16-.06-.16-.16v-4.98c0-1.15-.69-1.78-1.9-1.78h-2.19v6.76c0,.1-.06.16-.16.16h-.86c-.09,0-.16-.06-.16-.16v-7.64c0-.09.06-.14.14-.14h3.32Z"/>
        <path class="st2" d="M642.91,144.54c-.09,0-.14-.06-.14-.16v-7.64c0-.09.06-.14.14-.14h.77c.1,0,.16.04.16.14l.06,1.26c.52-.99,1.52-1.56,2.7-1.56,1.66,0,2.66,1.1,2.66,2.93v5.01c0,.1-.04.16-.14.16h-.87c-.1,0-.16-.06-.16-.16v-4.67c0-1.42-.64-2.2-1.8-2.2-1.36,0-2.35,1.07-2.35,2.71v4.17c0,.1-.06.16-.16.16h-.87Z"/>
        <path class="st2" d="M652.75,143.13l-.06,1.25c0,.11-.06.16-.16.16h-.77c-.09,0-.14-.06-.14-.16v-7.64c0-.09.06-.14.14-.14h.87c.1,0,.16.06.16.14v4.17c0,1.69,1.02,2.72,2.32,2.72,1.13,0,1.79-.84,1.79-2.32v-4.57c0-.09.06-.14.14-.14h.87c.1,0,.16.06.16.14v4.91c0,1.89-1,3.05-2.65,3.05-1.17,0-2.16-.59-2.68-1.56Z"/>
        <path class="st2" d="M660.06,143.86c0-.47.36-.82.83-.82s.83.34.83.82-.36.82-.83.82-.83-.34-.83-.82Z"/>
        <path class="st2" d="M668.93,144.54c-.09,0-.14-.06-.14-.16v-8.63l-2.03,1.13c-.09.04-.14.03-.2-.07l-.18-.32c-.04-.07-.03-.14.04-.2l2.61-2.19c.06-.06.11-.07.19-.07h.63c.09,0,.14.06.14.14v10.21c0,.1-.06.16-.14.16h-.9Z"/>
        <path class="st2" d="M672.28,139.28c0-3.42,1.45-5.45,3.89-5.45s3.89,2.03,3.89,5.45-1.45,5.45-3.89,5.45-3.89-2.03-3.89-5.45ZM678.82,139.28c0-2.82-.97-4.28-2.65-4.28s-2.65,1.46-2.65,4.28.97,4.28,2.65,4.28,2.65-1.46,2.65-4.28Z"/>
        <path class="st2" d="M684.04,144.54c-.09,0-.14-.06-.14-.16v-8.63l-2.03,1.13c-.09.04-.14.03-.2-.07l-.18-.32c-.04-.07-.03-.14.04-.2l2.61-2.19c.06-.06.11-.07.19-.07h.63c.09,0,.14.06.14.14v10.21c0,.1-.06.16-.14.16h-.9Z"/>
        <path class="st2" d="M689.79,144.54c-.09,0-.14-.06-.14-.16v-8.63l-2.03,1.13c-.09.04-.14.03-.2-.07l-.18-.32c-.04-.07-.03-.14.04-.2l2.61-2.19c.06-.06.11-.07.19-.07h.63c.09,0,.14.06.14.14v10.21c0,.1-.06.16-.14.16h-.9Z"/>
        <path class="st2" d="M693.14,139.28c0-3.42,1.45-5.45,3.89-5.45s3.89,2.03,3.89,5.45-1.45,5.45-3.89,5.45-3.89-2.03-3.89-5.45ZM699.68,139.28c0-2.82-.97-4.28-2.65-4.28s-2.65,1.46-2.65,4.28.97,4.28,2.65,4.28,2.65-1.46,2.65-4.28Z"/>
      </g>
      <g>
        <g>
          <polygon class="st2" points="792.31 133.36 777.09 133.36 784.75 139.02 792.31 133.36"/>
          <polygon class="st2" points="776.11 134.01 776.11 143.36 782.09 138.42 776.11 134.01"/>
          <polygon class="st2" points="793.29 134.01 787.31 138.42 793.29 143.36 793.29 134.01"/>
          <path class="st2" d="M792.31,144.01l-5.87-4.84c-.23-.11-1.38,1.15-1.8,1.14l-1.63-1.17-5.92,4.87h15.22Z"/>
        </g>
        <g>
          <path class="st2" d="M802.21,143.46c-.11,0-.18-.07-.18-.18v-7.48l-1.85.73c-.1.04-.18.01-.24-.1l-.26-.5c-.04-.1-.03-.18.06-.25l2.68-2.3c.07-.07.14-.08.22-.08h1.08c.11,0,.18.07.18.18v9.79c0,.11-.07.18-.18.18h-1.51Z"/>
          <path class="st2" d="M808.15,143.46c-.11,0-.18-.07-.18-.18v-7.48l-1.85.73c-.1.04-.18.01-.24-.1l-.26-.5c-.04-.1-.03-.18.06-.25l2.68-2.3c.07-.07.14-.08.22-.08h1.08c.11,0,.18.07.18.18v9.79c0,.11-.07.18-.18.18h-1.51Z"/>
          <path class="st2" d="M811.66,140.1c0-1.23.47-2.29,1.8-4.26l1.66-2.42c.06-.08.12-.11.22-.11h1.74c.14,0,.19.11.11.22l-2.49,3.53c.36-.15.73-.22,1.16-.22,1.87,0,3.18,1.37,3.18,3.36s-1.49,3.46-3.69,3.46-3.69-1.49-3.69-3.55ZM817.08,140.14c0-1.01-.72-1.69-1.74-1.69s-1.74.68-1.74,1.69.72,1.69,1.74,1.69,1.74-.68,1.74-1.69Z"/>
          <path class="st2" d="M825.06,143.46c-.11,0-.18-.07-.18-.18v-1.78h-4.81c-.11,0-.18-.07-.18-.18v-.46c0-.08.01-.15.07-.22l5.35-7.22c.05-.07.12-.11.22-.11h1.04c.11,0,.18.07.18.18v6.25h1.31c.11,0,.18.07.18.18v1.4c0,.11-.07.18-.18.18h-1.31v1.78c0,.11-.07.18-.18.18h-1.51ZM824.88,139.74v-3.19l-2.31,3.19h2.31Z"/>
          <path class="st2" d="M829.43,140.32c0-3.86,2.7-6.39,6.53-6.39s6.29,2.41,6.29,5.92c0,2.25-1.13,3.75-2.77,3.75-.91,0-1.63-.48-1.8-1.36-.43.83-1.29,1.36-2.28,1.36-1.84,0-3.07-1.36-3.07-3.33s1.23-3.33,3.07-3.33c.88,0,1.66.42,2.13,1.09l.03-.77c0-.12.07-.18.18-.18h1.02c.11,0,.18.07.18.18v3.93c0,.68.25,1,.79,1,.58,0,1-.94,1-2.32,0-2.93-1.85-4.52-4.77-4.52s-5.01,1.62-5.01,4.99,2.12,4.84,5.09,4.84c.59,0,1.11-.04,1.58-.14.12-.03.19.04.19.17v.98c0,.1-.04.18-.12.19-.55.14-1.15.19-1.91.19-3.9,0-6.35-2.6-6.35-6.24ZM837.45,140.26c0-1.11-.72-1.88-1.74-1.88s-1.74.77-1.74,1.88.72,1.88,1.74,1.88,1.74-.77,1.74-1.88Z"/>
          <path class="st2" d="M843.53,139.88c0-2.2,1.43-3.72,3.67-3.72,1.6,0,2.72.66,3.25,2.07.04.11-.01.21-.13.23l-1.19.35c-.1.03-.18-.01-.23-.11-.32-.61-.84-.91-1.59-.91-1.3,0-1.92.95-1.92,2.09s.62,2.09,1.92,2.09c.75,0,1.3-.32,1.6-.95.06-.1.14-.14.23-.11l1.31.32c.11.03.15.11.11.22-.57,1.48-1.78,2.16-3.36,2.16-2.27,0-3.68-1.52-3.68-3.72Z"/>
          <path class="st2" d="M851.88,140.95v-4.48c0-.11.07-.18.18-.18h1.44c.11,0,.18.07.18.18v3.75c0,1.19.43,1.74,1.37,1.74.87,0,1.7-.65,1.7-2.02v-3.47c0-.11.07-.18.18-.18h1.44c.11,0,.18.07.18.18v6.8c0,.11-.07.18-.18.18h-1.3c-.11,0-.19-.05-.19-.18l-.04-.82c-.52.76-1.42,1.13-2.34,1.13-1.66,0-2.61-1-2.61-2.64Z"/>
          <path class="st2" d="M859.88,141.69c-.04-.11.01-.19.12-.22l1.26-.35c.1-.03.18.01.22.11.33.58.83.77,1.44.77s1.05-.12,1.05-.52c0-.3-.3-.47-1.07-.69l-.35-.1c-1.71-.48-2.38-1.33-2.38-2.43,0-1.22,1.11-2.1,2.72-2.1,1.38,0,2.36.58,2.81,1.8.04.11,0,.19-.11.22l-1.26.4c-.11.04-.18,0-.23-.1-.25-.44-.62-.73-1.23-.73-.47,0-.84.14-.84.51,0,.33.32.53,1.11.72l.33.08c1.76.44,2.35,1.19,2.35,2.38,0,1.31-1.19,2.16-2.83,2.16s-2.65-.66-3.11-1.91Z"/>
          <path class="st2" d="M867.84,140.69v-2.79h-1.05c-.11,0-.18-.07-.18-.18v-1.24c0-.11.07-.18.18-.18h1.05v-1.92c0-.11.07-.18.18-.18h1.44c.11,0,.18.07.18.18v1.92h1.7c.11,0,.18.07.18.18v1.24c0,.11-.07.18-.18.18h-1.7v2.9c0,.77.25,1.16.8,1.16.24,0,.4-.1.54-.34.05-.1.14-.14.25-.08l1.08.48c.11.06.14.15.05.29-.51.94-1.3,1.29-2.11,1.29-1.55,0-2.41-.97-2.41-2.9Z"/>
          <path class="st2" d="M872.81,139.88c0-2.17,1.49-3.72,3.79-3.72s3.79,1.55,3.79,3.72-1.49,3.72-3.79,3.72-3.79-1.55-3.79-3.72ZM878.54,139.88c0-1.23-.79-2.09-1.94-2.09s-1.94.86-1.94,2.09.79,2.09,1.94,2.09,1.94-.86,1.94-2.09Z"/>
          <path class="st2" d="M882.03,143.46c-.11,0-.18-.07-.18-.18v-6.8c0-.11.07-.18.18-.18h1.3c.11,0,.19.05.19.18l.04.86c.51-.77,1.38-1.18,2.27-1.18,1.08,0,1.87.47,2.25,1.31.53-.87,1.47-1.31,2.45-1.31,1.56,0,2.52,1,2.52,2.64v4.48c0,.11-.07.18-.18.18h-1.44c-.11,0-.18-.07-.18-.18v-3.75c0-1.19-.44-1.74-1.27-1.74s-1.63.65-1.63,2.02v3.47c0,.11-.07.18-.18.18h-1.44c-.11,0-.18-.07-.18-.18v-3.75c0-1.19-.44-1.74-1.27-1.74s-1.63.65-1.63,2.02v3.47c0,.11-.07.18-.18.18h-1.44Z"/>
          <path class="st2" d="M894.33,141.69c-.04-.11.01-.19.12-.22l1.26-.35c.1-.03.18.01.22.11.33.58.83.77,1.44.77s1.05-.12,1.05-.52c0-.3-.3-.47-1.07-.69l-.35-.1c-1.71-.48-2.38-1.33-2.38-2.43,0-1.22,1.11-2.1,2.72-2.1,1.38,0,2.36.58,2.81,1.8.04.11,0,.19-.11.22l-1.26.4c-.11.04-.18,0-.23-.1-.25-.44-.62-.73-1.23-.73-.47,0-.84.14-.84.51,0,.33.32.53,1.11.72l.33.08c1.76.44,2.35,1.19,2.35,2.38,0,1.31-1.19,2.16-2.83,2.16s-2.65-.66-3.11-1.91Z"/>
          <path class="st2" d="M901.43,142.5c0-.64.48-1.09,1.12-1.09s1.12.46,1.12,1.09-.48,1.09-1.12,1.09-1.12-.46-1.12-1.09Z"/>
          <path class="st2" d="M905,144.55c-.05-.11-.01-.18.1-.22l1.16-.43c.1-.04.18,0,.23.1.35.59.9.98,1.87.98,1.11,0,2.05-.47,2.05-1.74v-.65c-.52.64-1.31,1.01-2.25,1.01-2.05,0-3.35-1.52-3.35-3.72s1.3-3.72,3.35-3.72c1,0,1.82.41,2.34,1.12l.04-.8c0-.13.08-.18.19-.18h1.3c.11,0,.18.07.18.18v6.58c0,2.28-1.53,3.55-3.79,3.55-1.54,0-2.86-.69-3.42-2.06ZM910.53,139.88c0-1.23-.79-2.09-1.94-2.09s-1.94.86-1.94,2.09.79,2.09,1.94,2.09,1.94-.86,1.94-2.09Z"/>
          <path class="st2" d="M913.66,139.88c0-2.17,1.49-3.72,3.79-3.72s3.79,1.55,3.79,3.72-1.49,3.72-3.79,3.72-3.79-1.55-3.79-3.72ZM919.39,139.88c0-1.23-.79-2.09-1.94-2.09s-1.94.86-1.94,2.09.79,2.09,1.94,2.09,1.94-.86,1.94-2.09Z"/>
          <path class="st2" d="M922.37,142.5c0-.64.48-1.09,1.12-1.09s1.12.46,1.12,1.09-.48,1.09-1.12,1.09-1.12-.46-1.12-1.09Z"/>
          <path class="st2" d="M926.13,140.69v-2.79h-1.05c-.11,0-.18-.07-.18-.18v-1.24c0-.11.07-.18.18-.18h1.05v-1.92c0-.11.07-.18.18-.18h1.44c.11,0,.18.07.18.18v1.92h1.7c.11,0,.18.07.18.18v1.24c0,.11-.07.18-.18.18h-1.7v2.9c0,.77.25,1.16.8,1.16.24,0,.4-.1.54-.34.05-.1.14-.14.25-.08l1.08.48c.11.06.14.15.05.29-.51.94-1.3,1.29-2.11,1.29-1.55,0-2.41-.97-2.41-2.9Z"/>
          <path class="st2" d="M931.83,143.46c-.11,0-.18-.07-.18-.18v-10.01c0-.11.07-.18.18-.18h1.44c.11,0,.18.07.18.18v3.91c.54-.69,1.38-1.02,2.25-1.02,1.66,0,2.61,1,2.61,2.64v4.48c0,.11-.07.18-.18.18h-1.44c-.11,0-.18-.07-.18-.18v-3.75c0-1.19-.43-1.74-1.37-1.74-.87,0-1.7.65-1.7,2.02v3.47c0,.11-.07.18-.18.18h-1.44Z"/>
        </g>
        <g>
          <path class="st2" d="M722.8,143.1c-.98-.26-1.87-1.03-2.61-1.7-.47-.42-3.42-3.46-3.01-3.97.59-.22,1.15-.15,1.26-.92s-.05-3.11-1.08-3.09-1.93.7-2.25,1.68c-1.41,4.36,5.51,11.28,9.86,10.04.72-.21,1.41-.77,1.63-1.5.12-.39.28-1.07-.06-1.38-.48-.43-2.55-.64-3.15-.43-.49.17-.46.85-.61,1.27Z"/>
          <g>
            <path class="st2" d="M734.97,143.89c-.11,0-.18-.07-.18-.18v-7.48l-1.85.73c-.1.04-.18.01-.24-.1l-.26-.5c-.04-.1-.03-.18.06-.25l2.68-2.29c.07-.07.14-.08.22-.08h1.08c.11,0,.18.07.18.18v9.79c0,.11-.07.18-.18.18h-1.51Z"/>
            <path class="st2" d="M740.92,143.89c-.11,0-.18-.07-.18-.18v-7.48l-1.85.73c-.1.04-.18.01-.24-.1l-.26-.5c-.04-.1-.03-.18.06-.25l2.68-2.29c.07-.07.14-.08.22-.08h1.08c.11,0,.18.07.18.18v9.79c0,.11-.07.18-.18.18h-1.51Z"/>
            <path class="st2" d="M744.42,140.53c0-1.23.47-2.3,1.8-4.26l1.66-2.42c.06-.08.12-.11.22-.11h1.74c.14,0,.19.11.11.22l-2.49,3.53c.36-.15.73-.22,1.16-.22,1.87,0,3.18,1.37,3.18,3.36s-1.49,3.46-3.69,3.46-3.69-1.49-3.69-3.55ZM749.84,140.58c0-1.01-.72-1.69-1.74-1.69s-1.74.68-1.74,1.69.72,1.69,1.74,1.69,1.74-.68,1.74-1.69Z"/>
            <path class="st2" d="M757.83,143.89c-.11,0-.18-.07-.18-.18v-1.78h-4.81c-.11,0-.18-.07-.18-.18v-.46c0-.08.01-.15.07-.22l5.35-7.22c.05-.07.12-.11.22-.11h1.04c.11,0,.18.07.18.18v6.25h1.31c.11,0,.18.07.18.18v1.4c0,.11-.07.18-.18.18h-1.31v1.78c0,.11-.07.18-.18.18h-1.51ZM757.65,140.17v-3.19l-2.31,3.19h2.31Z"/>
          </g>
        </g>
      </g>
    </g>
  </g>
</svg>