<?xml version="1.0" encoding="UTF-8"?>
<svg id="Layer_1" xmlns="http://www.w3.org/2000/svg" xmlns:xlink="http://www.w3.org/1999/xlink" version="1.1" viewBox="0 0 1320 82">
  <!-- Generator: Adobe Illustrator 29.3.1, SVG Export Plug-In . SVG Version: 2.1.0 Build 151)  -->
  <defs>
    <style>
      .st0, .st1 {
        fill: #0c685b;
      }

      .st2, .st1 {
        isolation: isolate;
      }

      .st1 {
        font-family: 'LINESeedSansTH', 'LINE Seed Sans TH', sans-serif;
        font-size: 18.81px;
      }

      .st3 {
        fill: #c5e3bf;
      }
    </style>
  </defs>
  <g>
    <path class="st3" d="M.02.36h183.17v49.01c0,18.01-14.62,32.63-32.63,32.63H.02V.36H.02Z"/>
    <path class="st3" d="M1319.99,82H215.2c-18.01,0-32.63-14.62-32.63-32.63V.36h1137.42v81.64h0Z"/>
  </g>
  <g>
    <g>
      <g class="st2">
        <text class="st1" transform="translate(493.6 58.41)"><tspan x="0" y="0">ตัวแทนออกของในประเทศไทย</tspan></text>
      </g>
      <g class="st2">
        <text class="st1" transform="translate(768.03 58.41)"><tspan x="0" y="0">ผู้นำเข้าสินค้าของมาเลเซีย</tspan></text>
      </g>
      <g class="st2">
        <text class="st1" transform="translate(1021.95 58.41)"><tspan x="0" y="0">ผู้นำเข้าสินค้าของซาอุดิอาระเบีย</tspan></text>
      </g>
      <polygon class="st0" points="274.93 48.93 274.95 45.59 271.6 45.57 269.04 42.99 266.45 45.56 262.66 45.54 262.63 49.33 260.3 51.65 262.6 53.98 262.58 57.83 266.43 57.84 268.93 60.37 271.46 57.86 274.87 57.87 274.89 54.47 277.67 51.71 274.93 48.93"/>
      <polygon class="st0" points="479.53 48.93 479.55 45.59 476.21 45.57 473.65 42.99 471.06 45.56 467.27 45.54 467.24 49.33 464.9 51.65 467.21 53.98 467.19 57.83 471.04 57.84 473.54 60.37 476.07 57.86 479.47 57.87 479.5 54.47 482.28 51.71 479.53 48.93"/>
      <polygon class="st0" points="752.98 48.93 753.01 45.59 749.66 45.57 747.1 42.99 744.51 45.56 740.72 45.54 740.69 49.33 738.36 51.65 740.66 53.98 740.64 57.83 744.49 57.84 746.99 60.37 749.52 57.86 752.93 57.87 752.95 54.47 755.73 51.71 752.98 48.93"/>
      <polygon class="st0" points="1007.26 48.93 1007.29 45.59 1003.94 45.57 1001.38 42.99 998.79 45.56 995 45.54 994.97 49.33 992.63 51.65 994.94 53.98 994.92 57.83 998.77 57.84 1001.27 60.37 1003.8 57.86 1007.2 57.87 1007.23 54.47 1010.01 51.71 1007.26 48.93"/>
      <g class="st2">
        <text class="st1" transform="translate(292.43 58.41)"><tspan x="0" y="0">ขั้นตอนการส่งออก</tspan></text>
      </g>
    </g>
    <g class="st2">
      <text class="st1" transform="translate(87.66 57.93)"><tspan x="0" y="0">หน้าแรก</tspan></text>
    </g>
    <polygon class="st0" points="74.91 49.89 74.93 46.54 71.59 46.53 69.03 43.95 66.44 46.51 62.65 46.5 62.62 50.29 60.28 52.6 62.59 54.93 62.56 58.79 66.42 58.8 68.91 61.32 71.45 58.82 74.85 58.83 74.88 55.42 77.66 52.67 74.91 49.89"/>
  </g>
</svg>