<?xml version="1.0" encoding="UTF-8"?>
<svg id="Layer_1" xmlns="http://www.w3.org/2000/svg" xmlns:xlink="http://www.w3.org/1999/xlink" version="1.1" viewBox="0 0 1320 82">
  <!-- Generator: Adobe Illustrator 29.3.1, SVG Export Plug-In . SVG Version: 2.1.0 Build 151)  -->
  <defs>
    <style>
      .st0 {
        fill: #0c685b;
      }

      .st1 {
        fill: #c5e3bf;
      }

      .st2 {
        fill: #fff;
      }

      .st3 {
        fill: #fef5a2;
      }
    </style>
  </defs>
  <rect class="st0" y="-.1" width="1320" height="82.2"/>
  <g>
    <path class="st2" d="M109.09,25.27c-4.04-1.9-8.56-2.07-12.78-3.33-1.78-.52-3.6-1.14-5.27-1.94-1.03-.53-2.07-1.09-2.9-1.9-.01-.01-.02-.02-.03-.03,0-.01-.02-.03-.04-.04-.01-.01-.02-.03-.03-.04h0c-.25-.28-.98-1.18-1.88-2.8-.03-.09-.06-.14-.06-.14l-.06.14c-.9,1.63-1.63,2.53-1.88,2.81h0s-.02.02-.03.03c-.02.02-.03.03-.04.04s-.02.02-.03.03c-.82.81-1.86,1.37-2.9,1.9-1.67.79-3.49,1.42-5.27,1.94-4.22,1.26-8.74,1.43-12.78,3.33-4.46,1.97-8.41,5.97-9.05,10.96,2.25-5.93,8.11-9.36,14.22-10.03,4.86-.44,9.79-.91,14.4-2.71,1.06-.44,2.43-.93,3.4-1.58l3.43,1.58c4.61,1.81,9.54,2.28,14.4,2.71,6.11.66,11.97,4.09,14.22,10.03-.64-4.99-4.58-8.98-9.05-10.96h0Z"/>
    <g>
      <g>
        <path class="st3" d="M74.66,35.85h-1.74v-6.19h1.74v6.19ZM76.57,33.4h-2.06v-1.28h2.06v1.28ZM76.41,29.66h1.74v6.19h-1.74s0-6.19,0-6.19Z"/>
        <path class="st3" d="M81.24,35.99c-.59,0-1.02-.13-1.28-.39-.27-.26-.4-.68-.4-1.24,0-.31.04-.57.13-.78s.23-.37.44-.5c.2-.13.48-.21.82-.27.35-.05.78-.08,1.29-.08h.56v.91h-.93c-.27,0-.46.03-.56.09s-.15.18-.15.35v.7h.63c.27,0,.46-.03.56-.09s.15-.17.15-.34v-2.26c-.14-.04-.35-.06-.62-.06s-.58.02-.9.06-.65.11-1,.2l-.21-1.22c.23-.07.47-.13.72-.18.25-.05.51-.09.78-.11s.53-.03.8-.03c.51,0,.92.06,1.24.17.32.12.55.29.7.54.15.24.23.56.23.95v3.44h-.86l-.45-.5c-.24.2-.51.36-.8.47s-.59.16-.91.16h.02Z"/>
        <path class="st3" d="M87.6,34.6c.09,0,.18.02.26.03s.16.02.23.02l-.09,1.18c-.18.05-.35.08-.52.11s-.32.04-.48.04c-.39,0-.68-.08-.87-.24s-.28-.41-.28-.76v-5.58l1.74-.15v5.34h0Z"/>
        <path class="st3" d="M90.75,35.99c-.59,0-1.02-.13-1.28-.39-.27-.26-.4-.68-.4-1.24,0-.31.04-.57.13-.78s.23-.37.44-.5c.2-.13.48-.21.82-.27.35-.05.78-.08,1.29-.08h.56v.91h-.93c-.27,0-.46.03-.56.09s-.15.18-.15.35v.7h.63c.27,0,.46-.03.56-.09s.15-.17.15-.34v-2.26c-.14-.04-.35-.06-.62-.06s-.58.02-.9.06-.65.11-1,.2l-.21-1.22c.23-.07.47-.13.72-.18.25-.05.51-.09.78-.11s.53-.03.8-.03c.51,0,.92.06,1.24.17.32.12.55.29.7.54.15.24.23.56.23.95v3.44h-.86l-.45-.5c-.24.2-.51.36-.8.47s-.59.16-.91.16h.02Z"/>
        <path class="st3" d="M97.12,34.6c.09,0,.18.02.26.03s.16.02.23.02l-.09,1.18c-.18.05-.35.08-.52.11s-.32.04-.48.04c-.39,0-.68-.08-.87-.24s-.28-.41-.28-.76v-5.58l1.74-.15v5.34h0Z"/>
      </g>
      <g>
        <path class="st2" d="M74.66,35.85h-1.74v-6.19h1.74v6.19ZM76.57,33.4h-2.06v-1.28h2.06v1.28ZM76.41,29.66h1.74v6.19h-1.74s0-6.19,0-6.19Z"/>
        <path class="st2" d="M81.24,35.99c-.59,0-1.02-.13-1.28-.39-.27-.26-.4-.68-.4-1.24,0-.31.04-.57.13-.78s.23-.37.44-.5c.2-.13.48-.21.82-.27.35-.05.78-.08,1.29-.08h.56v.91h-.93c-.27,0-.46.03-.56.09s-.15.18-.15.35v.7h.63c.27,0,.46-.03.56-.09s.15-.17.15-.34v-2.26c-.14-.04-.35-.06-.62-.06s-.58.02-.9.06-.65.11-1,.2l-.21-1.22c.23-.07.47-.13.72-.18.25-.05.51-.09.78-.11s.53-.03.8-.03c.51,0,.92.06,1.24.17.32.12.55.29.7.54.15.24.23.56.23.95v3.44h-.86l-.45-.5c-.24.2-.51.36-.8.47s-.59.16-.91.16h.02Z"/>
        <path class="st2" d="M87.6,34.6c.09,0,.18.02.26.03s.16.02.23.02l-.09,1.18c-.18.05-.35.08-.52.11s-.32.04-.48.04c-.39,0-.68-.08-.87-.24s-.28-.41-.28-.76v-5.58l1.74-.15v5.34h0Z"/>
        <path class="st2" d="M90.75,35.99c-.59,0-1.02-.13-1.28-.39-.27-.26-.4-.68-.4-1.24,0-.31.04-.57.13-.78s.23-.37.44-.5c.2-.13.48-.21.82-.27.35-.05.78-.08,1.29-.08h.56v.91h-.93c-.27,0-.46.03-.56.09s-.15.18-.15.35v.7h.63c.27,0,.46-.03.56-.09s.15-.17.15-.34v-2.26c-.14-.04-.35-.06-.62-.06s-.58.02-.9.06-.65.11-1,.2l-.21-1.22c.23-.07.47-.13.72-.18.25-.05.51-.09.78-.11s.53-.03.8-.03c.51,0,.92.06,1.24.17.32.12.55.29.7.54.15.24.23.56.23.95v3.44h-.86l-.45-.5c-.24.2-.51.36-.8.47s-.59.16-.91.16h.02Z"/>
        <path class="st2" d="M97.12,34.6c.09,0,.18.02.26.03s.16.02.23.02l-.09,1.18c-.18.05-.35.08-.52.11s-.32.04-.48.04c-.39,0-.68-.08-.87-.24s-.28-.41-.28-.76v-5.58l1.74-.15v5.34h0Z"/>
      </g>
    </g>
    <path class="st2" d="M63.28,60.04s.09-.04.13-.07c.11-.05.24-.11.35-.05.19.1.09.39-.04.57-2.61,3.55-6.84,5.74-11.21,6.28s-8.85-.47-12.8-2.43c-1.95-.96-3.78-2.15-5.77-3.01-1.99-.86-4.21-1.39-6.34-.95.7-.98,1.87-1.54,3.06-1.77,1.18-.23,2.4-.16,3.61-.14.14,0,.3,0,.4-.1.1-.1.1-.25.1-.39v-22.87c0-1.03-.05-2.18-.8-2.89-.4-.37-.93-.55-1.44-.71-.19-.06-.36-.1-.4-.32-.02-.15.04-.33.16-.42.19-.14.53-.07.75-.07h17.18c.16,0,.33,0,.44.12.11.11.12.28.12.43.03,1.38,0,2.76-.05,4.14-.45-.13-.71-.59-.96-.99-1.41-2.2-4.42-3.21-6.88-2.31-.53.2-1.06.49-1.39.95-.47.65-.48,1.5-.48,2.3,0,2.6,0,5.2.02,7.79,0,.09-.16.02-.12-.06s.15-.08.24-.07c1.05.14,2.12.3,3.15.06,1.03-.24,2.01-1.01,2.16-2.06.03-.22.03-.46.15-.64s.43-.27.56-.09c.06.08.06.19.06.28v6.27c0,.1,0,.2-.06.29-.13.2-.46.1-.59-.1s-.11-.45-.14-.69c-.1-.75-.68-1.38-1.37-1.71s-1.46-.4-2.22-.41c-.61,0-1.22.03-1.83.1v14.12c0,.29,0,.61.17.85.2.29.57.4.91.48,3.52.88,7.05,1.76,10.67,2.01s7.25-.16,10.46-1.73h.04Z"/>
    <path class="st2" d="M53.27,55.3c.08-.08.18-.2.31-.36s.29-.36.46-.57c.17-.22.35-.45.55-.69.2-.25.39-.5.58-.75.44-.58.93-1.22,1.47-1.9-.61-1.04-1.17-2-1.69-2.89-.23-.38-.46-.76-.68-1.14-.23-.38-.45-.74-.66-1.07-.21-.34-.4-.64-.56-.9-.16-.27-.3-.48-.4-.63-.24-.34-.47-.65-.68-.91s-.43-.5-.66-.71-.47-.39-.73-.53c-.26-.15-.56-.26-.88-.35-.1-.02-.17-.07-.22-.13-.04-.06-.06-.13-.06-.2s.04-.13.1-.18c.06-.05.14-.08.24-.08h9.78c.09,0,.16.03.23.08.06.05.1.11.11.18,0,.07,0,.14-.04.21s-.11.12-.23.14c-.19.05-.38.12-.58.21s-.36.22-.48.39-.19.4-.2.68c0,.29.07.65.25,1.09.11.28.26.59.43.92.17.34.34.65.5.94.19.34.39.68.59,1.03.33-.43.63-.84.91-1.22.24-.33.47-.65.68-.97.22-.32.35-.55.42-.7.16-.44.24-.81.24-1.09s-.07-.51-.2-.68c-.13-.17-.29-.3-.48-.39s-.38-.16-.57-.21c-.11-.03-.19-.07-.23-.14s-.05-.14-.04-.21.05-.13.1-.18.14-.08.24-.08h5.4c.19,0,.3.08.32.23.03.15-.06.27-.27.36-.56.27-1.04.57-1.44.92s-.83.8-1.3,1.34c-.08.09-.18.22-.31.38s-.28.35-.45.56c-.17.21-.34.43-.52.68-.18.24-.36.48-.54.7-.42.56-.88,1.15-1.37,1.79.67,1.14,1.29,2.2,1.86,3.18.24.42.49.83.73,1.25.25.41.48.79.68,1.14.21.35.4.66.56.92.16.27.29.46.36.57.46.68.91,1.23,1.37,1.63s1,.69,1.64.88c.1.04.17.09.22.15.04.06.06.13.05.19-.01.06-.05.12-.1.17s-.13.08-.22.08h-9.99c-.1,0-.18-.03-.24-.08s-.09-.11-.1-.18,0-.14.04-.21.11-.12.23-.14c.19-.05.39-.12.61-.2s.39-.21.53-.39.23-.41.26-.69c.03-.29-.04-.65-.2-1.09-.06-.18-.19-.45-.39-.82s-.4-.74-.6-1.1c-.24-.43-.5-.89-.78-1.39-.38.49-.73.96-1.05,1.39-.14.19-.28.38-.41.57s-.26.37-.37.54c-.11.17-.22.33-.3.47-.09.14-.15.25-.19.34-.2.44-.29.81-.26,1.08.03.28.12.51.28.68.15.18.34.31.56.4s.43.16.62.21c.11.03.19.07.23.14s.05.14.04.21-.05.13-.11.18-.14.08-.23.08h-6.37c-.19,0-.3-.08-.32-.24-.03-.16.06-.28.27-.35.68-.23,1.32-.55,1.91-.97s1.17-.93,1.74-1.54v-.03Z"/>
    <polygon class="st2" points="112.57 35.66 114.92 34.41 112.86 36.1 115.51 35.84 112.96 36.62 115.51 37.4 112.86 37.14 114.92 38.83 112.57 37.58 113.82 39.93 112.13 37.87 112.39 40.52 111.61 37.97 110.84 40.52 111.09 37.87 109.4 39.93 110.65 37.58 108.3 38.83 110.36 37.14 107.71 37.4 110.26 36.62 107.71 35.84 110.36 36.1 108.3 34.41 110.65 35.66 109.4 33.31 111.09 35.37 110.84 32.72 111.61 35.27 112.39 32.72 112.13 35.37 113.82 33.31 112.57 35.66"/>
    <path class="st2" d="M81.77,40.8c1.01,0,1.9.13,2.66.4s1.42.63,1.97,1.08c.55.46,1.01.98,1.37,1.56s.65,1.2.86,1.85.35,1.29.44,1.94c.08.65.12,1.26.12,1.83,0,1.43-.17,2.73-.52,3.88s-.88,2.14-1.58,2.97c-.7.82-1.59,1.46-2.65,1.9-1.07.44-2.31.67-3.73.67-.8,0-1.49-.05-2.07-.14-.58-.1-1.07-.2-1.45-.32s-.67-.23-.87-.33-.3-.16-.31-.19c-.06-.05-.12-.06-.18-.04-.06.03-.09.07-.09.13v5.9c0,.52.11.94.33,1.26s.48.57.76.75.56.31.84.39c.27.08.46.12.56.13.1.03.17.07.22.12.04.06.06.12.05.18-.01.06-.05.12-.1.17-.06.05-.14.08-.24.08h-9.97c-.1,0-.18-.03-.24-.08s-.09-.11-.1-.17,0-.12.05-.18c.04-.06.12-.1.22-.12.1-.01.29-.06.56-.13.27-.08.55-.21.84-.39.29-.18.54-.43.76-.75s.33-.74.33-1.26v-19.14c0-.16-.08-.27-.23-.3-.03,0-.12-.02-.28-.06-.16-.04-.34-.08-.54-.13-.2-.05-.39-.1-.56-.13-.17-.04-.28-.06-.31-.08-.17-.04-.25-.12-.26-.26,0-.13.09-.22.28-.28.49-.11,1.03-.27,1.61-.47s1.16-.42,1.74-.67c.58-.25,1.15-.51,1.69-.8.55-.29,1.03-.57,1.47-.87.11-.08.23-.11.35-.1.12,0,.18.11.18.29v2.45c0,.09.03.15.1.17.06.03.12,0,.17-.06.11-.14.3-.36.57-.66s.63-.6,1.09-.89c.46-.3,1.03-.56,1.71-.78.68-.22,1.47-.33,2.39-.33h-.01ZM83.67,50.35v-1.14c0-.47-.04-.98-.11-1.52-.07-.55-.18-1.1-.33-1.66s-.37-1.06-.67-1.5c-.29-.44-.67-.81-1.12-1.09-.46-.29-1.02-.43-1.69-.43-.86,0-1.55.16-2.07.48s-.92.7-1.2,1.16-.46.94-.55,1.46c-.09.51-.13.97-.13,1.36v5.14c0,.48.05,1.02.16,1.62s.3,1.16.58,1.69.66.98,1.14,1.34c.48.36,1.1.54,1.85.54s1.39-.19,1.91-.57c.53-.38.96-.9,1.29-1.57.34-.67.58-1.45.73-2.36s.23-1.89.23-2.94h-.02Z"/>
    <g>
      <polygon class="st2" points="100.76 44.49 104.67 46.73 105.05 47.61 105.05 47.61 105.05 46.26 100.76 43.79 96.47 46.26 96.47 47.61 100.76 45.01 100.76 44.49"/>
      <rect class="st2" x="100.21" y="41.63" width="1.1" height=".92"/>
      <polygon class="st2" points="100.76 43.14 103.5 44.63 103.76 45.22 103.76 45.22 103.76 44.32 100.76 42.68 97.76 44.32 97.76 45.22 100.76 43.49 100.76 43.14"/>
      <path class="st2" d="M92.04,55.02c.12,0,.23,0,.34-.04.51-.12.82-.47.87-.53.07-.09.54-.65,1.36-.69h.08c.74,0,1.22.46,1.3.54.14.13.57.49,1.22.55h.16c.87,0,1.44-.59,1.52-.68.02-.02.03-.03.05-.05.19-.17.5-.41.94-.57h.01c.29-.1.59-.16.89-.16s.6.05.89.16h.01c.48.18.81.44.99.62.08.08.65.68,1.52.68h.16c.65-.05,1.08-.42,1.22-.55.08-.08.55-.54,1.3-.54h.08c.82.03,1.29.6,1.36.69.05.06.36.41.87.53.1.02.22.04.34.04h0c.17,0,.32-.03.45-.08.75-1.43,1.18-3.05,1.18-4.78,0-5.71-4.63-10.33-10.33-10.33s-10.33,4.63-10.33,10.33c0,1.73.43,3.37,1.19,4.8.12.03.24.06.38.06h-.02ZM100.76,41.37c4.79,0,8.67,3.88,8.67,8.67,0,1.21-.25,2.36-.7,3.41-.08,0-.17,0-.26,0h-.07c-.83-.03-1.36-.5-1.5-.62-.13-.12-.41-.35-.82-.43-.1-.02-.19-.03-.28-.03-.63,0-1.09.39-1.16.45-.12.1-.51.4-1.08.41h-.02c-.64,0-1.08-.37-1.24-.53-.09-.09-.18-.17-.29-.24-.25-.17-.67-.38-1.21-.38h-.04v-5.29c.42.42.99.89,1.71,1.33,1.27.77,2.51,1.13,3.31,1.31,0,.42-.05.61-.17,1.15-.15.69-.39,1.27-.63,1.75,1.01-1.07,1.69-2.37,1.92-3.79-2.51-.42-4.69-1.62-6.14-3.29-1.45,1.67-3.63,2.87-6.14,3.29.3,1.85,1.36,3.5,2.92,4.7-.18-.03-.33-.09-.46-.15-.17-.08-.32-.18-.46-.31-.17-.15-.53-.41-1.04-.43h-.04c-.62,0-1.03.37-1.17.52-.08.09-.17.17-.27.24-.21.14-.56.32-.99.32-.08,0-.15,0-.23-.02-.03,0-.07,0-.1-.02-.44-1.04-.68-2.18-.68-3.38,0-4.79,3.88-8.67,8.67-8.67v.02Z"/>
      <path class="st2" d="M108.18,56.16c-.09-.03-.19-.07-.28-.11-.3-.13-.48-.27-.86-.32-.07,0-.14,0-.21,0-.23,0-.42.05-.52.07-.48.12-.58.32-1.08.53-.07.03-.46.2-.92.25-.07,0-.16,0-.27,0-.32,0-.78-.06-1.33-.32.68.5,1.26.6,1.57.61h.15c.28,0,.53-.04.72-.07.71-.12.92-.31,1.33-.31h.07c.21,0,.53.07.92.33-1.8,1.57-4.15,2.52-6.72,2.52s-4.92-.95-6.72-2.52c.39-.26.71-.32.92-.33h.07c.41,0,.62.19,1.33.31.19.03.44.07.72.07h.15c.31-.02.89-.11,1.57-.61-.54.26-1.01.32-1.33.32-.11,0-.2,0-.27,0-.46-.05-.86-.22-.92-.25-.5-.21-.6-.41-1.08-.53-.1-.03-.29-.07-.52-.07-.07,0-.14,0-.21,0-.37.05-.56.19-.86.32-.09.04-.19.08-.28.11-.29.09-.59.14-.81.14h-.03c1.88,2.54,4.89,4.19,8.3,4.19s6.42-1.66,8.3-4.2h-.1c-.23,0-.52-.05-.81-.14h0Z"/>
    </g>
    <path class="st2" d="M140.44,55.17c.23-.11.39-.1.49.04s.11.29.02.44c-.23.41-.52.78-.87,1.11-.35.34-.75.63-1.19.88s-.93.44-1.46.57c-.53.13-1.08.2-1.66.2-.63,0-1.26-.08-1.88-.25-.62-.16-1.18-.46-1.67-.88s-.9-1-1.21-1.73-.47-1.66-.47-2.79v-8.92c0-.1-.05-.15-.15-.15h-.49c-.3,0-.49-.02-.56-.06-.07-.04-.1-.12-.1-.25,0-.16.07-.34.22-.52s.33-.28.54-.28h.42c.09,0,.13-.05.13-.15v-4.55c0-.28.11-.44.34-.48.32-.06.66-.15,1.02-.26.36-.11.73-.23,1.1-.38.37-.15.74-.3,1.1-.48.36-.17.69-.35,1-.54.14-.08.27-.09.39-.04s.18.18.18.38v6.35c0,.09.05.13.15.13h3.58c.3,0,.49.02.56.06.07.04.1.12.1.25,0,.17-.09.34-.27.52-.18.18-.37.28-.59.28h-3.41c-.09,0-.13.04-.13.13v9.93c0,.34.06.64.18.9.12.26.28.48.48.67.2.18.42.32.68.41s.52.13.79.13c.55,0,1.05-.08,1.52-.24s.84-.31,1.1-.45l.02.02Z"/>
    <path class="st2" d="M128.57,44.04c-.17-.73-.55-1.43-1.1-1.95-1.14-1.08-2.88-1.42-4.4-1-1.51.42-2.79,1.53-3.57,2.89,0-.85-.02-2.17-.03-3.02,0-.06,0-.13-.03-.18-.1-.17-.36-.08-.53.02-1.96,1.23-4.12,2.16-6.36,2.74-.18.05-.41.15-.38.34.02.15.2.22.35.25.49.11.98.23,1.46.34.11.02.22.05.29.14s.08.21.08.33v10.02c0,.94-.09,2.06-.91,2.53-.33.19-.73.19-1.05.37-.39.22-.33.54.16.54h8.69c.21,0,.5-.07.5-.28s-.27-.27-.47-.31c-.66-.11-1.28-.52-1.56-1.13-.22-.47-.22-1-.22-1.52v-8.02c0-.39,0-.79.14-1.15.26-.68.94-1.1,1.62-1.37,1.23-.49,2.6-.65,3.88-.35s2.48,1.05,3.21,2.15c.36-.73.42-1.58.23-2.37h0Z"/>
  </g>
  <path class="st1" d="M880.36,20.83h122.92c10.18,0,18.44,8.26,18.44,18.44h0c0,10.18-8.26,18.44-18.44,18.44h-122.92c-10.18,0-18.44-8.26-18.44-18.44h0c0-10.18,8.26-18.44,18.44-18.44Z"/>
  <path class="st1" d="M1049.75,20.83h227.08c10.18,0,18.44,8.26,18.44,18.44h0c0,10.18-8.26,18.44-18.44,18.44h-227.08c-10.18,0-18.44-8.26-18.44-18.44h0c0-10.18,8.26-18.44,18.44-18.44Z"/>
  <g>
    <path class="st0" d="M894.02,44.35c-1.27-.34-2.41-1.32-3.37-2.19-.6-.54-4.41-4.46-3.88-5.12.76-.28,1.49-.19,1.63-1.18s-.06-4.01-1.39-3.98-2.49.9-2.9,2.16c-1.82,5.63,7.11,14.56,12.72,12.95.93-.27,1.81-1,2.11-1.94.16-.51.36-1.38-.07-1.78-.62-.55-3.29-.82-4.06-.56-.64.22-.6,1.1-.78,1.63h0Z"/>
    <g>
      <polygon class="st0" points="1065.17 34.17 1048.38 34.17 1056.83 40.41 1065.17 34.17"/>
      <polygon class="st0" points="1047.3 34.89 1047.3 45.2 1053.9 39.75 1047.3 34.89"/>
      <polygon class="st0" points="1066.25 34.89 1059.66 39.75 1066.25 45.2 1066.25 34.89"/>
      <path class="st0" d="M1065.17,45.92l-6.48-5.34c-.25-.12-1.52,1.27-1.98,1.26l-1.8-1.29-6.54,5.37h16.8Z"/>
    </g>
    <g>
      <path class="st0" d="M910.75,39.64c0-3.77,1.59-6.01,4.29-6.01s4.29,2.24,4.29,6.01-1.59,6.01-4.29,6.01-4.29-2.24-4.29-6.01ZM917.96,39.64c0-3.11-1.07-4.72-2.92-4.72s-2.92,1.61-2.92,4.72,1.07,4.72,2.92,4.72,2.92-1.61,2.92-4.72Z"/>
      <path class="st0" d="M922.45,45.43c-.13,0-.17-.08-.13-.19l4.45-10.14h-5.93c-.11,0-.17-.06-.17-.17v-.92c0-.09.06-.16.17-.16h7.46c.11,0,.17.06.17.16v.32c0,.06-.02.14-.05.21l-4.65,10.78c-.05.08-.11.13-.21.13h-1.12v-.02Z"/>
      <path class="st0" d="M939.16,45.43c-.11,0-.17-.06-.17-.17v-2.37h-5.82c-.11,0-.17-.06-.17-.17v-.32c0-.08.02-.14.06-.21l6.18-8.25c.05-.06.11-.09.21-.09h.69c.11,0,.17.06.17.16v7.64h1.59c.11,0,.17.06.17.16v.92c0,.11-.06.17-.17.17h-1.59v2.37c0,.11-.06.17-.17.17h-.98ZM938.98,41.65v-5.54l-4.1,5.54h4.1Z"/>
      <path class="st0" d="M943.37,42.26c0-1.39.92-2.51,2.35-2.95-1.23-.43-2-1.45-2-2.63,0-1.78,1.59-3.04,3.8-3.04s3.8,1.26,3.8,3.04c0,1.18-.77,2.21-2,2.63,1.42.44,2.35,1.56,2.35,2.95,0,2-1.74,3.39-4.15,3.39s-4.15-1.37-4.15-3.39h0ZM950.31,42.13c0-1.31-1.17-2.26-2.79-2.26s-2.79.95-2.79,2.26,1.17,2.3,2.79,2.3,2.79-.96,2.79-2.3ZM949.96,36.82c0-1.14-1.01-1.99-2.45-1.99s-2.45.85-2.45,1.99,1.01,2.02,2.45,2.02,2.45-.84,2.45-2.02Z"/>
      <path class="st0" d="M953.15,42.51c-.03-.09,0-.17.11-.21l.88-.22c.11-.03.17.02.21.11.44,1.47,1.48,2.16,2.78,2.16,1.51,0,2.57-.99,2.57-2.6s-.99-2.62-2.57-2.62c-1.03,0-1.92.39-2.73,1.2-.08.06-.14.08-.24.03l-.49-.22c-.08-.05-.13-.11-.11-.21l.54-5.93c.02-.11.08-.16.17-.16h6.06c.09,0,.16.06.16.16v.92c0,.11-.06.17-.16.17h-5.19l-.38,3.85c.71-.63,1.62-.98,2.68-.98,2.16,0,3.61,1.51,3.61,3.8s-1.59,3.88-3.88,3.88c-1.92,0-3.52-1.14-4.02-3.14h0Z"/>
      <path class="st0" d="M964.49,45.43c-.13,0-.17-.09-.09-.21l3.22-4.34c-.49.28-1.04.43-1.69.43-2.19,0-3.68-1.53-3.68-3.82s1.59-3.87,3.96-3.87,3.98,1.61,3.98,3.93c0,1.39-.49,2.57-2,4.61l-2.35,3.16c-.05.06-.11.11-.21.11h-1.14,0ZM968.82,37.53c0-1.59-1.03-2.6-2.59-2.6s-2.6,1.01-2.6,2.6,1.03,2.62,2.6,2.62,2.59-1.01,2.59-2.62Z"/>
      <path class="st0" d="M974.94,42.51c-.03-.09,0-.17.11-.21l.88-.22c.11-.03.17.02.21.11.44,1.47,1.48,2.16,2.78,2.16,1.51,0,2.57-.99,2.57-2.6s-.99-2.62-2.57-2.62c-1.03,0-1.92.39-2.73,1.2-.08.06-.14.08-.24.03l-.49-.22c-.08-.05-.13-.11-.11-.21l.54-5.93c.02-.11.08-.16.17-.16h6.06c.09,0,.16.06.16.16v.92c0,.11-.06.17-.16.17h-5.19l-.38,3.85c.71-.63,1.62-.98,2.68-.98,2.16,0,3.61,1.51,3.61,3.8s-1.59,3.88-3.88,3.88c-1.92,0-3.52-1.14-4.02-3.14h0Z"/>
      <path class="st0" d="M986.91,45.43c-.09,0-.16-.06-.16-.17v-9.51l-2.24,1.25c-.09.05-.16.03-.22-.08l-.21-.35c-.05-.08-.03-.16.05-.22l2.87-2.41c.06-.06.13-.08.21-.08h.69c.09,0,.16.06.16.16v11.25c0,.11-.06.17-.16.17h-.99Z"/>
      <path class="st0" d="M992.46,45.43c-.13,0-.17-.09-.09-.21l3.22-4.34c-.49.28-1.04.43-1.69.43-2.19,0-3.68-1.53-3.68-3.82s1.59-3.87,3.96-3.87,3.98,1.61,3.98,3.93c0,1.39-.49,2.57-2,4.61l-2.35,3.16c-.05.06-.11.11-.21.11h-1.14,0ZM996.79,37.53c0-1.59-1.03-2.6-2.59-2.6s-2.6,1.01-2.6,2.6,1.03,2.62,2.6,2.62,2.59-1.01,2.59-2.62Z"/>
    </g>
    <g>
      <path class="st0" d="M1075.8,48.37c-.12,0-.19-.07-.19-.19v-12.08c0-.1.07-.17.19-.17h.88c.12,0,.19.05.19.17l.07,1.39c.64-1.07,1.82-1.74,3.18-1.74,2.55,0,4.17,1.88,4.17,4.51s-1.62,4.53-4.17,4.53c-1.33,0-2.5-.64-3.13-1.67v5.06c0,.12-.07.19-.17.19h-1.02ZM1082.85,40.27c0-1.93-1.22-3.24-3-3.24s-3,1.31-3,3.24,1.22,3.25,3,3.25,3-1.31,3-3.25Z"/>
      <path class="st0" d="M1085.43,42.49c-.03-.1.02-.19.12-.22l.89-.24c.12-.04.19,0,.22.1.45,1.02,1.2,1.41,2.34,1.41,1,0,1.74-.38,1.74-1.19,0-.67-.52-1.03-1.7-1.36l-.52-.14c-1.91-.53-2.7-1.43-2.7-2.68,0-1.39,1.21-2.41,3.03-2.41,1.5,0,2.67.67,3.18,2.1.05.1,0,.19-.1.22l-.9.28c-.12.05-.19,0-.24-.1-.38-.83-1.03-1.26-1.96-1.26s-1.6.43-1.6,1.17c0,.67.48,1.03,1.79,1.38l.48.12c1.93.5,2.67,1.34,2.67,2.65,0,1.5-1.29,2.48-3.12,2.48s-3.08-.76-3.63-2.31h0Z"/>
      <path class="st0" d="M1094.07,41.57v-5.47c0-.1.07-.17.17-.17h1.02c.12,0,.19.07.19.17v4.89c0,1.67.65,2.53,2.08,2.53,1.22,0,2.67-.93,2.67-3v-4.42c0-.1.07-.17.19-.17h1.02c.1,0,.17.07.17.17v8.33c0,.12-.07.19-.17.19h-.89c-.1,0-.19-.05-.19-.19l-.05-1.39c-.64,1.17-1.91,1.76-3.1,1.76-1.94,0-3.1-1.22-3.1-3.22h-.01Z"/>
      <path class="st0" d="M1105.42,43.04l-.07,1.39c0,.14-.07.19-.19.19h-.88c-.12,0-.19-.07-.19-.19v-12.55c0-.1.07-.17.19-.17h1.02c.1,0,.17.07.17.17v5.52c.64-1.03,1.81-1.65,3.13-1.65,2.55,0,4.17,1.88,4.17,4.51s-1.62,4.53-4.17,4.53c-1.36,0-2.55-.67-3.18-1.76h0ZM1111.34,40.27c0-1.93-1.22-3.24-3-3.24s-3,1.31-3,3.24,1.22,3.25,3,3.25,3-1.31,3-3.25Z"/>
      <path class="st0" d="M1114.42,33.09c0-.52.4-.88.91-.88s.91.36.91.88-.4.88-.91.88-.91-.36-.91-.88ZM1114.83,44.62c-.12,0-.19-.07-.19-.19v-8.33c0-.1.07-.17.19-.17h1.02c.1,0,.17.07.17.17v8.33c0,.12-.07.19-.17.19h-1.02Z"/>
      <path class="st0" d="M1117.91,40.27c0-2.65,1.69-4.51,4.32-4.51,1.81,0,3.08.79,3.68,2.38.03.1,0,.19-.12.22l-.86.26c-.1.03-.17-.02-.22-.12-.45-.96-1.24-1.46-2.41-1.46-2.03,0-2.98,1.51-2.98,3.24s.96,3.25,2.98,3.25c1.2,0,2.01-.55,2.46-1.55.05-.1.12-.14.22-.1l.93.24c.12.03.15.12.1.22-.64,1.67-2,2.46-3.79,2.46-2.65,0-4.32-1.88-4.32-4.53h.01Z"/>
      <path class="st0" d="M1127.46,43.81c0-.57.43-.98,1-.98s1,.41,1,.98-.43.98-1,.98-1-.41-1-.98Z"/>
      <path class="st0" d="M1131.81,48.37c-.12,0-.19-.07-.19-.19v-12.08c0-.1.07-.17.19-.17h.88c.12,0,.19.05.19.17l.07,1.39c.64-1.07,1.82-1.74,3.18-1.74,2.55,0,4.17,1.88,4.17,4.51s-1.62,4.53-4.17,4.53c-1.33,0-2.5-.64-3.13-1.67v5.06c0,.12-.07.19-.17.19h-1.02ZM1138.87,40.27c0-1.93-1.22-3.24-3-3.24s-3,1.31-3,3.24,1.22,3.25,3,3.25,3-1.31,3-3.25Z"/>
      <path class="st0" d="M1141.45,42.49c-.04-.1.02-.19.12-.22l.89-.24c.12-.04.19,0,.22.1.45,1.02,1.21,1.41,2.34,1.41,1,0,1.74-.38,1.74-1.19,0-.67-.52-1.03-1.7-1.36l-.52-.14c-1.91-.53-2.7-1.43-2.7-2.68,0-1.39,1.21-2.41,3.03-2.41,1.5,0,2.67.67,3.18,2.1.05.1,0,.19-.1.22l-.9.28c-.12.05-.19,0-.24-.1-.38-.83-1.03-1.26-1.96-1.26s-1.6.43-1.6,1.17c0,.67.48,1.03,1.79,1.38l.48.12c1.93.5,2.67,1.34,2.67,2.65,0,1.5-1.29,2.48-3.12,2.48s-3.08-.76-3.63-2.31h0Z"/>
      <path class="st0" d="M1150.09,41.57v-5.47c0-.1.07-.17.17-.17h1.02c.12,0,.19.07.19.17v4.89c0,1.67.65,2.53,2.08,2.53,1.22,0,2.67-.93,2.67-3v-4.42c0-.1.07-.17.19-.17h1.02c.1,0,.17.07.17.17v8.33c0,.12-.07.19-.17.19h-.89c-.1,0-.19-.05-.19-.19l-.05-1.39c-.64,1.17-1.91,1.76-3.1,1.76-1.94,0-3.1-1.22-3.1-3.22h-.01Z"/>
      <path class="st0" d="M1159.38,42.49c-.04-.1.02-.19.12-.22l.89-.24c.12-.04.19,0,.22.1.45,1.02,1.21,1.41,2.34,1.41,1,0,1.74-.38,1.74-1.19,0-.67-.52-1.03-1.7-1.36l-.52-.14c-1.91-.53-2.7-1.43-2.7-2.68,0-1.39,1.21-2.41,3.03-2.41,1.5,0,2.67.67,3.18,2.1.05.1,0,.19-.1.22l-.9.28c-.12.05-.19,0-.24-.1-.38-.83-1.03-1.26-1.96-1.26s-1.6.43-1.6,1.17c0,.67.48,1.03,1.79,1.38l.48.12c1.93.5,2.67,1.34,2.67,2.65,0,1.5-1.29,2.48-3.12,2.48s-3.08-.76-3.63-2.31h0Z"/>
      <path class="st0" d="M1168.26,48.37c-.12,0-.19-.07-.19-.19v-12.08c0-.1.07-.17.19-.17h.88c.12,0,.19.05.19.17l.07,1.39c.64-1.07,1.82-1.74,3.18-1.74,2.55,0,4.17,1.88,4.17,4.51s-1.62,4.53-4.17,4.53c-1.33,0-2.5-.64-3.13-1.67v5.06c0,.12-.07.19-.17.19h-1.02ZM1175.32,40.27c0-1.93-1.22-3.24-3-3.24s-3,1.31-3,3.24,1.22,3.25,3,3.25,3-1.31,3-3.25Z"/>
      <path class="st0" d="M1178.28,40.73c0-4.51,3.06-7.45,7.61-7.45s7.37,2.86,7.37,7.16c0,2.53-1.22,4.35-3.01,4.35-1.08,0-1.83-.62-1.93-1.76-.53,1.07-1.67,1.76-2.93,1.76-2.25,0-3.79-1.65-3.79-4.04s1.53-4.04,3.79-4.04c1.22,0,2.31.64,2.86,1.62l.05-1.27c0-.14.07-.19.19-.19h.71c.1,0,.17.07.17.19v5.27c0,.93.33,1.34,1.03,1.34.98,0,1.64-1.38,1.64-3.22,0-3.94-2.48-6.04-6.14-6.04s-6.39,2.12-6.39,6.33,2.68,6.25,6.4,6.25c.64,0,1.19-.05,1.72-.16.14-.03.19.03.19.16v.74c0,.09-.04.17-.12.19-.57.14-1.21.19-1.96.19-4.6,0-7.45-2.99-7.45-7.37h0ZM1188.23,40.75c0-1.72-1.08-2.89-2.67-2.89s-2.67,1.17-2.67,2.89,1.08,2.88,2.67,2.88,2.67-1.15,2.67-2.88Z"/>
      <path class="st0" d="M1195.23,46.12c-.05-.12-.02-.19.1-.22l.83-.31c.1-.05.19,0,.24.09.46.98,1.27,1.6,2.74,1.6s2.94-.65,2.94-2.65v-1.48c-.64,1.02-1.81,1.65-3.13,1.65-2.53,0-4.15-1.88-4.15-4.53s1.62-4.51,4.15-4.51c1.38,0,2.58.67,3.2,1.74l.05-1.39c0-.12.09-.17.19-.17h.89c.1,0,.17.07.17.17v8.38c0,2.81-1.89,4.06-4.29,4.06-1.88,0-3.3-.84-3.94-2.43h.01ZM1202.2,40.27c0-1.93-1.22-3.24-3-3.24s-2.99,1.31-2.99,3.24,1.22,3.25,2.99,3.25,3-1.31,3-3.25Z"/>
      <path class="st0" d="M1206.16,44.62c-.12,0-.19-.07-.19-.19v-8.33c0-.1.07-.17.19-.17h.88c.12,0,.19.05.19.17l.07,1.43c.6-1.17,1.81-1.77,3-1.77,1.41,0,2.41.71,2.81,1.93.6-1.29,1.88-1.93,3.15-1.93,1.86,0,3.01,1.21,3.01,3.22v5.46c0,.12-.07.19-.17.19h-1.02c-.12,0-.19-.07-.19-.19v-4.89c0-1.67-.67-2.51-2-2.51-1.22,0-2.58.93-2.58,3v4.41c0,.12-.07.19-.17.19h-1.02c-.12,0-.19-.07-.19-.19v-4.89c0-1.67-.67-2.51-2-2.51-1.22,0-2.58.93-2.58,3v4.41c0,.12-.07.19-.17.19h-1.01v-.03Z"/>
      <path class="st0" d="M1221.09,40.27c0-2.63,1.62-4.51,4.15-4.51,1.38,0,2.58.67,3.2,1.74l.05-1.39c0-.12.09-.17.19-.17h.89c.1,0,.17.07.17.17v8.33c0,.12-.07.19-.17.19h-.89c-.1,0-.19-.05-.19-.19l-.05-1.39c-.62,1.08-1.82,1.76-3.2,1.76-2.53,0-4.15-1.88-4.15-4.53h0ZM1228.5,40.27c0-1.93-1.22-3.24-3-3.24s-3,1.31-3,3.24,1.22,3.25,3,3.25,3-1.31,3-3.25Z"/>
      <path class="st0" d="M1232.04,33.09c0-.52.4-.88.91-.88s.91.36.91.88-.4.88-.91.88-.91-.36-.91-.88ZM1232.45,44.62c-.12,0-.19-.07-.19-.19v-8.33c0-.1.07-.17.19-.17h1.02c.1,0,.17.07.17.17v8.33c0,.12-.07.19-.17.19h-1.02Z"/>
      <path class="st0" d="M1236.34,44.62c-.12,0-.19-.07-.19-.19v-12.55c0-.1.07-.17.19-.17h1.01c.1,0,.17.07.17.17v12.55c0,.12-.07.19-.17.19h-1.01Z"/>
      <path class="st0" d="M1239.7,43.81c0-.57.43-.98,1-.98s1,.41,1,.98-.43.98-1,.98-1-.41-1-.98Z"/>
      <path class="st0" d="M1243.07,40.27c0-2.65,1.69-4.51,4.32-4.51,1.81,0,3.08.79,3.68,2.38.03.1,0,.19-.12.22l-.86.26c-.1.03-.17-.02-.22-.12-.45-.96-1.24-1.46-2.41-1.46-2.03,0-2.98,1.51-2.98,3.24s.96,3.25,2.98,3.25c1.2,0,2.01-.55,2.46-1.55.05-.1.12-.14.22-.1l.93.24c.12.03.15.12.1.22-.64,1.67-2,2.46-3.79,2.46-2.65,0-4.32-1.88-4.32-4.53h.01Z"/>
      <path class="st0" d="M1252.35,40.27c0-2.62,1.74-4.51,4.41-4.51s4.42,1.89,4.42,4.51-1.76,4.53-4.42,4.53-4.41-1.91-4.41-4.53ZM1259.75,40.27c0-1.93-1.22-3.24-3-3.24s-3,1.31-3,3.24,1.22,3.25,3,3.25,3-1.31,3-3.25Z"/>
      <path class="st0" d="M1263.24,44.62c-.12,0-.19-.07-.19-.19v-8.33c0-.1.07-.17.19-.17h.88c.12,0,.19.05.19.17l.07,1.43c.6-1.17,1.81-1.77,3-1.77,1.41,0,2.41.71,2.8,1.93.6-1.29,1.88-1.93,3.15-1.93,1.86,0,3.01,1.21,3.01,3.22v5.46c0,.12-.07.19-.17.19h-1.02c-.12,0-.19-.07-.19-.19v-4.89c0-1.67-.67-2.51-2-2.51-1.22,0-2.58.93-2.58,3v4.41c0,.12-.07.19-.17.19h-1.02c-.12,0-.19-.07-.19-.19v-4.89c0-1.67-.67-2.51-2-2.51-1.22,0-2.58.93-2.58,3v4.41c0,.12-.07.19-.17.19h-1.02v-.03Z"/>
    </g>
  </g>
</svg>