<?xml version="1.0" encoding="iso-8859-1"?>
<!-- Uploaded to: SVG Repo, www.svgrepo.com, Generator: SVG Repo Mixer Tools -->
<svg fill="#000000" height="800px" width="800px" version="1.1" id="Layer_1" xmlns="http://www.w3.org/2000/svg" xmlns:xlink="http://www.w3.org/1999/xlink" 
	 viewBox="0 0 512 512" xml:space="preserve">
<g>
	<g>
		<path d="M497.168,324.452L426.943,256l70.225-68.452c2.779-2.71,3.78-6.763,2.58-10.455c-1.201-3.692-4.391-6.384-8.234-6.942
			l-97.557-14.176l16.746-97.636c0.656-3.827-0.918-7.693-4.058-9.976c-3.141-2.282-7.306-2.582-10.741-0.776l-87.4,45.949
			L265.147,5.685C263.428,2.204,259.883,0,256,0c-3.883,0-7.428,2.204-9.147,5.686l-43.357,87.852l-87.4-45.949
			c-3.435-1.806-7.599-1.506-10.741,0.776s-4.715,6.15-4.058,9.976l16.745,97.635l-97.557,14.176
			c-3.842,0.559-7.033,3.25-8.234,6.942c-1.199,3.692-0.2,7.745,2.58,10.455L85.057,256l-70.225,68.452
			c-2.779,2.71-3.78,6.763-2.58,10.455c1.2,3.692,4.391,6.384,8.234,6.942l97.557,14.176l-16.746,97.636
			c-0.656,3.827,0.918,7.693,4.058,9.976c3.14,2.282,7.306,2.582,10.741,0.776l87.4-45.949l43.357,87.852
			c1.719,3.481,5.264,5.685,9.147,5.685c3.883,0,7.428-2.204,9.148-5.685l43.357-87.852l87.4,45.949
			c3.435,1.806,7.599,1.505,10.741-0.776c3.141-2.283,4.715-6.15,4.058-9.976l-16.746-97.636l97.557-14.176
			c3.842-0.559,7.033-3.25,8.234-6.942C500.948,331.215,499.949,327.162,497.168,324.452z M380.668,337.343
			c-2.722,0.396-5.168,1.874-6.784,4.098c-1.617,2.224-2.266,5.008-1.802,7.719l15.022,87.58l-78.37-41.201
			c-2.436-1.281-5.283-1.522-7.897-0.673c-2.616,0.851-4.778,2.72-5.995,5.186L256,478.755l-38.842-78.702
			c-1.217-2.466-3.38-4.337-5.995-5.186c-1.028-0.334-2.091-0.499-3.152-0.499c-1.637,0-3.268,0.394-4.746,1.171l-78.37,41.201
			l15.022-87.58c0.464-2.71-0.186-5.493-1.802-7.719s-4.062-3.702-6.784-4.098L43.87,324.635l62.919-61.331
			c1.969-1.919,3.08-4.553,3.08-7.304s-1.111-5.384-3.08-7.304L43.87,187.365l87.462-12.708c2.722-0.396,5.168-1.874,6.784-4.098
			c1.617-2.224,2.266-5.008,1.802-7.719l-15.022-87.58l78.37,41.201c2.436,1.281,5.284,1.523,7.897,0.673
			c2.616-0.851,4.778-2.72,5.995-5.186L256,33.245l38.842,78.703c1.217,2.466,3.38,4.337,5.995,5.186
			c2.614,0.849,5.462,0.608,7.897-0.673l78.37-41.201l-15.022,87.58c-0.464,2.71,0.186,5.493,1.802,7.719s4.062,3.702,6.784,4.098
			l87.462,12.708l-62.919,61.331c-1.969,1.919-3.08,4.553-3.08,7.304s1.111,5.384,3.08,7.304l62.919,61.331L380.668,337.343z"/>
	</g>
</g>
<g>
	<g>
		<path d="M362.161,351.169l-0.236-1.377c-0.953-5.551-6.217-9.284-11.777-8.329c-5.551,0.952-9.281,6.225-8.329,11.776l0.236,1.377
			c0.853,4.969,5.165,8.477,10.041,8.477c0.571,0,1.152-0.048,1.736-0.148C359.384,361.993,363.114,356.72,362.161,351.169z"/>
	</g>
</g>
<g>
	<g>
		<path d="M370.557,400.125l-4.023-23.458c-0.954-5.551-6.214-9.284-11.777-8.329c-5.551,0.952-9.281,6.225-8.329,11.776
			l4.023,23.458c0.853,4.969,5.165,8.477,10.041,8.477c0.572,0,1.153-0.048,1.736-0.148
			C367.78,410.949,371.51,405.676,370.557,400.125z"/>
	</g>
</g>
</svg>